<svg xmlns="http://www.w3.org/2000/svg" width="100" height="100" viewBox="0 0 100 100">
  <g id="t2-i5" transform="translate(-810 -793)">
    <path id="Rectangle_31276" data-name="Rectangle 31276" d="M0,0H70a30,30,0,0,1,30,30v70a0,0,0,0,1,0,0H30A30,30,0,0,1,0,70V0A0,0,0,0,1,0,0Z" transform="translate(810 793)" fill="#ffdcac"/>
    <g id="file" transform="translate(788.999 813)">
      <path id="Path_134945" data-name="Path 134945" d="M175.022,190.006H152.17a1.172,1.172,0,1,0,0,2.344h22.852a1.172,1.172,0,1,0,0-2.344Z" transform="translate(-92.693 -167.74)" fill="#12263f"/>
      <path id="Path_134946" data-name="Path 134946" d="M135.3,235.008H107.173a1.172,1.172,0,1,0,0,2.344H135.3a1.172,1.172,0,0,0,0-2.344Z" transform="translate(-52.969 -207.468)" fill="#12263f"/>
      <path id="Path_134947" data-name="Path 134947" d="M107.173,147.349H135.3a1.172,1.172,0,0,0,0-2.344H107.173a1.172,1.172,0,0,0,0,2.344Z" transform="translate(-52.969 -128.012)" fill="#12263f"/>
      <path id="Path_134948" data-name="Path 134948" d="M118.891,280.009H107.172a1.172,1.172,0,0,0,0,2.344h11.719a1.172,1.172,0,0,0,0-2.344Z" transform="translate(-52.968 -247.196)" fill="#12263f"/>
      <path id="Path_134949" data-name="Path 134949" d="M114.2,325.011h-7.031a1.172,1.172,0,0,0,0,2.344H114.2a1.172,1.172,0,1,0,0-2.344Z" transform="translate(-52.969 -286.924)" fill="#12263f"/>
      <path id="Path_134950" data-name="Path 134950" d="M107.17,192.35a1.172,1.172,0,1,0,0-2.344h0a1.172,1.172,0,0,0,0,2.344Z" transform="translate(-52.966 -167.74)" fill="#12263f"/>
      <path id="Path_134951" data-name="Path 134951" d="M298.894,345.337a3.493,3.493,0,0,0-2.486,1.03l-3.764,3.764-.639-.639a3.515,3.515,0,0,0-4.971,4.971l3.125,3.125a3.52,3.52,0,0,0,4.971,0l6.25-6.25a3.515,3.515,0,0,0-2.486-6Zm.828,4.344-6.25,6.25a1.173,1.173,0,0,1-1.657,0l-3.125-3.125a1.172,1.172,0,0,1,1.657-1.657l1.468,1.468a1.172,1.172,0,0,0,1.657,0l4.593-4.593a1.172,1.172,0,0,1,1.657,1.657Z" transform="translate(-211.878 -304.868)" fill="#12263f"/>
      <path id="Path_134952" data-name="Path 134952" d="M91.7,34.219H90.532V2.344A2.346,2.346,0,0,0,88.188,0h-29.3a1.172,1.172,0,0,0-.829.343L46.344,12.062a1.172,1.172,0,0,0-.343.829V52.969a2.346,2.346,0,0,0,2.344,2.344H69.439v1.172A3.52,3.52,0,0,0,72.954,60H91.7a3.52,3.52,0,0,0,3.516-3.516V37.734A3.52,3.52,0,0,0,91.7,34.219ZM57.72,4v7.718H50ZM48.345,52.969V14.063H57.72a2.346,2.346,0,0,0,2.344-2.344V2.344H88.188V34.219H72.954a3.52,3.52,0,0,0-3.516,3.516V52.969Zm44.531,3.516A1.173,1.173,0,0,1,91.7,57.656H72.954a1.173,1.173,0,0,1-1.172-1.172V37.735a1.173,1.173,0,0,1,1.172-1.172H91.7a1.173,1.173,0,0,1,1.172,1.172Z" fill="#12263f"/>
    </g>
  </g>
</svg>
