<svg xmlns="http://www.w3.org/2000/svg" width="190" height="118" viewBox="0 0 190 118">
  <g id="t2-i6" transform="translate(-180 -1688)">
    <rect id="Rectangle_6951" data-name="Rectangle 6951" width="190" height="118" rx="10" transform="translate(180 1688)" fill="#e1daf5"/>
    <rect id="Rectangle_6941" data-name="Rectangle 6941" width="11" height="118" transform="translate(359 1688)" fill="#c3b5ec"/>
    <g id="_003-delivery_van" data-name="003-delivery van" transform="translate(220.039 1633.626)">
      <g id="Group_55823" data-name="Group 55823" transform="translate(0 77.374)">
        <path id="Path_27228" data-name="Path 27228" d="M399.323,368.09a4.237,4.237,0,1,0,4.237,4.237A4.242,4.242,0,0,0,399.323,368.09Zm0,5.414a1.177,1.177,0,1,1,1.177-1.177A1.178,1.178,0,0,1,399.323,373.5Z" transform="translate(-314.479 -308.777)" fill="#12263f"/>
        <path id="Path_27229" data-name="Path 27229" d="M198.737,376.564a4.237,4.237,0,1,0-4.237-4.237A4.242,4.242,0,0,0,198.737,376.564Zm0-5.414a1.177,1.177,0,1,1-1.177,1.177A1.178,1.178,0,0,1,198.737,371.15Z" transform="translate(-154.817 -308.777)" fill="#12263f"/>
        <path id="Path_27230" data-name="Path 27230" d="M94.226,376.564a4.237,4.237,0,1,0-4.237-4.237A4.242,4.242,0,0,0,94.226,376.564Zm0-5.414a1.177,1.177,0,1,1-1.177,1.177A1.178,1.178,0,0,1,94.226,371.15Z" transform="translate(-71.629 -308.777)" fill="#12263f"/>
        <path id="Path_27231" data-name="Path 27231" d="M120.862,195.232h22.874a2.145,2.145,0,0,0,2.142-2.142v-4.08a2.145,2.145,0,0,0-2.142-2.142H120.862a2.145,2.145,0,0,0-2.142,2.142v4.08A2.145,2.145,0,0,0,120.862,195.232Zm.918-5.3h21.038v2.244H121.78Z" transform="translate(-94.498 -164.528)" fill="#12263f"/>
        <path id="Path_27232" data-name="Path 27232" d="M416.025,194.122a2.543,2.543,0,0,0-2.261-1.37h-7.326a1.941,1.941,0,0,0-1.938,1.938v7.934a3.575,3.575,0,0,0,3.57,3.57h11.058a1.938,1.938,0,0,0,1.718-2.835Zm-7.955,9.012a.511.511,0,0,1-.51-.51v-6.812h5.895l3.822,7.322Z" transform="translate(-321.972 -169.212)" fill="#12263f"/>
        <path id="Path_27233" data-name="Path 27233" d="M103.708,109.758,98.289,99.376a6.61,6.61,0,0,0-5.878-3.562H75.6V79.924a2.553,2.553,0,0,0-2.55-2.55H2.55A2.553,2.553,0,0,0,0,79.924v47.943a2.553,2.553,0,0,0,2.55,2.55H4.643l2.805,6.258a3.575,3.575,0,0,0,3.258,2.11h2.8a9.337,9.337,0,1,0,18.215,4.1h3.067a9.337,9.337,0,0,0,18.256,0h3.875a1.53,1.53,0,1,0,0-3.06H53.191a9.336,9.336,0,0,0-18.543,0h-2.78a9.33,9.33,0,0,0-13.608-7.171v-2.241H101.4v8.9a.511.511,0,0,1-.51.51H94.116a9.336,9.336,0,0,0-18.543,0H64.064a1.53,1.53,0,0,0,0,3.06H75.716a9.337,9.337,0,0,0,18.255,0h6.918a3.575,3.575,0,0,0,3.57-3.57V112.826A6.655,6.655,0,0,0,103.708,109.758ZM43.92,134.647a6.277,6.277,0,1,1-6.277,6.277A6.285,6.285,0,0,1,43.92,134.647Zm-21.323,0a6.277,6.277,0,1,1-6.277,6.277,6.285,6.285,0,0,1,6.277-6.277Zm-7.4.589c-.123.16-.242.322-.355.489H10.706a.511.511,0,0,1-.465-.3L8,130.417h7.2Zm57.342-7.878H3.06v-4.9H72.542Zm0-42.026H22.035a1.53,1.53,0,1,0,0,3.06H72.542V119.4H3.06V88.391H14.894a1.53,1.53,0,1,0,0-3.06H3.06v-4.9H72.542Zm12.3,61.871a6.277,6.277,0,1,1,6.278-6.277A6.285,6.285,0,0,1,84.844,147.2ZM75.6,98.874h2.437v7.064H75.6Zm25.8,28.483H81.1v-3.746a1.53,1.53,0,0,0-3.06,0v3.746H75.6V109h2.437v7.473a1.53,1.53,0,0,0,3.06,0v-17.6H92.41a3.56,3.56,0,0,1,3.165,1.918l5.419,10.382a3.584,3.584,0,0,1,.405,1.652Z" transform="translate(0 -77.374)" fill="#12263f"/>
        <path id="Path_27234" data-name="Path 27234" d="M406.03,266.374a1.53,1.53,0,0,0-1.53,1.53V272.6a1.53,1.53,0,1,0,3.06,0V267.9A1.53,1.53,0,0,0,406.03,266.374Z" transform="translate(-321.972 -227.813)" fill="#12263f"/>
      </g>
    </g>
  </g>
</svg>
