<svg xmlns="http://www.w3.org/2000/svg" width="190" height="118" viewBox="0 0 190 118">
  <g id="t2-i10" transform="translate(-180 -5130)">
    <rect id="Rectangle_31351" data-name="Rectangle 31351" width="190" height="118" rx="10" transform="translate(180 5130)" fill="#e1daf5"/>
    <rect id="Rectangle_31352" data-name="Rectangle 31352" width="11" height="118" transform="translate(359 5130)" fill="#c3b5ec"/>
    <g id="warehouse" transform="translate(231 5145.973)">
      <path id="Path_136058" data-name="Path 136058" d="M85.411,72.269H84.094V14.644a2.35,2.35,0,0,0,2.187-2.175V9.232a2.423,2.423,0,0,0-2.589-2.2H21.226a1.205,1.205,0,0,0-1.289,1.1,1.205,1.205,0,0,0,1.289,1.1L83.7,9.232l-.01,3.247L4.3,12.469l.01-3.247H16.07a1.205,1.205,0,0,0,1.289-1.1,1.205,1.205,0,0,0-1.289-1.1H4.307a2.423,2.423,0,0,0-2.589,2.2v3.238a2.35,2.35,0,0,0,2.187,2.175V72.269H2.589A2.423,2.423,0,0,0,0,74.473v4.051a1.529,1.529,0,0,0,1.634,1.391H86.366A1.529,1.529,0,0,0,88,78.524V74.473A2.423,2.423,0,0,0,85.411,72.269ZM6.484,14.674H81.516V72.268H77.558V22.733a3.619,3.619,0,0,0-3.867-3.293H14.309a3.619,3.619,0,0,0-3.867,3.293V47.1a1.205,1.205,0,0,0,1.289,1.1,1.205,1.205,0,0,0,1.289-1.1V32.382H74.98V72.268H67.218V58.7a3.619,3.619,0,0,0-3.867-3.293h-7.1V41.83a3.619,3.619,0,0,0-3.867-3.293H35.614a3.619,3.619,0,0,0-3.867,3.293V55.4h-7.1a3.619,3.619,0,0,0-3.867,3.293V72.268H13.02V51.491a1.205,1.205,0,0,0-1.289-1.1,1.205,1.205,0,0,0-1.289,1.1V72.268H6.484ZM13.02,27.008H31.563a1.112,1.112,0,1,0,0-2.2H13.02v-2.08a1.206,1.206,0,0,1,1.289-1.1H73.691a1.207,1.207,0,0,1,1.289,1.1v2.08H63.813a1.112,1.112,0,1,0,0,2.2H74.98v3.178H13.02ZM46.263,40.733v1.851a1.206,1.206,0,0,1-1.289,1.1H43.026a1.206,1.206,0,0,1-1.289-1.1V40.733Zm-3.237,5.145h1.948a3.619,3.619,0,0,0,3.867-3.293V40.733h3.544a1.207,1.207,0,0,1,1.289,1.1V55.4H34.325V41.83a1.206,1.206,0,0,1,1.289-1.1h3.544v1.851a3.619,3.619,0,0,0,3.867,3.293ZM63.351,57.6a1.206,1.206,0,0,1,1.289,1.1V72.269H45.29V57.6h5.075v1.852a3.619,3.619,0,0,0,3.867,3.293H56.18a3.619,3.619,0,0,0,3.867-3.293V57.6Zm-5.881,1.852a1.206,1.206,0,0,1-1.289,1.1H54.232a1.206,1.206,0,0,1-1.289-1.1V57.6h4.527ZM33.036,57.6h3.219v1.858a1.206,1.206,0,0,1-1.289,1.1H33.018a1.206,1.206,0,0,1-1.289-1.1V57.6Zm-.018,5.151h1.948a3.619,3.619,0,0,0,3.867-3.293V57.6H42.71V72.262H23.36V58.693a1.206,1.206,0,0,1,1.289-1.1h4.5v1.858a3.619,3.619,0,0,0,3.867,3.294Zm52.4,14.973H2.58l.008-3.255,82.833.009Z" transform="translate(0)" fill="#12263f"/>
      <path id="Path_136059" data-name="Path 136059" d="M232.728,128.533H213.061a1.112,1.112,0,1,0,0,2.2h19.667a1.112,1.112,0,1,0,0-2.2Z" transform="translate(-175.374 -103.72)" fill="#12263f"/>
    </g>
  </g>
</svg>
