<svg xmlns="http://www.w3.org/2000/svg" width="100" height="100" viewBox="0 0 100 100">
  <g id="t2-tab1" transform="translate(-810 -2697)">
    <path id="Rectangle_31160" data-name="Rectangle 31160" d="M0,0H70a30,30,0,0,1,30,30v70a0,0,0,0,1,0,0H30A30,30,0,0,1,0,70V0A0,0,0,0,1,0,0Z" transform="translate(810 2697)" fill="#ffba5b"/>
    <g id="contrato_1_" data-name="contrato (1)" transform="translate(830 2717)">
      <path id="Path_134977" data-name="Path 134977" d="M227.967,98.242a3,3,0,0,0-5.5-.72l-.5.87a1,1,0,0,0-1.36.36l-2.54,4.33-.87-.5a1,1,0,1,0-1,1.73l.87.5-8.5,14.73-2.1,5.61-1,1.87a3,3,0,0,0,.16,3.24l-2.25,2.76-.63-1.58a2,2,0,0,0-3.57-.28l-.36.61-.34-4a2,2,0,0,0-3.89-.47l-2.46,7.38a1,1,0,0,0,.63,1.26.866.866,0,0,0,.31.08,1,1,0,0,0,.95-.68l2.45-7.38.35,4.06a2,2,0,0,0,3.71.86l.37-.61.62,1.57a2,2,0,0,0,3.42.51l2.33-2.95a3.08,3.08,0,0,0,.79.1,3,3,0,0,0,2.61-1.48l1-1.67,3.81-4.63,8.59-14.91.87.5a1,1,0,0,1,.37,1.37l-4,6.93a.993.993,0,1,0,1.69,1.04l4-6.93a3,3,0,0,0-1.1-4.1l-.87-.5,2.5-4.33a1,1,0,0,0-.36-1.36l.5-.87a3,3,0,0,0,.3-2.32Zm-3.77.28a1,1,0,0,1,.61-.47,1.05,1.05,0,0,1,.76.1,1,1,0,0,1,.47.61,1.05,1.05,0,0,1-.1.76l-.5.87-1.74-1Zm-13.63,27.92-.5-.29-1.48-.86,1.42-3.8,3.15,1.82Zm-3,2.89a1,1,0,0,1-.3-1.31l.5-.87,1.74,1-.5.86a1,1,0,0,1-1.44.32Zm6.73-7.66-3.46-2,8-13.86,3.46,2Zm9-15.59-3.46-2,2-3.46,3.46,2Zm0,0" transform="translate(-168.067 -84.022)" fill="#12263f"/>
      <path id="Path_134977_-_Outline" data-name="Path 134977 - Outline" d="M193.07,136.4h-.027a1.235,1.235,0,0,1-.425-.105,1.379,1.379,0,0,1-.847-1.726l2.46-7.381a2.375,2.375,0,0,1,4.62.557l.246,2.9a2.388,2.388,0,0,1,1.795-.821c.062,0,.125,0,.187.007a2.361,2.361,0,0,1,2.017,1.479l.394.989,1.674-2.054a3.385,3.385,0,0,1-.025-3.4l.986-1.843,2.091-5.587a.374.374,0,0,1,.026-.056l8.312-14.4-.544-.313a1.374,1.374,0,1,1,1.375-2.38l.547.314,2.352-4.009a1.374,1.374,0,0,1,1.519-.637l.339-.59a3.374,3.374,0,0,1,4.613-1.237,3.407,3.407,0,0,1,1.236,4.654l-.339.591a1.381,1.381,0,0,1,.2,1.637l-2.313,4.005.544.313a3.354,3.354,0,0,1,1.575,2.048,3.4,3.4,0,0,1-.337,2.565l-4,6.93a1.368,1.368,0,0,1-.835.645,1.368,1.368,0,0,1-1.5-2.069l3.995-6.921a.628.628,0,0,0-.232-.857l-.546-.314-8.4,14.586a.375.375,0,0,1-.035.051l-3.792,4.608-.986,1.646a3.386,3.386,0,0,1-2.908,1.663h-.035a3.454,3.454,0,0,1-.63-.058l-2.184,2.765a2.375,2.375,0,0,1-4.063-.6l-.343-.868a2.375,2.375,0,0,1-4.383-1.059l-.194-2.246-1.877,5.653A1.374,1.374,0,0,1,193.07,136.4Zm3.412-10.086a1.623,1.623,0,0,0-1.54,1.11l-2.46,7.379a.626.626,0,0,0,.394.786l.038.015a.491.491,0,0,0,.165.045.624.624,0,0,0,.582-.425l2.449-7.378a.375.375,0,0,1,.73.086l.35,4.06a1.625,1.625,0,0,0,3.014.7l.371-.612a.375.375,0,0,1,.669.057l.62,1.57a1.625,1.625,0,0,0,2.778.413l2.329-2.948a.375.375,0,0,1,.389-.13,2.707,2.707,0,0,0,.684.088h.035a2.635,2.635,0,0,0,2.263-1.3l1-1.673a.376.376,0,0,1,.032-.046l3.79-4.606,8.574-14.883a.375.375,0,0,1,.512-.138l.87.5a1.365,1.365,0,0,1,.645.839,1.382,1.382,0,0,1-.137,1.044l-4,6.93-.012.02a.618.618,0,1,0,1.052.647l4-6.932a2.641,2.641,0,0,0,.262-1.995,2.609,2.609,0,0,0-1.225-1.593l-.87-.5a.375.375,0,0,1-.138-.513l2.5-4.33a.627.627,0,0,0-.226-.849.375.375,0,0,1-.135-.51l.5-.87a2.64,2.64,0,0,0-2.958-3.891,2.609,2.609,0,0,0-1.593,1.225l-.5.87a.375.375,0,0,1-.512.138.624.624,0,0,0-.85.225l-2.54,4.329a.375.375,0,0,1-.51.135l-.87-.5a.631.631,0,0,0-.477-.063.624.624,0,0,0-.149,1.143l.87.5a.375.375,0,0,1,.138.513l-8.484,14.7-2.089,5.581a.375.375,0,0,1-.021.045l-1,1.87-.006.01a2.632,2.632,0,0,0,.14,2.835.375.375,0,0,1-.014.455l-2.25,2.76a.375.375,0,0,1-.639-.1l-.63-1.58a1.615,1.615,0,0,0-1.379-1.011,1.635,1.635,0,0,0-1.521.784l-.359.608a.375.375,0,0,1-.7-.159l-.34-4a1.626,1.626,0,0,0-1.621-1.493Zm11.658,3.577a1.377,1.377,0,0,1-1.2-2.05l.5-.873a.375.375,0,0,1,.512-.138l1.74,1a.375.375,0,0,1,.137.514l-.5.86a1.374,1.374,0,0,1-1.19.687Zm-.235-2.224-.313.545a.622.622,0,0,0,.189.816.625.625,0,0,0,.9-.2l.311-.535Zm2.661-.847a.374.374,0,0,1-.188-.051l-1.98-1.151a.375.375,0,0,1-.163-.455l1.42-3.8a.375.375,0,0,1,.539-.193l3.15,1.82a.375.375,0,0,1,.1.564l-2.59,3.13A.375.375,0,0,1,210.567,126.817Zm-1.518-1.691,1.431.832,2.1-2.544-2.382-1.376Zm5.248-3.079a.375.375,0,0,1-.188-.05l-3.46-2a.375.375,0,0,1-.137-.512l8-13.86a.375.375,0,0,1,.512-.137l3.46,2a.375.375,0,0,1,.137.512l-8,13.86a.375.375,0,0,1-.325.188Zm-2.948-2.512,2.811,1.625,7.625-13.211-2.811-1.625ZM223.3,106.457a.373.373,0,0,1-.187-.05l-3.46-2a.375.375,0,0,1-.137-.512l2-3.46a.375.375,0,0,1,.512-.137l3.46,2a.375.375,0,0,1,.137.512l-2,3.46A.375.375,0,0,1,223.3,106.457Zm-2.947-2.512,2.811,1.625,1.625-2.811-2.811-1.625Zm5.087-3.178a.373.373,0,0,1-.186-.05l-1.74-1a.375.375,0,0,1-.138-.512l.5-.87a1.383,1.383,0,0,1,.839-.645l.007,0a1.438,1.438,0,0,1,1.031.136l0,0a1.385,1.385,0,0,1,.646.838l0,.007a1.421,1.421,0,0,1-.136,1.031l0,.005-.5.87A.375.375,0,0,1,225.437,100.767Zm-1.228-1.513,1.09.626.311-.542a.673.673,0,0,0,.064-.482.63.63,0,0,0-.291-.377.681.681,0,0,0-.483-.064.629.629,0,0,0-.378.293Z" transform="translate(-168.067 -84.022)" fill="#12263f"/>
      <path id="Path_134978" data-name="Path 134978" d="M74.678,356.837l-3.54,3.53-2.12-2.12a1,1,0,1,0-1.41,1.42l2.12,2.12a2.016,2.016,0,0,0,2.83,0l3.53-3.54a1,1,0,0,0-1.41-1.41Zm0,0" transform="translate(-58.898 -312.027)" fill="#12263f"/>
      <path id="Path_134978_-_Outline" data-name="Path 134978 - Outline" d="M71.149,362.742h-.013a2.36,2.36,0,0,1-1.672-.689l-2.121-2.121a1.381,1.381,0,0,1-.406-.975,1.376,1.376,0,0,1,2.345-.976l1.856,1.856,3.274-3.266.021-.019a1.375,1.375,0,0,1,1.939,1.939l-.019.021-3.53,3.54A2.362,2.362,0,0,1,71.149,362.742Zm-2.836-4.411a.627.627,0,0,0-.626.626.628.628,0,0,0,.185.443l2.121,2.121a1.614,1.614,0,0,0,1.143.47h.013a1.615,1.615,0,0,0,1.145-.471l3.517-3.527a.628.628,0,0,0-.041-.839.625.625,0,0,0-.839-.041L71.4,360.633a.375.375,0,0,1-.53,0l-2.12-2.12A.621.621,0,0,0,68.313,358.331Z" transform="translate(-58.898 -312.027)" fill="#12263f"/>
      <path id="Path_134979" data-name="Path 134979" d="M32,320.541a8.5,8.5,0,0,0,17,0,1,1,0,1,0-2,0,6.5,6.5,0,1,1-2.6-5.2,1,1,0,0,0,1.2-1.6,8.5,8.5,0,0,0-13.6,6.8Zm0,0" transform="translate(-28 -273.041)" fill="#12263f"/>
      <path id="Path_134979_-_Outline" data-name="Path 134979 - Outline" d="M40.5,329.416a8.875,8.875,0,1,1,5.325-15.975,1.375,1.375,0,1,1-1.65,2.2,6.106,6.106,0,0,0-3.657-1.225H40.5a6.125,6.125,0,1,0,6.124,6.125,1.375,1.375,0,1,1,2.75,0A8.885,8.885,0,0,1,40.5,329.416Zm0-17a8.165,8.165,0,0,0-3.632.858,8.125,8.125,0,1,0,11.759,7.267.625.625,0,1,0-1.25,0,6.875,6.875,0,1,1-6.875-6.875h.018a6.86,6.86,0,0,1,4.108,1.376.624.624,0,0,0,.874-.126.626.626,0,0,0-.125-.875A8.178,8.178,0,0,0,40.5,312.416Z" transform="translate(-28 -273.041)" fill="#12263f"/>
      <path id="Path_134980" data-name="Path 134980" d="M99,50.039a1,1,0,0,0,0-2H73a1,1,0,0,0-1,1v4a1,1,0,0,0,1,1H99a1,1,0,0,0,0-2H74v-2Zm0,0" transform="translate(-63 -42.039)" fill="#12263f"/>
      <path id="Path_134980_-_Outline" data-name="Path 134980 - Outline" d="M99,54.414H73a1.377,1.377,0,0,1-1.375-1.375v-4A1.377,1.377,0,0,1,73,47.664H99a1.375,1.375,0,0,1,0,2.75H74.375v1.25H99a1.375,1.375,0,0,1,0,2.75Zm-26-6a.626.626,0,0,0-.625.625v4a.626.626,0,0,0,.625.625H99a.625.625,0,0,0,0-1.25H74a.375.375,0,0,1-.375-.375v-2A.375.375,0,0,1,74,49.664H99a.625.625,0,0,0,0-1.25Z" transform="translate(-63 -42.039)" fill="#12263f"/>
      <path id="Path_134981" data-name="Path 134981" d="M97,112.039a1,1,0,0,0,0,2h20a1,1,0,0,0,0-2Zm0,0" transform="translate(-84 -98.039)" fill="#12263f"/>
      <path id="Path_134981_-_Outline" data-name="Path 134981 - Outline" d="M117,114.414H97a1.375,1.375,0,0,1,0-2.75h20a1.375,1.375,0,0,1,0,2.75Zm-20-2a.625.625,0,0,0,0,1.25h20a.625.625,0,0,0,0-1.25Z" transform="translate(-84 -98.039)" fill="#12263f"/>
      <path id="Path_134982" data-name="Path 134982" d="M151,168.039H129a1,1,0,0,0,0,2h22a1,1,0,0,0,0-2Zm0,0" transform="translate(-112 -147.039)" fill="#12263f"/>
      <path id="Path_134982_-_Outline" data-name="Path 134982 - Outline" d="M151,170.414H129a1.375,1.375,0,0,1,0-2.75h22a1.375,1.375,0,0,1,0,2.75Zm-22-2a.625.625,0,0,0,0,1.25h22a.625.625,0,0,0,0-1.25Z" transform="translate(-112 -147.039)" fill="#12263f"/>
      <path id="Path_134983" data-name="Path 134983" d="M78,217.039a1,1,0,0,0-1-1H57a1,1,0,0,0,0,2H77A1,1,0,0,0,78,217.039Zm0,0" transform="translate(-49 -189.039)" fill="#12263f"/>
      <path id="Path_134983_-_Outline" data-name="Path 134983 - Outline" d="M77,218.414H57a1.375,1.375,0,0,1,0-2.75H77a1.375,1.375,0,0,1,0,2.75Zm-20-2a.625.625,0,0,0,0,1.25H77a.625.625,0,0,0,0-1.25Z" transform="translate(-49 -189.039)" fill="#12263f"/>
      <path id="Path_134984" data-name="Path 134984" d="M256,216.039h-7a1,1,0,0,0,0,2h7a1,1,0,0,0,0-2Zm0,0" transform="translate(-217 -189.039)" fill="#12263f"/>
      <path id="Path_134984_-_Outline" data-name="Path 134984 - Outline" d="M256,218.414h-7a1.375,1.375,0,0,1,0-2.75h7a1.375,1.375,0,0,1,0,2.75Zm-7-2a.625.625,0,0,0,0,1.25h7a.625.625,0,0,0,0-1.25Z" transform="translate(-217 -189.039)" fill="#12263f"/>
      <path id="Path_134985" data-name="Path 134985" d="M67,258.039a1,1,0,0,0,0-2H57a1,1,0,0,0,0,2Zm0,0" transform="translate(-49 -224.039)" fill="#12263f"/>
      <path id="Path_134985_-_Outline" data-name="Path 134985 - Outline" d="M67,258.414H57a1.375,1.375,0,0,1,0-2.75H67a1.375,1.375,0,0,1,0,2.75Zm-10-2a.625.625,0,0,0,0,1.25H67a.625.625,0,0,0,0-1.25Z" transform="translate(-49 -224.039)" fill="#12263f"/>
      <path id="Path_134986" data-name="Path 134986" d="M169,258.039h7a1,1,0,0,0,0-2h-7a1,1,0,0,0,0,2Zm0,0" transform="translate(-147 -224.039)" fill="#12263f"/>
      <path id="Path_134986_-_Outline" data-name="Path 134986 - Outline" d="M176,258.414h-7a1.375,1.375,0,0,1,0-2.75h7a1.375,1.375,0,0,1,0,2.75Zm-7-2a.625.625,0,0,0,0,1.25h7a.625.625,0,0,0,0-1.25Z" transform="translate(-147 -224.039)" fill="#12263f"/>
      <path id="Path_134987" data-name="Path 134987" d="M45,46.039a1,1,0,0,0-1,1v10a1,1,0,0,1-1,1H3a1,1,0,0,1-1-1v-54a1,1,0,0,1,1-1H43a1,1,0,0,1,1,1v18.78a1,1,0,0,0,2,0V3.039a3,3,0,0,0-3-3H3a3,3,0,0,0-3,3v54a3,3,0,0,0,3,3H43a3,3,0,0,0,3-3v-10A1,1,0,0,0,45,46.039Zm0,0" transform="translate(0 -0.039)" fill="#12263f"/>
      <path id="Path_134987_-_Outline" data-name="Path 134987 - Outline" d="M43,60.414H3A3.379,3.379,0,0,1-.375,57.039v-54A3.379,3.379,0,0,1,3-.336H43a3.379,3.379,0,0,1,3.375,3.375v18.78a1.375,1.375,0,0,1-2.75,0V3.039A.626.626,0,0,0,43,2.414H3a.626.626,0,0,0-.625.625v54A.626.626,0,0,0,3,57.664H43a.626.626,0,0,0,.625-.625v-10a1.375,1.375,0,0,1,2.75,0v10A3.379,3.379,0,0,1,43,60.414ZM3,.414A2.628,2.628,0,0,0,.375,3.039v54A2.628,2.628,0,0,0,3,59.664H43a2.628,2.628,0,0,0,2.625-2.625v-10a.625.625,0,0,0-1.25,0v10A1.377,1.377,0,0,1,43,58.414H3a1.377,1.377,0,0,1-1.375-1.375v-54A1.377,1.377,0,0,1,3,1.664H43a1.377,1.377,0,0,1,1.375,1.375v18.78a.625.625,0,0,0,1.25,0V3.039A2.628,2.628,0,0,0,43,.414Z" transform="translate(0 -0.039)" fill="#12263f"/>
    </g>
  </g>
</svg>
