<svg xmlns="http://www.w3.org/2000/svg" width="100" height="100" viewBox="0 0 100 100">
  <g id="t2-tab2" transform="translate(-810 -176)">
    <path id="Rectangle_31160" data-name="Rectangle 31160" d="M0,0H70a30,30,0,0,1,30,30v70a0,0,0,0,1,0,0H30A30,30,0,0,1,0,70V0A0,0,0,0,1,0,0Z" transform="translate(810 176)" fill="#ffba5b"/>
    <g id="politica" transform="translate(827 196)">
      <path id="Path_134988" data-name="Path 134988" d="M59.449,0H16.475A6.738,6.738,0,0,0,9.711,6.689L9.434,44.529H1.048A1.091,1.091,0,0,0,0,45.649v5.208a9.125,9.125,0,0,0,8.61,9.081V60H44.8v-.07c.269.011.432.07.617.07h.026a9.1,9.1,0,0,0,9.043-9.144v-33.1H65.408a1.1,1.1,0,0,0,1.048-1.132V7.071A7.058,7.058,0,0,0,59.449,0ZM9.08,57.848H9.073a6.974,6.974,0,0,1-6.921-6.992V46.682h34.17v4.156A9.109,9.109,0,0,0,38.981,57.3a3.864,3.864,0,0,1,.566.546Zm43.251-6.993a6.95,6.95,0,0,1-6.893,6.993h-.022a6.993,6.993,0,0,1-6.942-7.009V45.649a1.115,1.115,0,0,0-1.076-1.12H11.587L11.864,6.7a4.584,4.584,0,0,1,4.611-4.544H54.368A7.344,7.344,0,0,0,52.331,7.1ZM64.3,7.09v8.516H54.484V7.1a4.984,4.984,0,0,1,4.933-4.945h.03A4.906,4.906,0,0,1,64.3,7.082Zm0,0" transform="translate(0.001)" fill="#12263f"/>
      <path id="Path_134988_-_Outline" data-name="Path 134988 - Outline" d="M45.44,60.375h-.026a1.953,1.953,0,0,1-.332-.035l-.1-.016a.373.373,0,0,1-.188.051H8.609a.373.373,0,0,1-.225-.075,9.5,9.5,0,0,1-8.76-9.443V45.649a1.462,1.462,0,0,1,1.423-1.495H9.062L9.336,6.686A7.109,7.109,0,0,1,16.475-.375H59.449a7.433,7.433,0,0,1,7.383,7.446v9.555a1.469,1.469,0,0,1-1.423,1.507H54.859V50.856a9.483,9.483,0,0,1-9.416,9.519Zm-.643-.82h.015a3.016,3.016,0,0,1,.393.045,1.335,1.335,0,0,0,.209.025h.025a8.733,8.733,0,0,0,8.669-8.767v-33.1a.375.375,0,0,1,.375-.375H65.408a.729.729,0,0,0,.673-.757V7.071a6.7,6.7,0,0,0-6.636-6.7H16.475a6.359,6.359,0,0,0-6.389,6.314L9.809,44.532a.375.375,0,0,1-.375.372H1.048a.721.721,0,0,0-.673.745v5.208a8.78,8.78,0,0,0,8.252,8.706.373.373,0,0,1,.19.062H44.579A.375.375,0,0,1,44.8,59.555Zm.641-1.332h-.022A7.368,7.368,0,0,1,38.1,50.838V45.649a.737.737,0,0,0-.708-.745h-25.8a.375.375,0,0,1-.375-.378l.277-37.833a4.958,4.958,0,0,1,4.986-4.916H54.368a.375.375,0,0,1,.277.628A7,7,0,0,0,52.706,7.1V50.855A7.327,7.327,0,0,1,45.439,58.223ZM11.965,44.154H37.412a1.483,1.483,0,0,1,1.438,1.5v5.187a6.632,6.632,0,0,0,6.57,6.634h.019a6.576,6.576,0,0,0,6.518-6.618V7.1a7.49,7.49,0,0,1,1.61-4.572H16.475A4.208,4.208,0,0,0,12.239,6.7ZM39.548,58.223H9.073a7.34,7.34,0,0,1-7.3-7.367V46.682a.375.375,0,0,1,.375-.375h34.17a.375.375,0,0,1,.375.375v4.156a8.794,8.794,0,0,0,2.55,6.2,2.167,2.167,0,0,0,.17.149,2.2,2.2,0,0,1,.435.442.375.375,0,0,1-.3.595ZM2.527,47.057v3.8a6.589,6.589,0,0,0,6.546,6.617H38.624a9.484,9.484,0,0,1-2.676-6.636v-3.78ZM64.3,15.98H54.484a.375.375,0,0,1-.375-.375V7.1a5.359,5.359,0,0,1,5.308-5.32h.03a5.294,5.294,0,0,1,5.232,5.306v8.522A.375.375,0,0,1,64.3,15.98Zm-9.446-.75h9.071V7.081a4.542,4.542,0,0,0-4.486-4.554h-.026A4.625,4.625,0,0,0,54.859,7.1Z" transform="translate(0.001)" fill="#12263f"/>
      <path id="Path_134989" data-name="Path 134989" d="M166.34,72.858l5.549,3.794a1.06,1.06,0,0,0,1.2,0l5.532-3.793a8.359,8.359,0,0,0,3.341-6.376V58.807a1.052,1.052,0,0,0-.574-.966l-8.449-4.156a1.057,1.057,0,0,0-.941,0l-8.433,4.144A1.05,1.05,0,0,0,163,58.8v7.687A8.359,8.359,0,0,0,166.34,72.858Zm-1.191-13.391,7.332-3.618,7.332,3.628v7.006a6.2,6.2,0,0,1-2.4,4.6l-4.941,3.38-4.922-3.379a6.2,6.2,0,0,1-2.4-4.6Zm0,0" transform="translate(-141.068 -46.367)" fill="#12263f"/>
      <path id="Path_134989_-_Outline" data-name="Path 134989 - Outline" d="M172.491,77.213a1.428,1.428,0,0,1-.814-.253l-5.548-3.793a8.151,8.151,0,0,1-2.513-2.943,8.3,8.3,0,0,1-.994-3.742V58.8a1.431,1.431,0,0,1,.777-1.305l.005,0,8.433-4.144a1.433,1.433,0,0,1,1.273,0l8.447,4.155,0,0a1.433,1.433,0,0,1,.778,1.305v7.671a8.308,8.308,0,0,1-.992,3.742,8.146,8.146,0,0,1-2.512,2.945L173.3,76.96A1.428,1.428,0,0,1,172.491,77.213Zm-8.753-19.049a.678.678,0,0,0-.366.62s0,.007,0,.011v7.687a7.965,7.965,0,0,0,3.18,6.066l5.549,3.794a.685.685,0,0,0,.778,0l5.533-3.793a7.967,7.967,0,0,0,3.178-6.067V58.807s0-.007,0-.011a.68.68,0,0,0-.367-.621l-8.446-4.154a.693.693,0,0,0-.608,0Zm8.731,16.67a.375.375,0,0,1-.212-.066l-4.922-3.379a6.537,6.537,0,0,1-2.56-4.907V59.467a.375.375,0,0,1,.209-.336l7.332-3.618a.375.375,0,0,1,.332,0l7.332,3.628a.375.375,0,0,1,.209.336v7.005a6.536,6.536,0,0,1-2.567,4.907l-4.941,3.379A.375.375,0,0,1,172.468,74.834ZM165.524,59.7v6.782a5.8,5.8,0,0,0,2.234,4.288L172.469,74,177.2,70.77a5.8,5.8,0,0,0,2.24-4.288V59.71l-6.957-3.442Z" transform="translate(-141.068 -46.367)" fill="#12263f"/>
      <path id="Path_134990" data-name="Path 134990" d="M204.02,122.247a1.075,1.075,0,0,0,.762.323h0a1.078,1.078,0,0,0,.761-.318l4.281-4.283a1.077,1.077,0,0,0-1.522-1.523l-3.517,3.516-1.406-1.419a1.077,1.077,0,1,0-1.53,1.516Zm0,0" transform="translate(-174.428 -100.507)" fill="#12263f"/>
      <path id="Path_134990_-_Outline" data-name="Path 134990 - Outline" d="M204.786,122.945h0a1.46,1.46,0,0,1-1.03-.435l-2.166-2.188a1.452,1.452,0,1,1,2.063-2.044l1.141,1.152,3.25-3.25a1.452,1.452,0,1,1,2.052,2.054l-4.281,4.283A1.442,1.442,0,0,1,204.786,122.945Zm-2.168-4.347a.7.7,0,0,0-.5,1.2l2.167,2.189a.706.706,0,0,0,.5.211h0a.707.707,0,0,0,.5-.208l4.282-4.284a.7.7,0,1,0-.991-.993l-3.517,3.516a.379.379,0,0,1-.266.11.375.375,0,0,1-.266-.111l-1.406-1.419A.7.7,0,0,0,202.618,118.6Z" transform="translate(-174.428 -100.507)" fill="#12263f"/>
      <path id="Path_134991" data-name="Path 134991" d="M159.906,248h-25.83a1.076,1.076,0,1,0,0,2.152h25.83a1.076,1.076,0,1,0,0-2.152Zm0,0" transform="translate(-115.108 -214.637)" fill="#12263f"/>
      <path id="Path_134991_-_Outline" data-name="Path 134991 - Outline" d="M159.906,250.527h-25.83a1.451,1.451,0,1,1,0-2.9h25.83a1.451,1.451,0,1,1,0,2.9Zm-25.83-2.152a.7.7,0,1,0,0,1.4h25.83a.7.7,0,1,0,0-1.4Z" transform="translate(-115.108 -214.637)" fill="#12263f"/>
      <path id="Path_134992" data-name="Path 134992" d="M159.906,285h-25.83a1.076,1.076,0,0,0,0,2.152h25.83a1.076,1.076,0,0,0,0-2.152Zm0,0" transform="translate(-115.108 -246.659)" fill="#12263f"/>
      <path id="Path_134992_-_Outline" data-name="Path 134992 - Outline" d="M159.906,287.527h-25.83a1.451,1.451,0,1,1,0-2.9h25.83a1.451,1.451,0,1,1,0,2.9Zm-25.83-2.152a.7.7,0,0,0,0,1.4h25.83a.7.7,0,0,0,0-1.4Z" transform="translate(-115.108 -246.659)" fill="#12263f"/>
    </g>
  </g>
</svg>
