<svg xmlns="http://www.w3.org/2000/svg" width="276" height="250" viewBox="0 0 276 250">
  <g id="t3-i7" transform="translate(-1082 -795)">
    <g id="Group_90891" data-name="Group 90891" transform="translate(2244.146 932.8)">
      <g id="Group_90884" data-name="Group 90884" transform="translate(-1162.146 -129.421)">
        <path id="Path_135075" data-name="Path 135075" d="M-996.111-82.371s-12.192,2.63-45.382-15.291-80.345-29.768-76.047,1.17.768,60.6-22.973,90.287-44.2,132.576,31.733,132.213,86.67-32.244,177.227-29.17c28.712.975,47.7-20.407,45.183-63.8s-33.26-46.186-35.357-72.332S-924.366-113.351-996.111-82.371Z" transform="translate(1162.147 115.612)" fill="#fff"/>
      </g>
      <g id="Group_90885" data-name="Group 90885" transform="translate(-912.106 -80.105)">
        <ellipse id="Ellipse_4286" data-name="Ellipse 4286" cx="13.385" cy="8.37" rx="13.385" ry="8.37" transform="translate(0 26.754) rotate(-88)" fill="#fff"/>
      </g>
      <g id="Group_90886" data-name="Group 90886" transform="translate(-1155.255 -109.813)">
        <ellipse id="Ellipse_4287" data-name="Ellipse 4287" cx="21.742" cy="10.979" rx="21.742" ry="10.979" transform="translate(0 43.282) rotate(-84.476)" fill="#fff"/>
      </g>
      <g id="Group_90887" data-name="Group 90887" transform="translate(-1025.006 -137.8)">
        <ellipse id="Ellipse_4288" data-name="Ellipse 4288" cx="10.576" cy="14.454" rx="10.576" ry="14.454" transform="matrix(0.226, -0.974, 0.974, 0.226, 0, 20.607)" fill="#fff"/>
      </g>
    </g>
    <g id="Group_90864" data-name="Group 90864" transform="translate(3625.353 -390.266)">
      <g id="Group_90862" data-name="Group 90862" transform="translate(-2470.353 1233.266)">
        <g id="Group_90860" data-name="Group 90860" transform="translate(2.473 2.473)">
          <path id="Path_135019" data-name="Path 135019" d="M-2435.686,1341.967h75.179a4.946,4.946,0,0,0,4.946-4.945V1241.07a4.946,4.946,0,0,0-4.946-4.946h-75.179a4.946,4.946,0,0,0-4.946,4.946v95.952A4.946,4.946,0,0,0-2435.686,1341.967Z" transform="translate(2463.877 -1236.124)" fill="#c3b5ec"/>
          <path id="Path_135020" data-name="Path 135020" d="M-2445.733,1254.414h58.362a4.946,4.946,0,0,1,4.946,4.946v95.951a4.946,4.946,0,0,1-4.946,4.945h-75.179a4.945,4.945,0,0,1-4.945-4.945v-79.135Z" transform="translate(2467.495 -1238.587)" fill="#fff"/>
          <path id="Path_135021" data-name="Path 135021" d="M-2467.495,1276.176h14.961a6.8,6.8,0,0,0,6.8-6.8v-14.962Z" transform="translate(2467.495 -1238.587)" fill="#c3b5ec"/>
        </g>
        <g id="Group_90861" data-name="Group 90861">
          <path id="Path_135022" data-name="Path 135022" d="M-2364.51,1233.266h-75.178a7.427,7.427,0,0,0-7.419,7.419v8.621a2.441,2.441,0,0,0-.759.511l-21.763,21.762a2.465,2.465,0,0,0-.718,1.747l-.006,0v79.135a7.428,7.428,0,0,0,7.419,7.419h75.178a7.428,7.428,0,0,0,7.419-7.419v-8.409h15.827a7.427,7.427,0,0,0,7.419-7.418v-95.952A7.427,7.427,0,0,0-2364.51,1233.266Zm-37.681,15.827h-5.714a7.428,7.428,0,0,0-6.56-3.956,7.427,7.427,0,0,0-7.418,7.418v14.579a2.474,2.474,0,0,0,2.473,2.473,2.473,2.473,0,0,0,2.473-2.473v-14.579a2.476,2.476,0,0,1,2.472-2.473,2.476,2.476,0,0,1,2.474,2.473v16.558a7.427,7.427,0,0,1-7.419,7.419,7.427,7.427,0,0,1-7.419-7.419v-18.537a12.378,12.378,0,0,1,12.364-12.365A12.381,12.381,0,0,1-2402.191,1249.093Zm-37.5-10.881h13.126a17.261,17.261,0,0,0-5.145,10.881h-10.454v-8.408A2.476,2.476,0,0,1-2439.688,1238.212Zm-8.9,19.325v8.991a4.332,4.332,0,0,1-4.327,4.328h-8.991Zm86.555,79.1a2.476,2.476,0,0,1-2.473,2.473h-15.827v-47.934a2.474,2.474,0,0,0-2.473-2.473,2.473,2.473,0,0,0-2.472,2.473v61.288a2.476,2.476,0,0,1-2.473,2.473h-75.178a2.476,2.476,0,0,1-2.473-2.473V1275.8h12.489a9.284,9.284,0,0,0,9.274-9.274v-12.488h11.871v15.074a12.379,12.379,0,0,0,12.365,12.365,12.378,12.378,0,0,0,12.365-12.365v-15.074h19.289a2.475,2.475,0,0,1,2.473,2.473v14.88a2.473,2.473,0,0,0,2.472,2.473,2.474,2.474,0,0,0,2.473-2.473v-14.88a7.427,7.427,0,0,0-7.419-7.419h-9.466a17.259,17.259,0,0,0-5.145-10.881h37.856a2.476,2.476,0,0,1,2.473,2.473Z" transform="translate(2470.353 -1233.266)"/>
          <path id="Path_135023" data-name="Path 135023" d="M-2448.3,1318.174h51.175a2.474,2.474,0,0,0,2.474-2.473,2.474,2.474,0,0,0-2.474-2.473H-2448.3a2.474,2.474,0,0,0-2.473,2.473A2.474,2.474,0,0,0-2448.3,1318.174Z" transform="translate(2467.716 -1244.033)"/>
          <path id="Path_135024" data-name="Path 135024" d="M-2448.3,1329.605h41.152a2.474,2.474,0,0,0,2.473-2.473,2.473,2.473,0,0,0-2.473-2.473H-2448.3a2.473,2.473,0,0,0-2.472,2.473A2.473,2.473,0,0,0-2448.3,1329.605Z" transform="translate(2467.716 -1245.573)"/>
          <path id="Path_135025" data-name="Path 135025" d="M-2448.3,1352.541h41.161a2.473,2.473,0,0,0,2.473-2.472,2.474,2.474,0,0,0-2.473-2.473H-2448.3a2.474,2.474,0,0,0-2.473,2.473A2.473,2.473,0,0,0-2448.3,1352.541Z" transform="translate(2467.716 -1248.662)"/>
          <path id="Path_135026" data-name="Path 135026" d="M-2448.3,1363.975h21.123a2.474,2.474,0,0,0,2.473-2.473,2.473,2.473,0,0,0-2.473-2.473H-2448.3a2.473,2.473,0,0,0-2.472,2.473A2.473,2.473,0,0,0-2448.3,1363.975Z" transform="translate(2467.716 -1250.201)"/>
          <path id="Path_135027" data-name="Path 135027" d="M-2389.156,1324.659a2.49,2.49,0,0,0-1.748.725,2.489,2.489,0,0,0-.724,1.748,2.487,2.487,0,0,0,.724,1.748,2.49,2.49,0,0,0,1.748.725,2.488,2.488,0,0,0,1.748-.725,2.49,2.49,0,0,0,.725-1.748,2.487,2.487,0,0,0-.725-1.748A2.487,2.487,0,0,0-2389.156,1324.659Z" transform="translate(2459.752 -1245.573)"/>
          <path id="Path_135028" data-name="Path 135028" d="M-2414.71,1359.029a2.488,2.488,0,0,0-1.748.725,2.487,2.487,0,0,0-.725,1.748,2.49,2.49,0,0,0,.725,1.749,2.491,2.491,0,0,0,1.748.724,2.494,2.494,0,0,0,1.749-.724,2.494,2.494,0,0,0,.724-1.749,2.491,2.491,0,0,0-.724-1.748A2.491,2.491,0,0,0-2414.71,1359.029Z" transform="translate(2463.193 -1250.201)"/>
          <path id="Path_135029" data-name="Path 135029" d="M-2448.3,1306.743h51.175a2.474,2.474,0,0,0,2.474-2.473,2.474,2.474,0,0,0-2.474-2.473H-2448.3a2.474,2.474,0,0,0-2.473,2.473A2.474,2.474,0,0,0-2448.3,1306.743Z" transform="translate(2467.716 -1242.495)"/>
          <path id="Path_135030" data-name="Path 135030" d="M-2369.572,1285.9a2.492,2.492,0,0,0-1.748.725,2.49,2.49,0,0,0-.724,1.748,2.492,2.492,0,0,0,.724,1.749,2.494,2.494,0,0,0,1.748.724,2.5,2.5,0,0,0,1.749-.724,2.494,2.494,0,0,0,.724-1.749,2.492,2.492,0,0,0-.724-1.748A2.492,2.492,0,0,0-2369.572,1285.9Z" transform="translate(2457.115 -1240.353)"/>
        </g>
      </g>
      <g id="Group_90863" data-name="Group 90863" transform="translate(-2403.893 1323.167)">
        <path id="Path_135031" data-name="Path 135031" d="M-2361.471,1339.458a29.778,29.778,0,0,0-29.778,29.779,29.778,29.778,0,0,0,29.778,29.778,29.778,29.778,0,0,0,29.778-29.778A29.779,29.779,0,0,0-2361.471,1339.458Zm0,51.026a21.247,21.247,0,0,1-21.247-21.247,21.247,21.247,0,0,1,21.247-21.247,21.247,21.247,0,0,1,21.248,21.247A21.247,21.247,0,0,1-2361.471,1390.484Z" transform="translate(2393.241 -1337.467)" fill="#8cc63f"/>
        <circle id="Ellipse_4279" data-name="Ellipse 4279" cx="21.247" cy="21.247" r="21.247" transform="translate(10.523 10.523)" fill="#fff"/>
        <path id="Path_135032" data-name="Path 135032" d="M-2361.781,1400.7a31.805,31.805,0,0,1-31.77-31.769,31.806,31.806,0,0,1,31.77-31.77,31.806,31.806,0,0,1,31.77,31.77A31.805,31.805,0,0,1-2361.781,1400.7Zm0-59.556a27.818,27.818,0,0,0-27.787,27.787,27.818,27.818,0,0,0,27.787,27.786,27.817,27.817,0,0,0,27.786-27.786A27.818,27.818,0,0,0-2361.781,1341.14Zm0,51.026a23.265,23.265,0,0,1-23.238-23.239,23.265,23.265,0,0,1,23.238-23.239,23.264,23.264,0,0,1,23.238,23.239A23.264,23.264,0,0,1-2361.781,1392.166Zm0-42.495a19.277,19.277,0,0,0-19.255,19.256,19.277,19.277,0,0,0,19.255,19.256,19.277,19.277,0,0,0,19.255-19.256A19.277,19.277,0,0,0-2361.781,1349.671Z" transform="translate(2393.551 -1337.157)"/>
      </g>
      <path id="Path_135033" data-name="Path 135033" d="M-2347.8,1364.16a3.172,3.172,0,0,0-4.487,0h0l-9.827,9.827-2.948-2.947a3.172,3.172,0,0,0-4.487,0,3.173,3.173,0,0,0,0,4.486h0l5.189,5.19a3.172,3.172,0,0,0,4.485,0l12.071-12.07A3.173,3.173,0,0,0-2347.8,1364.16Z" transform="translate(-13.45 -17.501)"/>
    </g>
  </g>
</svg>
