<svg xmlns="http://www.w3.org/2000/svg" width="278" height="250" viewBox="0 0 278 250">
  <g id="t3-i6" transform="translate(-1082 -196)">
    <g id="Group_90894" data-name="Group 90894" transform="translate(2244.146 333.8)">
      <g id="Group_90884" data-name="Group 90884" transform="translate(-1162.146 -129.421)">
        <path id="Path_135075" data-name="Path 135075" d="M-996.111-82.371s-12.192,2.63-45.382-15.291-80.345-29.768-76.047,1.17.768,60.6-22.973,90.287-44.2,132.576,31.733,132.213,86.67-32.244,177.227-29.17c28.712.975,47.7-20.407,45.183-63.8s-33.26-46.186-35.357-72.332S-924.366-113.351-996.111-82.371Z" transform="translate(1162.147 115.612)" fill="#fff"/>
      </g>
      <g id="Group_90885" data-name="Group 90885" transform="translate(-912.106 -80.105)">
        <ellipse id="Ellipse_4286" data-name="Ellipse 4286" cx="13.385" cy="8.37" rx="13.385" ry="8.37" transform="translate(0 26.754) rotate(-88)" fill="#fff"/>
      </g>
      <g id="Group_90886" data-name="Group 90886" transform="translate(-1155.255 -109.813)">
        <ellipse id="Ellipse_4287" data-name="Ellipse 4287" cx="21.742" cy="10.979" rx="21.742" ry="10.979" transform="translate(0 43.282) rotate(-84.476)" fill="#fff"/>
      </g>
      <g id="Group_90887" data-name="Group 90887" transform="translate(-1025.006 -137.8)">
        <ellipse id="Ellipse_4288" data-name="Ellipse 4288" cx="10.576" cy="14.454" rx="10.576" ry="14.454" transform="matrix(0.226, -0.974, 0.974, 0.226, 0, 20.607)" fill="#fff"/>
      </g>
    </g>
    <g id="Group_90874" data-name="Group 90874" transform="translate(3549.915 -537.131)">
      <g id="Group_90872" data-name="Group 90872" transform="translate(-2467.915 782.131)">
        <g id="Group_90871" data-name="Group 90871" transform="translate(2.743 2.744)">
          <rect id="Rectangle_31342" data-name="Rectangle 31342" width="18.78" height="10.837" transform="translate(43.356 13.177)" fill="#fff"/>
          <path id="Path_135048" data-name="Path 135048" d="M-2397.2,798.428a6.589,6.589,0,0,0,6.588-6.588h0a6.589,6.589,0,0,0-6.588-6.589h-19.764a6.588,6.588,0,0,0-6.588,6.589h0a6.588,6.588,0,0,0,6.588,6.588Z" transform="translate(2459.831 -785.25)" fill="#ffba5b"/>
          <circle id="Ellipse_4281" data-name="Ellipse 4281" cx="52.704" cy="52.704" r="52.704" transform="translate(0 24.014)" fill="#ffba5b"/>
          <circle id="Ellipse_4282" data-name="Ellipse 4282" cx="39.838" cy="39.838" r="39.838" transform="translate(12.865 36.879)" fill="#fff"/>
          <circle id="Ellipse_4283" data-name="Ellipse 4283" cx="5.785" cy="5.785" r="5.785" transform="translate(46.919 70.933)" fill="#ffba5b"/>
        </g>
        <path id="Path_135049" data-name="Path 135049" d="M-2449.563,912.517a2.746,2.746,0,0,0-.806,1.944,2.748,2.748,0,0,0,2.748,2.745,2.747,2.747,0,0,0,2.745-2.748,2.746,2.746,0,0,0-2.748-2.745A2.756,2.756,0,0,0-2449.563,912.517Z" transform="translate(2465.802 -797.73)"/>
        <path id="Path_135050" data-name="Path 135050" d="M-2453.284,866.635h0a42.578,42.578,0,0,0,42.579,42.579,42.579,42.579,0,0,0,42.579-42.579,42.579,42.579,0,0,0-42.579-42.579A42.63,42.63,0,0,0-2453.284,866.635Zm5.486,0a37.093,37.093,0,0,1,37.093-37.093,37.093,37.093,0,0,1,37.093,37.093,37.093,37.093,0,0,1-37.093,37.094A37.134,37.134,0,0,1-2447.8,866.637Z" transform="translate(2466.153 -787.178)"/>
        <path id="Path_135051" data-name="Path 135051" d="M-2425.257,848.208a2.746,2.746,0,0,0-3.81,0,2.745,2.745,0,0,0-.072,3.882l.4.4h0l13.2,13.2a8.527,8.527,0,0,0,0,7.546,8.529,8.529,0,0,0,11.422,3.877,8.53,8.53,0,0,0,3.878-11.424l6.085-6.084a2.746,2.746,0,0,0,0-3.883,2.745,2.745,0,0,0-3.882,0l-6.085,6.085a8.508,8.508,0,0,0-7.537,0l-13.6-13.6Zm17.365,24.286a3.045,3.045,0,0,1-3.042-3.04,3.04,3.04,0,0,1,3.04-3.04,3.04,3.04,0,0,1,3.04,3.04,3.04,3.04,0,0,1-3.04,3.04Z" transform="translate(2463.339 -789.993)"/>
        <path id="Path_135052" data-name="Path 135052" d="M-2441.365,872.13a2.745,2.745,0,0,0,2.744,2.745h2.539a2.745,2.745,0,0,0,2.744-2.745,2.745,2.745,0,0,0-2.744-2.744h-2.539A2.745,2.745,0,0,0-2441.365,872.13Z" transform="translate(2464.719 -792.635)"/>
        <path id="Path_135053" data-name="Path 135053" d="M-2377.526,872.052a2.745,2.745,0,0,0,2.744,2.745h2.538a2.745,2.745,0,0,0,2.745-2.745,2.745,2.745,0,0,0-2.745-2.744h-2.538A2.744,2.744,0,0,0-2377.526,872.052Z" transform="translate(2457.033 -792.626)"/>
        <path id="Path_135054" data-name="Path 135054" d="M-2405.294,844.013a2.745,2.745,0,0,0,2.745-2.744v-2.538h0a2.745,2.745,0,0,0-2.745-2.745,2.745,2.745,0,0,0-2.745,2.745v2.538a2.745,2.745,0,0,0,2.745,2.744Z" transform="translate(2460.707 -788.614)"/>
        <path id="Path_135055" data-name="Path 135055" d="M-2405.217,899.821a2.746,2.746,0,0,0-2.745,2.745V905.1a2.745,2.745,0,0,0,2.745,2.745,2.745,2.745,0,0,0,2.745-2.745v-2.538a2.745,2.745,0,0,0-2.745-2.745Z" transform="translate(2460.697 -796.299)"/>
        <path id="Path_135056" data-name="Path 135056" d="M-2459.01,891.753a2.745,2.745,0,0,0,3.8.807,2.746,2.746,0,0,0,.808-3.8,49.957,49.957,0,0,1,.02-54.38,49.958,49.958,0,0,1,69.107-14.7,49.959,49.959,0,0,1,14.695,69.107,49.958,49.958,0,0,1-69.107,14.694,2.745,2.745,0,0,0-3.778.8,2.745,2.745,0,0,0,.781,3.8,55.591,55.591,0,0,0,30.26,8.95q2.722,0,5.441-.268a55.441,55.441,0,0,0,46.353-35.5c.4-1.019,1.751-5.49,1.751-5.49a55.78,55.78,0,0,0,1.714-10.55c.127-1.584.087-5.491.087-5.491a55.812,55.812,0,0,0-1.362-10.55,21.624,21.624,0,0,0-1.551-5.491,55.075,55.075,0,0,0-4.872-10.55c-.994-1.735-3.735-5.48-3.735-5.48a55.786,55.786,0,0,0-4.661-5.29,55.124,55.124,0,0,0-27.028-14.869V800.52a9.332,9.332,0,0,0,7.083-9.064,9.333,9.333,0,0,0-9.34-9.325H-2422.3a9.334,9.334,0,0,0-9.065,7.084,9.332,9.332,0,0,0,6.809,11.306V807.5a55.409,55.409,0,0,0-43.083,48.58A55.62,55.62,0,0,0-2459.01,891.753Zm39.94-90.957h13.289v5.781a55.911,55.911,0,0,0-13.289-.018Zm-3.238-5.489a3.844,3.844,0,0,1-3.769-3.769,3.843,3.843,0,0,1,3.769-3.916h19.766a3.846,3.846,0,0,1,3.843,3.843h0a3.849,3.849,0,0,1-3.842,3.842Z" transform="translate(2467.915 -782.131)"/>
      </g>
      <g id="Group_90873" data-name="Group 90873" transform="translate(-2402.503 869.313)">
        <path id="Path_135057" data-name="Path 135057" d="M-2360.98,883.545a30.27,30.27,0,0,0-30.269,30.27,30.27,30.27,0,0,0,30.269,30.269,30.27,30.27,0,0,0,30.269-30.269A30.27,30.27,0,0,0-2360.98,883.545Zm0,51.868a21.6,21.6,0,0,1-21.6-21.6,21.6,21.6,0,0,1,21.6-21.6,21.6,21.6,0,0,1,21.6,21.6A21.6,21.6,0,0,1-2360.98,935.413Z" transform="translate(2393.274 -881.521)" fill="#ff7758"/>
        <circle id="Ellipse_4284" data-name="Ellipse 4284" cx="21.598" cy="21.598" r="21.598" transform="translate(10.697 10.696)" fill="#fff"/>
        <path id="Path_135058" data-name="Path 135058" d="M-2361.257,945.832a32.33,32.33,0,0,1-32.294-32.293,32.331,32.331,0,0,1,32.294-32.294,32.331,32.331,0,0,1,32.294,32.294A32.33,32.33,0,0,1-2361.257,945.832Zm0-60.539a28.277,28.277,0,0,0-28.245,28.245,28.277,28.277,0,0,0,28.245,28.245,28.276,28.276,0,0,0,28.245-28.245A28.276,28.276,0,0,0-2361.257,885.293Zm0,51.867a23.648,23.648,0,0,1-23.621-23.622,23.648,23.648,0,0,1,23.621-23.622,23.649,23.649,0,0,1,23.622,23.622A23.649,23.649,0,0,1-2361.257,937.16Zm0-43.2a19.6,19.6,0,0,0-19.572,19.573,19.6,19.6,0,0,0,19.572,19.573,19.6,19.6,0,0,0,19.573-19.573A19.6,19.6,0,0,0-2361.257,893.965Z" transform="translate(2393.551 -881.244)"/>
        <rect id="Rectangle_31343" data-name="Rectangle 31343" width="26.877" height="4.262" rx="2.131" transform="translate(21.285 40.29) rotate(-45)"/>
        <rect id="Rectangle_31344" data-name="Rectangle 31344" width="26.877" height="4.262" rx="2.131" transform="translate(24.299 21.285) rotate(45)"/>
      </g>
    </g>
    <g id="Group_90880" data-name="Group 90880" transform="translate(3700.353 -746.012)">
      <g id="Group_90877" data-name="Group 90877" transform="translate(-2470.353 990.012)">
        <g id="Group_90875" data-name="Group 90875" transform="translate(2.473 2.473)">
          <path id="Path_135059" data-name="Path 135059" d="M-2435.686,1098.713h75.178a4.946,4.946,0,0,0,4.946-4.945V997.815a4.946,4.946,0,0,0-4.946-4.945h-75.178a4.946,4.946,0,0,0-4.947,4.945v95.952A4.946,4.946,0,0,0-2435.686,1098.713Z" transform="translate(2463.878 -992.87)" fill="#c3b5ec"/>
          <path id="Path_135060" data-name="Path 135060" d="M-2445.733,1011.16h58.363a4.946,4.946,0,0,1,4.946,4.945v95.952a4.946,4.946,0,0,1-4.946,4.946h-75.179a4.945,4.945,0,0,1-4.945-4.946v-79.135Z" transform="translate(2467.495 -995.333)" fill="#fff"/>
          <path id="Path_135061" data-name="Path 135061" d="M-2467.5,1032.922h14.961a6.8,6.8,0,0,0,6.8-6.8V1011.16Z" transform="translate(2467.495 -995.333)" fill="#c3b5ec"/>
        </g>
        <g id="Group_90876" data-name="Group 90876">
          <path id="Path_135062" data-name="Path 135062" d="M-2364.51,990.012h-75.178a7.427,7.427,0,0,0-7.419,7.418v8.622a2.44,2.44,0,0,0-.759.51l-21.763,21.762a2.465,2.465,0,0,0-.718,1.747l-.006,0v79.135a7.427,7.427,0,0,0,7.418,7.419h75.179a7.427,7.427,0,0,0,7.418-7.419V1100.8h15.827a7.427,7.427,0,0,0,7.419-7.419V997.43A7.427,7.427,0,0,0-2364.51,990.012Zm-37.681,15.827h-5.714a7.426,7.426,0,0,0-6.56-3.956,7.427,7.427,0,0,0-7.418,7.419v14.579a2.474,2.474,0,0,0,2.473,2.473,2.474,2.474,0,0,0,2.473-2.473V1009.3a2.475,2.475,0,0,1,2.472-2.473,2.476,2.476,0,0,1,2.473,2.473v16.557a7.427,7.427,0,0,1-7.419,7.419,7.427,7.427,0,0,1-7.419-7.419v-18.536a12.379,12.379,0,0,1,12.365-12.365A12.38,12.38,0,0,1-2402.191,1005.839Zm-37.5-10.881h13.126a17.262,17.262,0,0,0-5.145,10.881h-10.454V997.43A2.476,2.476,0,0,1-2439.688,994.958Zm-8.9,19.324v8.992a4.333,4.333,0,0,1-4.327,4.328h-8.991Zm86.555,79.1a2.476,2.476,0,0,1-2.473,2.472h-15.827v-47.934a2.473,2.473,0,0,0-2.473-2.473,2.473,2.473,0,0,0-2.472,2.473v61.288a2.476,2.476,0,0,1-2.473,2.472h-75.179a2.475,2.475,0,0,1-2.473-2.472v-76.663h12.489a9.283,9.283,0,0,0,9.273-9.273v-12.489h11.871v15.073a12.379,12.379,0,0,0,12.365,12.366,12.379,12.379,0,0,0,12.365-12.366v-15.073h19.29a2.476,2.476,0,0,1,2.473,2.472v14.881a2.472,2.472,0,0,0,2.472,2.472,2.473,2.473,0,0,0,2.473-2.472v-14.881a7.427,7.427,0,0,0-7.418-7.419h-9.466a17.259,17.259,0,0,0-5.144-10.881h37.856a2.476,2.476,0,0,1,2.473,2.472Z" transform="translate(2470.353 -990.012)"/>
          <path id="Path_135063" data-name="Path 135063" d="M-2448.3,1074.92h51.175a2.474,2.474,0,0,0,2.473-2.473,2.474,2.474,0,0,0-2.473-2.473H-2448.3a2.474,2.474,0,0,0-2.473,2.473A2.474,2.474,0,0,0-2448.3,1074.92Z" transform="translate(2467.716 -1000.78)"/>
          <path id="Path_135064" data-name="Path 135064" d="M-2448.3,1086.351h41.152a2.474,2.474,0,0,0,2.473-2.473,2.474,2.474,0,0,0-2.473-2.473H-2448.3a2.473,2.473,0,0,0-2.472,2.473A2.473,2.473,0,0,0-2448.3,1086.351Z" transform="translate(2467.716 -1002.319)"/>
          <path id="Path_135065" data-name="Path 135065" d="M-2448.3,1109.287h41.161a2.473,2.473,0,0,0,2.473-2.472,2.473,2.473,0,0,0-2.473-2.473H-2448.3a2.473,2.473,0,0,0-2.473,2.473A2.473,2.473,0,0,0-2448.3,1109.287Z" transform="translate(2467.716 -1005.408)"/>
          <path id="Path_135066" data-name="Path 135066" d="M-2448.3,1120.721h21.123a2.474,2.474,0,0,0,2.473-2.473,2.474,2.474,0,0,0-2.473-2.473H-2448.3a2.473,2.473,0,0,0-2.472,2.473A2.473,2.473,0,0,0-2448.3,1120.721Z" transform="translate(2467.716 -1006.948)"/>
          <path id="Path_135067" data-name="Path 135067" d="M-2389.156,1081.4a2.5,2.5,0,0,0-1.748.724,2.5,2.5,0,0,0-.724,1.749,2.489,2.489,0,0,0,.724,1.748,2.492,2.492,0,0,0,1.748.725,2.491,2.491,0,0,0,1.749-.725,2.492,2.492,0,0,0,.724-1.748,2.492,2.492,0,0,0-.724-1.749A2.494,2.494,0,0,0-2389.156,1081.4Z" transform="translate(2459.752 -1002.319)"/>
          <path id="Path_135068" data-name="Path 135068" d="M-2414.71,1115.775a2.492,2.492,0,0,0-1.748.724,2.493,2.493,0,0,0-.725,1.749,2.488,2.488,0,0,0,.725,1.748,2.489,2.489,0,0,0,1.748.725,2.492,2.492,0,0,0,1.749-.725,2.491,2.491,0,0,0,.724-1.748,2.5,2.5,0,0,0-.724-1.749A2.5,2.5,0,0,0-2414.71,1115.775Z" transform="translate(2463.193 -1006.948)"/>
          <path id="Path_135069" data-name="Path 135069" d="M-2448.3,1063.488h51.175a2.473,2.473,0,0,0,2.473-2.472,2.474,2.474,0,0,0-2.473-2.473H-2448.3a2.474,2.474,0,0,0-2.473,2.473A2.473,2.473,0,0,0-2448.3,1063.488Z" transform="translate(2467.716 -999.24)"/>
          <path id="Path_135070" data-name="Path 135070" d="M-2369.572,1042.644a2.49,2.49,0,0,0-1.748.725,2.489,2.489,0,0,0-.724,1.748,2.492,2.492,0,0,0,.724,1.749,2.493,2.493,0,0,0,1.748.724,2.5,2.5,0,0,0,1.749-.724,2.5,2.5,0,0,0,.724-1.749,2.493,2.493,0,0,0-.724-1.748A2.492,2.492,0,0,0-2369.572,1042.644Z" transform="translate(2457.115 -997.1)"/>
        </g>
      </g>
      <g id="Group_90879" data-name="Group 90879" transform="translate(-2403.893 1079.913)">
        <path id="Path_135071" data-name="Path 135071" d="M-2361.471,1096.2a29.778,29.778,0,0,0-29.778,29.779,29.778,29.778,0,0,0,29.778,29.778,29.778,29.778,0,0,0,29.778-29.778A29.778,29.778,0,0,0-2361.471,1096.2Zm0,51.026a21.247,21.247,0,0,1-21.247-21.247,21.247,21.247,0,0,1,21.247-21.247,21.247,21.247,0,0,1,21.247,21.247A21.247,21.247,0,0,1-2361.471,1147.229Z" transform="translate(2393.241 -1094.213)" fill="#ffba5b"/>
        <circle id="Ellipse_4285" data-name="Ellipse 4285" cx="21.247" cy="21.247" r="21.247" transform="translate(10.523 10.523)" fill="#fff"/>
        <g id="Group_90878" data-name="Group 90878" transform="translate(25.608 20.476)">
          <path id="Path_135072" data-name="Path 135072" d="M-2363.538,1120.893c-.487-.947-.579-1.313-.122-1.649a9.1,9.1,0,0,1,5.4-1.679c3.937,0,6.592,2.106,6.624,5.586,0,2.747-1.68,4.457-3.144,5.831-1.039.977-2.075,1.892-2.075,3.235,0,.459-.275.611-1.986.611h-.579c-1.589,0-1.984-.092-1.984-.641v-.121c0-2.565,1.525-4.091,2.808-5.343a4.981,4.981,0,0,0,1.862-3.326,1.8,1.8,0,0,0-2.015-1.892,5.868,5.868,0,0,0-2.93,1.037c-.579.367-.885.214-1.464-.884Zm4.364,13.857a2.763,2.763,0,0,1,2.809,2.716,2.758,2.758,0,0,1-2.809,2.687,2.778,2.778,0,0,1-2.808-2.687A2.784,2.784,0,0,1-2359.174,1134.75Z" transform="translate(2363.958 -1117.565)"/>
        </g>
        <path id="Path_135073" data-name="Path 135073" d="M-2361.781,1157.442a31.805,31.805,0,0,1-31.77-31.769,31.806,31.806,0,0,1,31.77-31.77,31.806,31.806,0,0,1,31.77,31.77A31.806,31.806,0,0,1-2361.781,1157.442Zm0-59.556a27.818,27.818,0,0,0-27.787,27.787,27.818,27.818,0,0,0,27.787,27.786,27.817,27.817,0,0,0,27.787-27.786A27.818,27.818,0,0,0-2361.781,1097.886Zm0,51.025a23.264,23.264,0,0,1-23.238-23.238,23.265,23.265,0,0,1,23.238-23.239,23.265,23.265,0,0,1,23.239,23.239A23.264,23.264,0,0,1-2361.781,1148.911Zm0-42.494a19.278,19.278,0,0,0-19.255,19.256,19.276,19.276,0,0,0,19.255,19.255,19.276,19.276,0,0,0,19.255-19.255A19.278,19.278,0,0,0-2361.781,1106.417Z" transform="translate(2393.551 -1093.903)"/>
      </g>
    </g>
  </g>
</svg>
