<svg xmlns="http://www.w3.org/2000/svg" width="694.382" height="360" viewBox="0 0 694.382 360">
  <g id="t3-i3" transform="translate(-5794.749 -529.345)">
    <rect id="Rectángulo_6989" data-name="Rectángulo 6989" width="694.382" height="360" transform="translate(5794.749 529.345)" fill="none"/>
    <g id="Group_90648" data-name="Group 90648" transform="translate(5799.904 529.345)">
      <path id="Path_134638" data-name="Path 134638" d="M6469.58,869.624s68.846-36.806,27.6-71.228-53.583-30.159-41.709-68.525,59.963-52.639,40.842-81.754c-22.952-34.947-75.275-3.066-107.8,9.172-60.464,22.751-60.1-11.259-36.881-43.077s24.888-84.867-28.739-84.867c-58.327,0-186.511,103.505-257.129,175.04C6023.5,747.2,5992.7,717.407,5996.98,689.9c2.721-17.482,8.379-45.739-4.864-58.741C5969.128,608.593,5901.6,679.3,5877.76,709.5c-93.313,118.227,20.115,160.119,20.115,160.119Z" transform="translate(-5821.12 -529.345)" fill="#f3f0fa"/>
      <path id="Path_134639" data-name="Path 134639" d="M5975.783,608.773c2.618-4.926,3.458-8.7,1.6-11.815-5.514-9.227-33.619-10.706-51.62-1.728-25.1,12.519-31.74,45.962-20.249,53.387C5918.883,657.257,5962.265,634.206,5975.783,608.773Z" transform="translate(-5848.285 -556.849)" fill="#f3f0fa"/>
      <g id="Group_90619" data-name="Group 90619" transform="translate(0 340.277)">
        <g id="Group_90610" data-name="Group 90610" transform="translate(300.361 9.178)">
          <path id="Path_134640" data-name="Path 134640" d="M6359.9,1176.905h0Z" transform="translate(-6359.899 -1176.293)" fill="#c3b5ec"/>
          <rect id="Rectangle_31080" data-name="Rectangle 31080" width="217.81" height="1.223" fill="#c3b5ec"/>
        </g>
        <g id="Group_90611" data-name="Group 90611" transform="translate(465.576 18.5)">
          <path id="Path_134641" data-name="Path 134641" d="M6665.516,1194.147h0Z" transform="translate(-6665.516 -1193.535)" fill="#c3b5ec"/>
          <rect id="Rectangle_31081" data-name="Rectangle 31081" width="94.77" height="1.223" fill="#c3b5ec"/>
        </g>
        <g id="Group_90612" data-name="Group 90612" transform="translate(263.081 18.5)">
          <path id="Path_134642" data-name="Path 134642" d="M6290.937,1194.147h0Z" transform="translate(-6290.937 -1193.535)" fill="#c3b5ec"/>
          <rect id="Rectangle_31082" data-name="Rectangle 31082" width="173.345" height="1.223" fill="#c3b5ec"/>
        </g>
        <g id="Group_90613" data-name="Group 90613" transform="translate(132.653 18.5)">
          <path id="Path_134643" data-name="Path 134643" d="M6049.669,1194.147h0Z" transform="translate(-6049.669 -1193.535)" fill="#c3b5ec"/>
          <rect id="Rectangle_31083" data-name="Rectangle 31083" width="25.749" height="1.223" transform="translate(0)" fill="#c3b5ec"/>
        </g>
        <g id="Group_90614" data-name="Group 90614" transform="translate(166.013 18.5)">
          <path id="Path_134644" data-name="Path 134644" d="M6111.379,1194.147h0Z" transform="translate(-6111.379 -1193.535)" fill="#c3b5ec"/>
          <rect id="Rectangle_31084" data-name="Rectangle 31084" width="7.778" height="1.223" fill="#c3b5ec"/>
        </g>
        <g id="Group_90615" data-name="Group 90615" transform="translate(544.642 9.321)">
          <path id="Path_134645" data-name="Path 134645" d="M6811.774,1177.169h0Z" transform="translate(-6811.773 -1176.557)" fill="#c3b5ec"/>
          <rect id="Rectangle_31085" data-name="Rectangle 31085" width="44.293" height="1.223" fill="#c3b5ec"/>
        </g>
        <g id="Group_90616" data-name="Group 90616" transform="translate(215.796 9.178)">
          <path id="Path_134646" data-name="Path 134646" d="M6203.468,1176.905h0Z" transform="translate(-6203.468 -1176.293)" fill="#c3b5ec"/>
          <rect id="Rectangle_31086" data-name="Rectangle 31086" width="67.144" height="1.223" transform="translate(0)" fill="#c3b5ec"/>
        </g>
        <g id="Group_90617" data-name="Group 90617" transform="translate(83.964 9.178)">
          <path id="Path_134647" data-name="Path 134647" d="M5959.6,1176.905h0Z" transform="translate(-5959.603 -1176.293)" fill="#c3b5ec"/>
          <rect id="Rectangle_31087" data-name="Rectangle 31087" width="117.412" height="1.223" fill="#c3b5ec"/>
        </g>
        <g id="Group_90618" data-name="Group 90618" transform="translate(49.458 9.178)">
          <path id="Path_134648" data-name="Path 134648" d="M5895.775,1176.905h0Z" transform="translate(-5895.774 -1176.293)" fill="#c3b5ec"/>
          <rect id="Rectangle_31088" data-name="Rectangle 31088" width="20.516" height="1.223" fill="#c3b5ec"/>
        </g>
        <rect id="Rectangle_31089" data-name="Rectangle 31089" width="675.156" height="1.223" fill="#c3b5ec"/>
      </g>
      <path id="Path_134649" data-name="Path 134649" d="M6850.128,733.979c-1.937,8.974-5.183,17.616-7.774,26.424-2.667,9.066-5.358,18.289-5.326,27.74a49.505,49.505,0,0,0,13.359,33.442c3.307,3.5,7.168,6.563,9.715,10.651s3.486,9.7.641,13.59c-4.1,5.608-12.882,4.392-18.883,7.9-7.557,4.411-8.606,15.652-4.3,23.268s23.925,29.4,51.916,24.007c12.528-2.415,29.509-14.338,29.025-27.087-.5-13.276-13.181-24.029-12.75-37.307.283-8.7,6.131-16.051,11.194-23.13s9.779-15.7,7.448-24.09c-3.431-12.344-19.329-16.157-27.028-26.4-4.957-6.595-6.049-15.27-6.356-23.514s-.1-16.694-2.848-24.473C6881.492,696.129,6857.81,698.379,6850.128,733.979Z" transform="translate(-6277.817 -609.249)" fill="#c3b5ec"/>
      <rect id="Rectangle_31090" data-name="Rectangle 31090" width="1.317" height="143.083" transform="translate(601.07 172.17)" fill="#403952"/>
      <path id="Path_134650" data-name="Path 134650" d="M6917.471,906l-1.3-.214c2.13-12.944,16.851-20.995,17.477-21.331l.624,1.161C6934.124,885.693,6919.495,893.7,6917.471,906Z" transform="translate(-6315.092 -692.484)" fill="#40327a"/>
      <path id="Path_134651" data-name="Path 134651" d="M6906,1015.22c-1.441-8.754-11.868-14.453-11.973-14.51l.624-1.161c.453.243,11.1,6.069,12.649,15.457Z" transform="translate(-6304.917 -745.36)" fill="#403952"/>
      <path id="Rectangle_31091" data-name="Rectangle 31091" d="M0,0H47.42a0,0,0,0,1,0,0V6.253a23.71,23.71,0,0,1-23.71,23.71h0A23.71,23.71,0,0,1,0,6.253V0A0,0,0,0,1,0,0Z" transform="translate(577.906 310.314)" fill="#ffba5b"/>
      <path id="Path_134652" data-name="Path 134652" d="M6881.167,1139.394a16.925,16.925,0,0,1-9.078-15.019v-5.025h1.317v5.025a15.613,15.613,0,0,0,8.373,13.853Z" transform="translate(-6294.841 -800.397)" fill="#403952"/>
      <rect id="Rectangle_31092" data-name="Rectangle 31092" width="47.42" height="1.317" transform="translate(577.906 314.595)" fill="#fff"/>
      <rect id="Rectangle_31093" data-name="Rectangle 31093" width="30.207" height="1.317" transform="translate(595.12 309.655)" fill="#403952"/>
      <rect id="Rectangle_31094" data-name="Rectangle 31094" width="31.574" height="1.223" transform="translate(582.545 340.277)" fill="#403952"/>
      <rect id="Rectangle_31095" data-name="Rectangle 31095" width="70.749" height="1.223" transform="translate(55.774 340.277)" fill="#403952"/>
      <rect id="Rectangle_31096" data-name="Rectangle 31096" width="5.746" height="1.223" transform="translate(432.021 340.277)" fill="#403952"/>
      <rect id="Rectangle_31097" data-name="Rectangle 31097" width="172.337" height="1.223" transform="translate(252.548 340.277)" fill="#403952"/>
      <rect id="Rectangle_31098" data-name="Rectangle 31098" width="84" height="1.223" transform="translate(457.605 340.277)" fill="#403952"/>
      <rect id="Rectangle_31099" data-name="Rectangle 31099" width="5.539" height="1.223" transform="translate(39.157 340.277)" fill="#403952"/>
      <rect id="Rectangle_31100" data-name="Rectangle 31100" width="11.927" height="1.223" transform="translate(620.611 340.277)" fill="#403952"/>
      <path id="Path_134653" data-name="Path 134653" d="M5813.99,891.539a5.5,5.5,0,1,1,5.5-5.5A5.511,5.511,0,0,1,5813.99,891.539Zm0-9.786a4.282,4.282,0,1,0,4.282,4.281A4.287,4.287,0,0,0,5813.99,881.752Z" transform="translate(-5806.215 -690.681)" fill="#ffba5b"/>
      <g id="Group_90626" data-name="Group 90626" transform="translate(632.402 6.728)">
        <g id="Group_90620" data-name="Group 90620" transform="translate(21.281)">
          <rect id="Rectangle_31101" data-name="Rectangle 31101" width="1.468" height="6.29" fill="#ffba5b"/>
          <rect id="Rectangle_31102" data-name="Rectangle 31102" width="1.468" height="6.29" transform="translate(0 37.74)" fill="#ffba5b"/>
        </g>
        <g id="Group_90621" data-name="Group 90621" transform="translate(10.372 2.583)">
          <rect id="Rectangle_31103" data-name="Rectangle 31103" width="1.468" height="6.29" transform="translate(0 0.734) rotate(-30.003)" fill="#ffba5b"/>
          <rect id="Rectangle_31104" data-name="Rectangle 31104" width="1.468" height="6.29" transform="matrix(0.866, -0.5, 0.5, 0.866, 18.87, 33.417)" fill="#ffba5b"/>
        </g>
        <g id="Group_90622" data-name="Group 90622" transform="translate(2.583 10.372)">
          <rect id="Rectangle_31105" data-name="Rectangle 31105" width="1.468" height="6.29" transform="matrix(0.5, -0.866, 0.866, 0.5, 0, 1.271)" fill="#ffba5b"/>
          <rect id="Rectangle_31106" data-name="Rectangle 31106" width="1.468" height="6.29" transform="matrix(0.5, -0.866, 0.866, 0.5, 32.683, 20.141)" fill="#ffba5b"/>
        </g>
        <g id="Group_90623" data-name="Group 90623" transform="translate(0 21.281)">
          <rect id="Rectangle_31107" data-name="Rectangle 31107" width="6.29" height="1.468" fill="#ffba5b"/>
          <rect id="Rectangle_31108" data-name="Rectangle 31108" width="6.29" height="1.468" transform="translate(37.739)" fill="#ffba5b"/>
        </g>
        <g id="Group_90624" data-name="Group 90624" transform="translate(2.582 10.372)">
          <rect id="Rectangle_31109" data-name="Rectangle 31109" width="6.29" height="1.468" transform="translate(0 22.014) rotate(-29.995)" fill="#ffba5b"/>
          <rect id="Rectangle_31110" data-name="Rectangle 31110" width="6.29" height="1.468" transform="translate(32.684 3.144) rotate(-29.995)" fill="#ffba5b"/>
        </g>
        <g id="Group_90625" data-name="Group 90625" transform="translate(10.372 2.582)">
          <rect id="Rectangle_31111" data-name="Rectangle 31111" width="6.29" height="1.468" transform="translate(0 38.13) rotate(-60.005)" fill="#ffba5b"/>
          <rect id="Rectangle_31112" data-name="Rectangle 31112" width="6.29" height="1.468" transform="matrix(0.5, -0.866, 0.866, 0.5, 18.869, 5.448)" fill="#ffba5b"/>
        </g>
      </g>
      <path id="Path_134654" data-name="Path 134654" d="M6412.447,564.539h-1.516a10.628,10.628,0,0,0-10.617-10.616v-1.517a10.628,10.628,0,0,0,10.617-10.616h1.516a10.628,10.628,0,0,0,10.616,10.616v1.517A10.628,10.628,0,0,0,6412.447,564.539Zm-7.908-11.374a7.15,7.15,0,1,0,14.3,0,7.15,7.15,0,1,0-14.3,0Z" transform="translate(-6078.105 -535.063)" fill="#ffba5b"/>
      <g id="Group_90627" data-name="Group 90627" transform="translate(260.614 32.01)">
        <rect id="Rectangle_31113" data-name="Rectangle 31113" width="278.87" height="289.521" transform="translate(0.612 18.747)" fill="#c3b5ec"/>
        <path id="Path_134655" data-name="Path 134655" d="M6566.376,957.41v108.869h-278.87V992.428Z" transform="translate(-6286.894 -758.011)" fill="#a99ccc"/>
        <rect id="Rectangle_31114" data-name="Rectangle 31114" width="265.053" height="254.399" transform="translate(267.246 30.98) rotate(90)" fill="#fff"/>
        <rect id="Rectangle_31115" data-name="Rectangle 31115" width="254.399" height="1.223" transform="translate(12.847 295.422)" fill="#40327a"/>
        <path id="Path_134656" data-name="Path 134656" d="M6443.611,607.305v30.583h110.1V607.305h-33.8l-8.692-18.747h-25.108l-8.691,18.747Z" transform="translate(-6358.61 -588.558)" fill="#c3b5ec"/>
        <path id="Path_134657" data-name="Path 134657" d="M6443.611,607.305V629.6l110.1-17.151v-5.144h-33.8l-8.692-18.747h-25.108l-8.691,18.747Z" transform="translate(-6358.61 -588.558)" fill="#a99ccc"/>
        <rect id="Rectangle_31116" data-name="Rectangle 31116" width="1.223" height="28.646" transform="translate(278.871 270.656)" fill="#675d84"/>
        <rect id="Rectangle_31117" data-name="Rectangle 31117" width="1.223" height="118.938" transform="translate(278.871 138.671)" fill="#675d84"/>
        <rect id="Rectangle_31118" data-name="Rectangle 31118" width="1.223" height="36.597" transform="translate(0 220.298)" fill="#675d84"/>
        <rect id="Rectangle_31119" data-name="Rectangle 31119" width="1.223" height="2.5" transform="translate(0 211.988)" fill="#675d84"/>
        <rect id="Rectangle_31120" data-name="Rectangle 31120" width="1.223" height="29.457" transform="translate(0 179.523)" fill="#675d84"/>
        <path id="Path_134658" data-name="Path 134658" d="M6598.74,654.432H6540.3v-1.223h57.217V623.237h1.223Z" transform="translate(-6403.029 -604.49)" fill="#675d84"/>
        <rect id="Rectangle_31121" data-name="Rectangle 31121" width="35.697" height="1.223" transform="translate(94.924 48.718)" fill="#675d84"/>
        <path id="Path_134659" data-name="Path 134659" d="M6788.408,670.012h-1.224V623.329h-17.708v-1.223h18.932Z" transform="translate(-6508.314 -603.97)" fill="#a796f2"/>
        <rect id="Rectangle_31122" data-name="Rectangle 31122" width="8.769" height="1.223" transform="translate(220.049 18.136)" fill="#a796f2"/>
        <circle id="Ellipse_4215" data-name="Ellipse 4215" cx="5.224" cy="5.224" r="5.224" transform="translate(133.224 8.284) rotate(-22.5)" fill="#fff"/>
        <path id="Path_134660" data-name="Path 134660" d="M6546.554,605.918l-1.166-.369a4.614,4.614,0,0,0-8.538-3.432l-1.1-.541a5.838,5.838,0,0,1,10.8,4.342Z" transform="translate(-6400.94 -593.042)" fill="#675d84"/>
        <path id="Path_134661" data-name="Path 134661" d="M6540.481,614.807a5.842,5.842,0,0,1-5.835-5.836V608.8l1.224.029,0,.137a4.617,4.617,0,0,0,6.024,4.393l.375,1.165A5.828,5.828,0,0,1,6540.481,614.807Z" transform="translate(-6400.432 -597.86)" fill="#675d84"/>
        <rect id="Rectangle_31123" data-name="Rectangle 31123" width="1.223" height="31.665" transform="translate(84.389 18.747)" fill="#fff"/>
      </g>
      <g id="Group_90642" data-name="Group 90642" transform="translate(40.653 75.848)">
        <circle id="Ellipse_4216" data-name="Ellipse 4216" cx="8.343" cy="8.343" r="8.343" transform="matrix(0.667, -0.745, 0.745, 0.667, 155.263, 61.346)" fill="#675d84"/>
        <path id="Path_134662" data-name="Path 134662" d="M6178.226,741.24l-21.283-39.191-6.742,2.8,12.7,42.748Z" transform="translate(-6003.854 -684.534)" fill="#675d84"/>
        <rect id="Rectangle_31124" data-name="Rectangle 31124" width="167.183" height="9.158" transform="matrix(0.986, -0.168, 0.168, 0.986, 30.867, 61.61)" fill="#ffba5b"/>
        <rect id="Rectangle_31125" data-name="Rectangle 31125" width="167.183" height="9.158" transform="matrix(0.986, -0.168, 0.168, 0.986, 29.329, 52.582)" fill="#ffc87d"/>
        <rect id="Rectangle_31126" data-name="Rectangle 31126" width="167.183" height="9.158" transform="matrix(0.986, -0.168, 0.168, 0.986, 27.79, 43.553)" fill="#ffba5b"/>
        <rect id="Rectangle_31127" data-name="Rectangle 31127" width="13.738" height="27.475" transform="matrix(0.986, -0.168, 0.168, 0.986, 0.705, 48.169)" fill="#ff7758"/>
        <rect id="Rectangle_31128" data-name="Rectangle 31128" width="13.738" height="27.475" transform="matrix(0.986, -0.168, 0.168, 0.986, 14.248, 45.861)" fill="#f3f0fa"/>
        <path id="Path_134663" data-name="Path 134663" d="M6280.224,704.624l-44.468-6.358,4.615,27.085Z" transform="translate(-6043.159 -682.796)" fill="#f3f0fa"/>
        <path id="Path_134664" data-name="Path 134664" d="M6268.744,720.878l-25.757,13.4-1.535-9.028,26.747-7.56Z" transform="translate(-6045.775 -691.717)" fill="#e0d4fa"/>
        <path id="Path_134665" data-name="Path 134665" d="M6305.573,710.025l-14.1,7.334-.545-3.193Z" transform="translate(-6068.505 -688.198)" fill="#e66c4f"/>
        <path id="Path_134666" data-name="Path 134666" d="M6304.647,708.113,6290,712.253l-1.089-6.392Z" transform="translate(-6067.581 -686.285)" fill="#ff7758"/>
        <rect id="Rectangle_31129" data-name="Rectangle 31129" width="13.738" height="9.158" transform="matrix(0.986, -0.168, 0.168, 0.986, 17.325, 63.918)" fill="#e0d4fa"/>
        <rect id="Rectangle_31130" data-name="Rectangle 31130" width="13.738" height="9.158" transform="matrix(0.986, -0.168, 0.168, 0.986, 3.783, 66.225)" fill="#e66c4f"/>
        <rect id="Rectangle_31131" data-name="Rectangle 31131" width="130.971" height="1.223" transform="translate(60.167 65.178) rotate(-9.673)" fill="#403952"/>
        <rect id="Rectangle_31132" data-name="Rectangle 31132" width="26.632" height="1.223" transform="translate(26.616 71.006) rotate(-9.676)" fill="#675d84"/>
        <path id="Path_134667" data-name="Path 134667" d="M5885.678,794l-3.206-18.813,1.206-.205,3,17.607,18.49-3.151.205,1.205Z" transform="translate(-5880.858 -718.039)" fill="#675d84"/>
        <path id="Path_134668" data-name="Path 134668" d="M5880.446,761.414l-.96-5.634,14.145-2.41.206,1.205-12.939,2.2.754,4.428Z" transform="translate(-5879.486 -708.111)" fill="#675d84"/>
        <rect id="Rectangle_31133" data-name="Rectangle 31133" width="1.223" height="23.7" transform="matrix(0.986, -0.168, 0.168, 0.986, 27.187, 43.656)" fill="#fff"/>
        <rect id="Rectangle_31134" data-name="Rectangle 31134" width="1.223" height="18.319" transform="translate(191.995 15.573) rotate(-9.676)" fill="#fff"/>
        <rect id="Rectangle_31135" data-name="Rectangle 31135" width="1.223" height="2.605" transform="translate(16.284 61.453) rotate(-9.669)" fill="#fff"/>
        <rect id="Rectangle_31136" data-name="Rectangle 31136" width="1.223" height="7.065" transform="translate(14.705 52.185) rotate(-9.671)" fill="#fff"/>
        <rect id="Rectangle_31137" data-name="Rectangle 31137" width="27.887" height="1.223" transform="translate(133.874 24.857) rotate(-9.673)" fill="#675d84"/>
        <path id="Path_134669" data-name="Path 134669" d="M6011.76,903.94l-31.1,130.455,9.981,2.638L6027.9,908.207Z" transform="translate(-5925.967 -777.284)" fill="#675d84"/>
        <circle id="Ellipse_4217" data-name="Ellipse 4217" cx="5.162" cy="5.162" r="5.162" transform="translate(52.417 258.313) rotate(-45)" fill="#675d84"/>
        <path id="Path_134670" data-name="Path 134670" d="M5969.48,1153.6H5985v-6.117h-10.331l-5.929,3.234a1.534,1.534,0,0,0-.8,1.348h0A1.535,1.535,0,0,0,5969.48,1153.6Z" transform="translate(-5920.125 -889.168)" fill="#403952"/>
        <circle id="Ellipse_4218" data-name="Ellipse 4218" cx="12.233" cy="12.233" r="12.233" transform="translate(109.032 73.716) rotate(-87.973)" fill="#675d84"/>
        <path id="Path_134671" data-name="Path 134671" d="M5982.856,833.74a8.343,8.343,0,1,1,2.785-11.466A8.344,8.344,0,0,1,5982.856,833.74Z" transform="translate(-5921.147 -737.927)" fill="#675d84"/>
        <path id="Path_134672" data-name="Path 134672" d="M6018.624,789.456l-33.391,22.2-10.5-12.873,28.5-28.2Z" transform="translate(-5923.245 -716.018)" fill="#675d84"/>
        <circle id="Ellipse_4219" data-name="Ellipse 4219" cx="12.233" cy="12.233" r="12.233" transform="translate(71.31 63.628) rotate(-46.25)" fill="#675d84"/>
        <circle id="Ellipse_4220" data-name="Ellipse 4220" cx="12.233" cy="12.233" r="12.233" transform="matrix(0.678, -0.735, 0.735, 0.678, 71.32, 63.944)" fill="#675d84"/>
        <circle id="Ellipse_4221" data-name="Ellipse 4221" cx="12.233" cy="12.233" r="12.233" transform="translate(104.39 61.923) rotate(-45)" fill="#675d84"/>
        <circle id="Ellipse_4222" data-name="Ellipse 4222" cx="8.349" cy="8.349" r="8.349" transform="translate(85.565 120.25)" fill="#675d84"/>
        <circle id="Ellipse_4223" data-name="Ellipse 4223" cx="8.349" cy="8.349" r="8.349" transform="translate(112.653 120.25)" fill="#675d84"/>
        <path id="Path_134673" data-name="Path 134673" d="M6077.52,770.2l-.545,61.031-44.566,1.788-5.432-60.791a8.563,8.563,0,0,1,8.186-9.318l33.45-1.342A8.564,8.564,0,0,1,6077.52,770.2Z" transform="translate(-5947.229 -711.873)" fill="#675d84"/>
        <path id="Path_134674" data-name="Path 134674" d="M6081.623,892.09l-.41,8.349-.02.41a8.349,8.349,0,0,1-8.338,7.94H6045.79a8.35,8.35,0,0,1-8.339-7.94l-.02-.409-.41-8.349Z" transform="translate(-5951.858 -771.84)" fill="#675d84"/>
        <circle id="Ellipse_4224" data-name="Ellipse 4224" cx="5.162" cy="5.162" r="5.162" transform="translate(110.515 258.313) rotate(-45)" fill="#675d84"/>
        <path id="Path_134675" data-name="Path 134675" d="M6060.648,762.672l12.768,43.605,6.535-31.488-.516-12.871Z" transform="translate(-5962.713 -712.038)" fill="#fff"/>
        <path id="Path_134676" data-name="Path 134676" d="M6079.435,761.919l.517,12.871-2.725,13.117-3.812,18.37-5.27-18.006-7.5-25.6Z" transform="translate(-5962.712 -712.038)" fill="#fff"/>
        <path id="Path_134677" data-name="Path 134677" d="M6102.028,959.366l2.544-51.832h-16.7l.006,51.832h-.007v77.882H6098.2l3.785-77.1a7.164,7.164,0,0,0,.046-.784Z" transform="translate(-5975.22 -778.935)" fill="#675d84"/>
        <circle id="Ellipse_4225" data-name="Ellipse 4225" cx="22.301" cy="22.301" r="22.301" transform="translate(76.164 116.377) rotate(-37.946)" fill="#675d84"/>
        <path id="Path_134678" data-name="Path 134678" d="M6083.6,790.634,6079.787,809,6074.517,791l3.009-23.095,1.222-.049Z" transform="translate(-5969.084 -714.766)" fill="#403952"/>
        <path id="Path_134679" data-name="Path 134679" d="M6103.4,1153.6h-15.524v-6.117H6098.2l5.929,3.234a1.535,1.535,0,0,1,.8,1.348h0A1.535,1.535,0,0,1,6103.4,1153.6Z" transform="translate(-5975.22 -889.168)" fill="#403952"/>
        <rect id="Rectangle_31138" data-name="Rectangle 31138" width="15.291" height="16.57" transform="matrix(0.999, -0.04, 0.04, 0.999, 97.271, 34.077)" fill="#ff95a9"/>
        <path id="Path_134680" data-name="Path 134680" d="M6099.857,694.127l-2.208.268-1.8-14.9,2.208-.267a7.5,7.5,0,0,1,8.352,6.549h0A7.5,7.5,0,0,1,6099.857,694.127Z" transform="translate(-5978.883 -674.024)" fill="#403952"/>
        <path id="Rectangle_31139" data-name="Rectangle 31139" d="M0,0H11.118a0,0,0,0,1,0,0V11.648a0,0,0,0,1,0,0H9.089A9.089,9.089,0,0,1,0,2.56V0A0,0,0,0,1,0,0Z" transform="translate(92.094 26.148) rotate(-6.901)" fill="#403952"/>
        <path id="Rectangle_31140" data-name="Rectangle 31140" d="M0,0H1.924A10.143,10.143,0,0,1,12.068,10.143v0A9.171,9.171,0,0,1,2.9,19.314H0a0,0,0,0,1,0,0V0A0,0,0,0,1,0,0Z" transform="matrix(0.993, -0.12, 0.12, 0.993, 111.123, 1.45)" fill="#403952"/>
        <path id="Path_134681" data-name="Path 134681" d="M6082.165,715.65l-19.594,2.372-2.671-22.064a12.241,12.241,0,0,1,10.681-13.623h0a12.241,12.241,0,0,1,13.538,10.1l2.858,16.768A5.559,5.559,0,0,1,6082.165,715.65Z" transform="translate(-5962.328 -675.435)" fill="#ff95a9"/>
        <path id="Path_134682" data-name="Path 134682" d="M6106.552,711.505l-1.776-10.424Z" transform="translate(-5982.985 -684.089)" fill="none"/>
        <path id="Rectangle_31141" data-name="Rectangle 31141" d="M12.784,0h0a0,0,0,0,1,0,0V20.927a0,0,0,0,1,0,0H0a0,0,0,0,1,0,0V12.784A12.784,12.784,0,0,1,12.784,0Z" transform="translate(89.78 7.028) rotate(-6.9)" fill="#403952"/>
        <path id="Path_134683" data-name="Path 134683" d="M6058.728,717.9l3.311-.4-.4-3.312a3.335,3.335,0,0,0-3.712-2.91h0a3.334,3.334,0,0,0-2.91,3.712h0A3.335,3.335,0,0,0,6058.728,717.9Z" transform="translate(-5960.114 -688.763)" fill="#ff95a9"/>
        <path id="Path_134684" data-name="Path 134684" d="M6087.671,684.625l-12.571,1.521a9.37,9.37,0,0,1-10.417-8.167,4.447,4.447,0,1,1,8.83-1.069.466.466,0,0,0,.518.406L6086.6,675.8Z" transform="translate(-5964.552 -671.188)" fill="#403952"/>
        <path id="Path_134685" data-name="Path 134685" d="M6088.019,679.858l-6.254.757a4.447,4.447,0,1,1-1.068-8.83l6.254-.757a4.447,4.447,0,1,1,1.069,8.83Z" transform="translate(-5970.125 -670.268)" fill="#403952"/>
        <path id="Path_134686" data-name="Path 134686" d="M6091.265,729.889a4.454,4.454,0,0,1-3.854,5.168l-8.774,1.062a8.893,8.893,0,0,1-9.9-7.76l-1.251-10.335,3.309-.4h0a3.707,3.707,0,0,0,4.125,3.234l14.5-1.755Z" transform="translate(-5965.855 -691.689)" fill="#403952"/>
        <path id="Path_134687" data-name="Path 134687" d="M6099.878,726.28a3.364,3.364,0,1,1-6.673.861Z" transform="translate(-5977.67 -695.666)" fill="#fff"/>
        <g id="Group_90628" data-name="Group 90628" transform="translate(82.737 123.701)">
          <path id="Path_134688" data-name="Path 134688" d="M6055.337,906.352a4.893,4.893,0,1,0-5.552,4.131A4.894,4.894,0,0,0,6055.337,906.352Z" transform="translate(-6038.537 -899.519)" fill="#ff95a9"/>
          <path id="Path_134689" data-name="Path 134689" d="M6039.834,902.678a3.67,3.67,0,1,1-3.1-4.164A3.67,3.67,0,0,1,6039.834,902.678Z" transform="translate(-6032.533 -898.474)" fill="#ff95a9"/>
          <path id="Path_134690" data-name="Path 134690" d="M6044.27,909.079l-7.779-3.565,2.064-6.968,8.466,1.242Z" transform="translate(-6034.351 -898.508)" fill="#ff95a9"/>
        </g>
        <g id="Group_90629" data-name="Group 90629" transform="translate(51.21 84.346)">
          <path id="Path_134691" data-name="Path 134691" d="M6006.7,871.177l5.841-4.39-25.047-41.115-13.279,9.981,28.338,30.987,2.473,2.706Z" transform="translate(-5974.214 -825.673)" fill="#675d84"/>
          <path id="Path_134692" data-name="Path 134692" d="M6030.782,901.057l5.841-4.39L6033,890.713l-6.36,5.808,2.472,2.706Z" transform="translate(-5998.297 -855.553)" fill="#fff"/>
          <path id="Path_134693" data-name="Path 134693" d="M6032.89,903.766l5.842-4.39-1.687-2.768-5.83,5.327Z" transform="translate(-6000.401 -858.261)" fill="#ff95a9"/>
        </g>
        <path id="Path_134694" data-name="Path 134694" d="M6105.935,761.607l45.115,2.654.443,16.624-44.892,5.088Z" transform="translate(-5983.518 -711.895)" fill="#675d84"/>
        <path id="Path_134695" data-name="Path 134695" d="M6150.017,703.024a3.67,3.67,0,1,0,2.718-4.421A3.67,3.67,0,0,0,6150.017,703.024Z" transform="translate(-6003.723 -682.904)" fill="#ff95a9"/>
        <path id="Path_134696" data-name="Path 134696" d="M6132.916,708.141a4.893,4.893,0,1,1,5.9,3.625A4.893,4.893,0,0,1,6132.916,708.141Z" transform="translate(-5995.851 -684.563)" fill="#ff95a9"/>
        <path id="Path_134697" data-name="Path 134697" d="M6143.3,709.685l7.433-4.237-2.67-6.758-8.324,1.985Z" transform="translate(-5999.046 -682.99)" fill="#ff95a9"/>
        <g id="Group_90630" data-name="Group 90630" transform="translate(112.041 237.55)">
          <path id="Path_134698" data-name="Path 134698" d="M6087.873,1109.074v0Z" transform="translate(-6087.261 -1109.074)" fill="#fff"/>
          <rect id="Rectangle_31142" data-name="Rectangle 31142" width="1.223" height="11.39" transform="translate(0 0)" fill="#403952"/>
        </g>
        <g id="Group_90631" data-name="Group 90631" transform="translate(112.041 189.202)">
          <path id="Path_134699" data-name="Path 134699" d="M6087.873,1019.639v0Z" transform="translate(-6087.261 -1019.639)" fill="#fff"/>
          <rect id="Rectangle_31143" data-name="Rectangle 31143" width="1.223" height="44.142" fill="#403952"/>
        </g>
        <g id="Group_90632" data-name="Group 90632" transform="translate(73.589 138.116)">
          <path id="Path_134700" data-name="Path 134700" d="M6025.549,925.4l-8.85,37.127Z" transform="translate(-6016.111 -925.261)" fill="#fff"/>
          <rect id="Rectangle_31144" data-name="Rectangle 31144" width="38.167" height="1.223" transform="translate(0 37.13) rotate(-76.615)" fill="#403952"/>
        </g>
        <g id="Group_90633" data-name="Group 90633" transform="translate(72.034 177.553)">
          <path id="Path_134701" data-name="Path 134701" d="M6014.833,998.352l-1,4.19Z" transform="translate(-6013.24 -998.21)" fill="#fff"/>
          <rect id="Rectangle_31145" data-name="Rectangle 31145" width="4.306" height="1.223" transform="translate(0 4.189) rotate(-76.615)" fill="#403952"/>
        </g>
        <g id="Group_90634" data-name="Group 90634" transform="translate(55.756 245.488)">
          <path id="Path_134702" data-name="Path 134702" d="M5984.806,1124.018l-1.083,4.543Z" transform="translate(-5983.129 -1123.876)" fill="#fff"/>
          <rect id="Rectangle_31146" data-name="Rectangle 31146" width="4.67" height="1.223" transform="translate(0 4.543) rotate(-76.615)" fill="#403952"/>
        </g>
        <g id="Group_90635" data-name="Group 90635" transform="translate(57.406 233.202)">
          <path id="Path_134703" data-name="Path 134703" d="M5989.136,1101.294l-2.362,9.909Z" transform="translate(-5986.181 -1101.151)" fill="#fff"/>
          <rect id="Rectangle_31147" data-name="Rectangle 31147" width="10.187" height="1.223" transform="matrix(0.231, -0.973, 0.973, 0.231, 0, 9.91)" fill="#403952"/>
        </g>
        <g id="Group_90636" data-name="Group 90636" transform="translate(75.784 78.681)">
          <path id="Path_134704" data-name="Path 134704" d="M6020.3,823.185l10.6-7.049Z" transform="translate(-6019.96 -815.627)" fill="#fff"/>
          <rect id="Rectangle_31148" data-name="Rectangle 31148" width="12.733" height="1.224" transform="matrix(0.833, -0.554, 0.554, 0.833, 0, 7.048)" fill="#403952"/>
        </g>
        <g id="Group_90637" data-name="Group 90637" transform="translate(70.034 87.516)">
          <path id="Path_134705" data-name="Path 134705" d="M6009.663,834.516l3.063-2.036Z" transform="translate(-6009.324 -831.971)" fill="#fff"/>
          <rect id="Rectangle_31149" data-name="Rectangle 31149" width="3.678" height="1.224" transform="matrix(0.833, -0.554, 0.554, 0.833, 0, 2.036)" fill="#403952"/>
        </g>
        <g id="Group_90638" data-name="Group 90638" transform="translate(139.276 68.855)">
          <path id="Path_134706" data-name="Path 134706" d="M6137.247,800.917l24.438-2.769Z" transform="translate(-6137.179 -797.538)" fill="#fff"/>
          <rect id="Rectangle_31150" data-name="Rectangle 31150" width="24.593" height="1.223" transform="translate(0 2.775) rotate(-6.479)" fill="#403952"/>
        </g>
        <g id="Group_90639" data-name="Group 90639" transform="translate(131.737 71.985)">
          <path id="Path_134707" data-name="Path 134707" d="M6123.3,804.429l4.388-.5Z" transform="translate(-6123.233 -803.324)" fill="#fff"/>
          <rect id="Rectangle_31151" data-name="Rectangle 31151" width="4.415" height="1.223" transform="translate(0 0.498) rotate(-6.48)" fill="#403952"/>
        </g>
        <g id="Group_90640" data-name="Group 90640" transform="translate(81.114 82.312)">
          <path id="Path_134708" data-name="Path 134708" d="M6030.66,822.013l1.661,18.587Z" transform="translate(-6030.051 -821.958)" fill="#fff"/>
          <rect id="Rectangle_31152" data-name="Rectangle 31152" width="1.223" height="18.661" transform="translate(0 0.109) rotate(-5.106)" fill="#403952"/>
        </g>
        <g id="Group_90641" data-name="Group 90641" transform="translate(83.188 105.269)">
          <path id="Path_134709" data-name="Path 134709" d="M6034.5,864.479l.2,2.247Z" transform="translate(-6033.886 -864.424)" fill="#fff"/>
          <rect id="Rectangle_31153" data-name="Rectangle 31153" width="1.223" height="2.256" transform="translate(0 0.109) rotate(-5.111)" fill="#403952"/>
        </g>
      </g>
      <g id="Group_90647" data-name="Group 90647" transform="translate(290.697 108.523)">
        <g id="Group_90644" data-name="Group 90644" transform="translate(5.24 10.988)">
          <path id="Path_134710" data-name="Path 134710" d="M6356.264,791.847h-4.55v-7.168h1.224v5.945h3.326Z" transform="translate(-6351.714 -766.157)" fill="#c3b5ec"/>
          <path id="Path_134711" data-name="Path 134711" d="M6383.754,781.051h-18.216v-1.223h16.993V761.179h1.223Z" transform="translate(-6358.065 -755.361)" fill="#c3b5ec"/>
          <g id="Group_90643" data-name="Group 90643" transform="translate(15.446)">
            <path id="Path_134712" data-name="Path 134712" d="M6380.286,751.549h0Z" transform="translate(-6380.286 -750.937)" fill="#c3b5ec"/>
            <rect id="Rectangle_31154" data-name="Rectangle 31154" width="1.796" height="1.223" transform="translate(0)" fill="#c3b5ec"/>
          </g>
          <path id="Path_134713" data-name="Path 134713" d="M6352.938,753.791h-1.224v-3.373h13.267v1.223h-12.043Z" transform="translate(-6351.714 -750.418)" fill="#c3b5ec"/>
        </g>
        <path id="Path_134714" data-name="Path 134714" d="M6356.25,763.642l-14.228-11.74,3.894-4.718,9.422,7.775,19.763-24.866,4.788,3.806Z" transform="translate(-6342.021 -730.092)" fill="#ff7758"/>
        <g id="Group_90645" data-name="Group 90645" transform="translate(5.24 80.884)">
          <path id="Path_134715" data-name="Path 134715" d="M6363.222,924.42h-11.508v-3.312h1.224V923.2h10.284Z" transform="translate(-6351.714 -898.73)" fill="#c3b5ec"/>
          <path id="Path_134716" data-name="Path 134716" d="M6389.11,914.393H6377.2V913.17h10.691V899.283h1.224Z" transform="translate(-6363.42 -888.704)" fill="#c3b5ec"/>
          <rect id="Rectangle_31155" data-name="Rectangle 31155" width="1.223" height="2.214" transform="translate(24.466 5.533)" fill="#c3b5ec"/>
          <path id="Path_134717" data-name="Path 134717" d="M6352.938,899.77h-1.224V879.713h17.625v1.223h-16.4Z" transform="translate(-6351.714 -879.713)" fill="#c3b5ec"/>
        </g>
        <path id="Path_134718" data-name="Path 134718" d="M6356.25,892.937l-14.228-11.74,3.894-4.718,9.422,7.775,19.763-24.866,4.788,3.806Z" transform="translate(-6342.021 -789.492)" fill="#ff7758"/>
        <g id="Group_90646" data-name="Group 90646" transform="translate(5.24 150.781)">
          <path id="Path_134719" data-name="Path 134719" d="M6377.4,1046.461h-25.689v-11.848h1.224v10.625h23.243v-4.254h1.223Z" transform="translate(-6351.714 -1020.772)" fill="#c3b5ec"/>
          <rect id="Rectangle_31156" data-name="Rectangle 31156" width="1.223" height="2.036" transform="translate(24.466 18.176)" fill="#c3b5ec"/>
          <rect id="Rectangle_31157" data-name="Rectangle 31157" width="1.223" height="7.719" transform="translate(24.466 7.752)" fill="#c3b5ec"/>
          <rect id="Rectangle_31158" data-name="Rectangle 31158" width="1.223" height="1.527" transform="translate(24.466 6.225)" fill="#c3b5ec"/>
          <rect id="Rectangle_31159" data-name="Rectangle 31159" width="1.784" height="1.223" transform="translate(14.388)" fill="#c3b5ec"/>
          <path id="Path_134720" data-name="Path 134720" d="M6352.938,1013.905h-1.224v-4.9h12.3v1.223h-11.075Z" transform="translate(-6351.714 -1009.009)" fill="#c3b5ec"/>
        </g>
        <path id="Path_134721" data-name="Path 134721" d="M6356.25,1022.234l-14.228-11.74,3.894-4.718,9.422,7.775,19.763-24.866,4.788,3.806Z" transform="translate(-6342.021 -848.891)" fill="#ff7758"/>
        <text id="El_cumplimiento_normativo." data-name="El cumplimiento
normativo." transform="translate(54.526 20.1)" fill="#403952" font-size="19" font-family="Roboto-Bold, Roboto" font-weight="700"><tspan x="0" y="0">El cumplimiento</tspan><tspan x="0" y="23">normativo.</tspan></text>
        <text id="La_optimización_de_las_operaciones." data-name="La optimización de
las operaciones." transform="translate(54.526 159.892)" fill="#403952" font-size="19" font-family="Roboto-Bold, Roboto" font-weight="700"><tspan x="0" y="0">La optimización de</tspan><tspan x="0" y="23">las operaciones.</tspan></text>
        <text id="La_reducción_de_costos." data-name="La reducción
de costos." transform="translate(54.526 89.996)" fill="#403952" font-size="19" font-family="Roboto-Bold, Roboto" font-weight="700"><tspan x="0" y="0">La reducción</tspan><tspan x="0" y="23">de costos.</tspan></text>
      </g>
    </g>
  </g>
</svg>
