<svg xmlns="http://www.w3.org/2000/svg" width="276" height="250" viewBox="0 0 276 250">
  <g id="t3-i11" transform="translate(-1082 -3854)">
    <g id="Group_90899" data-name="Group 90899" transform="translate(2244.146 3991.8)">
      <g id="Group_90884" data-name="Group 90884" transform="translate(-1162.146 -129.421)">
        <path id="Path_135075" data-name="Path 135075" d="M-996.111-82.371s-12.192,2.63-45.382-15.291-80.345-29.768-76.047,1.17.768,60.6-22.973,90.287-44.2,132.576,31.733,132.213,86.67-32.244,177.227-29.17c28.712.975,47.7-20.407,45.183-63.8s-33.26-46.186-35.357-72.332S-924.366-113.351-996.111-82.371Z" transform="translate(1162.147 115.612)" fill="#fff"/>
      </g>
      <g id="Group_90885" data-name="Group 90885" transform="translate(-912.106 -80.105)">
        <ellipse id="Ellipse_4286" data-name="Ellipse 4286" cx="13.385" cy="8.37" rx="13.385" ry="8.37" transform="translate(0 26.754) rotate(-88)" fill="#fff"/>
      </g>
      <g id="Group_90886" data-name="Group 90886" transform="translate(-1155.255 -109.813)">
        <ellipse id="Ellipse_4287" data-name="Ellipse 4287" cx="21.742" cy="10.979" rx="21.742" ry="10.979" transform="translate(0 43.282) rotate(-84.476)" fill="#fff"/>
      </g>
      <g id="Group_90887" data-name="Group 90887" transform="translate(-1025.006 -137.8)">
        <ellipse id="Ellipse_4288" data-name="Ellipse 4288" cx="10.576" cy="14.454" rx="10.576" ry="14.454" transform="matrix(0.226, -0.974, 0.974, 0.226, 0, 20.607)" fill="#fff"/>
      </g>
    </g>
    <g id="Group_90898" data-name="Group 90898" transform="translate(3400.68 2670.354)">
      <path id="Path_135076" data-name="Path 135076" d="M-2242.773,1238.653v112.823a6.1,6.1,0,0,0,6.1,6.1h85.378a6.1,6.1,0,0,0,6.1-6.1V1238.653h0a6.1,6.1,0,0,0-6.1-6.1h-85.378A6.1,6.1,0,0,0-2242.773,1238.653Z" transform="translate(-0.366 -0.367)" fill="#ffba5b"/>
      <path id="Path_135077" data-name="Path 135077" d="M-2208.8,1245.451v-12.9h38.2v12.9h0a5.4,5.4,0,0,1-5.4,5.4h-27.4A5.4,5.4,0,0,1-2208.8,1245.451Z" transform="translate(-4.648 -0.367)" fill="#ff7480"/>
      <g id="Group_90896" data-name="Group 90896" transform="translate(-2232.976 1242.353)">
        <path id="Path_135078" data-name="Path 135078" d="M-2215.08,1361.285V1350.74h0a5.082,5.082,0,0,0-5.082-5.082h-10.546" transform="translate(2231.089 -1256.975)" fill="#ff7480"/>
        <path id="Path_135079" data-name="Path 135079" d="M-2212.424,1244.185h-13.637a5.083,5.083,0,0,0-5.083,5.082v83.6l16.01,16.009h56.157a5.082,5.082,0,0,0,5.082-5.083v-94.528h0a5.082,5.082,0,0,0-5.082-5.082h-13.636" transform="translate(2231.144 -1244.185)" fill="#f8f8f8"/>
        <path id="Path_135080" data-name="Path 135080" d="M-2215.08,1361.285V1350.74h0a5.082,5.082,0,0,0-5.082-5.082h-10.546" transform="translate(2231.089 -1256.975)" fill="#ffd89b"/>
      </g>
      <path id="Path_135081" data-name="Path 135081" d="M-2208.8,1245.451v-12.9h38.2v12.9h0a5.4,5.4,0,0,1-5.4,5.4h-27.4A5.4,5.4,0,0,1-2208.8,1245.451Z" transform="translate(-4.648 -0.367)" fill="#ff7480"/>
      <path id="Path_135082" data-name="Path 135082" d="M-2245.68,1238.287v112.822a8.648,8.648,0,0,0,8.64,8.64h85.378a8.65,8.65,0,0,0,8.641-8.64V1238.287a8.65,8.65,0,0,0-8.641-8.64h-85.378A8.648,8.648,0,0,0-2245.68,1238.287Zm67.887-3.558v10.355a2.861,2.861,0,0,1-2.858,2.858h-27.4a2.862,2.862,0,0,1-2.859-2.858v-10.355Zm-62.805,3.558a3.562,3.562,0,0,1,3.558-3.558h21.049v5.081h-11.9a7.631,7.631,0,0,0-7.623,7.624v83.6a2.545,2.545,0,0,0,.744,1.8l16.012,16.008a2.545,2.545,0,0,0,1.8.744h23.579a2.541,2.541,0,0,0,2.538-2.538,2.541,2.541,0,0,0-2.538-2.544h-21.038v-8.385a7.63,7.63,0,0,0-7.623-7.623h-8.386v-81.06a2.545,2.545,0,0,1,2.542-2.542h11.9v.19a7.95,7.95,0,0,0,7.941,7.941h27.4a7.95,7.95,0,0,0,7.941-7.941v-.19h11.9a2.544,2.544,0,0,1,2.541,2.542v94.528a2.543,2.543,0,0,1-2.541,2.541h-12.25a2.541,2.541,0,0,0-2.538,2.539,2.541,2.541,0,0,0,2.538,2.544h12.25a7.632,7.632,0,0,0,7.624-7.623v-94.527a7.632,7.632,0,0,0-7.624-7.624h-11.9v-5.082h21.049a3.561,3.561,0,0,1,3.558,3.558v112.822a3.562,3.562,0,0,1-3.558,3.558h-85.378a3.562,3.562,0,0,1-3.558-3.558Zm18.552,95.289a2.543,2.543,0,0,1,2.542,2.541v4.793l-7.336-7.333Z"/>
      <path id="Path_135083" data-name="Path 135083" d="M-2201.794,1296.094l-7.872,7.872-2.361-2.361a2.543,2.543,0,0,0-3.595,0,2.542,2.542,0,0,0,0,3.595h0l4.156,4.157a2.54,2.54,0,0,0,3.594,0l9.669-9.669a2.541,2.541,0,0,0,0-3.594,2.541,2.541,0,0,0-3.594,0h0Z" transform="translate(-3.695 -8.281)"/>
      <path id="Path_135084" data-name="Path 135084" d="M-2184.532,1311.458h12.9a2.541,2.541,0,0,0,2.541-2.542,2.54,2.54,0,0,0-2.541-2.541h-12.9a2.541,2.541,0,0,0-2.542,2.541A2.542,2.542,0,0,0-2184.532,1311.458Z" transform="translate(-7.387 -9.671)"/>
      <path id="Path_135085" data-name="Path 135085" d="M-2184.533,1299.829h25.808a2.541,2.541,0,0,0,2.538-2.544,2.541,2.541,0,0,0-2.538-2.538h-25.808a2.541,2.541,0,0,0-2.544,2.538,2.541,2.541,0,0,0,2.538,2.544Z" transform="translate(-7.386 -8.205)"/>
      <path id="Path_135086" data-name="Path 135086" d="M-2198.2,1323.133a2.541,2.541,0,0,0-3.594,0h0l-7.872,7.872-2.361-2.361a2.542,2.542,0,0,0-3.595,0,2.541,2.541,0,0,0,0,3.594h0l4.156,4.157a2.542,2.542,0,0,0,3.594,0l9.669-9.669A2.542,2.542,0,0,0-2198.2,1323.133Z" transform="translate(-3.695 -11.689)"/>
      <path id="Path_135087" data-name="Path 135087" d="M-2171.623,1338.5a2.541,2.541,0,0,0,2.541-2.542,2.541,2.541,0,0,0-2.541-2.541h-12.909a2.542,2.542,0,0,0-2.542,2.541,2.542,2.542,0,0,0,2.542,2.542Z" transform="translate(-7.387 -13.079)"/>
      <path id="Path_135088" data-name="Path 135088" d="M-2184.532,1326.868h25.808a2.541,2.541,0,0,0,2.541-2.541,2.541,2.541,0,0,0-2.541-2.541h-25.808a2.541,2.541,0,0,0-2.542,2.541A2.542,2.542,0,0,0-2184.532,1326.868Z" transform="translate(-7.387 -11.613)"/>
      <path id="Path_135089" data-name="Path 135089" d="M-2211.467,1281.979a2.542,2.542,0,0,0,3.594,0l9.668-9.669a2.543,2.543,0,0,0,0-3.595,2.541,2.541,0,0,0-3.594,0l-7.872,7.872-2.361-2.361a2.542,2.542,0,0,0-3.593-.067,2.541,2.541,0,0,0-.067,3.593c.022.023.045.045.067.066Z" transform="translate(-3.69 -4.83)"/>
      <path id="Path_135090" data-name="Path 135090" d="M-2184.532,1284.081h12.9a2.541,2.541,0,0,0,2.538-2.544,2.541,2.541,0,0,0-2.538-2.538h-12.9a2.541,2.541,0,0,0-2.538,2.544A2.541,2.541,0,0,0-2184.532,1284.081Z" transform="translate(-7.387 -6.22)"/>
      <path id="Path_135091" data-name="Path 135091" d="M-2184.533,1272.451h25.808a2.542,2.542,0,0,0,2.538-2.545,2.541,2.541,0,0,0-2.538-2.538h-25.808a2.541,2.541,0,0,0-2.544,2.538,2.541,2.541,0,0,0,2.538,2.545Z" transform="translate(-7.386 -4.754)"/>
      <path id="Path_135092" data-name="Path 135092" d="M-2176.378,1361.811a2.537,2.537,0,0,0-.742,1.792,2.538,2.538,0,0,0,2.536,2.539,2.538,2.538,0,0,0,2.538-2.536,2.537,2.537,0,0,0-2.536-2.539A2.567,2.567,0,0,0-2176.378,1361.811Z" transform="translate(-8.641 -16.564)"/>
      <g id="Group_90897" data-name="Group 90897" transform="translate(-2179.853 1323.607)">
        <path id="Path_135093" data-name="Path 135093" d="M-2137.983,1339.458a30.075,30.075,0,0,0-30.075,30.076,30.075,30.075,0,0,0,30.075,30.075,30.075,30.075,0,0,0,30.075-30.075A30.075,30.075,0,0,0-2137.983,1339.458Zm0,51.534a21.458,21.458,0,0,1-21.458-21.458,21.458,21.458,0,0,1,21.458-21.459,21.459,21.459,0,0,1,21.458,21.459A21.459,21.459,0,0,1-2137.983,1390.992Z" transform="translate(2170.07 -1337.447)" fill="#8cc63f"/>
        <circle id="Ellipse_4289" data-name="Ellipse 4289" cx="21.459" cy="21.459" r="21.459" transform="translate(10.628 10.628)" fill="#fff"/>
        <path id="Path_135094" data-name="Path 135094" d="M-2138.273,1401.329a32.123,32.123,0,0,1-32.087-32.086,32.123,32.123,0,0,1,32.087-32.087,32.123,32.123,0,0,1,32.087,32.087A32.123,32.123,0,0,1-2138.273,1401.329Zm0-60.149a28.1,28.1,0,0,0-28.064,28.064,28.1,28.1,0,0,0,28.064,28.063,28.1,28.1,0,0,0,28.064-28.063A28.1,28.1,0,0,0-2138.273,1341.18Zm0,51.534a23.5,23.5,0,0,1-23.469-23.47,23.5,23.5,0,0,1,23.469-23.47,23.5,23.5,0,0,1,23.47,23.47A23.5,23.5,0,0,1-2138.273,1392.714Zm0-42.918a19.469,19.469,0,0,0-19.446,19.447,19.469,19.469,0,0,0,19.446,19.447,19.469,19.469,0,0,0,19.448-19.447A19.469,19.469,0,0,0-2138.273,1349.8Z" transform="translate(2170.36 -1337.157)"/>
      </g>
      <path id="Path_135095" data-name="Path 135095" d="M-2124.381,1364.17a3.2,3.2,0,0,0-4.531,0h0l-9.925,9.925-2.977-2.977a3.2,3.2,0,0,0-4.532,0,3.2,3.2,0,0,0,0,4.531h0l5.242,5.241a3.2,3.2,0,0,0,4.53,0l12.191-12.19A3.2,3.2,0,0,0-2124.381,1364.17Z" transform="translate(-12.402 -16.837)"/>
    </g>
  </g>
</svg>
