<svg xmlns="http://www.w3.org/2000/svg" width="276" height="250" viewBox="0 0 276 250">
  <g id="t3-i10" transform="translate(-1082 -2605)">
    <g id="Group_90888" data-name="Group 90888" transform="translate(2244.146 2742.8)">
      <g id="Group_90884" data-name="Group 90884" transform="translate(-1162.146 -129.421)">
        <path id="Path_135075" data-name="Path 135075" d="M-996.111-82.371s-12.192,2.63-45.382-15.291-80.345-29.768-76.047,1.17.768,60.6-22.973,90.287-44.2,132.576,31.733,132.213,86.67-32.244,177.227-29.17c28.712.975,47.7-20.407,45.183-63.8s-33.26-46.186-35.357-72.332S-924.366-113.351-996.111-82.371Z" transform="translate(1162.147 115.612)" fill="#fff"/>
      </g>
      <g id="Group_90885" data-name="Group 90885" transform="translate(-912.106 -80.105)">
        <ellipse id="Ellipse_4286" data-name="Ellipse 4286" cx="13.385" cy="8.37" rx="13.385" ry="8.37" transform="translate(0 26.754) rotate(-88)" fill="#fff"/>
      </g>
      <g id="Group_90886" data-name="Group 90886" transform="translate(-1155.255 -109.813)">
        <ellipse id="Ellipse_4287" data-name="Ellipse 4287" cx="21.742" cy="10.979" rx="21.742" ry="10.979" transform="translate(0 43.282) rotate(-84.476)" fill="#fff"/>
      </g>
      <g id="Group_90887" data-name="Group 90887" transform="translate(-1025.006 -137.8)">
        <ellipse id="Ellipse_4288" data-name="Ellipse 4288" cx="10.576" cy="14.454" rx="10.576" ry="14.454" transform="matrix(0.226, -0.974, 0.974, 0.226, 0, 20.607)" fill="#fff"/>
      </g>
    </g>
    <g id="Group_90901" data-name="Group 90901" transform="translate(3860.755 1432.74)">
      <path id="Path_135096" data-name="Path 135096" d="M-2570.55,1334.192a18.47,18.47,0,0,1,2.328,8.978,18.491,18.491,0,0,1-18.491,18.491h-106.2a18.491,18.491,0,0,1-18.491-18.491,18.47,18.47,0,0,1,2.329-8.978l51.967-90.4a19.779,19.779,0,0,1,17.295-10.177,19.779,19.779,0,0,1,17.3,10.177Z" transform="translate(-0.443 -0.443)" fill="#ff7758"/>
      <path id="Path_135097" data-name="Path 135097" d="M-2578.954,1341.616a6.881,6.881,0,0,1,.865,3.327,6.858,6.858,0,0,1-6.851,6.85h-106.2a6.858,6.858,0,0,1-6.85-6.85,6.884,6.884,0,0,1,.865-3.327l51.97-90.4a8.143,8.143,0,0,1,7.115-4.187,8.154,8.154,0,0,1,7.119,4.188Z" transform="translate(-2.215 -2.216)" fill="#fff"/>
      <path id="Path_135098" data-name="Path 135098" d="M-2635.618,1283.913h11.64v34.922h-11.64Z" transform="translate(-10.457 -7.09)" fill="#ff7758"/>
      <path id="Path_135099" data-name="Path 135099" d="M-2629.8,1337.565a5.818,5.818,0,0,1,5.821,5.82,5.819,5.819,0,0,1-5.821,5.821,5.819,5.819,0,0,1-5.82-5.821A5.818,5.818,0,0,1-2629.8,1337.565Z" transform="translate(-10.457 -14.179)" fill="#ff7758"/>
      <path id="Path_135100" data-name="Path 135100" d="M-2568.47,1332.3l-51.956-90.382a22.7,22.7,0,0,0-19.829-11.655,22.706,22.706,0,0,0-19.829,11.655l-17.944,31.215a2.911,2.911,0,0,0,1.073,3.973,2.91,2.91,0,0,0,3.973-1.073l17.976-31.271a16.88,16.88,0,0,1,14.75-8.679,16.881,16.881,0,0,1,14.751,8.679l51.977,90.42a15.6,15.6,0,0,1,1.952,7.547,15.6,15.6,0,0,1-15.581,15.581h-106.2a15.6,15.6,0,0,1-15.581-15.581,15.6,15.6,0,0,1,1.952-7.547l22.4-38.97a2.911,2.911,0,0,0-1.074-3.973,2.909,2.909,0,0,0-3.973,1.074s-22.426,39.012-22.431,39.023a21.431,21.431,0,0,0-2.7,10.393,21.425,21.425,0,0,0,21.4,21.4h106.2a21.425,21.425,0,0,0,21.4-21.4,21.431,21.431,0,0,0-2.7-10.393Z"/>
      <path id="Path_135101" data-name="Path 135101" d="M-2700.113,1339.761a9.771,9.771,0,0,0,8.53,14.5h106.2a9.771,9.771,0,0,0,8.531-14.5l-51.979-90.424a11.067,11.067,0,0,0-9.651-5.664,11.056,11.056,0,0,0-9.647,5.665Zm5.081,2.84s51.97-90.4,51.977-90.414a5.234,5.234,0,0,1,4.572-2.692,5.244,5.244,0,0,1,4.576,2.694c.006.011,51.973,90.412,51.973,90.412a3.944,3.944,0,0,1-3.451,5.84h-106.2A3.943,3.943,0,0,1-2695.032,1342.6Z" transform="translate(-1.772 -1.772)"/>
      <path id="Path_135102" data-name="Path 135102" d="M-2630.241,1351.672a8.74,8.74,0,0,0,8.731-8.731,8.739,8.739,0,0,0-8.731-8.73,8.739,8.739,0,0,0-8.73,8.73A8.739,8.739,0,0,0-2630.241,1351.672Zm0-11.641a2.913,2.913,0,0,1,2.911,2.91,2.913,2.913,0,0,1-2.911,2.911,2.913,2.913,0,0,1-2.91-2.911A2.913,2.913,0,0,1-2630.241,1340.032Z" transform="translate(-10.014 -13.736)"/>
      <path id="Path_135103" data-name="Path 135103" d="M-2636.061,1321.3h11.64a2.91,2.91,0,0,0,2.91-2.91V1283.47a2.91,2.91,0,0,0-2.91-2.911h-11.64a2.91,2.91,0,0,0-2.91,2.911v34.922A2.91,2.91,0,0,0-2636.061,1321.3Zm2.91-34.922h5.821v29.1h-5.821Z" transform="translate(-10.014 -6.647)"/>
      <path id="Path_135104" data-name="Path 135104" d="M-2676.636,1295.434a2.912,2.912,0,0,0,2.911-2.911,2.912,2.912,0,0,0-2.911-2.91,2.912,2.912,0,0,0-2.91,2.91A2.912,2.912,0,0,0-2676.636,1295.434Z" transform="translate(-4.653 -7.843)"/>
    </g>
  </g>
</svg>
