<svg xmlns="http://www.w3.org/2000/svg" width="190" height="118" viewBox="0 0 190 118">
  <g id="t4-ix5" transform="translate(-285 -5631.3)">
    <rect id="Rectangle_6951" data-name="Rectangle 6951" width="190" height="118" rx="10" transform="translate(285 5631.3)" fill="#ffba5b" opacity="0.5"/>
    <rect id="Rectangle_6941" data-name="Rectangle 6941" width="11" height="118" transform="translate(464 5631.3)" fill="#ffba5b"/>
    <g id="shield" transform="translate(340 5651.86)">
      <path id="Path_134939" data-name="Path 134939" d="M218.8,104.162a1.177,1.177,0,0,0,1.774-.2l7.757-11.706a1.166,1.166,0,1,0-1.943-1.288l-6.99,10.549-3.884-3.688a1.165,1.165,0,1,0-1.6,1.69l4.891,4.644Zm0,0" transform="translate(-180.363 -75.969)" fill="#12263f"/>
      <path id="Path_134939_-_Outline" data-name="Path 134939 - Outline" d="M219.6,104.827a1.5,1.5,0,0,1-1.038-.411h0l-2.447-2.323-2.389-2.269c-.016-.015-.035-.033-.053-.053h0a1.515,1.515,0,0,1-.056-2.142,1.524,1.524,0,0,1,1.1-.472,1.509,1.509,0,0,1,1.043.416l3.582,3.4,6.76-10.2a1.516,1.516,0,0,1,2.526,1.675l-7.757,11.706A1.515,1.515,0,0,1,219.6,104.827Zm-.557-.92h0a.8.8,0,0,0,.556.218.816.816,0,0,0,.685-.359l7.757-11.706a.816.816,0,1,0-1.36-.9l-7.22,10.9-4.186-3.975a.815.815,0,1,0-1.123,1.183l.172.164h0l4.712,4.474.005,0Z" transform="translate(-180.363 -75.969)" fill="#12263f"/>
      <path id="Path_134940" data-name="Path 134940" d="M135,45.969a1.726,1.726,0,0,0,.714.156h.01a1.705,1.705,0,0,0,.723-.165c17.721-8.428,20.725-26.612,21.222-31.984a2.786,2.786,0,0,0-1.718-2.842A10.185,10.185,0,0,1,149.7,2.585,2.3,2.3,0,0,0,147.413.5H147.4L123.524.64a2.283,2.283,0,0,0-2.274,2.127,10.187,10.187,0,0,1-6.167,8.609,2.776,2.776,0,0,0-1.675,2.858c.561,5.366,3.777,23.514,21.6,31.734ZM116,13.519A12.507,12.507,0,0,0,123.572,2.97l23.806-.14a12.509,12.509,0,0,0,7.684,10.455.469.469,0,0,1,.291.475c-.467,5.035-3.264,22.011-19.639,29.967-16.469-7.762-19.462-24.706-19.989-29.735a.459.459,0,0,1,.274-.473Zm0,0" transform="translate(-95.772 0)" fill="#12263f"/>
      <path id="Path_134940_-_Outline" data-name="Path 134940 - Outline" d="M135.73,46.475h-.011a2.081,2.081,0,0,1-.86-.188c-17.989-8.3-21.233-26.6-21.8-32.016a3.124,3.124,0,0,1,1.886-3.216A9.838,9.838,0,0,0,120.9,2.74,2.631,2.631,0,0,1,123.522.29L147.413.15a2.657,2.657,0,0,1,2.633,2.405,9.836,9.836,0,0,0,6.044,8.255,3.134,3.134,0,0,1,1.933,3.2c-.5,5.419-3.53,23.76-21.421,32.268A2.057,2.057,0,0,1,135.73,46.475ZM147.4.85,123.526.99a1.935,1.935,0,0,0-1.927,1.8,10.536,10.536,0,0,1-6.378,8.9,2.428,2.428,0,0,0-1.465,2.5c.556,5.32,3.742,23.31,21.395,31.453a1.376,1.376,0,0,0,.568.124h.008a1.353,1.353,0,0,0,.574-.131c17.557-8.35,20.532-26.375,21.025-31.7a2.437,2.437,0,0,0-1.5-2.487,10.534,10.534,0,0,1-6.473-8.84A1.952,1.952,0,0,0,147.413.85ZM135.717,44.116l-.152-.071c-16.636-7.841-19.658-24.956-20.188-30.015a.807.807,0,0,1,.484-.831l.057-.025a12.16,12.16,0,0,0,7.3-10.231l.025-.321L147.7,2.479l.029.32A12.165,12.165,0,0,0,155.2,12.962a.818.818,0,0,1,.506.831c-.47,5.064-3.29,22.212-19.834,30.25ZM116.134,13.842a.109.109,0,0,0-.061.113c.519,4.951,3.467,21.666,19.639,29.383C151.794,35.43,154.545,18.685,155,13.728a.119.119,0,0,0-.078-.12,12.86,12.86,0,0,1-7.864-10.426l-23.171.136a12.857,12.857,0,0,1-7.754,10.523Z" transform="translate(-95.772 0)" fill="#12263f"/>
      <path id="Path_134941" data-name="Path 134941" d="M144.127,43.88a1.229,1.229,0,0,0,1.431.819,1.167,1.167,0,0,0,.819-1.43c-.3-1.094-.546-2.2-.742-3.3a16.39,16.39,0,0,0,6.668-8.739l16.83-.1a16.389,16.389,0,0,0,6.77,8.66c-.183,1.1-.419,2.214-.7,3.312a1.166,1.166,0,1,0,2.257.585c.334-1.289.606-2.6.807-3.89a1.782,1.782,0,0,0-.84-1.808,14.065,14.065,0,0,1-6.185-7.928,1.8,1.8,0,0,0-1.713-1.264h-.011l-17.621.1a1.8,1.8,0,0,0-1.709,1.285,14.066,14.066,0,0,1-6.092,8A1.782,1.782,0,0,0,143.274,40c.217,1.289.5,2.593.853,3.877Zm0,0" transform="translate(-120.99 -23.9)" fill="#12263f"/>
      <path id="Path_134941_-_Outline" data-name="Path 134941 - Outline" d="M145.284,45.086a1.6,1.6,0,0,1-1.5-1.114l-.12-.442h0c-.3-1.149-.548-2.314-.743-3.469a2.131,2.131,0,0,1,.98-2.173,13.715,13.715,0,0,0,5.94-7.8,2.154,2.154,0,0,1,2.042-1.536l17.634-.1a2.157,2.157,0,0,1,2.048,1.512A13.715,13.715,0,0,0,177.6,37.69a2.131,2.131,0,0,1,1,2.161c-.2,1.3-.477,2.62-.814,3.923a1.516,1.516,0,1,1-2.934-.76c.263-1.014.484-2.041.659-3.055a16.81,16.81,0,0,1-6.636-8.477l-16.327.1a16.812,16.812,0,0,1-6.536,8.555c.187,1.013.421,2.036.694,3.045a1.52,1.52,0,0,1-1.063,1.859A1.379,1.379,0,0,1,145.284,45.086Zm-.817-1.286a.911.911,0,0,0,.817.586.678.678,0,0,0,.18-.024.819.819,0,0,0,.574-1c-.3-1.1-.552-2.225-.749-3.332l-.041-.228.194-.127a16.105,16.105,0,0,0,6.526-8.552l.077-.242,17.338-.1.08.241a16.1,16.1,0,0,0,6.626,8.475l.2.124-.038.229c-.184,1.109-.423,2.233-.711,3.343a.816.816,0,1,0,1.579.409c.332-1.281.6-2.578.8-3.856a1.433,1.433,0,0,0-.675-1.454,14.414,14.414,0,0,1-6.339-8.125,1.452,1.452,0,0,0-1.378-1.017h-.011l-17.619.1a1.45,1.45,0,0,0-1.375,1.033,14.415,14.415,0,0,1-6.243,8.2,1.433,1.433,0,0,0-.658,1.462c.216,1.281.5,2.574.845,3.843Z" transform="translate(-120.99 -23.9)" fill="#12263f"/>
      <path id="Path_134942" data-name="Path 134942" d="M189,147.622a1.165,1.165,0,0,0-1.522.632A29.355,29.355,0,0,1,174.8,163.011a29.366,29.366,0,0,1-12.858-14.631,1.166,1.166,0,0,0-2.145.913A31.615,31.615,0,0,0,173.953,165.2a1.784,1.784,0,0,0,1.729-.01,31.6,31.6,0,0,0,13.953-16.049,1.164,1.164,0,0,0-.633-1.521Zm0,0" transform="translate(-134.892 -124.187)" fill="#12263f"/>
      <path id="Path_134942_-_Outline" data-name="Path 134942 - Outline" d="M174.808,165.771a2.143,2.143,0,0,1-1.023-.261A31.955,31.955,0,0,1,159.48,149.43a1.516,1.516,0,0,1,2.789-1.187A29.048,29.048,0,0,0,174.8,162.608a29.038,29.038,0,0,0,12.354-14.487,1.515,1.515,0,1,1,2.8,1.156A31.947,31.947,0,0,1,175.852,165.5,2.149,2.149,0,0,1,174.808,165.771Zm-13.935-17.749a.816.816,0,0,0-.75,1.135,31.272,31.272,0,0,0,14,15.738,1.434,1.434,0,0,0,1.391-.008,31.263,31.263,0,0,0,13.8-15.877.815.815,0,1,0-1.508-.621,29.7,29.7,0,0,1-12.825,14.927l-.171.1-.172-.1a29.711,29.711,0,0,1-13.01-14.8A.816.816,0,0,0,160.874,148.021Z" transform="translate(-134.892 -124.187)" fill="#12263f"/>
      <path id="Path_134943" data-name="Path 134943" d="M25.709,384.273a4.123,4.123,0,1,0,4.124,4.123A4.128,4.128,0,0,0,25.709,384.273Zm0,5.916A1.792,1.792,0,1,1,27.5,388.4,1.794,1.794,0,0,1,25.709,390.189Zm0,0" transform="translate(-18.231 -324.14)" fill="#12263f"/>
      <path id="Path_134943_-_Outline" data-name="Path 134943 - Outline" d="M25.709,392.869a4.473,4.473,0,1,1,4.474-4.473A4.478,4.478,0,0,1,25.709,392.869Zm0-8.246a3.773,3.773,0,1,0,3.774,3.773A3.777,3.777,0,0,0,25.709,384.623Zm0,5.916a2.142,2.142,0,1,1,2.143-2.142A2.145,2.145,0,0,1,25.709,390.539Zm0-3.585a1.442,1.442,0,1,0,1.443,1.442A1.444,1.444,0,0,0,25.709,386.954Z" transform="translate(-18.231 -324.14)" fill="#12263f"/>
      <path id="Path_134944" data-name="Path 134944" d="M78.723,248.383a4.855,4.855,0,0,0-6.7-1.3l-15.235,10.2-3.252-.183-.083-.833a7.073,7.073,0,0,0-6.062-6.319l-.061-.007L30.908,248.5c-.555-.087-2.333-.6-7.218-3.4a18.129,18.129,0,0,0-8.306-2.39v-3.049a2.777,2.777,0,0,0-2.775-2.775H2.775A2.778,2.778,0,0,0,0,239.665v30.028a2.778,2.778,0,0,0,2.775,2.775H12.61a2.778,2.778,0,0,0,2.775-2.775v-.827l14.35,5.434a8.025,8.025,0,0,0,3.34.246l23.844-3.437.018,0a11.724,11.724,0,0,0,5.556-2.489l.042-.036,15.4-13.851a4.855,4.855,0,0,0,.788-6.347Zm-2.342,4.609L61,266.828a9.391,9.391,0,0,1-4.421,1.975L32.75,272.238l-.021,0-.012,0a5.234,5.234,0,0,1-2.207-.141l-15.127-5.728V253.065a1.165,1.165,0,1,0-2.331,0v16.629a.444.444,0,0,1-.444.444H2.775a.444.444,0,0,1-.444-.444V239.665a.444.444,0,0,1,.444-.444H12.61a.444.444,0,0,1,.444.444V247.8a1.165,1.165,0,0,0,2.331,0v-2.753a15.786,15.786,0,0,1,7.146,2.079c5.892,3.379,7.537,3.612,8.078,3.689l.061.007,16.418,1.439a4.749,4.749,0,0,1,4.041,4.237l.062.621L29.21,258.476l-.044,0a2.656,2.656,0,0,1-1.813-.949,1.165,1.165,0,1,0-1.79,1.493,5.047,5.047,0,0,0,3.4,1.778c.72.075,23.514-1.419,23.514-1.419l4.569.257a1.162,1.162,0,0,0,.713-.2l15.562-10.415a2.513,2.513,0,0,1,3.064,3.97Zm0,0" transform="translate(0 -199.659)" fill="#12263f"/>
      <path id="Path_134944_-_Outline" data-name="Path 134944 - Outline" d="M31.972,274.95a7.112,7.112,0,0,1-2.363-.323l-13.874-5.254v.32a3.128,3.128,0,0,1-3.125,3.125H2.775A3.128,3.128,0,0,1-.35,269.693V239.665a3.128,3.128,0,0,1,3.125-3.125H12.61a3.128,3.128,0,0,1,3.125,3.125v2.715a18.529,18.529,0,0,1,8.13,2.42c4.827,2.769,6.559,3.269,7.087,3.355l16.4,1.437.081.01a7.421,7.421,0,0,1,6.36,6.63l.053.535,2.836.159L71.824,246.8a5.194,5.194,0,0,1,6.343,8.2l-15.4,13.853-.048.041A12.078,12.078,0,0,1,57,271.45l-.034.005-23.856,3.439C32.72,274.931,32.338,274.95,31.972,274.95Zm-16.937-6.59,14.824,5.614a6.6,6.6,0,0,0,2.113.277c.342,0,.7-.017,1.061-.051l23.835-3.436.013,0a11.374,11.374,0,0,0,5.39-2.415l.032-.027,15.4-13.849a4.491,4.491,0,0,0-2.993-7.852,4.457,4.457,0,0,0-2.494.759L56.881,257.639l-3.668-.206L53.1,256.3a6.724,6.724,0,0,0-5.763-6.007l-.043-.005-16.439-1.441c-.687-.107-2.554-.7-7.338-3.441a17.816,17.816,0,0,0-8.145-2.344l-.337-.013v-3.386a2.427,2.427,0,0,0-2.425-2.424H2.775A2.427,2.427,0,0,0,.35,239.665v30.028a2.427,2.427,0,0,0,2.425,2.425H12.61a2.427,2.427,0,0,0,2.425-2.425Zm16.92,4.293a5.829,5.829,0,0,1-1.536-.213l-.032-.01-15.353-5.814V253.065a.815.815,0,0,0-1.631,0v16.629a.8.8,0,0,1-.794.794H2.775a.8.8,0,0,1-.794-.794V239.665a.8.8,0,0,1,.794-.794H12.61a.8.8,0,0,1,.794.794V247.8a.815.815,0,0,0,1.631,0v-3.118l.365.016a16.177,16.177,0,0,1,7.3,2.125c5.834,3.346,7.429,3.572,7.953,3.646l.03,0,.017,0,16.435,1.441a5.1,5.1,0,0,1,4.338,4.549l.1.983-22.368,1.381-.025,0-.047,0a3,3,0,0,1-2.05-1.073.815.815,0,1,0-1.253,1.044,4.714,4.714,0,0,0,3.163,1.654h.056c1.7,0,23.182-1.407,23.4-1.421h.021l4.591.258h.047a.809.809,0,0,0,.452-.138l15.562-10.415a2.868,2.868,0,0,1,3.963.766,2.874,2.874,0,0,1-.47,3.755h0L61.218,267.1a9.743,9.743,0,0,1-4.586,2.049h-.006l-23.851,3.438A5.28,5.28,0,0,1,31.955,272.652Zm-1.336-.883a4.9,4.9,0,0,0,2.044.128h.008l.032,0,23.82-3.434a9.042,9.042,0,0,0,4.247-1.9l15.377-13.83.053.059-.052-.061a2.161,2.161,0,0,0-1.436-3.783,2.146,2.146,0,0,0-1.2.366L57.95,259.728a1.507,1.507,0,0,1-.928.254l-4.548-.256c-1.151.075-21.711,1.421-23.423,1.421a1.275,1.275,0,0,1-.129,0,5.41,5.41,0,0,1-3.628-1.9,1.515,1.515,0,1,1,2.328-1.941,2.309,2.309,0,0,0,1.576.824h.016l21.592-1.333-.026-.259a4.4,4.4,0,0,0-3.734-3.924l-16.435-1.441-.055-.007c-.555-.078-2.25-.318-8.2-3.731a15.485,15.485,0,0,0-6.622-2.012V247.8a1.515,1.515,0,0,1-3.031,0v-8.135a.094.094,0,0,0-.094-.094H2.775a.094.094,0,0,0-.094.094v30.028a.094.094,0,0,0,.094.094H12.61a.094.094,0,0,0,.094-.094V253.065a1.515,1.515,0,1,1,3.031,0v13.068Z" transform="translate(0 -199.659)" fill="#12263f"/>
    </g>
  </g>
</svg>
