<svg xmlns="http://www.w3.org/2000/svg" width="400" height="280" viewBox="0 0 400 280">
  <g id="t4-ix3" transform="translate(-5242.429 17.965)">
    <rect id="Rectángulo_31040" data-name="Rectángulo 31040" width="400" height="280" transform="translate(5242.429 -17.965)" fill="none"/>
    <g id="Group_90692" data-name="Group 90692">
      <path id="Path_134798" data-name="Path 134798" d="M5266.738,237.653s-41.054-27.649-16.459-53.506,31.951-22.655,24.871-51.477-35.756-39.542-24.354-61.413c13.686-26.252,44.887-2.3,64.281,6.89,36.055,17.091,35.84-8.458,21.993-32.36s-14.841-63.752,17.137-63.752c34.781,0,111.219,77.754,153.329,131.49,25.2,32.161,43.571,9.783,41.019-10.879-1.622-13.132-5-34.36,2.9-44.127,13.708-16.952,53.975,36.16,68.192,58.852,55.644,88.813-12,120.282-12,120.282Z" fill="#f3f0fa"/>
      <path id="Path_134799" data-name="Path 134799" d="M5577.394,21.04c-1.561-3.7-2.062-6.537-.953-8.875,3.288-6.932,20.048-8.042,30.782-1.3,14.969,9.4,18.927,34.527,12.075,40.1C5611.325,57.462,5585.456,40.145,5577.394,21.04Z" fill="#f3f0fa"/>
    </g>
    <g id="Group_90693" data-name="Group 90693">
      <path id="Path_134800" data-name="Path 134800" d="M5501.579,53.872h-13.655V50.808l6.3-7.986a16.82,16.82,0,0,0,1.8-3.1,6.3,6.3,0,0,0,.549-2.4,4.421,4.421,0,0,0-.572-2.386,1.837,1.837,0,0,0-1.651-.907,1.858,1.858,0,0,0-1.706,1.1,6.032,6.032,0,0,0-.6,2.886h-4.4l-.031-.08A7.724,7.724,0,0,1,5489.4,32.6a6.149,6.149,0,0,1,4.954-2.184,6.563,6.563,0,0,1,4.954,1.842,6.92,6.92,0,0,1,1.778,5.017,8.059,8.059,0,0,1-.993,3.938,36.24,36.24,0,0,1-3.31,4.731l-3.017,4.319h7.812Z" fill="#ff7758"/>
      <path id="Path_134801" data-name="Path 134801" d="M5517.6,44.806q0,4.622-1.835,7.011a6.289,6.289,0,0,1-9.867,0q-1.844-2.391-1.842-7.011V39.837q0-4.607,1.833-7.01a6.263,6.263,0,0,1,9.869,0q1.842,2.4,1.842,7.01Zm-4.51-5.366a10.474,10.474,0,0,0-.587-4.081q-.587-1.286-1.635-1.207h-.1q-1.062-.08-1.635,1.207a10.718,10.718,0,0,0-.572,4.081v5.731a10.654,10.654,0,0,0,.588,4.12q.587,1.294,1.651,1.2h.095q1.049.1,1.62-1.19a10.91,10.91,0,0,0,.571-4.129Z" fill="#ff7758"/>
      <path id="Path_134802" data-name="Path 134802" d="M5533.858,53.872H5520.2V50.808l6.3-7.986a16.742,16.742,0,0,0,1.8-3.1,6.312,6.312,0,0,0,.549-2.4,4.425,4.425,0,0,0-.572-2.386,1.838,1.838,0,0,0-1.651-.907,1.858,1.858,0,0,0-1.706,1.1,6.037,6.037,0,0,0-.6,2.886h-4.4l-.032-.08a7.725,7.725,0,0,1,1.778-5.326,6.15,6.15,0,0,1,4.954-2.184,6.562,6.562,0,0,1,4.954,1.842,6.92,6.92,0,0,1,1.778,5.017,8.043,8.043,0,0,1-.993,3.938,36.24,36.24,0,0,1-3.31,4.731l-3.016,4.319h7.811Z" fill="#ff7758"/>
      <path id="Path_134803" data-name="Path 134803" d="M5549.879,44.806q0,4.622-1.835,7.011a5.875,5.875,0,0,1-4.913,2.389,5.935,5.935,0,0,1-4.954-2.389q-1.841-2.391-1.842-7.011V39.837q0-4.607,1.833-7.01a6.263,6.263,0,0,1,9.869,0q1.842,2.4,1.842,7.01Zm-4.509-5.366a10.48,10.48,0,0,0-.588-4.081q-.587-1.286-1.635-1.207h-.1q-1.063-.08-1.636,1.207a10.734,10.734,0,0,0-.571,4.081v5.731a10.648,10.648,0,0,0,.587,4.12q.587,1.294,1.651,1.2h.1q1.047.1,1.619-1.19a10.894,10.894,0,0,0,.572-4.129Z" fill="#ff7758"/>
    </g>
    <g id="Group_90695" data-name="Group 90695">
      <path id="Path_134804" data-name="Path 134804" d="M5504.047,162.511h-16.426V136.627h4.417v21.466h12.009Z" fill="#ffba5b"/>
      <path id="Path_134805" data-name="Path 134805" d="M5580.38,162.511H5514.6v-4.417h61.358V90.757h4.417Z" fill="#ffba5b"/>
      <g id="Group_90694" data-name="Group 90694">
        <path id="Path_134806" data-name="Path 134806" d="M5543.392,71.96h0Z" fill="#ffba5b"/>
        <rect id="Rectangle_31164" data-name="Rectangle 31164" width="6.485" height="4.417" transform="translate(5543.393 69.752)" fill="#ffba5b"/>
      </g>
      <path id="Path_134807" data-name="Path 134807" d="M5492.038,81.931h-4.417V69.752h47.9v4.417h-43.485Z" fill="#ffba5b"/>
    </g>
    <path id="Path_134808" data-name="Path 134808" d="M5520.076,151.216,5468.7,108.824l14.058-17.034,34.021,28.075,71.359-89.787,17.289,13.743Z" fill="#ff7758"/>
    <g id="Group_90706" data-name="Group 90706">
      <g id="Group_90705" data-name="Group 90705">
        <g id="Group_90696" data-name="Group 90696">
          <path id="Path_134809" data-name="Path 134809" d="M5420.016,249.665h0Z" fill="#c3b5ec"/>
          <rect id="Rectangle_31165" data-name="Rectangle 31165" width="128.779" height="2.263" transform="translate(5420.016 248.533)" fill="#c3b5ec"/>
        </g>
        <g id="Group_90697" data-name="Group 90697">
          <path id="Path_134810" data-name="Path 134810" d="M5517.7,260.9h0Z" fill="#c3b5ec"/>
          <rect id="Rectangle_31166" data-name="Rectangle 31166" width="56.032" height="2.263" transform="translate(5517.698 259.772)" fill="#c3b5ec"/>
        </g>
        <g id="Group_90698" data-name="Group 90698">
          <path id="Path_134811" data-name="Path 134811" d="M5397.974,260.9h0Z" fill="#c3b5ec"/>
          <rect id="Rectangle_31167" data-name="Rectangle 31167" width="102.489" height="2.263" transform="translate(5397.974 259.772)" fill="#c3b5ec"/>
        </g>
        <g id="Group_90699" data-name="Group 90699">
          <path id="Path_134812" data-name="Path 134812" d="M5320.859,260.9h0Z" fill="#c3b5ec"/>
          <rect id="Rectangle_31168" data-name="Rectangle 31168" width="15.224" height="2.263" transform="translate(5320.859 259.772)" fill="#c3b5ec"/>
        </g>
        <g id="Group_90700" data-name="Group 90700">
          <path id="Path_134813" data-name="Path 134813" d="M5340.583,260.9h0Z" fill="#c3b5ec"/>
          <rect id="Rectangle_31169" data-name="Rectangle 31169" width="4.598" height="2.263" transform="translate(5340.583 259.772)" fill="#c3b5ec"/>
        </g>
        <g id="Group_90701" data-name="Group 90701">
          <path id="Path_134814" data-name="Path 134814" d="M5564.445,249.929h0Z" fill="#c3b5ec"/>
          <rect id="Rectangle_31170" data-name="Rectangle 31170" width="26.188" height="2.263" transform="translate(5564.445 248.797)" fill="#c3b5ec"/>
        </g>
        <g id="Group_90702" data-name="Group 90702">
          <path id="Path_134815" data-name="Path 134815" d="M5370.016,249.665h0Z" fill="#c3b5ec"/>
          <rect id="Rectangle_31171" data-name="Rectangle 31171" width="39.699" height="2.263" transform="translate(5370.017 248.533)" fill="#c3b5ec"/>
        </g>
        <g id="Group_90703" data-name="Group 90703">
          <path id="Path_134816" data-name="Path 134816" d="M5292.071,249.665h0Z" fill="#c3b5ec"/>
          <rect id="Rectangle_31172" data-name="Rectangle 31172" width="69.419" height="2.263" transform="translate(5292.071 248.533)" fill="#c3b5ec"/>
        </g>
        <g id="Group_90704" data-name="Group 90704">
          <path id="Path_134817" data-name="Path 134817" d="M5271.671,249.665h0Z" fill="#c3b5ec"/>
          <rect id="Rectangle_31173" data-name="Rectangle 31173" width="12.13" height="2.263" transform="translate(5271.67 248.533)" fill="#c3b5ec"/>
        </g>
        <rect id="Rectangle_31174" data-name="Rectangle 31174" width="399.182" height="2.263" transform="translate(5242.429 237.559)" fill="#c3b5ec"/>
      </g>
      <rect id="Rectangle_31175" data-name="Rectangle 31175" width="18.668" height="2.263" transform="translate(5586.855 237.559)" fill="#403952"/>
      <rect id="Rectangle_31176" data-name="Rectangle 31176" width="41.83" height="2.263" transform="translate(5275.405 237.559)" fill="#403952"/>
      <rect id="Rectangle_31177" data-name="Rectangle 31177" width="3.397" height="2.263" transform="translate(5497.858 237.559)" fill="#403952"/>
      <rect id="Rectangle_31178" data-name="Rectangle 31178" width="101.893" height="2.263" transform="translate(5391.746 237.559)" fill="#403952"/>
      <rect id="Rectangle_31179" data-name="Rectangle 31179" width="49.665" height="2.263" transform="translate(5512.985 237.559)" fill="#403952"/>
      <rect id="Rectangle_31180" data-name="Rectangle 31180" width="3.275" height="2.263" transform="translate(5265.58 237.559)" fill="#403952"/>
      <rect id="Rectangle_31181" data-name="Rectangle 31181" width="7.052" height="2.263" transform="translate(5609.361 237.559)" fill="#403952"/>
    </g>
    <g id="Group_90726" data-name="Group 90726">
      <g id="Group_90711" data-name="Group 90711">
        <path id="Path_134818" data-name="Path 134818" d="M5456.052,76.078a7.466,7.466,0,1,1-10.519-.9A7.465,7.465,0,0,1,5456.052,76.078Z" fill="#675d84"/>
        <path id="Path_134819" data-name="Path 134819" d="M5431.687,49.342l24.17,26.515L5445.9,86.887l-28.813-21.372Z" fill="#675d84"/>
        <circle id="Ellipse_4233" data-name="Ellipse 4233" cx="10.946" cy="10.946" r="10.946" transform="translate(5408.353 59.4) rotate(-54.986)" fill="#675d84"/>
        <circle id="Ellipse_4234" data-name="Ellipse 4234" cx="10.946" cy="10.946" r="10.946" transform="matrix(0.559, -0.829, 0.829, 0.559, 5408.404, 59.678)" fill="#675d84"/>
        <g id="Group_90707" data-name="Group 90707">
          <path id="Path_134820" data-name="Path 134820" d="M5481.618,37.9a4.379,4.379,0,1,0,4.408,4.349A4.378,4.378,0,0,0,5481.618,37.9Z" fill="#ff95a9"/>
          <path id="Path_134821" data-name="Path 134821" d="M5480.583,46.663a3.284,3.284,0,1,1-3.261,3.306A3.282,3.282,0,0,1,5480.583,46.663Z" fill="#ff95a9"/>
          <path id="Path_134822" data-name="Path 134822" d="M5485.859,43.483l-2.1,7.364-6.442-.878-.052-7.656Z" fill="#ff95a9"/>
        </g>
        <g id="Group_90708" data-name="Group 90708">
          <path id="Path_134823" data-name="Path 134823" d="M5483.166,52.008l-4.676-4.57-32.958,27.739,10.632,10.388,23.554-29.274,2.057-2.554Z" fill="#675d84"/>
          <path id="Path_134824" data-name="Path 134824" d="M5483.166,52.008l-4.676-4.57-4.773,4.018,6,4.835,2.057-2.554Z" fill="#fff"/>
          <path id="Path_134825" data-name="Path 134825" d="M5483.166,52l-4.676-4.57L5476.27,49.3l5.5,4.431Z" fill="#ff95a9"/>
        </g>
        <g id="Group_90709" data-name="Group 90709">
          <path id="Path_134826" data-name="Path 134826" d="M5445.625,64.632l-7.675-8.42Z" fill="#fff"/>
          <rect id="Rectangle_31182" data-name="Rectangle 31182" width="1.095" height="11.393" transform="translate(5437.546 56.581) rotate(-42.349)" fill="#403952"/>
        </g>
        <g id="Group_90710" data-name="Group 90710">
          <path id="Path_134827" data-name="Path 134827" d="M5449.787,69.2l-2.217-2.432Z" fill="#fff"/>
          <rect id="Rectangle_31183" data-name="Rectangle 31183" width="1.095" height="3.291" transform="translate(5447.166 67.134) rotate(-42.349)" fill="#403952"/>
        </g>
      </g>
      <path id="Path_134828" data-name="Path 134828" d="M5390.723,114.377,5362.9,231.105l8.931,2.361,33.338-115.271Z" fill="#675d84"/>
      <circle id="Ellipse_4235" data-name="Ellipse 4235" cx="4.619" cy="4.619" r="4.619" transform="translate(5360.86 232.18) rotate(-45)" fill="#675d84"/>
      <path id="Path_134829" data-name="Path 134829" d="M5358.12,237.653h13.891V232.18h-9.244l-5.305,2.893a1.376,1.376,0,0,0-.716,1.206h0A1.374,1.374,0,0,0,5358.12,237.653Z" fill="#403952"/>
      <path id="Path_134830" data-name="Path 134830" d="M5369.174,86.779a7.465,7.465,0,1,1,2.491-10.259A7.465,7.465,0,0,1,5369.174,86.779Z" fill="#675d84"/>
      <path id="Path_134831" data-name="Path 134831" d="M5399.3,66.758l-29.878,19.862-9.39-11.519,25.5-25.233Z" fill="#675d84"/>
      <circle id="Ellipse_4236" data-name="Ellipse 4236" cx="10.946" cy="10.946" r="10.946" transform="translate(5377.765 57.981) rotate(-46.25)" fill="#675d84"/>
      <circle id="Ellipse_4237" data-name="Ellipse 4237" cx="10.946" cy="10.946" r="10.946" transform="matrix(0.678, -0.735, 0.735, 0.678, 5377.773, 58.263)" fill="#675d84"/>
      <circle id="Ellipse_4238" data-name="Ellipse 4238" cx="7.471" cy="7.471" r="7.471" transform="translate(5390.52 108.645)" fill="#675d84"/>
      <circle id="Ellipse_4239" data-name="Ellipse 4239" cx="7.471" cy="7.471" r="7.471" transform="translate(5414.757 108.645)" fill="#675d84"/>
      <path id="Path_134832" data-name="Path 134832" d="M5430.54,53.236l-.488,54.609-39.876,1.6-4.861-54.4a7.663,7.663,0,0,1,7.325-8.338l29.931-1.2A7.662,7.662,0,0,1,5430.54,53.236Z" fill="#675d84"/>
      <path id="Path_134833" data-name="Path 134833" d="M5430.068,108.645l-.366,7.47-.018.367a7.472,7.472,0,0,1-7.462,7.1h-24.216a7.471,7.471,0,0,1-7.462-7.1l-.018-.366-.366-7.47Z" fill="#675d84"/>
      <circle id="Ellipse_4240" data-name="Ellipse 4240" cx="4.619" cy="4.619" r="4.619" transform="translate(5412.844 232.18) rotate(-45)" fill="#675d84"/>
      <path id="Path_134834" data-name="Path 134834" d="M5401.588,46.353l11.425,39.017L5418.86,57.2l-.462-11.517Z" fill="#fff"/>
      <path id="Path_134835" data-name="Path 134835" d="M5418.4,45.679l.462,11.517-2.437,11.737-3.411,16.437L5408.3,69.259l-6.708-22.906Z" fill="#fff"/>
      <path id="Path_134836" data-name="Path 134836" d="M5427.423,162.493l2.276-46.378h-14.941l.005,46.378h-.006V232.18H5424l3.386-68.985a6.171,6.171,0,0,0,.042-.7Z" fill="#675d84"/>
      <circle id="Ellipse_4241" data-name="Ellipse 4241" cx="19.954" cy="19.954" r="19.954" transform="matrix(0.789, -0.615, 0.615, 0.789, 5382.108, 105.18)" fill="#675d84"/>
      <path id="Path_134837" data-name="Path 134837" d="M5416.423,68.933l-3.411,16.437L5408.3,69.259l2.693-20.665,1.094-.044Z" fill="#403952"/>
      <path id="Path_134838" data-name="Path 134838" d="M5428.648,237.653h-13.891V232.18H5424l5.305,2.893a1.376,1.376,0,0,1,.716,1.206h0A1.374,1.374,0,0,1,5428.648,237.653Z" fill="#403952"/>
      <rect id="Rectangle_31184" data-name="Rectangle 31184" width="13.682" height="14.826" transform="matrix(0.999, -0.04, 0.04, 0.999, 5400.994, 31.539)" fill="#ff95a9"/>
      <path id="Path_134839" data-name="Path 134839" d="M5422.2,19.035l-1.975.239-1.614-13.332,1.975-.239a6.713,6.713,0,0,1,7.473,5.859h0A6.714,6.714,0,0,1,5422.2,19.035Z" fill="#403952"/>
      <path id="Rectangle_31185" data-name="Rectangle 31185" d="M0,0H9.948a0,0,0,0,1,0,0V10.423a0,0,0,0,1,0,0H8.14A8.14,8.14,0,0,1,0,2.283V0A0,0,0,0,1,0,0Z" transform="translate(5396.361 24.444) rotate(-6.901)" fill="#403952"/>
      <path id="Rectangle_31186" data-name="Rectangle 31186" d="M0,0H3.372A7.426,7.426,0,0,1,10.8,7.426v3.142a6.714,6.714,0,0,1-6.714,6.714H0a0,0,0,0,1,0,0V0A0,0,0,0,1,0,0Z" transform="matrix(0.993, -0.12, 0.12, 0.993, 5413.388, 2.345)" fill="#403952"/>
      <path id="Path_134840" data-name="Path 134840" d="M5421.185,37.03l-17.532,2.122-2.39-19.742a10.954,10.954,0,0,1,9.558-12.19h0a10.953,10.953,0,0,1,12.113,9.033l2.557,15A4.973,4.973,0,0,1,5421.185,37.03Z" fill="#ff95a9"/>
      <path id="Path_134841" data-name="Path 134841" d="M5424.523,25.579l-1.59-9.328Z" fill="none"/>
      <path id="Rectangle_31187" data-name="Rectangle 31187" d="M9.359,0h2.08a0,0,0,0,1,0,0V18.725a0,0,0,0,1,0,0H0a0,0,0,0,1,0,0V9.359A9.359,9.359,0,0,1,9.359,0Z" transform="translate(5394.291 7.336) rotate(-6.9)" fill="#403952"/>
      <path id="Path_134842" data-name="Path 134842" d="M5402.195,27.12l2.963-.358L5404.8,23.8a2.984,2.984,0,0,0-3.321-2.6h0a2.983,2.983,0,0,0-2.6,3.321h0A2.984,2.984,0,0,0,5402.195,27.12Z" fill="#ff95a9"/>
      <path id="Path_134843" data-name="Path 134843" d="M5424.122,13.071l-11.248,1.362a8.383,8.383,0,0,1-9.32-7.308,3.979,3.979,0,1,1,7.9-.956.417.417,0,0,0,.464.363l11.248-1.362Z" fill="#403952"/>
      <path id="Path_134844" data-name="Path 134844" d="M5419.447,9.628l-5.6.678a3.979,3.979,0,1,1-.957-7.9l5.6-.677a3.979,3.979,0,0,1,.956,7.9Z" fill="#403952"/>
      <path id="Path_134845" data-name="Path 134845" d="M5426.171,35.228a3.983,3.983,0,0,1-3.448,4.624l-7.851.95a7.957,7.957,0,0,1-8.856-6.943l-1.119-9.248,2.96-.358h0a3.318,3.318,0,0,0,3.692,2.894l12.974-1.571Z" fill="#403952"/>
      <path id="Path_134846" data-name="Path 134846" d="M5423.307,28.44a3.01,3.01,0,1,1-5.97.771Z" fill="#fff"/>
      <g id="Group_90712" data-name="Group 90712">
        <path id="Path_134847" data-name="Path 134847" d="M5403.021,117.847a4.378,4.378,0,1,0-4.967,3.7A4.378,4.378,0,0,0,5403.021,117.847Z" fill="#ff95a9"/>
        <path id="Path_134848" data-name="Path 134848" d="M5394.522,115.494a3.284,3.284,0,1,1-2.772-3.726A3.285,3.285,0,0,1,5394.522,115.494Z" fill="#ff95a9"/>
        <path id="Path_134849" data-name="Path 134849" d="M5396.863,121.192,5389.9,118l1.847-6.234,7.575,1.111Z" fill="#ff95a9"/>
      </g>
      <g id="Group_90713" data-name="Group 90713">
        <path id="Path_134850" data-name="Path 134850" d="M5388.846,117.234l5.227-3.928-22.412-36.789-11.882,8.93,25.357,27.727,2.211,2.421Z" fill="#675d84"/>
        <path id="Path_134851" data-name="Path 134851" d="M5388.846,117.234l5.227-3.928-3.246-5.328-5.69,5.2,2.211,2.421Z" fill="#fff"/>
        <path id="Path_134852" data-name="Path 134852" d="M5388.849,117.235l5.227-3.928-1.509-2.477-5.216,4.767Z" fill="#ff95a9"/>
      </g>
      <g id="Group_90714" data-name="Group 90714">
        <path id="Path_134853" data-name="Path 134853" d="M5414.757,213.6v0Z" fill="#fff"/>
        <rect id="Rectangle_31188" data-name="Rectangle 31188" width="1.095" height="10.192" transform="translate(5414.21 213.603)" fill="#403952"/>
      </g>
      <g id="Group_90715" data-name="Group 90715">
        <path id="Path_134854" data-name="Path 134854" d="M5414.757,170.342v0Z" fill="#fff"/>
        <rect id="Rectangle_31189" data-name="Rectangle 31189" width="1.095" height="39.497" transform="translate(5414.21 170.342)" fill="#403952"/>
      </g>
      <g id="Group_90716" data-name="Group 90716">
        <path id="Path_134855" data-name="Path 134855" d="M5388.248,124.759l-7.919,33.221Z" fill="#fff"/>
        <rect id="Rectangle_31190" data-name="Rectangle 31190" width="34.151" height="1.094" transform="translate(5379.804 157.854) rotate(-76.615)" fill="#403952"/>
      </g>
      <g id="Group_90717" data-name="Group 90717">
        <path id="Path_134856" data-name="Path 134856" d="M5379.837,160.045l-.893,3.749Z" fill="#fff"/>
        <rect id="Rectangle_31191" data-name="Rectangle 31191" width="3.853" height="1.094" transform="translate(5378.412 163.667) rotate(-76.615)" fill="#403952"/>
      </g>
      <g id="Group_90718" data-name="Group 90718">
        <path id="Path_134857" data-name="Path 134857" d="M5365.348,220.831l-.969,4.065Z" fill="#fff"/>
        <rect id="Rectangle_31192" data-name="Rectangle 31192" width="4.179" height="1.094" transform="translate(5363.847 224.769) rotate(-76.615)" fill="#403952"/>
      </g>
      <g id="Group_90719" data-name="Group 90719">
        <path id="Path_134858" data-name="Path 134858" d="M5367.968,209.839l-2.114,8.866Z" fill="#fff"/>
        <rect id="Rectangle_31193" data-name="Rectangle 31193" width="9.115" height="1.094" transform="matrix(0.231, -0.973, 0.973, 0.231, 5365.324, 218.579)" fill="#403952"/>
      </g>
      <g id="Group_90720" data-name="Group 90720">
        <path id="Path_134859" data-name="Path 134859" d="M5382.071,78.212l9.488-6.307Z" fill="#fff"/>
        <rect id="Rectangle_31194" data-name="Rectangle 31194" width="11.393" height="1.095" transform="matrix(0.833, -0.554, 0.554, 0.833, 5381.768, 77.756)" fill="#403952"/>
      </g>
      <g id="Group_90721" data-name="Group 90721">
        <path id="Path_134860" data-name="Path 134860" d="M5376.926,81.633l2.74-1.822Z" fill="#fff"/>
        <rect id="Rectangle_31195" data-name="Rectangle 31195" width="3.291" height="1.095" transform="matrix(0.833, -0.554, 0.554, 0.833, 5376.623, 81.177)" fill="#403952"/>
      </g>
      <g id="Group_90722" data-name="Group 90722">
        <path id="Path_134861" data-name="Path 134861" d="M5387.083,74.747l1.486,16.632Z" fill="#fff"/>
        <rect id="Rectangle_31196" data-name="Rectangle 31196" width="1.095" height="16.698" transform="translate(5386.538 74.796) rotate(-5.106)" fill="#403952"/>
      </g>
      <g id="Group_90723" data-name="Group 90723">
        <path id="Path_134862" data-name="Path 134862" d="M5388.938,95.289l.18,2.011Z" fill="#fff"/>
        <rect id="Rectangle_31197" data-name="Rectangle 31197" width="1.095" height="2.019" transform="translate(5388.393 95.338) rotate(-5.111)" fill="#403952"/>
      </g>
      <g id="Group_90724" data-name="Group 90724">
        <path id="Path_134863" data-name="Path 134863" d="M5463.321,76.661l12.736-15.842Z" fill="#fff"/>
        <rect id="Rectangle_31198" data-name="Rectangle 31198" width="20.327" height="1.011" transform="matrix(0.626, -0.78, 0.78, 0.626, 5462.929, 76.346)" fill="#403952"/>
      </g>
      <g id="Group_90725" data-name="Group 90725">
        <path id="Path_134864" data-name="Path 134864" d="M5459.392,81.549l2.287-2.845Z" fill="#fff"/>
        <rect id="Rectangle_31199" data-name="Rectangle 31199" width="3.649" height="1.011" transform="matrix(0.626, -0.78, 0.78, 0.626, 5458.999, 81.233)" fill="#403952"/>
      </g>
    </g>
    <g id="Group_90727" data-name="Group 90727">
      <path id="Path_134865" data-name="Path 134865" d="M5317.849,51.785c1.67,7.739,4.469,15.191,6.7,22.786,2.3,7.818,4.62,15.771,4.592,23.92a42.685,42.685,0,0,1-11.52,28.837c-2.851,3.02-6.181,5.66-8.377,9.185s-3.006,8.367-.553,11.719c3.539,4.835,11.109,3.787,16.284,6.808,6.515,3.8,7.421,13.5,3.706,20.064s-20.631,25.353-44.767,20.7c-10.8-2.082-25.447-12.363-25.029-23.357.435-11.448,11.367-20.72,10.994-32.171-.243-7.5-5.286-13.84-9.652-19.945s-8.432-13.543-6.422-20.774c2.958-10.644,16.667-13.932,23.3-22.763,4.275-5.687,5.216-13.167,5.482-20.277s.084-14.4,2.456-21.1C5290.8,19.147,5311.224,21.087,5317.849,51.785Z" fill="#c3b5ec"/>
      <rect id="Rectangle_31200" data-name="Rectangle 31200" width="1.136" height="123.382" transform="translate(5291.913 92.693)" fill="#403952"/>
      <path id="Path_134866" data-name="Path 134866" d="M5291.921,128.345l1.12-.185c-1.836-11.161-14.53-18.1-15.07-18.393l-.538,1C5277.56,110.835,5290.175,117.739,5291.921,128.345Z" fill="#40327a"/>
      <path id="Path_134867" data-name="Path 134867" d="M5293.041,176.932c1.242-7.549,10.234-12.463,10.325-12.511l-.538-1c-.391.21-9.576,5.233-10.907,13.328Z" fill="#403952"/>
      <path id="Rectangle_31201" data-name="Rectangle 31201" d="M18.78,0h3.331a18.78,18.78,0,0,1,18.78,18.78v7.057a0,0,0,0,1,0,0H0a0,0,0,0,1,0,0V18.78A18.78,18.78,0,0,1,18.78,0Z" transform="translate(5313.023 237.653) rotate(-180)" fill="#ffba5b"/>
      <path id="Path_134868" data-name="Path 134868" d="M5305.988,233.664a14.592,14.592,0,0,0,7.827-12.95V216.38h-1.135v4.334a13.462,13.462,0,0,1-7.22,11.945Z" fill="#403952"/>
      <rect id="Rectangle_31202" data-name="Rectangle 31202" width="40.891" height="1.136" transform="translate(5272.132 215.507)" fill="#fff"/>
      <rect id="Rectangle_31203" data-name="Rectangle 31203" width="26.047" height="1.136" transform="translate(5272.132 211.248)" fill="#403952"/>
    </g>
  </g>
</svg>
