<svg xmlns="http://www.w3.org/2000/svg" xmlns:xlink="http://www.w3.org/1999/xlink" width="219.784" height="286.666" viewBox="0 0 219.784 286.666">
  <defs>
    <linearGradient id="linear-gradient" x1="-7586.831" y1="-1224.858" x2="-7372.294" y2="-1224.858" gradientUnits="objectBoundingBox">
      <stop offset="0" stop-color="#01253d"/>
      <stop offset="1" stop-color="#185076"/>
    </linearGradient>
  </defs>
  <g id="t4-i1" transform="translate(-3484.287 -75.262)">
    <path id="Path_134550" data-name="Path 134550" d="M3628.662,506.717q.072-1.814.065-3.622a83.324,83.324,0,0,0-.655-10.156q-.019-.154-.04-.31a5.378,5.378,0,0,0-1.858-3.457,7.526,7.526,0,0,0-1.119-1.728q-.177-.219-.38-.489-.375-.488-.839-1.139a4.567,4.567,0,0,0-.609-.7,47.142,47.142,0,0,0-5.575-5.495,6.331,6.331,0,0,0-1.528-1.109h-.1a.287.287,0,0,1,.1.2,4.8,4.8,0,0,1-.5,5.385q-.134.178-.274.36a38.156,38.156,0,0,1-2.972,3.287q-.4.383-.809.779-1.733,1.692-3.467,3.6a9.625,9.625,0,0,1-3.347,2.528,1.268,1.268,0,0,0-.3-.6.33.33,0,0,1-.1-.22,1.029,1.029,0,0,0,.2-.4,14.2,14.2,0,0,0-1.009-2.538,17.919,17.919,0,0,0-1.219-2.737.7.7,0,0,0-.31-.31q.908-.629,1.863-1.384,1.5-1.182,3.112-2.673.4-.4,1.234-1.239,1.267-1.268,3.532-3.527a3.343,3.343,0,0,0,.819-2.228,15.886,15.886,0,0,0,1.119-1.629l.2-.4q.205-.284.4-.574a19.829,19.829,0,0,0,2.268-4.466,19.547,19.547,0,0,0,1.089-5.52v-1.728q-.177-1.35-.365-2.543c-.014-.1-.03-.2-.045-.295a17.507,17.507,0,0,0-1.319-3.257,6.519,6.519,0,0,0-.4-.7.088.088,0,0,0-.1-.1,10.259,10.259,0,0,0-1.034-1.5q-.1-.117-.2-.23-3.956-3.966-10.45-3.766a22.022,22.022,0,0,0-10.969,3.247,6.268,6.268,0,0,0-1.708,1.529,6.748,6.748,0,0,0-.719,1.419,3.555,3.555,0,0,0,.4,3.657,6.782,6.782,0,0,0-.7,1.928,9.937,9.937,0,0,0-.21,4.875q.609,1.319-.809,3.047-.909,1.109-1.119,1.419v.1l-.689-.115q-1.406-.214-2.558-.295a48.708,48.708,0,0,0-7-.31,62.519,62.519,0,0,1-17.753-1.718q-2.547-.709-5.075-1.209a4.97,4.97,0,0,0-1.119-.32q-5.176-1.109-10.351-2.028-.11.1-.21.2-3.346-.1-3.747-.2-.1.1-.319.31-2.328-.31-2.937-.41t-5.375-1.109a30.7,30.7,0,0,0-3.047-.41,1.942,1.942,0,0,1,.3-1.009,11.746,11.746,0,0,0-.1-2.747,8.06,8.06,0,0,0-.7-2.128,3.725,3.725,0,0,0,.1-3.047,6.3,6.3,0,0,0-2.937-3.087l.09.04a22.675,22.675,0,0,0-10.551-3.137q-6.5-.2-10.46,3.747a4.532,4.532,0,0,1-.7.909,10.033,10.033,0,0,0-.62.919v.1h-.1v.1a9.175,9.175,0,0,0-1.01,2.028q-.309.819-.619,1.828v.1q-.1.619-.2,1.229v.5a.289.289,0,0,1-.1.2v2.448a18.733,18.733,0,0,0,3.656,10.55q.5.909.909,1.529a4.522,4.522,0,0,0-.909.7l-1.529,1.429a11.648,11.648,0,0,0-1.418,2.428q-.1.619-.21,1.119a.948.948,0,0,1-.1.409,3.429,3.429,0,0,1-.1.809v.1l-.1.11-1.829,2.028q-1.119,1.219-2.228,2.528a8.2,8.2,0,0,0-.72.819l-.4.4q-.27.23-.53.47l-.11.09q-.14.12-.27.25a3.364,3.364,0,0,1-.51.41l-1.219,1.219q-.31.409-.61.809l-.709.71-.1.2a.288.288,0,0,0-.2-.1,9.149,9.149,0,0,0-3.347,6.194,16.652,16.652,0,0,0-.819,4.266q-.1,2.028-.2,3.347-.71,14.107-2.138,28.314-1.069,11.929,9.521,15.765a1.694,1.694,0,0,1-.03.18l-.02.16q-.03.14-.05.27l-.04.24q-.171-.16-1.159,2.668a13.129,13.129,0,0,0-.939,4.376.252.252,0,0,1,.25.15l.04.14q1.518.3,2.8.56a84.611,84.611,0,0,0,1.109,8.792q1.009,5.974,1.409,10.44a71.119,71.119,0,0,1-.6,21.02q-2.238,7.9-.609,18.962.5,3.147,1.728,9.451,1.154,6,1.579,9.047c.014.1.027.193.04.284a11.122,11.122,0,0,0,1.419,5.175q.275.415.569.809a.079.079,0,0,1-.08.04v.519l.18.43a2.614,2.614,0,0,0-.35,1.468,18.157,18.157,0,0,0,.26,4.226,2.006,2.006,0,0,0,2.248,1.638,5.49,5.49,0,0,0,1.549-.339q1.988,5.855,6.124,8.362a15.419,15.419,0,0,0,8.113,1.988q2.937,0,3.626-1.3a1.524,1.524,0,0,0,.17-1.039q-.08-.519-.08-.6v-.09a2.886,2.886,0,0,0,.25-.779,4.32,4.32,0,0,0-.52-2.318,40.827,40.827,0,0,0-4.736-7.083q-1.54-2.066-2.628-3.732a4.237,4.237,0,0,0,.629-.684,4,4,0,0,0,.5-1.518q-.5-1.319-.909-2.648c-.024-.065-.05-.13-.074-.2q.335,0,.674.005,1.319,0,1.518-.47a1.7,1.7,0,0,1,0-.849q2.438,0,9.052,3.5a19.333,19.333,0,0,0,2.837,1.419,20.909,20.909,0,0,0,4.056.839,7.063,7.063,0,0,0,3.967-.09q1.029-.57.949-1.219a.838.838,0,0,0-.09-.379,3.386,3.386,0,0,0,1.309-2.937,5.439,5.439,0,0,0-1.129-3.617q-.133-.171-.28-.34a37.475,37.475,0,0,1-9.711-5.5q-.3-1.579-.49-3.347-.2-2.847-.1-6.194.5-6.484.5-9.841a104.26,104.26,0,0,1,1.428-15.326,144.945,144.945,0,0,1,3.347-15.016,48.9,48.9,0,0,0,2.947-11.269l12.779.609,10.15-28.214-20.2-1.009a24.018,24.018,0,0,0-2.028-9.441q-2.927-7.4-1.518-21.41.11-1.119.11-2.228a.289.289,0,0,1,.2.1,60.125,60.125,0,0,0,11.359,8.422q7.923,4.356,15.935,8.512,3.866,2.038,7.723,3.966a.908.908,0,0,0,.1-.41,6.533,6.533,0,0,0,1.419,1.418,4.03,4.03,0,0,0,3.047,2.947q-.11.31-.41,1.019a10.262,10.262,0,0,0,.819.909,2.521,2.521,0,0,1,.6.3l.1.11a10.749,10.749,0,0,0,4.675,1.119,82.747,82.747,0,0,1-3.756,13.3l.2.5.11.31,1.119,3.547q1.822,19.951,5.325,39.713.742,4.185,1.559,8.362a49.464,49.464,0,0,1-1.908,26.775q-.33.921-.7,1.838a4.591,4.591,0,0,0,.15.48c.04.107.084.213.135.319q.025.061.055.12a1.776,1.776,0,0,0,.479.56l.38.275q-.927.927-1.853,1.783a50.281,50.281,0,0,1-5.75,4.626,8.273,8.273,0,0,1-1.778.809q-1.349.44-1.969.629a5,5,0,0,0-3.127,2.228.624.624,0,0,1-.09.26v.12a3.553,3.553,0,0,1-.45,1.409,8.331,8.331,0,0,0-.619,1.868,28.065,28.065,0,0,0,6.254,1.789,26.751,26.751,0,0,0,6.514.27,29.9,29.9,0,0,0,4.646-3.217,23.692,23.692,0,0,1,4.825-3.127q.8-.619,1.878.45a6.2,6.2,0,0,0,.889.809,1.181,1.181,0,0,0,1.069.17,8.638,8.638,0,0,0,5.1-2.318,14.282,14.282,0,0,0,1.329-5.455,13.648,13.648,0,0,0,0-1.838q-.006-.1-.015-.2-.008-.117-.015-.235l.42-.015a3.068,3.068,0,0,0,1.569-3.886,42.5,42.5,0,0,1-.859-21.31,33.92,33.92,0,0,0,.4-11.939v-.509a27.755,27.755,0,0,1,1.729,5.984q.409,1.828.819,3.247a32.618,32.618,0,0,1,3.247,12.9v2.228a2.86,2.86,0,0,0,.1.61,75.792,75.792,0,0,1-.719,10.45q-.249,2.084-.539,4.126c0,.038-.01.074-.015.11q-.171,1.186-.354,2.358a44.361,44.361,0,0,1-1.319,5.685,2.911,2.911,0,0,0,.3.619,7.64,7.64,0,0,0,.919,1.4q-.335.5-.709,1.064a32.445,32.445,0,0,0-3.007,4.985q-.8,1.5-1.9,3.956a4.892,4.892,0,0,0-.56,1.269v.16a9.9,9.9,0,0,0-.23,1.259,11.5,11.5,0,0,0-.159,1.669,2.167,2.167,0,0,0,1.349,2.378,21.61,21.61,0,0,0,5.544-.09,14.342,14.342,0,0,0,5.056-1.968,9.974,9.974,0,0,0,1.588-2.228q.789-1.658,1.179-2.448a7.756,7.756,0,0,1,3.487-3.876,14.805,14.805,0,0,0,1.509-3.967,7.491,7.491,0,0,0,.18-1.449l.185-.05q.939-.253,1.913-.559.11-.6.21-1.309.1-.519.2-1.019v-1.219q.044-1.317-.03-2.617a28.828,28.828,0,0,0-.38-3.367,36.341,36.341,0,0,1,0-6.7q.509-5.075.909-10.151a65.458,65.458,0,0,0,0-10.35,10.427,10.427,0,0,0-1.119-4.256,18.193,18.193,0,0,0-1.409-3.957,23.916,23.916,0,0,1-1.019-7q-.2-5.895,0-11.879.3-5.275.5-10.45a94.03,94.03,0,0,1,1.019-10.45q.209-1.928.31-3.956a18.559,18.559,0,0,0,2.738-4.776,5.977,5.977,0,0,0,.31-.919q1.418-4.356-2.548-11.46a5.355,5.355,0,0,0,3.667-1.928q.16-.2.3-.4a12.34,12.34,0,0,0,.709-1.019q.3-1.328.6-2.947.595-4.277.919-8.582.184-2.493.279-5,.011-.291.02-.579.09-2.8.01-5.535l.035-3.851Zm-66.928,3.357q-3.866-3.547-7.923-6.794a53.6,53.6,0,0,1-4.576-4.056,77.961,77.961,0,0,1-6.894-7.923q-3.037-3.956-5.785-8.223a80.81,80.81,0,0,1-5.075-9.231,7.333,7.333,0,0,0-1.928-2.638.6.6,0,0,1,.1-.409,4.671,4.671,0,0,0,.819-.61q2.028.81,6.484,3.047.2.1.52.3v.21a14.912,14.912,0,0,0,3.547,2.328.768.768,0,0,1,.1.31,42.333,42.333,0,0,1,6.494,2.128,38.5,38.5,0,0,0,13,2.837,41.218,41.218,0,0,1,12.878,2.438,11.9,11.9,0,0,1,8.122,9.241h.1a4.326,4.326,0,0,1,0,1.319v1.109a31.935,31.935,0,0,0,.31,4.675q.409,3.946.709,13.5,0,.2.31,2.947.1,1.509.1,2.328a8.071,8.071,0,0,0-2.547-.2,1.694,1.694,0,0,0,.1,1.519,31.626,31.626,0,0,0-3.037-.919,11.089,11.089,0,0,1-1.818.41.445.445,0,0,1-.31.1,14.283,14.283,0,0,1-1.838.31,1.568,1.568,0,0,0,.42-.609,49.219,49.219,0,0,1-5.495-3.657Q3565.071,513.121,3561.734,510.074Z" transform="translate(0 -298.716)" fill="#675d84" fill-rule="evenodd"/>
    <g id="Group_90609" data-name="Group 90609" transform="translate(3484.287 75.262)">
      <path id="Path_134551" data-name="Path 134551" d="M4100.273,104.816a20.119,20.119,0,0,0-4.65,6.958,14.829,14.829,0,0,0-.984,5.011V301.354q-.24,18.9-12.378,29.493l-19.372,12.089q-3.2,2.638-6.035,1.878L4035,338.949a28.881,28.881,0,0,0-.38-3.367,36.341,36.341,0,0,1,0-6.7q.51-5.075.909-10.15a65.4,65.4,0,0,0,0-10.35,10.413,10.413,0,0,0-1.119-4.256,18.194,18.194,0,0,0-1.408-3.957,23.9,23.9,0,0,1-1.019-7q-.2-5.895,0-11.879.3-5.275.5-10.45a93.973,93.973,0,0,1,1.019-10.45q.209-1.928.31-3.956a18.565,18.565,0,0,0,2.737-4.776,6.033,6.033,0,0,0,.31-.919q1.418-4.356-2.548-11.46a5.355,5.355,0,0,0,3.667-1.928q.16-.2.3-.4a12.332,12.332,0,0,0,.709-1.019q.3-1.328.6-2.947.595-4.277.919-8.582l46.457,12.448v-5.076L4040.789,219.4q.011-.291.021-.579.089-2.8.01-5.535l.035-3.851,46.112,12.354v-5.075l-46.032-12.334a83.372,83.372,0,0,0-.654-10.156l46.687,12.509v-5.075l-50.083-13.418q-.374-.488-.839-1.139a4.573,4.573,0,0,0-.609-.7,47.2,47.2,0,0,0-5.575-5.495,6.315,6.315,0,0,0-1.528-1.109h-.1a.288.288,0,0,1,.1.2,4.8,4.8,0,0,1-.5,5.385q-.134.178-.275.36a38.106,38.106,0,0,1-2.972,3.287q-.4.383-.81.779-1.732,1.692-3.467,3.6a9.62,9.62,0,0,1-3.347,2.528,1.267,1.267,0,0,0-.3-.6.329.329,0,0,1-.1-.22,1.032,1.032,0,0,0,.2-.4,14.2,14.2,0,0,0-1.009-2.538,17.881,17.881,0,0,0-1.219-2.737.7.7,0,0,0-.31-.31q.908-.629,1.863-1.384,1.5-1.182,3.113-2.673.4-.4,1.233-1.239,1.266-1.268,3.532-3.527a3.34,3.34,0,0,0,.819-2.228,15.855,15.855,0,0,0,1.119-1.628l.2-.4q.205-.284.4-.574l60.464,16.2V186.6l-58.2-15.591a19.547,19.547,0,0,0,1.089-5.52v-1.728q-.177-1.35-.365-2.543l57.462,15.4v-5.075L4026.6,155.369c-.064-.078-.129-.155-.2-.23q-3.956-3.966-10.45-3.766a22.024,22.024,0,0,0-10.97,3.247,6.274,6.274,0,0,0-1.708,1.529,6.723,6.723,0,0,0-.719,1.419,3.554,3.554,0,0,0,.4,3.657,6.79,6.79,0,0,0-.7,1.928,9.942,9.942,0,0,0-.209,4.875q.609,1.319-.809,3.047-.91,1.109-1.119,1.419v.1l-.689-.115V89.55a2.626,2.626,0,0,1,.459-1.718,17.755,17.755,0,0,1,2.817-5.875,15.966,15.966,0,0,1,7.633-6.044,8.592,8.592,0,0,1,5.774-.27l94.413,25.366a9.107,9.107,0,0,0-4.975.49A14.629,14.629,0,0,0,4100.273,104.816Z" transform="translate(-3896.495 -75.262)" fill="#f7f7ff" fill-rule="evenodd"/>
      <path id="Path_134552" data-name="Path 134552" d="M4076.042,1215.963l-6.149-1.649c-.005-.078-.01-.156-.015-.235l.419-.015a3.069,3.069,0,0,0,1.569-3.886,42.493,42.493,0,0,1-.86-21.31,33.909,33.909,0,0,0,.4-11.939v-.51a27.77,27.77,0,0,1,1.728,5.984q.41,1.828.819,3.247a32.606,32.606,0,0,1,3.246,12.9v2.228a2.869,2.869,0,0,0,.1.61,75.711,75.711,0,0,1-.72,10.45Q4076.333,1213.921,4076.042,1215.963Z" transform="translate(-3952.869 -956.393)" fill="#f7f7ff" fill-rule="evenodd"/>
      <path id="Path_134553" data-name="Path 134553" d="M3864.3,1166.92q.741,4.185,1.559,8.362a49.46,49.46,0,0,1-1.908,26.775l-28.283-7.593-.14-.04q-2.637-.709-.07-2.018l19.372-12.089a34.124,34.124,0,0,0,9.371-13.148Z" transform="translate(-3764.274 -948.791)" fill="#f7f7ff" fill-rule="evenodd"/>
      <path id="Path_134554" data-name="Path 134554" d="M3919.085,808.586q-1.729-.1-2.238-.1a11.623,11.623,0,0,0,.609,4.556.287.287,0,0,0,.1.2,6.519,6.519,0,0,1-1.418-1.418,8.692,8.692,0,0,0-.609-.909,10.421,10.421,0,0,1,1.208-5.075,1.733,1.733,0,0,1,.419-.609,1.885,1.885,0,0,1,.6-.1,4.261,4.261,0,0,0,1.01-.1,14.245,14.245,0,0,0,1.838-.31.445.445,0,0,0,.31-.1,1.449,1.449,0,0,1-.31.51A19.576,19.576,0,0,0,3919.085,808.586Z" transform="translate(-3829.36 -658.884)" fill="#f0f0ff" fill-rule="evenodd"/>
      <path id="Path_134555" data-name="Path 134555" d="M3754,543.129a14.91,14.91,0,0,1-3.547-2.328v-.21a15.091,15.091,0,0,1,1.609-7.913q.22-.21.32-.31.4.1,3.747.2l-.2.42a13.384,13.384,0,0,0-1.828,4.866A15.265,15.265,0,0,0,3754,543.129Z" transform="translate(-3697.267 -441.032)" fill="#dbcfff" fill-rule="evenodd"/>
      <path id="Path_134556" data-name="Path 134556" d="M4025.427,301.095l82.344,22.06v-5.075l-82.344-22.06Z" transform="translate(-3917.3 -251.909)" fill="#f0f0ff" fill-rule="evenodd"/>
      <path id="Path_134557" data-name="Path 134557" d="M4025.427,376.445l82.344,22.06v-5.075l-82.344-22.06Z" transform="translate(-3917.3 -312.203)" fill="#f0f0ff" fill-rule="evenodd"/>
      <path id="Path_134558" data-name="Path 134558" d="M4005.1,621.141a7.675,7.675,0,0,0-3.107-2.408l-.04-.02a.339.339,0,0,0,.06-.09.077.077,0,0,0,.01-.03,1.158,1.158,0,0,0,.03-.28,5.485,5.485,0,0,1-.7.3h-.2v.1a.776.776,0,0,0-.32.1,10.419,10.419,0,0,1-3.527.549q-.268-.011-.529-.04.257-.345.529-.739,1.013-1.468,2.219-3.627.5-.919,1.308-2.338a1.834,1.834,0,0,1,.52.1q.512.064,1.149.17.369.063.779.14a6.178,6.178,0,0,1,1.818.709,5.5,5.5,0,0,0,1.009.609h.619q-.2.66-.395,1.339-.619,2.133-1.234,4.446Z" transform="translate(-3894.375 -505.247)" fill="#f0f0ff" fill-rule="evenodd"/>
      <path id="Path_134559" data-name="Path 134559" d="M4018.54,670.347l.055.09q.627,1.015,1.983,2.858a1.608,1.608,0,0,1-.409.609q-.281.422-1.074,1.743-.936,1.554-2.583,4.351a36.581,36.581,0,0,1-1.929,3.647q-.265.349-.5.639a8.248,8.248,0,0,1-.974,1.019,2.749,2.749,0,0,1-.39.28,4.27,4.27,0,0,1-1.249.5h-.03q-.012-.032-.025-.065a.052.052,0,0,0-.005-.015c0-.005,0-.01,0-.015q-.241-.64-.455-1.244-.41-1.269-.659-2.388l-.26-1.958.2-4.975q.1-.5.2-.919a4.313,4.313,0,0,1,.1-.8l.909-4.576v-.1a.288.288,0,0,0,.1-.2v-.1a.3.3,0,0,0,.1-.21.953.953,0,0,0,.12-.5q.2.3-.32,1.109.943.845,1.668,1.4a8.472,8.472,0,0,0,1.279.839,16.5,16.5,0,0,0-.5,2.883,8.425,8.425,0,0,0,.1,2.293,13.974,13.974,0,0,1,1.064-1.978q.431-.675.964-1.369.493-.611,2.473-2.787Z" transform="translate(-3904.977 -549.577)" fill="#f0f0ff" fill-rule="evenodd"/>
      <path id="Path_134560" data-name="Path 134560" d="M4231.677,962.945l41.151,11.03V968.9l-41.151-11.03Z" transform="translate(-4082.338 -781.512)" fill="#f0f0ff" fill-rule="evenodd"/>
      <path id="Path_134561" data-name="Path 134561" d="M4239.578,1042.461q.13-.01,1.249-.3,1.428-.38,3.077-.869a9.735,9.735,0,0,1,1.688-5.2q2.028-3.227,4.946-3.227a3.013,3.013,0,0,1,1.838.47,1.425,1.425,0,0,1,.56,1.2q0,2.1-2.527,3.9a22.076,22.076,0,0,1-6.5,2.857,3.082,3.082,0,0,0,1.119,2.028,4.665,4.665,0,0,0,3.117.989,8.983,8.983,0,0,0,3.7-1.319,22.839,22.839,0,0,1,4.455-1.968,5.485,5.485,0,0,1-.239,1.139,5.019,5.019,0,0,0-.239.959,2.033,2.033,0,0,0,.818,1.628,1.887,1.887,0,0,0,1.1.52,2.811,2.811,0,0,0,1.409-.52,18.838,18.838,0,0,1,3.386-1.7l.48-.11-.48.11a18.838,18.838,0,0,0-3.386,1.7,2.811,2.811,0,0,1-1.409.52,1.887,1.887,0,0,1-1.1-.52,2.033,2.033,0,0,1-.818-1.628,5.019,5.019,0,0,1,.239-.959,5.485,5.485,0,0,0,.239-1.139,22.839,22.839,0,0,0-4.455,1.968,8.983,8.983,0,0,1-3.7,1.319,4.665,4.665,0,0,1-3.117-.989,3.082,3.082,0,0,1-1.119-2.028,22.076,22.076,0,0,0,6.5-2.857q2.528-1.8,2.527-3.9a1.425,1.425,0,0,0-.56-1.2,3.013,3.013,0,0,0-1.838-.47q-2.918,0-4.946,3.227a9.735,9.735,0,0,0-1.688,5.2q-1.649.49-3.077.869Q4239.708,1042.451,4239.578,1042.461Z" transform="translate(-4088.66 -841.526)" fill="#f0f0ff" fill-rule="evenodd"/>
      <path id="Path_134562" data-name="Path 134562" d="M4237.177,1093.71a2.026,2.026,0,0,1,1.089-1.768,3.67,3.67,0,0,1,1.519-.24,22.018,22.018,0,0,1,2.358.19l2.847.369q.849.11,5.874.8.97.14,6.394.909,5.016.7,5.266.7a9.448,9.448,0,0,0,5.915-2.088,7.559,7.559,0,0,0,3.147-4.4,2.8,2.8,0,0,0-1.448-3.287,3.439,3.439,0,0,0-3.107-.4,21.382,21.382,0,0,0-3.017,1.818,5.656,5.656,0,0,1-2.678,1.229q-1.208,0-1.209-1.739a4.411,4.411,0,0,1,.24-.959,5.716,5.716,0,0,0,.239-1.029,5.716,5.716,0,0,1-.239,1.029,4.411,4.411,0,0,0-.24.959q0,1.738,1.209,1.739a5.656,5.656,0,0,0,2.678-1.229,21.382,21.382,0,0,1,3.017-1.818,3.439,3.439,0,0,1,3.107.4,2.8,2.8,0,0,1,1.448,3.287,7.559,7.559,0,0,1-3.147,4.4,9.448,9.448,0,0,1-5.915,2.088q-.25,0-5.266-.7-5.424-.769-6.394-.909-5.024-.689-5.874-.8l-2.847-.369a22.018,22.018,0,0,0-2.358-.19,3.67,3.67,0,0,0-1.519.24A2.026,2.026,0,0,0,4237.177,1093.71Z" transform="translate(-4086.738 -882.294)" fill="#f0f0ff" fill-rule="evenodd"/>
      <path id="Path_134563" data-name="Path 134563" d="M4030.9,839.661a.3.3,0,0,0-.1-.21,7.214,7.214,0,0,1-1.009-3.856,9.275,9.275,0,0,1,1.109-3.657q.51-.7,1.019-1.419h1.828a3.05,3.05,0,0,0-.33.659q-1.958,5.745,2.358,10.71-1.628-.2-3.457-.5A11.869,11.869,0,0,1,4030.9,839.661Z" transform="translate(-3920.788 -679.608)" fill="#dbcfff" fill-rule="evenodd"/>
      <path id="Path_134564" data-name="Path 134564" d="M4002.782,909.529q-.23-.09-.45-.2a13.084,13.084,0,0,1-5.425-4.181q-.221-.289-.429-.595l-.2-5.375,2.767-.11a14.393,14.393,0,0,0,1.459,1.359,14.451,14.451,0,0,1,2.677,3.517Z" transform="translate(-3893.975 -734.46)" fill="#f0f0ff" fill-rule="evenodd"/>
      <path id="Path_134565" data-name="Path 134565" d="M3921.677,1425.92a13.841,13.841,0,0,0,1.7.45.352.352,0,0,1,.26.09A9.365,9.365,0,0,1,3921.677,1425.92Z" transform="translate(-3834.28 -1156.039)" fill="#f0f0ff" fill-rule="evenodd"/>
      <path id="Path_134566" data-name="Path 134566" d="M3597.907,602.335a8.694,8.694,0,0,0-2.228-1.718,16.952,16.952,0,0,0-.4-4.576,5.9,5.9,0,0,0-2.248,1.119,4.879,4.879,0,0,0-1.409,2.128,2.635,2.635,0,0,0-.1,2.138l.2.4a5.06,5.06,0,0,0-.41,2.238v.1q-.31-.709-.61-1.419-2.628-5.275-9.231-10.86-.719-.719-4.166-3.347-1.629-1.429-1.629-1.728,0-3.047,2.947-2.747a20.259,20.259,0,0,1-.909,1.828,27.963,27.963,0,0,1,2.837,1.429q2.947,1.518,6.094,3.547a43.153,43.153,0,0,1,6.185,4.476,5.859,5.859,0,0,0,.819-2.847q.1-1.928.2-2.747a3.4,3.4,0,0,1,.1-.809,3.59,3.59,0,0,1,.31-1.019,1.633,1.633,0,0,0,.1-.4l.1-.1q2.637.819,2.947,5.075v.2a1.992,1.992,0,0,0,.1.61q0,1.319-.1,3.347a21.082,21.082,0,0,0,0,3.047Q3597.607,601.017,3597.907,602.335Z" transform="translate(-3557.417 -482.375)" fill="#f0f0ff" fill-rule="evenodd"/>
      <path id="Path_134567" data-name="Path 134567" d="M3678.925,959.311q-.3-.17-.629-.33a18.11,18.11,0,0,0-2.518-1.1l.4-.5q.619-1.109,1.019-2.028a2.138,2.138,0,0,0,.41-.609,5.7,5.7,0,0,0,.5-1.119q.209-.6.419-1.219a2.248,2.248,0,0,0,.1-.709,1.9,1.9,0,0,0,.1-.6,4.95,4.95,0,0,0,.1-.919,5.994,5.994,0,0,0,1.009.3,16.092,16.092,0,0,0,1.729-.5.384.384,0,0,1,.3-.11v.609a13.332,13.332,0,0,1-1.928,7.1.287.287,0,0,1-.1.2q-.2.329-.389.639Q3679.165,958.891,3678.925,959.311Z" transform="translate(-3637.515 -775.111)" fill="#f0f0ff" fill-rule="evenodd"/>
      <path id="Path_134568" data-name="Path 134568" d="M4002.473,643.907l-.02.04q-.2,1.319-.5,2.947a.955.955,0,0,1-.12.5.3.3,0,0,1-.1.21v.1a.288.288,0,0,1-.1.2v.1l-.909,4.576a4.279,4.279,0,0,0-.1.8q-.1.419-.2.919l-.2,4.975.26,1.958a19.671,19.671,0,0,0,.55,2.2q.16.43.54,1.389a.331.331,0,0,1,.025.045l0,.015a.051.051,0,0,1,.005.015.122.122,0,0,1,.005.035l.02.03h.03l-1.04,11.569a5.493,5.493,0,0,0-1.019-.819l-1.828-1.109q.109-1.019.209-1.938v-.1q.057-1.05.12-2.123.164-2.761.38-5.68v-.21a1.815,1.815,0,0,1,.11-.609,139.91,139.91,0,0,1,2.128-18.463q.31-1.529.609-2.747a2.207,2.207,0,0,0,.3-.71.775.775,0,0,1,.32-.1h.1a5.5,5.5,0,0,1,.7-.3v.3l.04.02c-.007.073-.013.14-.02.2a7.226,7.226,0,0,1-.22,1v.359A1.265,1.265,0,0,1,4002.473,643.907Z" transform="translate(-3895.175 -528.453)" fill="#ff7758" fill-rule="evenodd"/>
      <path id="Path_134569" data-name="Path 134569" d="M3998.205,875.22a12.479,12.479,0,0,0,.44,4.765l-2.767.11q-.1-3.657-.1-4.056v-.51h.2q.274-.043.53-.08Q3997.492,875.3,3998.205,875.22Z" transform="translate(-3893.574 -715.377)" fill="#ff7758" fill-rule="evenodd"/>
      <path id="Path_134570" data-name="Path 134570" d="M3658.4,648.695q0,1.009-.1,2.028a9.914,9.914,0,0,1-2.028.3v.2a4.185,4.185,0,0,1-1.828-1.319l-.2-.4a2.632,2.632,0,0,1,.1-2.138,4.873,4.873,0,0,1,1.409-2.128,5.9,5.9,0,0,1,2.248-1.119A16.952,16.952,0,0,1,3658.4,648.695Z" transform="translate(-3620.141 -530.453)" fill="#e89f3d" fill-rule="evenodd"/>
      <path id="Path_134571" data-name="Path 134571" d="M4018.632,694.805q-.32,2.328-.919,6.484-.51.72-1.019,1.419a4.058,4.058,0,0,1-1.728-1.219l-.909-.909a7.192,7.192,0,0,0-1.219-1.319l-.609-.61-.1-.1a.088.088,0,0,0-.1-.1l1.039-11.569a4.285,4.285,0,0,0,1.249-.5,2.794,2.794,0,0,0,.389-.28,8.221,8.221,0,0,0,.974-1.019q.24-.29.5-.639a36.5,36.5,0,0,0,1.928-3.647q1.647-2.8,2.583-4.351.794-1.321,1.073-1.743a1.608,1.608,0,0,0,.41-.609q.734-1.032,1.368-1.958.237-.347.46-.679a25.241,25.241,0,0,1,1.928-2.438q.2.41.609,1.109l.1.1a.332.332,0,0,0,.1.22,18.873,18.873,0,0,0-1.513,2.138,27.8,27.8,0,0,0-2.168,4.5q-.524,1.366-.984,2.9-1.039,3.123-1.8,6.339-.349,1.486-.64,2.992-.2.9-.38,1.809-.178.929-.33,1.858v.2a2,2,0,0,0-.2.909A2.286,2.286,0,0,0,4018.632,694.805Z" transform="translate(-3906.578 -550.378)" fill="#db664b" fill-rule="evenodd"/>
      <path id="Path_134572" data-name="Path 134572" d="M4008.177,879.185a12.45,12.45,0,0,1-.439-4.765,1.2,1.2,0,0,1,.52-.1,11.187,11.187,0,0,1,1.309-.1h1.019a8.244,8.244,0,0,0,1.329.1,7.456,7.456,0,0,1,1.209.1.3.3,0,0,1,.1.21q-.51,4.556-.909,9.432a14.457,14.457,0,0,0-2.678-3.517A14.424,14.424,0,0,1,4008.177,879.185Z" transform="translate(-3903.106 -714.577)" fill="#db664b" fill-rule="evenodd"/>
      <path id="Path_134573" data-name="Path 134573" d="M3673.86,696.552a150.9,150.9,0,0,1,1.009,19.682,9.965,9.965,0,0,1-.51,5.385,23.763,23.763,0,0,1-1.319,2.837.322.322,0,0,1-.1.21,5.938,5.938,0,0,1-.51.8v.01c0,.061-.068.13-.2.21a2.6,2.6,0,0,1-.4.7,3.337,3.337,0,0,1-1.708-2.478,5.573,5.573,0,0,1-.12-.869q.1-3.047.1-4.256a8.941,8.941,0,0,1,.1-1.429q.2-8.522.1-12.888a57.329,57.329,0,0,0-1.729-14.207,37.719,37.719,0,0,0-1.818-6.294,35.124,35.124,0,0,1-1.629-6.294v-.2a9.907,9.907,0,0,0,2.028-.3,41.241,41.241,0,0,1,3.547,6.9,57.707,57.707,0,0,1,3.048,11.759A2.157,2.157,0,0,1,3673.86,696.552Z" transform="translate(-3628.993 -556.9)" fill="#ffba5b" fill-rule="evenodd"/>
      <path id="Path_134574" data-name="Path 134574" d="M3965.512,207.29a14.619,14.619,0,0,1,5.275-3.317,9.11,9.11,0,0,1,4.975-.49q.37.08.74.2a.086.086,0,0,1,.06.03,6.72,6.72,0,0,1,1.809.919q3.147,2.238,3.147,6.954Zm-4.651,6.958.2.055a3.044,3.044,0,0,1,2.328,3.307V403.828q-.249,18.9-12.378,29.493l-19.372,12.089a10.041,10.041,0,0,1-2.558,1.588l-1.589,1q-3.208,2.638-6.035,1.878l-21.19-5.69v-.145q.043-1.317-.03-2.617l21.85,5.864q2.837.76,6.034-1.878L3947.5,433.32q12.138-10.59,12.378-29.493V219.259A14.812,14.812,0,0,1,3960.861,214.248ZM3833.125,423.409,3861.408,431q-.33.921-.7,1.839a4.431,4.431,0,0,0,.15.479q.059.16.135.32l-28.649-7.683q-2.627-.709-.07-2.018Zm51.782,13.9c0,.038-.01.074-.015.11a37.573,37.573,0,0,0-6.119-1.559c0-.066-.009-.132-.015-.2Z" transform="translate(-3761.733 -177.736)" fill="#e6b9af" fill-rule="evenodd"/>
      <path id="Path_134575" data-name="Path 134575" d="M4037.821,460.128a10.224,10.224,0,0,1,1.034,1.5.088.088,0,0,1,.1.1,6.476,6.476,0,0,1,.4.7,11.937,11.937,0,0,1-2.448,2.218l-.335.225a25.014,25.014,0,0,1-15.79,4.061,4.775,4.775,0,0,0-1.329-.919q-.7-.2-2.828-1.009a11.827,11.827,0,0,1-2.448-1.019,3.556,3.556,0,0,1-.4-3.657,6.758,6.758,0,0,1,.719-1.419,6.273,6.273,0,0,1,1.709-1.529,22.023,22.023,0,0,1,10.97-3.247q6.494-.2,10.45,3.766Q4037.725,460.011,4037.821,460.128Z" transform="translate(-3907.719 -380.021)" fill="#544b6b" fill-rule="evenodd"/>
      <path id="Path_134576" data-name="Path 134576" d="M4113.9,674.763q-.513-3.873-.7-7.388-.116-2.11-.115-4.091v-1.219a29.015,29.015,0,0,1,1.019-7.813q.138-.61.455-1.564.366-1.113.974-2.692.357-1.018.679-1.943.859-2.5,1.449-4.351a47.149,47.149,0,0,1,3.307-4.356,15.574,15.574,0,0,1,4.556-3.856,6.645,6.645,0,0,1,.76-.31,1.658,1.658,0,0,1,.509-.1.279.279,0,0,1,.2-.11q.464.651.839,1.139.2.27.38.489a7.536,7.536,0,0,1,1.118,1.728,4.3,4.3,0,0,0-3.706-.989,5.687,5.687,0,0,0-3.687,2.268c-.051.069-.1.139-.15.21a27.3,27.3,0,0,0-3.906,8.682,29.472,29.472,0,0,0-.7,3.866q-.056.5-.105,1a46.6,46.6,0,0,0,.146,10.016q.132,1.1.319,2.193.264,1.553.51,3.1.51,3.254.929,6.489Z" transform="translate(-3987.437 -523.132)" fill="#403952" fill-rule="evenodd"/>
      <path id="Path_134577" data-name="Path 134577" d="M4130.038,913.223l-10.361,8.112a76.154,76.154,0,0,0,1.929-16.035v-.509q0-1.319-.1-2.638,0-1-.2-6.014a32.489,32.489,0,0,0,9.231-.07q3.967,7.1,2.548,11.46a6.03,6.03,0,0,1-.31.919A18.564,18.564,0,0,1,4130.038,913.223Z" transform="translate(-3992.717 -732.06)" fill="#403952" fill-rule="evenodd"/>
      <path id="Path_134578" data-name="Path 134578" d="M3916.475,1374.307a.352.352,0,0,0-.26-.09,13.813,13.813,0,0,1-1.7-.449l-1.349-.45q-.179-.08-.349-.17v-.629l-.09-.9v-.539a.629.629,0,0,0,.09-.26,5,5,0,0,1,3.127-2.228q.62-.189,1.968-.629a8.244,8.244,0,0,0,1.779-.809,50.3,50.3,0,0,0,5.75-4.625q.926-.856,1.853-1.783.445.311.9.6.56.37,1.129.729l14.577-.5v.31c0,.025,0,.05,0,.075a3.149,3.149,0,0,1-1.264,2.952,8.225,8.225,0,0,1-1.788,1.169q-.53.179-1.159.45l-1.239.45a5.692,5.692,0,0,1-.9.26,50.987,50.987,0,0,0-5.355,1.789,9.136,9.136,0,0,0-2.857,1.7q-.89.719-2.588,2.228a9.417,9.417,0,0,1-2.678,1.788,5.365,5.365,0,0,1-3.227.27l-2.407-.36a.366.366,0,0,1-.27-.09,1.773,1.773,0,0,1-.54-.09h-.179q-.35-.09-.709-.17Z" transform="translate(-3827.119 -1103.887)" fill="#544b6b" fill-rule="evenodd"/>
      <path id="Path_134579" data-name="Path 134579" d="M3654.274,1354.223a5.438,5.438,0,0,1,1.129,3.616,3.386,3.386,0,0,1-1.309,2.937,1.419,1.419,0,0,1-.76.379h-.849a14.624,14.624,0,0,1-4.816-.849,29.919,29.919,0,0,1-4.726-2.178,1.232,1.232,0,0,0-.479-.29q-4.516-2.537-5.1-2.817a20.681,20.681,0,0,0-5.285-1.988q-1.5-.322-2.623-.64-.1-.428-.185-.859-.4-1.928-.7-3.967a13.023,13.023,0,0,0,2.328,1.719,14.189,14.189,0,0,0,6.7.919,17.311,17.311,0,0,0,1.818-.3,19.721,19.721,0,0,0,4.166-1.119,2.208,2.208,0,0,1,.709-.3c-.007-.036-.013-.073-.02-.11a37.485,37.485,0,0,0,9.711,5.505Q3654.142,1354.051,3654.274,1354.223Z" transform="translate(-3599.746 -1093.343)" fill="#544b6b" fill-rule="evenodd"/>
      <path id="Path_134580" data-name="Path 134580" d="M3523.456,954.12q.409.14.839.28h.1q8.642,2.637,17.354,4.816-.2,1.039-.55,2.618-.339,1.619-.559,2.767-1.229.06-2.5.06a50.755,50.755,0,0,1-8.012-.72q-1.668-.27-5.825-1.079-1.278-.26-2.8-.56l-.04-.14a.253.253,0,0,0-.25-.15,13.131,13.131,0,0,1,.939-4.376q.99-2.827,1.159-2.667l.04-.24q.019-.13.05-.27l.02-.16Q3523.446,954.21,3523.456,954.12Z" transform="translate(-3513.837 -778.511)" fill="#403952" fill-rule="evenodd"/>
      <path id="Path_134581" data-name="Path 134581" d="M3540.757,703.788a139.284,139.284,0,0,1-14.217-7.1,123.3,123.3,0,0,1,2.137-16.335,35.781,35.781,0,0,0-3.347-23.858,9.319,9.319,0,0,0-7-4.975l.1-.2.709-.71.609-.809,1.219-1.219a3.366,3.366,0,0,0,.51-.41,15.2,15.2,0,0,1,7.3,6.9,18.47,18.47,0,0,1,1.529,5.485,48.264,48.264,0,0,1,.2,4.965q.2,11.679,3.557,19.382,1.319,3.147,3.047,6.5,1.619,3.447,2.029,4.266A21.153,21.153,0,0,1,3540.757,703.788Z" transform="translate(-3511.526 -533.695)" fill="#403952" fill-rule="evenodd"/>
      <path id="Path_134582" data-name="Path 134582" d="M3584.929,461.359a13.409,13.409,0,0,0-1.628-.1q-1.219-.1-2.537-.2a15.906,15.906,0,0,1-6.8,1.209,7.721,7.721,0,0,1-1.828-.2,11.394,11.394,0,0,1-3.347-1.209,29.774,29.774,0,0,1-2.837-1.928,4.862,4.862,0,0,0-.919-.719q.31-1.009.62-1.828a9.122,9.122,0,0,1,1.009-2.028v-.1h.1v-.1a9.983,9.983,0,0,1,.62-.919,4.523,4.523,0,0,0,.7-.909q3.957-3.946,10.46-3.747a22.675,22.675,0,0,1,10.55,3.137l-.09-.04a6.3,6.3,0,0,1,2.937,3.087,3.723,3.723,0,0,1-.1,3.047,2.188,2.188,0,0,1-.32.6,8.108,8.108,0,0,1-2.427,1.019q-2.128.809-2.748,1.129A4.765,4.765,0,0,0,3584.929,461.359Z" transform="translate(-3548.895 -373.978)" fill="#544b6b" fill-rule="evenodd"/>
      <path id="Path_134583" data-name="Path 134583" d="M4067.478,1436.679v-.16a4.9,4.9,0,0,1,.56-1.269q1.1-2.457,1.9-3.957a32.476,32.476,0,0,1,3.007-4.985q.374-.563.709-1.064a8.564,8.564,0,0,0,1.828,1.633,24.985,24.985,0,0,0,10.145-.58,18.313,18.313,0,0,1-1.354,2.308,36.313,36.313,0,0,0-2.378,3.956q-.71,1.418-2.058,4.2a.291.291,0,0,0-.08.23,5.6,5.6,0,0,1-3.567,2.937q-.32.07-.63.15-.479.08-1.188.16l-.719.16h-.15a4.331,4.331,0,0,0-.869.08h-1.119q-.869.08-1.738.08a1.874,1.874,0,0,1-1.978-1.429,5.3,5.3,0,0,1-.32-1.978Z" transform="translate(-3950.948 -1155.499)" fill="#544b6b" fill-rule="evenodd"/>
      <path id="Path_134584" data-name="Path 134584" d="M3583.735,1419.564q1.088,1.665,2.628,3.731a40.873,40.873,0,0,1,4.736,7.083,4.321,4.321,0,0,1,.519,2.318,2.893,2.893,0,0,1-.25.779,1.39,1.39,0,0,1-1.129.949,11.172,11.172,0,0,1-1.9.52,10.773,10.773,0,0,1-1.9.17h-.859l-.949-.17a1.749,1.749,0,0,0-.52-.08h-.17a.741.741,0,0,0-.35-.09,10.883,10.883,0,0,1-5.695-3.277q-.17-.26-.52-.779-.949-1.388-2.847-4.226a23.746,23.746,0,0,0-3.787-4.835,11.581,11.581,0,0,1-.779-1.209l-.26-1.289-.18-.43v-.519a.079.079,0,0,0,.08-.04q.361.475.75.919a7,7,0,0,0,5.475,2.737,5.934,5.934,0,0,1,1.119-.1l1.928-.41h.31a10.988,10.988,0,0,0,2.337-.51.764.764,0,0,1,.3-.1A6.813,6.813,0,0,0,3583.735,1419.564Z" transform="translate(-3552.495 -1149.837)" fill="#544b6b" fill-rule="evenodd"/>
      <path id="Path_134585" data-name="Path 134585" d="M4069.34,501.013a19.829,19.829,0,0,1-2.268,4.466q-.194.29-.4.575l-.2.4a15.9,15.9,0,0,1-1.119,1.629,3.719,3.719,0,0,1-.71.7,1.833,1.833,0,0,1-2.238.409,5.042,5.042,0,0,1-.609-.509,1.524,1.524,0,0,1-.3-2.028,1.562,1.562,0,0,1,.3-.4l.809-1.219a1.747,1.747,0,0,0,.15-.71,1.461,1.461,0,0,0-.15-.619,2.111,2.111,0,0,0-2.228-1.109,8.083,8.083,0,0,0-1.663.645q-.495.241-1.084.565a4.554,4.554,0,0,1-2.228.719q-.809-.1-.51-2.238-.22-.088-.429-.185a6.863,6.863,0,0,1-2.008-1.334,1.379,1.379,0,0,1-.2-.31,3.691,3.691,0,0,1-.81-1.928,2.57,2.57,0,0,1,0-1.009v-.2l-1.019-2.947a1.163,1.163,0,0,0-.3-.2,25.013,25.013,0,0,0,15.79-4.061l.335-.225a11.938,11.938,0,0,0,2.448-2.218,17.526,17.526,0,0,1,1.319,3.257c.015.1.031.2.045.295q.187,1.193.365,2.543v1.728A19.556,19.556,0,0,1,4069.34,501.013Z" transform="translate(-3937.065 -405.265)" fill="#403952" fill-rule="evenodd"/>
      <path id="Path_134586" data-name="Path 134586" d="M3939.863,1027.751c.006.068.011.134.015.2a13.73,13.73,0,0,1,0,1.838,14.3,14.3,0,0,1-1.329,5.455,8.642,8.642,0,0,1-5.1,2.318,1.182,1.182,0,0,1-1.069-.17,6.189,6.189,0,0,1-.889-.809q-1.079-1.069-1.878-.45a23.706,23.706,0,0,0-4.825,3.127,29.875,29.875,0,0,1-4.646,3.217,26.742,26.742,0,0,1-6.514-.269,28.074,28.074,0,0,1-6.254-1.789,8.3,8.3,0,0,1,.619-1.868,3.559,3.559,0,0,0,.449-1.409v.42l.09.9v.629c.114.06.23.117.35.17l1.349.45a9.358,9.358,0,0,0,1.958.539h.27q.36.08.709.17h.18a1.758,1.758,0,0,0,.54.09.366.366,0,0,0,.27.09l2.408.36a5.367,5.367,0,0,0,3.227-.27,9.428,9.428,0,0,0,2.677-1.788q1.7-1.508,2.588-2.228a9.139,9.139,0,0,1,2.857-1.7,51.07,51.07,0,0,1,5.355-1.788,5.705,5.705,0,0,0,.9-.26l1.239-.45q.63-.27,1.159-.449a8.213,8.213,0,0,0,1.788-1.169,3.149,3.149,0,0,0,1.264-2.952c0-.025,0-.05,0-.075v-.31l-14.576.5q-.57-.36-1.129-.729-.454-.294-.9-.6l-.38-.275a1.786,1.786,0,0,1-.479-.56c-.02-.04-.038-.079-.055-.12q-.076-.159-.135-.32a4.55,4.55,0,0,1-.15-.479q.369-.917.7-1.839a49.465,49.465,0,0,0,1.908-26.775q-.817-4.177-1.558-8.362-3.5-19.762-5.325-39.713a21.128,21.128,0,0,0,7.413,9.2,2.5,2.5,0,0,0,.389.23l.1-14.407,5.994,4.876-.809,11.469,2.228.51a147.429,147.429,0,0,0,6.884,25.516q.859,2.348,1.638,4.726a33.92,33.92,0,0,1-.4,11.939,42.5,42.5,0,0,0,.859,21.31,3.068,3.068,0,0,1-1.569,3.886l-.42.015C3939.853,1027.594,3939.858,1027.672,3939.863,1027.751Z" transform="translate(-3822.838 -769.828)" fill="#403952" fill-rule="evenodd"/>
      <path id="Path_134587" data-name="Path 134587" d="M3642.8,1069.195c.007.037.013.074.02.11a2.211,2.211,0,0,0-.709.3,19.735,19.735,0,0,1-4.167,1.119,17.218,17.218,0,0,1-1.818.3,14.188,14.188,0,0,1-6.7-.919,13.018,13.018,0,0,1-2.328-1.719q-.1-.965-.18-1.928a61.192,61.192,0,0,1,2.827-23.828q4.416-13.6,7.873-27.445a113.128,113.128,0,0,0,2.867-16.514,1.733,1.733,0,0,1,.619.4l.1.11a27.282,27.282,0,0,1,2.827,1.718,14.155,14.155,0,0,0,1.229.909l-2.238,6.094,7.413.3a48.909,48.909,0,0,1-2.947,11.269,144.938,144.938,0,0,0-3.347,15.016,104.131,104.131,0,0,0-1.429,15.326q0,3.356-.5,9.841-.1,3.347.1,6.194Q3642.5,1067.615,3642.8,1069.195Z" transform="translate(-3598.262 -814.159)" fill="#403952" fill-rule="evenodd"/>
      <path id="Path_134588" data-name="Path 134588" d="M3568.9,514.274q-.4-.4-.809-.9-.409-.62-.909-1.529a18.735,18.735,0,0,1-3.657-10.55v-2.448a.289.289,0,0,0,.1-.2v-.5q.1-.61.2-1.229v-.1a4.875,4.875,0,0,1,.919.719,29.757,29.757,0,0,0,2.837,1.928,11.387,11.387,0,0,0,3.347,1.209,7.726,7.726,0,0,0,1.829.2,15.9,15.9,0,0,0,6.8-1.209q1.319.1,2.538.2a13.407,13.407,0,0,1,1.629.1,3.054,3.054,0,0,0-1.119,1.529.287.287,0,0,0-.1.2v.2h-.1v1.528a3.165,3.165,0,0,1,0,1.119,3.756,3.756,0,0,1-.819,1.828,7.728,7.728,0,0,1-2.338,1.719.762.762,0,0,0-.3.1q.3,2.028-.5,2.238a4.841,4.841,0,0,1-2.248-.819,11.592,11.592,0,0,0-2.728-1.209,1.913,1.913,0,0,0-2.128,1.109,1.14,1.14,0,0,0,0,1.319,7.289,7.289,0,0,0,.7,1.219.289.289,0,0,1,.1.2l.21.21a1.732,1.732,0,0,1,0,1.618,1.63,1.63,0,0,1-.31.41,1.812,1.812,0,0,1-2.837.1A.638.638,0,0,1,3568.9,514.274Z" transform="translate(-3547.695 -412.587)" fill="#403952" fill-rule="evenodd"/>
      <path id="Path_134589" data-name="Path 134589" d="M4085.4,1428.819a7.531,7.531,0,0,1-.18,1.449,14.788,14.788,0,0,1-1.509,3.966,7.757,7.757,0,0,0-3.487,3.876q-.389.79-1.179,2.448a9.972,9.972,0,0,1-1.588,2.228,14.341,14.341,0,0,1-5.055,1.968,21.6,21.6,0,0,1-5.545.09,2.167,2.167,0,0,1-1.349-2.378,11.542,11.542,0,0,1,.16-1.668,9.834,9.834,0,0,1,.23-1.259v.469a5.308,5.308,0,0,0,.319,1.978,1.875,1.875,0,0,0,1.979,1.429q.869,0,1.738-.08h1.12a4.329,4.329,0,0,1,.869-.08h.149l.72-.16q.709-.08,1.188-.16.31-.08.63-.15a5.6,5.6,0,0,0,3.566-2.937.291.291,0,0,1,.08-.23q1.349-2.778,2.058-4.2a36.3,36.3,0,0,1,2.378-3.957,18.384,18.384,0,0,0,1.354-2.308Q4084.715,1429,4085.4,1428.819Z" transform="translate(-3949.371 -1158.358)" fill="#403952" fill-rule="evenodd"/>
      <path id="Path_134590" data-name="Path 134590" d="M3692.415,917.4h-.2q-.6,0-1.219-1.928a9.488,9.488,0,0,1-.609-2.028q-.33-1-.659-2.378h.08a3.337,3.337,0,0,0,1.708,2.478,2.6,2.6,0,0,0,.4-.7.275.275,0,0,0,.17-.04.066.066,0,0,1,.03.04v3.437a.3.3,0,0,0,.1.21,3.415,3.415,0,0,1,.1.809A.088.088,0,0,1,3692.415,917.4Z" transform="translate(-3648.678 -744.063)" fill="#675d84" fill-rule="evenodd"/>
      <path id="Path_134591" data-name="Path 134591" d="M3633,1371.72q1.128.317,2.623.639a20.694,20.694,0,0,1,5.285,1.988q.579.28,5.1,2.818a1.236,1.236,0,0,1,.479.29,29.9,29.9,0,0,0,4.726,2.178,14.633,14.633,0,0,0,4.816.849h.849a1.42,1.42,0,0,0,.759-.379.839.839,0,0,1,.09.379q.079.65-.949,1.219a7.059,7.059,0,0,1-3.966.09,20.909,20.909,0,0,1-4.056-.839,19.309,19.309,0,0,1-2.837-1.419q-6.615-3.5-9.052-3.5a1.7,1.7,0,0,0,0,.849q-.2.47-1.518.47-.34,0-.675-.005A44.315,44.315,0,0,1,3633,1371.72Z" transform="translate(-3603.287 -1112.669)" fill="#403952" fill-rule="evenodd"/>
      <path id="Path_134592" data-name="Path 134592" d="M3590.626,1437.436v.09q0,.08.08.6a1.525,1.525,0,0,1-.169,1.039q-.69,1.3-3.627,1.3a15.417,15.417,0,0,1-8.112-1.988q-4.137-2.508-6.125-8.362a5.5,5.5,0,0,1-1.548.339,2.006,2.006,0,0,1-2.248-1.638,18.172,18.172,0,0,1-.26-4.226,2.613,2.613,0,0,1,.35-1.469l.26,1.289a11.608,11.608,0,0,0,.779,1.209,23.776,23.776,0,0,1,3.787,4.835q1.9,2.837,2.847,4.226.349.519.52.779a10.883,10.883,0,0,0,5.695,3.277.74.74,0,0,1,.35.09h.17a1.751,1.751,0,0,1,.52.08l.949.17h.859a10.777,10.777,0,0,0,1.9-.17,11.213,11.213,0,0,0,1.9-.52A1.392,1.392,0,0,0,3590.626,1437.436Z" transform="translate(-3551.754 -1153.798)" fill="#403952" fill-rule="evenodd"/>
      <path id="Path_134593" data-name="Path 134593" d="M4136.937,478.468a6.434,6.434,0,0,0-.4-.7.088.088,0,0,0-.1-.1,10.221,10.221,0,0,0-1.034-1.5l60.359,16.175v5.075l-57.462-15.4c-.014-.1-.029-.2-.045-.295A17.505,17.505,0,0,0,4136.937,478.468Z" transform="translate(-4005.3 -396.063)" fill="#c3b5ec" fill-rule="evenodd"/>
      <path id="Path_134594" data-name="Path 134594" d="M4134.927,558.911a19.842,19.842,0,0,0,2.269-4.466l58.2,15.591v5.075Z" transform="translate(-4004.919 -458.697)" fill="#c3b5ec" fill-rule="evenodd"/>
      <path id="Path_134595" data-name="Path 134595" d="M4188.376,642.888a7.509,7.509,0,0,0-1.119-1.728q-.177-.219-.379-.489l50.083,13.418v5.075l-46.687-12.509c-.013-.1-.026-.206-.04-.31A5.377,5.377,0,0,0,4188.376,642.888Z" transform="translate(-4046.49 -527.693)" fill="#c3b5ec" fill-rule="evenodd"/>
      <path id="Path_134596" data-name="Path 134596" d="M4206.753,726.5l.015-1.434q.071-1.814.065-3.622l46.032,12.334v5.075Z" transform="translate(-4062.394 -592.328)" fill="#c3b5ec" fill-rule="evenodd"/>
      <path id="Path_134597" data-name="Path 134597" d="M4205.028,801.615q.184-2.492.28-5l46.177,12.368v5.076Z" transform="translate(-4061.013 -652.482)" fill="#c3b5ec" fill-rule="evenodd"/>
      <path id="Path_134598" data-name="Path 134598" d="M4025.427,376.445v-5.075l82.344,22.06V398.5Z" transform="translate(-3917.3 -312.203)" fill="#c3b5ec" fill-rule="evenodd"/>
      <path id="Path_134599" data-name="Path 134599" d="M4025.427,301.095v-5.075l82.344,22.06v5.075Z" transform="translate(-3917.3 -251.909)" fill="#c3b5ec" fill-rule="evenodd"/>
      <path id="Path_134600" data-name="Path 134600" d="M4231.677,962.945V957.87l41.151,11.03v5.075Z" transform="translate(-4082.338 -781.512)" fill="#c3b5ec" fill-rule="evenodd"/>
      <path id="Path_134601" data-name="Path 134601" d="M3678.824,675.951a41.2,41.2,0,0,0-3.547-6.9q.1-1.019.1-2.028a8.692,8.692,0,0,1,2.228,1.718q.31,1.728.619,3.557Q3678.625,674.422,3678.824,675.951Z" transform="translate(-3637.115 -548.777)" fill="#c3b5ec" fill-rule="evenodd"/>
      <path id="Path_134602" data-name="Path 134602" d="M3653.928,675.408v-.1a5.067,5.067,0,0,1,.41-2.238,4.185,4.185,0,0,0,1.828,1.319,35.183,35.183,0,0,0,1.628,6.294,37.7,37.7,0,0,1,1.818,6.294,57.328,57.328,0,0,1,1.729,14.207q.1,4.366-.1,12.888-.519-2.837-.918-6.094h-.1q-.1-1.109-.2-2.228-1.529-11.669-2.228-15.825-.819-4.876-1.628-7.923A39.825,39.825,0,0,0,3653.928,675.408Z" transform="translate(-3620.031 -553.619)" fill="#c3b5ec" fill-rule="evenodd"/>
      <path id="Path_134603" data-name="Path 134603" d="M3702.614,520.9q-2.138,2.228-3.447,2.328h-.11a2.887,2.887,0,0,1-.71,1.349l-.15.15-.459.33-1.519.52h-.1a1.982,1.982,0,0,1-.61.1,10.649,10.649,0,0,1-1.628.1c-.2-.022-.4-.04-.58-.055q-.57-.045-1.039-.045h-.819q-.709,0-2.937-.2a8.134,8.134,0,0,1-2.2-.39,4.147,4.147,0,0,1-.549-.23,2.994,2.994,0,0,1-.4-.3,1.123,1.123,0,0,1-.4-.41,5.367,5.367,0,0,1-.719-1.119q-.1-.2-.61-1.828a4.668,4.668,0,0,0-2.028-2.828.31.31,0,0,0-.21-.11,1.929,1.929,0,0,1,.41-1.419v-.1q.209-.31,1.119-1.419,1.418-1.728.809-3.047a9.936,9.936,0,0,1,.21-4.875q.922.619,2.367,1.539.935.591,2.088,1.309,2.538,1.619,4.166,2.528a3.692,3.692,0,0,0,.809,1.928,1.382,1.382,0,0,0,.2.31,6.863,6.863,0,0,0,2.008,1.334q.209.1.43.185-.3,2.138.51,2.238a4.551,4.551,0,0,0,2.228-.719q.59-.324,1.084-.565a8.085,8.085,0,0,1,1.663-.645,2.111,2.111,0,0,1,2.228,1.109,1.465,1.465,0,0,1,.15.619,1.751,1.751,0,0,1-.15.71l-.809,1.219A1.556,1.556,0,0,0,3702.614,520.9Zm-22.229,58.765a23.094,23.094,0,0,1-3.956.51,7.511,7.511,0,0,1-1.219.1,10.751,10.751,0,0,1-4.676-1.119l-.1-.11a2.514,2.514,0,0,0-.6-.3,10.177,10.177,0,0,1-.819-.909q.3-.709.409-1.019a4.031,4.031,0,0,1-3.047-2.947.288.288,0,0,1-.1-.2,11.619,11.619,0,0,1-.609-4.556q.509,0,2.238.1t4.756.3h1.628q1.629.709,3.347,1.529a8.2,8.2,0,0,0,2.547.9.791.791,0,0,0,.5-.1v-.8a2.382,2.382,0,0,0-.3-1.229q0-.1-.2-.3a7.346,7.346,0,0,0-1.828-1.928q-.41-.2-2.028-.819a4.4,4.4,0,0,1-1.629-.909l-.11-.1a1.694,1.694,0,0,1-.1-1.519,8.073,8.073,0,0,1,2.548.2,11.2,11.2,0,0,1,2.947.809,2.177,2.177,0,0,1,.8.41l1.828,1.109a5.5,5.5,0,0,1,1.019.819.088.088,0,0,1,.1.1l.1.1.61.61a7.2,7.2,0,0,1,1.219,1.319l.909.909a4.06,4.06,0,0,0,1.728,1.219,9.282,9.282,0,0,0-1.109,3.657,7.214,7.214,0,0,0,1.009,3.856,7.471,7.471,0,0,0-1.209-.1,8.243,8.243,0,0,1-1.329-.1h-1.019a11.2,11.2,0,0,0-1.309.1,1.207,1.207,0,0,0-.52.1q-.713.079-1.7.23-.255.037-.529.08Zm-56.018-63.941a4.666,4.666,0,0,1-.819.61.6.6,0,0,0-.1.409,9.466,9.466,0,0,0-.4,2.538,9.2,9.2,0,0,1-.419,2.128q-.1.4-.2.709a1.131,1.131,0,0,0-.2.31,4.248,4.248,0,0,1-2.937,1.519h-.819q-2.128.2-3.147.3a6.765,6.765,0,0,1-.709.21H3613.2l-1.829-.41a7.192,7.192,0,0,1-1.728-.61,4.453,4.453,0,0,1-2.737-3.257v-.4h-.1a.622.622,0,0,1-.41.1,2.8,2.8,0,0,1-2.128,0q-.719-.3-1.418-.6a.375.375,0,0,1-.31-.31,7.282,7.282,0,0,1-.7-1.219,1.14,1.14,0,0,1,0-1.319,1.913,1.913,0,0,1,2.128-1.109,11.586,11.586,0,0,1,2.727,1.209,4.844,4.844,0,0,0,2.248.819q.8-.21.5-2.238a.763.763,0,0,1,.3-.1,7.728,7.728,0,0,0,2.338-1.719,3.753,3.753,0,0,0,.819-1.828q1.319-.819,3.147-2.038a11.164,11.164,0,0,1,1.419-1.009q2.737-1.829,4.356-2.947a11.719,11.719,0,0,1,.1,2.747,1.944,1.944,0,0,0-.3,1.009,2.012,2.012,0,0,0,.3,1.319,13.559,13.559,0,0,0,1.628,2.128,4.3,4.3,0,0,1,1.219,1.928A1.241,1.241,0,0,1,3624.367,515.72Zm76.219,4.356a5.867,5.867,0,0,1-1.019,1.329,9.749,9.749,0,0,0,1.628-.809,6.628,6.628,0,0,0,1.519-1.219q0-.1-.3-.31-.2-.2-.2-.3A3.581,3.581,0,0,0,3700.586,520.076Zm-29.642,51.862a23.226,23.226,0,0,0-3.137-.4,21.118,21.118,0,0,0,3.037.709,32.366,32.366,0,0,0,3.247.51v-.41A15.949,15.949,0,0,1,3670.944,571.938Zm0,5.585a10.524,10.524,0,0,0,4.066.51q-.819-.2-2.028-.41Q3671.553,577.523,3670.944,577.523Zm-2.738-3.347a6.658,6.658,0,0,0,1.419.51,11.563,11.563,0,0,0,1.319.2A15.951,15.951,0,0,0,3668.206,574.176Zm-65.059-57.746,2.128,2.138.62-.31a4.378,4.378,0,0,0-.819-1.119,3.309,3.309,0,0,0-1.628-.909Zm22.03,90.726a14.217,14.217,0,0,1-1.229-.909,27.25,27.25,0,0,0-2.827-1.718l-.1-.11a1.734,1.734,0,0,0-.619-.4q-.3-.11-.51-.21a.406.406,0,0,0-.3-.1q.24-.42.52-.889.19-.31.39-.639a.289.289,0,0,0,.1-.2,13.337,13.337,0,0,0,1.928-7.1v-.609q.619-.3,1.319-.6a.831.831,0,0,1,.31-.1,8.179,8.179,0,0,1,3.856-1.019,9.031,9.031,0,0,1,2.238.5l-1.229,3.147h.185a.316.316,0,0,0-.185.1q1.329.919,4.056,2.847a2.24,2.24,0,0,1,.819.51q1.02.3,1.829.5a3.879,3.879,0,0,0,1.529.1,2.729,2.729,0,0,0,.6-.1q1.318-.3,1.319,1.119a2.068,2.068,0,0,1-1.019,1.928q-1.109.92-2.028,1.629a27.851,27.851,0,0,1-3.647,2.328.761.761,0,0,0-.3.1,7.428,7.428,0,0,1-2.438.719,7.983,7.983,0,0,1-4.166-.52l-.4-.4Z" transform="translate(-3578.182 -419.508)" fill="#ffaa83" fill-rule="evenodd"/>
      <path id="Path_134604" data-name="Path 134604" d="M3678.642,499.9a1.159,1.159,0,0,1,.3.2l1.02,2.947v.2a2.561,2.561,0,0,0,0,1.009q-1.629-.909-4.167-2.528-1.154-.718-2.088-1.309-1.446-.92-2.368-1.539a6.774,6.774,0,0,1,.7-1.928,11.827,11.827,0,0,0,2.447,1.019q2.128.809,2.828,1.009A4.771,4.771,0,0,1,3678.642,499.9Zm4.666,24.957a.28.28,0,0,1-.2.11q-.51,2.937-3.867,6.694a.088.088,0,0,0-.1.1l-.055.06q-1.98,2.176-2.473,2.787-.533.694-.964,1.369a13.953,13.953,0,0,0-1.064,1.978,8.4,8.4,0,0,1-.105-2.293,16.614,16.614,0,0,1,.5-2.882v-.1q.1-.309.2-.719v-.1q.182-.54.325-.994a12.484,12.484,0,0,0,.494-1.953,7.094,7.094,0,0,0,.3-2.028v-1.009q.615-2.314,1.234-4.446.2-.68.4-1.339.51-1.528.909-2.937h.5q0,1.828.12,3.037a16.138,16.138,0,0,0,3.746.41,7.68,7.68,0,0,0,4.746-1.459,8.794,8.794,0,0,0,2.667-3.516,2.2,2.2,0,0,0,.3-.71,1.833,1.833,0,0,0,2.238-.409,3.726,3.726,0,0,0,.71-.7,3.341,3.341,0,0,1-.82,2.228q-2.265,2.259-3.532,3.527-.833.834-1.234,1.239-1.611,1.49-3.112,2.673Q3684.216,524.223,3683.308,524.852Zm-74.091-27.9q-1.618,1.119-4.356,2.947a11.1,11.1,0,0,0-1.418,1.009q-1.829,1.219-3.147,2.038a3.142,3.142,0,0,0,0-1.119v-1.528h.1v-.2a.286.286,0,0,1,.1-.2,3.052,3.052,0,0,1,1.119-1.529,4.759,4.759,0,0,1,1.409-.8q.619-.32,2.747-1.129a8.112,8.112,0,0,0,2.428-1.019,2.215,2.215,0,0,0,.32-.6A8.06,8.06,0,0,1,3609.216,496.948Zm52.771,60.284.109.1a4.407,4.407,0,0,0,1.628.909q1.619.619,2.028.819a7.338,7.338,0,0,1,1.829,1.928q.2.2.2.3a2.384,2.384,0,0,1,.3,1.229v.8a.793.793,0,0,1-.5.1,8.2,8.2,0,0,1-2.547-.9q-1.719-.819-3.347-1.529h-1.629q-3.037-.2-4.755-.3a19.549,19.549,0,0,1,1.519-3.457,1.459,1.459,0,0,0,.31-.51,11.079,11.079,0,0,0,1.818-.41A31.66,31.66,0,0,1,3661.988,557.232Zm-6.385,8.422a15.958,15.958,0,0,1,2.738.71,11.547,11.547,0,0,1-1.319-.2A6.658,6.658,0,0,1,3655.6,565.654Zm2.738,3.347q.609,0,2.038.1,1.209.21,2.028.41A10.523,10.523,0,0,1,3658.341,569Zm0-5.585a15.954,15.954,0,0,0,3.147.41v.41a32.415,32.415,0,0,1-3.248-.51,21.139,21.139,0,0,1-3.037-.709A23.221,23.221,0,0,1,3658.341,563.416Zm-67.8-55.509.3-.2a3.305,3.305,0,0,1,1.628.909,4.364,4.364,0,0,1,.819,1.119l-.62.31Zm11.879,8.622a3.606,3.606,0,0,0-.31,1.019,3.414,3.414,0,0,0-.1.809q-.1.819-.2,2.747a5.856,5.856,0,0,1-.819,2.847,43.162,43.162,0,0,0-6.185-4.476q-3.146-2.028-6.094-3.547a27.961,27.961,0,0,0-2.837-1.429,20.318,20.318,0,0,0,.909-1.828.639.639,0,0,0,.31.31,1.812,1.812,0,0,0,2.837-.1,1.613,1.613,0,0,0,.31-.41,5.851,5.851,0,0,0,2.428,2.438,13.906,13.906,0,0,0,6.8,1.719h1.938A5.231,5.231,0,0,0,3602.422,516.53Z" transform="translate(-3565.579 -410.986)" fill="#ed9870" fill-rule="evenodd"/>
      <path id="Path_134605" data-name="Path 134605" d="M3767.5,543.129a15.259,15.259,0,0,1,.1-5.275,13.38,13.38,0,0,1,1.828-4.866l.2-.42q.1-.1.21-.2,5.176.919,10.35,2.028a4.957,4.957,0,0,1,1.119.32q2.528.5,5.075,1.209a62.518,62.518,0,0,0,17.754,1.718,48.711,48.711,0,0,1,7,.31q1.152.08,2.558.295l.689.115a1.931,1.931,0,0,0-.41,1.419.31.31,0,0,1,.21.11,1.793,1.793,0,0,1-.31.4l-2.029,3.657a.088.088,0,0,1-.1.1,3.868,3.868,0,0,0-.3.809,6.736,6.736,0,0,0-.31.909.422.422,0,0,1-.1.31,55.132,55.132,0,0,0-1.828,6.9q-.41,2.128-.81,4.766-.109.81-.209,1.628a3.07,3.07,0,0,1-.1.71,11.9,11.9,0,0,0-8.123-9.241,41.216,41.216,0,0,0-12.878-2.438,38.5,38.5,0,0,1-13-2.837,42.318,42.318,0,0,0-6.494-2.128A.771.771,0,0,0,3767.5,543.129Z" transform="translate(-3710.761 -441.032)" fill="#675d84" fill-rule="evenodd"/>
      <path id="Path_134606" data-name="Path 134606" d="M4066.388,599.529q-.242,1.04-1.469,5.06-.342,1.115-.759,2.463-.392,1.222-.714,2.218-.107.32-.205.619-1.229,4.166-1.528,4.166-.4,0-2.029-.21a2.06,2.06,0,0,0-.709-.11q-2.238-.3-2.338-.3l.2.2q.62,1.119,1.229,2.348a1.173,1.173,0,0,0,.2.3q.514,1.123.769,1.783a3.169,3.169,0,0,1,.25.844,26.569,26.569,0,0,1-2.2,3.711q-.346.541-.749,1.164a18.133,18.133,0,0,1-1.428,2.128,22.22,22.22,0,0,1-2.827,3.767q-.342.338-1.1,1.284-1.149,1.417-3.247,4.2l-.525.7q-1.219,1.429-2.128,2.448a2.286,2.286,0,0,1,.1-.719,2,2,0,0,1,.2-.909v-.2q.152-.93.33-1.858.177-.9.38-1.809.29-1.506.64-2.992.76-3.217,1.8-6.339.46-1.532.984-2.9a27.827,27.827,0,0,1,2.168-4.5,18.878,18.878,0,0,1,1.513-2.138,1.267,1.267,0,0,1,.3.6,9.619,9.619,0,0,0,3.347-2.528q1.734-1.9,3.467-3.6.405-.4.81-.779a38.149,38.149,0,0,0,2.972-3.287q.141-.182.274-.36a4.8,4.8,0,0,0,.5-5.385.288.288,0,0,0-.1-.2h.1A6.334,6.334,0,0,1,4066.388,599.529Z" transform="translate(-3933.023 -493.885)" fill="#675d84" fill-rule="evenodd"/>
      <path id="Path_134607" data-name="Path 134607" d="M4077.256,666.456l-.035,3.851q.08,2.738-.01,5.535-.01.288-.021.58-.1,2.5-.28,5-.324,4.3-.919,8.582l-1.309,3.966q-.14.2-.3.4a5.354,5.354,0,0,1-3.666,1.928,32.5,32.5,0,0,1-9.232.07v-.07a10.724,10.724,0,0,0-1.179-.09l-.34-.01-11.879-1.329-.2-.3q-4.316-4.965-2.358-10.71a3.049,3.049,0,0,1,.33-.659l.2-.3,1.918-.02a57.173,57.173,0,0,1,11.379,1.039l5.076.4q-.419-3.236-.929-6.489-.245-1.549-.51-3.1-.187-1.1-.32-2.193a46.645,46.645,0,0,1-.145-10.016q.049-.5.105-1a29.554,29.554,0,0,1,.7-3.866,27.306,27.306,0,0,1,3.906-8.682q.073-.107.15-.21a5.687,5.687,0,0,1,3.687-2.268,4.3,4.3,0,0,1,3.706.989,5.377,5.377,0,0,1,1.858,3.457q.02.155.04.31a83.37,83.37,0,0,1,.655,10.156q.006,1.808-.065,3.622Z" transform="translate(-3932.897 -532.284)" fill="#675d84" fill-rule="evenodd"/>
      <path id="Path_134608" data-name="Path 134608" d="M4051.822,990.032l10.36-8.112q-.1,2.028-.309,3.956a93.973,93.973,0,0,0-1.019,10.45q-.2,5.175-.5,10.45-.2,5.985,0,11.879a23.915,23.915,0,0,0,1.02,7,18.2,18.2,0,0,1,1.409,3.957,10.421,10.421,0,0,1,1.119,4.256,65.4,65.4,0,0,1,0,10.35q-.4,5.075-.909,10.15a36.342,36.342,0,0,0,0,6.7,28.986,28.986,0,0,1,.379,3.367q.073,1.3.03,2.617v1.219q-.1.5-.2,1.019-.1.71-.209,1.309-.975.307-1.914.559l-.185.05q-.688.185-1.354.34a24.988,24.988,0,0,1-10.146.579,8.575,8.575,0,0,1-1.829-1.633,7.682,7.682,0,0,1-.919-1.4,2.908,2.908,0,0,1-.3-.619,44.4,44.4,0,0,0,1.319-5.685q.185-1.172.354-2.358c.005-.036.011-.073.015-.11q.291-2.042.54-4.126a75.828,75.828,0,0,0,.72-10.45,14.223,14.223,0,0,0-.1-1.728v-1.109a32.614,32.614,0,0,0-3.246-12.9q-.411-1.419-.82-3.247a27.7,27.7,0,0,0-1.729-5.985v.51q-.779-2.378-1.638-4.726a147.4,147.4,0,0,1-6.884-25.516q.609.1,1.319.2a31.351,31.351,0,0,0,8.222.5A20.8,20.8,0,0,0,4051.822,990.032Z" transform="translate(-3924.862 -800.757)" fill="#675d84" fill-rule="evenodd"/>
      <path id="Path_134609" data-name="Path 134609" d="M3712.141,596.986q1.008-12.388-2.438-20.4a49.639,49.639,0,0,0-4.975-9.031,1.126,1.126,0,0,1,.2-.31q.1-.31.2-.709a9.2,9.2,0,0,0,.42-2.128,9.458,9.458,0,0,1,.4-2.538,7.328,7.328,0,0,1,1.928,2.638,80.89,80.89,0,0,0,5.075,9.231q2.748,4.266,5.785,8.223a77.991,77.991,0,0,0,6.894,7.923,53.637,53.637,0,0,0,4.576,4.056q4.056,3.247,7.922,6.794,3.337,3.047,6.884,5.784a49.16,49.16,0,0,0,5.495,3.657,1.57,1.57,0,0,1-.42.609,4.261,4.261,0,0,1-1.009.1,1.88,1.88,0,0,0-.6.1,1.729,1.729,0,0,0-.419.609,10.424,10.424,0,0,0-1.209,5.075,8.652,8.652,0,0,1,.609.909.908.908,0,0,1-.1.41q-3.857-1.928-7.723-3.966-8.012-4.156-15.935-8.512a60.14,60.14,0,0,1-11.36-8.422A.288.288,0,0,0,3712.141,596.986Z" transform="translate(-3660.681 -464.638)" fill="#675d84" fill-rule="evenodd"/>
      <path id="Path_134610" data-name="Path 134610" d="M3557.448,1081.325a6.805,6.805,0,0,1-1.909,1.144.765.765,0,0,0-.3.1,11,11,0,0,1-2.337.51h-.31l-1.928.41a5.935,5.935,0,0,0-1.119.1,7,7,0,0,1-5.475-2.738q-.389-.444-.749-.919-.3-.395-.57-.809a11.13,11.13,0,0,1-1.419-5.175q-.018-.138-.04-.285-.425-3.048-1.579-9.047-1.229-6.3-1.729-9.451-1.629-11.06.61-18.963a71.145,71.145,0,0,0,.6-21.02q-.4-4.466-1.409-10.44a84.61,84.61,0,0,1-1.109-8.792q4.156.809,5.825,1.079a50.751,50.751,0,0,0,8.013.72q1.268,0,2.5-.06a51.674,51.674,0,0,0,6.364-.669q4.646-.939,7.173-1.339l.439-.21q.33.16.629.33a.408.408,0,0,1,.3.1q.21.1.51.21a113.165,113.165,0,0,1-2.867,16.514q-3.457,13.847-7.873,27.445a61.188,61.188,0,0,0-2.828,23.828q.075.963.18,1.928.3,2.039.7,3.967.089.431.185.859a44.334,44.334,0,0,0,1.668,5.63c.025.065.05.13.075.195q.409,1.329.909,2.648a4.01,4.01,0,0,1-.5,1.519A4.254,4.254,0,0,1,3557.448,1081.325Z" transform="translate(-3526.209 -811.599)" fill="#675d84" fill-rule="evenodd"/>
      <path id="Path_134611" data-name="Path 134611" d="M3513.519,716.791a123.344,123.344,0,0,0,12.079,4.666v.31a4.949,4.949,0,0,1-.1.919,1.885,1.885,0,0,1-.1.6,2.241,2.241,0,0,1-.1.709q-.209.62-.42,1.219a5.7,5.7,0,0,1-.5,1.119,2.134,2.134,0,0,1-.409.609q-.4.92-1.019,2.028l-.4.5L3512.2,727.4q-8.712-2.178-17.354-4.816h-.1q-.43-.14-.839-.28-10.59-3.837-9.521-15.765,1.429-14.207,2.138-28.314.1-1.319.2-3.347a16.651,16.651,0,0,1,.819-4.266,9.149,9.149,0,0,1,3.347-6.194.288.288,0,0,1,.2.1,9.318,9.318,0,0,1,7,4.975,35.783,35.783,0,0,1,3.347,23.858,123.3,123.3,0,0,0-2.138,16.335A139.293,139.293,0,0,0,3513.519,716.791Z" transform="translate(-3484.287 -546.698)" fill="#675d84" fill-rule="evenodd"/>
      <path id="Path_134612" data-name="Path 134612" d="M3557.716,584.226a11.615,11.615,0,0,1,1.419-2.428l1.529-1.429a4.512,4.512,0,0,1,.909-.7q.409.5.809.9-2.947-.3-2.947,2.747,0,.3,1.629,1.728,3.446,2.627,4.166,3.347,6.6,5.585,9.231,10.86.3.709.61,1.418a39.822,39.822,0,0,1,2.238,6.594q.809,3.047,1.628,7.923.7,4.156,2.228,15.825.1,1.119.2,2.228h.1q.4,3.257.919,6.094a8.94,8.94,0,0,0-.1,1.429q0,1.209-.1,4.256a5.606,5.606,0,0,0,.119.869h-.08q-.07-.319-.15-.669a132.28,132.28,0,0,0-5.065-16.235q-2.248-5.275-4.776-10.35l-.2-.4a6.688,6.688,0,0,1-.52-1.019l-.4-.709a.288.288,0,0,0-.1-.2q-.61-1.229-1.219-2.348-.111-.2-.21-.4l-1.109-1.828a.088.088,0,0,0-.1-.1,1.353,1.353,0,0,0-.21-.3,64.434,64.434,0,0,0-3.757-5.994,8.643,8.643,0,0,1,1.119-2.737q1.229-2.338,1.329-2.538c0-.14-.139-.277-.42-.41a1.151,1.151,0,0,0-.3-.2q-7,.3-7.613-1.519a3.926,3.926,0,0,1,0-1.828,3.032,3.032,0,0,0,0-1.928,21.105,21.105,0,0,0-2.538-4.576,1.941,1.941,0,0,0-.51-.7l-.1-.1,1.828-2.028.1-.11v-.1a3.392,3.392,0,0,0,.1-.809.944.944,0,0,0,.1-.409Q3557.615,584.845,3557.716,584.226Z" transform="translate(-3541.173 -478.882)" fill="#675d84" fill-rule="evenodd"/>
      <path id="Path_134613" data-name="Path 134613" d="M3988.951,598.92a1.119,1.119,0,0,0,.4.41,3.027,3.027,0,0,0,.4.3q-.6,1.019-1.118,2.028-.81,1.419-1.309,2.338-1.206,2.158-2.218,3.627-.272.395-.529.739.261.028.529.04a10.422,10.422,0,0,0,3.527-.549,2.213,2.213,0,0,1-.3.71q-.3,1.219-.609,2.747a139.713,139.713,0,0,0-2.128,18.463,1.809,1.809,0,0,0-.11.609v.21q-.216,2.919-.38,5.68-.064,1.072-.12,2.123v.1a20.357,20.357,0,0,1-1.629-5.065q-.5-2.638-.909-6.195-.719-6.793-.919-13.7,0-.909,2.448-2.538.58-.378,1.129-.684a13.492,13.492,0,0,1,1.5-.735,16.953,16.953,0,0,0-1.5-.849q-.494-.26-1.129-.579a6.148,6.148,0,0,0-.819-.5,2.651,2.651,0,0,1-.909-1.828q0-.919,2.737-3.447c.039-.04.079-.08.12-.12q.569-.568,1.3-1.209Q3987.933,599.729,3988.951,598.92Z" transform="translate(-3882.172 -494.285)" fill="#675d84" fill-rule="evenodd"/>
      <path id="Path_134614" data-name="Path 134614" d="M3672.925,597.92a23.553,23.553,0,0,1,5.994,10.56A3.5,3.5,0,0,1,3677.5,610a4.5,4.5,0,0,1-1.729.809l3.147,4.366a158.693,158.693,0,0,0-1.419,17.964,2.144,2.144,0,0,0-.11-.72,57.675,57.675,0,0,0-3.047-11.759q-.2-1.529-.6-3.657-.31-1.828-.619-3.557-.3-1.319-.5-2.637a21.162,21.162,0,0,1,0-3.047q.1-2.028.1-3.347a1.978,1.978,0,0,1-.1-.61v-.2q-.309-4.256-2.947-5.075a.088.088,0,0,1,.1-.1v-.21Q3670.8,598.12,3672.925,597.92Z" transform="translate(-3632.634 -493.485)" fill="#675d84" fill-rule="evenodd"/>
      <path id="Path_134615" data-name="Path 134615" d="M3701.558,919.57a.066.066,0,0,0-.03-.04.091.091,0,0,0,.03-.06Z" transform="translate(-3658.12 -750.785)" fill="#395fc1" fill-rule="evenodd"/>
      <path id="Path_134616" data-name="Path 134616" d="M4042.306,649.238h-1.828q.6-4.156.919-6.484.909-1.019,2.128-2.448l.524-.7q2.1-2.784,3.247-4.2.762-.946,1.1-1.284a22.225,22.225,0,0,0,2.827-3.767,18.143,18.143,0,0,0,1.429-2.128q.4-.623.749-1.164a26.522,26.522,0,0,0,2.2-3.712,3.171,3.171,0,0,0-.25-.844q-.255-.66-.769-1.783a1.179,1.179,0,0,1-.2-.3q-.609-1.229-1.229-2.348l-.2-.2q.1,0,2.338.3a2.063,2.063,0,0,1,.709.11q1.628.21,2.029.21.3,0,1.528-4.166.1-.3.205-.619.323-1,.714-2.218.417-1.347.76-2.462,1.226-4.021,1.468-5.06a47.122,47.122,0,0,1,5.575,5.495,4.566,4.566,0,0,1,.609.7.281.281,0,0,0-.2.11,1.666,1.666,0,0,0-.509.1,6.618,6.618,0,0,0-.76.31,15.568,15.568,0,0,0-4.556,3.856,47.18,47.18,0,0,0-3.307,4.356q-.59,1.85-1.448,4.351-.322.926-.68,1.943-.607,1.579-.974,2.692-.317.954-.455,1.564a29.034,29.034,0,0,0-1.019,7.813v1.219q0,1.981.115,4.091.192,3.516.7,7.388a57.189,57.189,0,0,0-11.379-1.039l-1.918.02Z" transform="translate(-3929.343 -498.326)" fill="#544b6b" fill-rule="evenodd"/>
      <path id="Path_134617" data-name="Path 134617" d="M3960.409,890.057l-.1,14.407a2.517,2.517,0,0,1-.39-.23,21.133,21.133,0,0,1-7.413-9.2l-1.119-3.547a.321.321,0,0,0,.1-.21.322.322,0,0,1-.21-.1l-.2-.5a82.776,82.776,0,0,0,3.757-13.3,7.509,7.509,0,0,0,1.219-.1,23.087,23.087,0,0,0,3.956-.51v.51q0,.4.1,4.056l.2,5.375Q3960.309,888.438,3960.409,890.057Z" transform="translate(-3857.806 -716.616)" fill="#544b6b" fill-rule="evenodd"/>
      <path id="Path_134618" data-name="Path 134618" d="M3690.1,657.947l-.419-2.987a23.768,23.768,0,0,0,1.319-2.837,9.961,9.961,0,0,0,.51-5.385,150.854,150.854,0,0,0-1.009-19.682,158.693,158.693,0,0,1,1.419-17.963l-3.147-4.366a4.5,4.5,0,0,0,1.728-.809,3.5,3.5,0,0,0,1.419-1.519,23.549,23.549,0,0,0-5.994-10.56h.819a4.248,4.248,0,0,0,2.937-1.519,49.638,49.638,0,0,1,4.975,9.031q3.447,8.013,2.438,20.4,0,1.109-.11,2.228-1.409,14.007,1.518,21.41a24.018,24.018,0,0,1,2.028,9.441v.1l-2.827,8.012a9.033,9.033,0,0,0-2.238-.5,8.181,8.181,0,0,0-3.857,1.019.832.832,0,0,0-.31.1,4.371,4.371,0,0,1-1.009-2.747v-.1a.288.288,0,0,0-.1-.2q-.03-.18-.06-.39Z" transform="translate(-3645.637 -487.404)" fill="#544b6b" fill-rule="evenodd"/>
      <path id="Path_134619" data-name="Path 134619" d="M3565.438,690.519v-.31a123.328,123.328,0,0,1-12.079-4.666,21.135,21.135,0,0,0-1.618-8.112q-.41-.819-2.028-4.266-1.729-3.357-3.047-6.5-3.357-7.7-3.557-19.382a48.091,48.091,0,0,0-.2-4.965,18.456,18.456,0,0,0-1.529-5.485,15.194,15.194,0,0,0-7.3-6.9c.086-.087.177-.17.27-.25l.11-.09q.26-.24.53-.47l.4-.4a8.132,8.132,0,0,1,.719-.819q1.109-1.309,2.228-2.528l.1.1a1.939,1.939,0,0,1,.51.7,21.1,21.1,0,0,1,2.537,4.576,3.032,3.032,0,0,1,0,1.928,3.926,3.926,0,0,0,0,1.828q.61,1.818,7.613,1.519a1.16,1.16,0,0,1,.3.2q.42.2.42.41-.1.2-1.329,2.538a8.643,8.643,0,0,0-1.119,2.737,64.432,64.432,0,0,1,3.757,5.994,1.355,1.355,0,0,1,.21.3.089.089,0,0,1,.1.1l1.109,1.828c.067.133.136.267.21.4q.609,1.119,1.219,2.348a.289.289,0,0,1,.1.2l.4.709a6.689,6.689,0,0,0,.52,1.019l.2.4q2.527,5.075,4.775,10.35a132.324,132.324,0,0,1,5.065,16.235q.08.35.15.669.33,1.379.659,2.378a9.474,9.474,0,0,0,.609,2.028q.619,1.928,1.219,1.928h.2q.11.51.209,1.119a.905.905,0,0,1,.1.41,16.081,16.081,0,0,1-1.729.5A6,6,0,0,1,3565.438,690.519Z" transform="translate(-3524.129 -515.45)" fill="#544b6b" fill-rule="evenodd"/>
      <path id="Path_134620" data-name="Path 134620" d="M3977.472,570.019a4.669,4.669,0,0,1,2.028,2.828q.51,1.628.609,1.828a5.368,5.368,0,0,0,.719,1.119q-1.019.809-2.548,2.128-.731.64-1.3,1.209l-.12.12q-2.737,2.528-2.737,3.447a2.651,2.651,0,0,0,.909,1.828,6.147,6.147,0,0,1,.819.5q.634.319,1.129.579a16.968,16.968,0,0,1,1.5.849,13.514,13.514,0,0,0-1.5.734q-.548.305-1.129.684-2.448,1.629-2.448,2.538.2,6.9.919,13.7.41,3.557.909,6.194a20.359,20.359,0,0,0,1.629,5.065q-.1.919-.21,1.938a2.177,2.177,0,0,0-.8-.41,11.2,11.2,0,0,0-2.947-.809q0-.819-.1-2.328-.31-2.748-.31-2.947-.3-9.551-.709-13.5a31.917,31.917,0,0,1-.31-4.675v-1.109a4.325,4.325,0,0,0,0-1.319h-.1a3.07,3.07,0,0,0,.1-.71q.1-.819.209-1.628.4-2.637.81-4.766a55.131,55.131,0,0,1,1.828-6.9.422.422,0,0,0,.1-.31,6.7,6.7,0,0,1,.309-.909,3.87,3.87,0,0,1,.3-.809.088.088,0,0,0,.1-.1l2.028-3.657A1.8,1.8,0,0,0,3977.472,570.019Z" transform="translate(-3874.05 -471.159)" fill="#544b6b" fill-rule="evenodd"/>
      <path id="Path_134621" data-name="Path 134621" d="M4026.056,876.269a11.845,11.845,0,0,0,1.419,1.728q1.828.3,3.457.5l.2.3,11.879,1.329.34.01a10.733,10.733,0,0,1,1.179.09v.07q.2,5.015.2,6.014.1,1.319.1,2.638v.509a76.122,76.122,0,0,1-1.928,16.035,20.8,20.8,0,0,1-7.4,1.719,31.358,31.358,0,0,1-8.222-.5q-.709-.1-1.319-.2l-2.228-.51.809-11.469q.1-1.928.209-3.247l.4-5.585Q4025.546,880.825,4026.056,876.269Z" transform="translate(-3915.94 -716.216)" fill="#544b6b" fill-rule="evenodd"/>
      <path id="Path_134622" data-name="Path 134622" d="M3619.537,979.62l10.351,2.068a18.113,18.113,0,0,1,2.518,1.1l-.44.209q-2.528.4-7.173,1.339a51.674,51.674,0,0,1-6.364.669q.22-1.149.56-2.767Q3619.337,980.659,3619.537,979.62Z" transform="translate(-3591.625 -798.916)" fill="#544b6b" fill-rule="evenodd"/>
      <path id="Path_134623" data-name="Path 134623" d="M3629.248,530.763a1.243,1.243,0,0,0,.4-1.119,4.3,4.3,0,0,0-1.219-1.928,13.6,13.6,0,0,1-1.628-2.128,2.015,2.015,0,0,1-.3-1.319,30.7,30.7,0,0,1,3.048.41q4.766,1.009,5.375,1.109t2.937.41a15.09,15.09,0,0,0-1.609,7.912q-.319-.2-.519-.3Q3631.276,531.572,3629.248,530.763Zm74.8,7.5q1.308-.1,3.447-2.328a1.524,1.524,0,0,0,.3,2.028,5.049,5.049,0,0,0,.609.509,2.2,2.2,0,0,1-.3.71,8.8,8.8,0,0,1-2.667,3.517,7.679,7.679,0,0,1-4.745,1.459,16.141,16.141,0,0,1-3.747-.41q-.12-1.209-.12-3.037h.32q.469,0,1.039.045.277.022.58.055a10.651,10.651,0,0,0,1.628-.1,1.978,1.978,0,0,0,.609-.1h.1l1.518-.52.459-.33.15-.15A3.39,3.39,0,0,0,3704.049,538.266Zm1.419-3.147a3.58,3.58,0,0,1,1.628-1.309q0,.1.2.3.3.21.3.31a6.616,6.616,0,0,1-1.519,1.219,9.749,9.749,0,0,1-1.628.809A5.866,5.866,0,0,0,3705.467,535.119Zm-94.193-.2a1.337,1.337,0,0,1,.51.3,4.453,4.453,0,0,0,2.738,3.257,7.192,7.192,0,0,0,1.728.61l1.828.41h1.419a6.807,6.807,0,0,0,.71-.21v.21a.088.088,0,0,0-.1.1l-.1.1a1.625,1.625,0,0,1-.1.4,5.238,5.238,0,0,1-1.009.1h-1.938a13.9,13.9,0,0,1-6.8-1.719,5.85,5.85,0,0,1-2.428-2.438,1.731,1.731,0,0,0,0-1.618v-.1q.7.3,1.419.6A2.8,2.8,0,0,0,3611.275,534.919Z" transform="translate(-3583.063 -434.551)" fill="#e1825f" fill-rule="evenodd"/>
      <path id="Path_134624" data-name="Path 134624" d="M4058.423,649.895a25.3,25.3,0,0,0-1.928,2.438q-.223.332-.46.679-.635.927-1.369,1.958-1.356-1.843-1.983-2.858l-.055-.09a.088.088,0,0,1,.1-.1q3.357-3.757,3.866-6.694a.279.279,0,0,0,.2-.11.7.7,0,0,1,.31.31,17.916,17.916,0,0,1,1.219,2.737,14.176,14.176,0,0,1,1.009,2.538,1.027,1.027,0,0,1-.2.4l-.1-.1v-.1A7.739,7.739,0,0,0,4058.423,649.895Z" transform="translate(-3939.065 -531.253)" fill="#dbcfff" fill-rule="evenodd"/>
      <path id="Path_134625" data-name="Path 134625" d="M3715.691,931.783l-7.413-.3,2.238-6.094v-.1l.4.4a7.983,7.983,0,0,0,4.166.52,7.425,7.425,0,0,0,2.438-.719.765.765,0,0,1,.3-.1,27.83,27.83,0,0,0,3.646-2.328q.919-.71,2.028-1.629a2.068,2.068,0,0,0,1.019-1.928q0-1.419-1.319-1.119a2.727,2.727,0,0,1-.6.1,3.875,3.875,0,0,1-1.528-.1q-.81-.2-1.829-.5a2.24,2.24,0,0,0-.819-.51q-2.728-1.928-4.056-2.847a.316.316,0,0,1,.185-.1h-.185l1.229-3.147,2.827-8.012v-.1l20.2,1.009-10.151,28.214Z" transform="translate(-3663.521 -737.742)" fill="#fff" fill-rule="evenodd"/>
      <path id="Path_134626" data-name="Path 134626" d="M4022.973,606.226h-.62a5.531,5.531,0,0,1-1.009-.609,6.174,6.174,0,0,0-1.818-.709c-.273-.051-.533-.1-.779-.14q-.637-.107-1.149-.17a1.834,1.834,0,0,0-.519-.1q.519-1.009,1.119-2.028a4.115,4.115,0,0,0,.55.23,8.132,8.132,0,0,0,2.2.39q2.228.2,2.938.2Q4023.482,604.7,4022.973,606.226Z" transform="translate(-3910.619 -497.126)" fill="#dbcfff" fill-rule="evenodd"/>
      <path id="Path_134627" data-name="Path 134627" d="M4018.237,643.22a7.669,7.669,0,0,1,3.107,2.408,7.086,7.086,0,0,1-.3,2.028,12.539,12.539,0,0,1-.494,1.953q-.142.454-.325.994v.1q-.1.41-.2.719v.1a8.493,8.493,0,0,1-1.279-.839q-.726-.554-1.668-1.4.519-.81.319-1.109.3-1.628.5-2.947l.02-.04a.873.873,0,0,0,.08-.36v-.409c.067,0,.1-.037.1-.11a.763.763,0,0,0,.1-.3v-.3q0-.1.02-.29C4018.223,643.36,4018.23,643.293,4018.237,643.22Z" transform="translate(-3910.619 -529.734)" fill="#dbcfff" fill-rule="evenodd"/>
      <path id="Path_134628" data-name="Path 134628" d="M3703.208,578.075a3.382,3.382,0,0,1-.819,1.349,2.885,2.885,0,0,0,.709-1.349ZM3701.58,593a7.725,7.725,0,0,1,.609,1.009v.1Q3701.78,593.411,3701.58,593Zm-11.759-4.955q-.02.19-.02.29v.3a.769.769,0,0,1-.1.3c0,.073-.033.11-.1.11A7.2,7.2,0,0,0,3689.821,588.046Zm-.3,1.768a1.259,1.259,0,0,0,.08-.41v.05A.873.873,0,0,1,3689.521,589.815Zm-.42-1.988.1-.1a5.466,5.466,0,0,0,.7-.3,1.147,1.147,0,0,1-.03.28.071.071,0,0,1-.01.03.364.364,0,0,1-.06.09v-.3A5.5,5.5,0,0,0,3689.1,587.826Zm-.444,22.974c.009.022.017.043.025.065l-.02-.03A.114.114,0,0,0,3688.657,610.8Zm-.01-.03a.312.312,0,0,0-.025-.045q-.38-.959-.539-1.389a19.619,19.619,0,0,1-.55-2.2q.25,1.119.659,2.388Q3688.406,610.13,3688.647,610.77Zm-81.759-36.641v.1l-.21-.21A.285.285,0,0,1,3606.888,574.129Zm4.057.9a1.346,1.346,0,0,0-.51-.3.623.623,0,0,0,.41-.1h.1Z" transform="translate(-3582.223 -474.36)" fill="#d4a48d" fill-rule="evenodd"/>
      <path id="Path_134629" data-name="Path 134629" d="M4018.877,642.619l-.1.1h-.1v-.1Z" transform="translate(-3911.898 -529.253)" fill="#d3d9e7" fill-rule="evenodd"/>
      <path id="Path_134630" data-name="Path 134630" d="M4193.878,868.536l1.308-3.967q-.3,1.619-.6,2.947A12.34,12.34,0,0,1,4193.878,868.536Z" transform="translate(-4052.091 -706.854)" fill="#fcd8c9" fill-rule="evenodd"/>
      <path id="Path_134631" data-name="Path 134631" d="M4003.372,934.742l-5.994-4.876q-.1-1.618-.1-3.347.209.306.43.595a13.083,13.083,0,0,0,5.425,4.181q.219.11.449.2Q4003.472,932.813,4003.372,934.742Z" transform="translate(-3894.775 -756.425)" fill="#ff7758" fill-rule="evenodd"/>
      <path id="Path_134632" data-name="Path 134632" d="M3952.078,948.87a.323.323,0,0,0,.21.1.32.32,0,0,1-.1.21Z" transform="translate(-3858.606 -774.31)" fill-rule="evenodd" fill="url(#linear-gradient)"/>
      <path id="Path_134633" data-name="Path 134633" d="M4106.628,1294.448a2.849,2.849,0,0,1-.1-.61v-1.119A14.325,14.325,0,0,1,4106.628,1294.448Z" transform="translate(-3982.195 -1049.454)" fill="#1b2b38" fill-rule="evenodd"/>
      <path id="Path_134634" data-name="Path 134634" d="M3702.188,914.87q.1.4.2,1.019v.2q.2.889.32,1.558l.03.18c.02.14.04.269.06.39a.289.289,0,0,1,.1.2v.1a4.375,4.375,0,0,0,1.009,2.747q-.7.3-1.319.6a.384.384,0,0,0-.3.11.9.9,0,0,0-.1-.41q-.1-.61-.21-1.119a.088.088,0,0,0-.1-.1,3.4,3.4,0,0,0-.1-.809.3.3,0,0,1-.1-.21v-3.657A5.983,5.983,0,0,0,3702.188,914.87Z" transform="translate(-3658.24 -747.104)" fill="#403952" fill-rule="evenodd"/>
      <path id="Path_134635" data-name="Path 134635" d="M3704.328,913.819l.42,2.987q-.12-.669-.32-1.558v-.2q-.1-.62-.2-1.019A.322.322,0,0,0,3704.328,913.819Z" transform="translate(-3660.281 -746.263)" fill="#3c3b3b" fill-rule="evenodd"/>
      <path id="Path_134636" data-name="Path 134636" d="M3700.678,919.13q.2-.119.2-.21v.11a.09.09,0,0,1-.03.06A.277.277,0,0,1,3700.678,919.13Z" transform="translate(-3657.44 -750.345)" fill="#eefcff" fill-rule="evenodd"/>
      <g id="Group_90608" data-name="Group 90608" transform="translate(149.514 190.42)">
        <path id="Path_134637" data-name="Path 134637" d="M4258.824,1051.124c-.125,0-.313,0-5.393-.708q-5.43-.771-6.4-.91c-3.317-.455-5.291-.724-5.861-.8l-2.846-.37a21.274,21.274,0,0,0-2.24-.182,2.778,2.778,0,0,0-1.119.149c-.137.064-.479.224-.571,1.039a.924.924,0,0,1-1.836-.207,2.9,2.9,0,0,1,1.616-2.5,4.478,4.478,0,0,1,1.91-.327,22.593,22.593,0,0,1,2.467.2l2.857.371c.574.074,2.552.344,5.881.8q.979.141,6.4.91c4.069.567,4.984.677,5.156.69a8.476,8.476,0,0,0,5.329-1.895,6.732,6.732,0,0,0,2.8-3.835,1.878,1.878,0,0,0-.974-2.3,2.631,2.631,0,0,0-2.276-.381,20.685,20.685,0,0,0-2.886,1.742,6.245,6.245,0,0,1-3.206,1.395c-.5,0-2.134-.192-2.134-2.663a1.837,1.837,0,0,1,.045-.378,14.513,14.513,0,0,0-1.52.861l-.017.011a3.646,3.646,0,0,1-1.9.661,2.712,2.712,0,0,1-1.681-.727,2.964,2.964,0,0,1-1.161-2.345,2.505,2.505,0,0,1,.113-.655c-.765.328-1.677.775-2.729,1.339a9.654,9.654,0,0,1-4.133,1.428,5.578,5.578,0,0,1-3.714-1.208,4.164,4.164,0,0,1-1.172-1.58c-.765.221-1.5.425-2.19.609a9.705,9.705,0,0,1-1.416.328.924.924,0,0,1-.177-1.839c.055-.01.277-.057,1.124-.277.755-.2,1.564-.427,2.413-.674a11.159,11.159,0,0,1,1.8-4.987c1.527-2.429,3.454-3.66,5.728-3.66a3.853,3.853,0,0,1,2.4.657,2.345,2.345,0,0,1,.925,1.935c0,1.708-.981,3.273-2.916,4.649a21.7,21.7,0,0,1-5.9,2.724,2.409,2.409,0,0,0,.579.707,3.749,3.749,0,0,0,2.516.767,7.93,7.93,0,0,0,3.26-1.209,23.4,23.4,0,0,1,4.659-2.048.924.924,0,0,1,1.157.922,6.1,6.1,0,0,1-.274,1.364l-.006.019a7.02,7.02,0,0,0-.2.723,1.122,1.122,0,0,0,.479.877,1.276,1.276,0,0,0,.521.311,1.937,1.937,0,0,0,.9-.374,19.71,19.71,0,0,1,3.454-1.743.924.924,0,0,1,.317-.1l.389-.089a.924.924,0,0,1,.52,1.77c-.037.145-.085.319-.146.528l-.007.024a5.611,5.611,0,0,0-.2.7c0,.788.179.788.285.788.141,0,.714-.077,2.154-1.066a22.393,22.393,0,0,1,3.148-1.894,4.3,4.3,0,0,1,3.932.42,3.685,3.685,0,0,1,1.925,4.266,8.464,8.464,0,0,1-3.492,4.965A10.4,10.4,0,0,1,4258.824,1051.124Zm-13.908-21.031c-1.619,0-2.981.914-4.163,2.795a10.058,10.058,0,0,0-1.422,3.411,19.085,19.085,0,0,0,4.923-2.32c1.416-1.008,2.136-2.065,2.136-3.141a.509.509,0,0,0-.2-.466A2.134,2.134,0,0,0,4244.916,1030.093Z" transform="translate(-4232.553 -1028.245)" fill="#c3b5ec"/>
      </g>
    </g>
  </g>
</svg>
