<svg xmlns="http://www.w3.org/2000/svg" width="139.333" height="53.966" viewBox="0 0 139.333 53.966">
  <g id="t4-ix2" transform="translate(-4301.803 -1790.055)">
    <path id="Path_134793" data-name="Path 134793" d="M4392.6,1790.267c3.876,0,7.752-.006,11.628,0-.022.891-.007,1.782-.007,2.675-2.713.007-5.428,0-8.141,0q0,2.13,0,4.262,3.485,0,6.969,0c.023.9.033,1.791-.006,2.686q-3.484,0-6.967,0c.006,1.587,0,3.174,0,4.762q4.087-.009,8.173,0c-.014.891,0,1.781-.006,2.673-3.88.023-7.762-.008-11.644.016-.016-5.694-.008-11.387,0-17.08m43.7.072c1.494-.064,2.993.014,4.488-.076.039,5.691,0,11.383.016,17.074-.5.028-1-.058-1.505-.045-.644,0-1.288.012-1.931-.018.006-1.618,0-3.235,0-4.852.068-2.6.258-5.191.3-7.788-.781,2.05-1.5,4.126-2.249,6.19-.718,2.028-1.467,4.044-2.18,6.074a3.029,3.029,0,0,0-.086.355,16.3,16.3,0,0,1-2.34.009c-.639-1.889-1.354-3.75-2.009-5.633-.832-2.319-1.655-4.644-2.506-6.956-.043.794.056,1.591.065,2.387.085,1.821.159,3.642.236,5.464-.008,1.6.025,3.194-.018,4.791-1.111-.04-2.226-.027-3.338-.007-.064-.964-.012-1.931-.028-2.9v-9.829c.019-1.428-.04-2.858.032-4.284,1.42.023,2.842.026,4.262,0l.176.1c.166.721.467,1.4.686,2.1.354,1.06.745,2.108,1.085,3.173.688,1.966,1.345,3.943,2.034,5.909a8.4,8.4,0,0,0,.483,1.282c.108-.278.2-.562.3-.842,1.333-3.9,2.72-7.781,4.026-11.688m-25.925,2.611c0,1.65,0,3.3,0,4.951.679.013,1.357,0,2.036.006a7.642,7.642,0,0,0,2.09-.165,1.971,1.971,0,0,0,1.376-1.3,2.971,2.971,0,0,0-.443-2.688,2.645,2.645,0,0,0-1.928-.793c-1.043-.019-2.086-.008-3.128-.009m-3.48-2.683q2.558,0,5.118,0c.831,0,1.663-.017,2.493.041a6.384,6.384,0,0,1,3.512,1.448,4.866,4.866,0,0,1,1.3,4.859,4.254,4.254,0,0,1-2.389,2.545,3.737,3.737,0,0,1,2.1,1.591,5.654,5.654,0,0,1,.575,3.062,6.6,6.6,0,0,0,.351,2.579c.168.323.522.549.53.943-1.216.019-2.434-.006-3.651.011a4.04,4.04,0,0,1-.714-2.63c-.058-1.033.167-2.18-.421-3.1a2.376,2.376,0,0,0-2-1.016c-1.107-.017-2.215,0-3.322-.01-.009,2.253.011,4.506-.011,6.758q-1.732-.015-3.465,0c-.016-5.694-.008-11.387,0-17.08m-29.751,0c4.337-.01,8.673,0,13.009-.005.015.893.023,1.787,0,2.681-1.591.007-3.182,0-4.772.006,0,4.8.016,9.6-.006,14.4-1.157-.031-2.314-.024-3.47,0-.023-4.8,0-9.6-.013-14.406-1.582,0-3.165.005-4.745,0-.006-.891,0-1.782,0-2.675m-48.453,0c1.169.01,2.339-.021,3.508.017.462.954,1.068,1.831,1.577,2.761,1.19,2.017,2.386,4.031,3.559,6.058.535.9,1.078,1.8,1.577,2.722.053-1.749.01-3.5.024-5.248,0-2.1.006-4.2,0-6.305,1.158-.011,2.316,0,3.475-.005.027,5.693.014,11.386.007,17.08-1.149-.014-2.3-.01-3.447,0-.945-1.586-1.87-3.183-2.811-4.771s-1.852-3.17-2.783-4.752c-.406-.655-.75-1.351-1.193-1.982-.037,3.837.008,7.675-.022,11.512-1.155-.02-2.312-.026-3.467,0q-.019-8.544,0-17.089m-7.441,0c1.161,0,2.321,0,3.479,0,0,5.692.008,11.384,0,17.075-1.159,0-2.316-.014-3.475.007q-.014-8.542,0-17.085m124.3,1.642a6.642,6.642,0,0,1,3.966-1.777,10.486,10.486,0,0,1,2.975.091,5.9,5.9,0,0,1,3.921,2.644,4.706,4.706,0,0,1,.608,2.49c-1.132.08-2.269,0-3.4.047a2.718,2.718,0,0,0-.651-1.778,3.052,3.052,0,0,0-2.453-.866,2.925,2.925,0,0,0-2.172.849,1.838,1.838,0,0,0-.248,2.033,5.105,5.105,0,0,0,2.411,1.42,26.475,26.475,0,0,1,3.565,1.308,6.138,6.138,0,0,1,2.2,1.761,4.22,4.22,0,0,1,.766,1.9,4.4,4.4,0,0,1-1.066,3.719,6.852,6.852,0,0,1-4.867,1.78,8.653,8.653,0,0,1-4.013-.771,5.754,5.754,0,0,1-2.466-2.033,4.829,4.829,0,0,1-.673-2.784c1.141.007,2.283-.023,3.424.016a2.744,2.744,0,0,0,.75,2.064,3.821,3.821,0,0,0,2.48.832,4.164,4.164,0,0,0,2.043-.407,1.955,1.955,0,0,0,.9-1.31,2.116,2.116,0,0,0-.713-2.026,9.824,9.824,0,0,0-3.013-1.282,16.626,16.626,0,0,1-2.644-1.047,5.843,5.843,0,0,1-2.055-1.616,4.228,4.228,0,0,1,.417-5.261m-79.53,1.855a4.26,4.26,0,0,0-.8,1.407,11.393,11.393,0,0,0-.326,3.785,14.448,14.448,0,0,0,.141,2.833,4.512,4.512,0,0,0,1,2.042c.083.087.168.177.253.265a3.577,3.577,0,0,0,3.877.353,3.809,3.809,0,0,0,1.694-2.321,8.885,8.885,0,0,0,.238-2.577c-.012-1.055.032-2.112-.047-3.165a4.75,4.75,0,0,0-1.021-2.489,3.442,3.442,0,0,0-5.01-.132m-1.685-2.484a7.726,7.726,0,0,1,6.786-.788,6.761,6.761,0,0,1,3.642,3.218,8.194,8.194,0,0,1,.834,4.158,21.391,21.391,0,0,1-.216,4.385,6.78,6.78,0,0,1-6.844,5.283,7.309,7.309,0,0,1-3.478-.75,7.12,7.12,0,0,1-2.711-2.621,7.985,7.985,0,0,1-.717-1.844,14.377,14.377,0,0,1-.23-3.467,18.384,18.384,0,0,1,.134-3.067,6.864,6.864,0,0,1,2.8-4.507m-14.8-.706a8.4,8.4,0,0,1,4.626-.343,5.68,5.68,0,0,1,4.239,3.064,6.743,6.743,0,0,1,.534,2.922q-1.715-.013-3.431,0a3.541,3.541,0,0,0-.958-2.739,3.3,3.3,0,0,0-2.183-.717,2.871,2.871,0,0,0-2.019.709,4.886,4.886,0,0,0-1.312,3.5c-.018,1.26-.009,2.522,0,3.783a5.493,5.493,0,0,0,.255,1.59,3.574,3.574,0,0,0,1.914,2.284,3.8,3.8,0,0,0,3.117-.215,3.45,3.45,0,0,0,1.179-2.935c1.134-.016,2.269,0,3.4-.006a6.114,6.114,0,0,1-.788,3.419,5.586,5.586,0,0,1-2.495,2.1,8.834,8.834,0,0,1-5.092.343,6.522,6.522,0,0,1-4.755-4.813,25.222,25.222,0,0,1-.227-4.945,7.716,7.716,0,0,1,1.178-4.646,6.344,6.344,0,0,1,2.814-2.349" transform="translate(-17.51)" fill="#fff"/>
    <path id="Path_134794" data-name="Path 134794" d="M4309.718,2054.462c.412.01.823-.022,1.234-.011.146.087.089.271.111.412a3.442,3.442,0,0,1-.061.846c-.429-.013-.859-.007-1.29,0,0-.417-.01-.832,0-1.249m0-1.939c.452,0,.9-.01,1.356,0-.016.4-.042.808-.076,1.211-.429,0-.857.006-1.287.01-.008-.408-.01-.816.006-1.223m12.626,4.314a.786.786,0,0,0-.758.8c-4.9.049-9.8-.012-14.7.028a16.506,16.506,0,0,0,.059,2.085,3.823,3.823,0,0,0,1.1,1.854,1.321,1.321,0,0,1,.608,1.891l.209.267c5.45.02,10.9,0,16.35.011a2.429,2.429,0,0,0,1.512-.38,4.055,4.055,0,0,0,1.129-1.748c.558-1.153,1.094-2.316,1.674-3.459a9.422,9.422,0,0,1,.689-1.362c-2.626.011-5.253,0-7.879.01m-.24-3.215a8.935,8.935,0,0,0-.117,2.217.88.88,0,0,0,.553.168c1.086-.014,2.172.019,3.257-.018.084-.072.167-.144.252-.213a10.951,10.951,0,0,0-.083-2.137,21.779,21.779,0,0,0-2.429-.058,8.994,8.994,0,0,0-1.435.041m-9.42-.385a2.481,2.481,0,0,0-.1.735c.008.926,0,1.852,0,2.778-.012.246.158.521.434.476,1.139,0,2.279.026,3.417-.022.07-.07.139-.138.21-.206.029-1.247.057-2.5-.016-3.744a7.433,7.433,0,0,0-1.925-.109,9.633,9.633,0,0,0-2.016.091m4.843-1.113c-.048,1.625-.027,3.25,0,4.875.062.072.124.144.186.218,1.019.008,2.038.024,3.055.006a.416.416,0,0,0,.368-.47c.024-1.292,0-2.586.012-3.88a4.214,4.214,0,0,0-.039-.769.613.613,0,0,0-.446-.169q-1.455-.009-2.908.009c-.076.06-.151.12-.226.18m-8.219-5.051c.011.8.011,1.6.005,2.405-.346-.011-.692-.013-1.037,0,0,.157.006.314.011.472q.518-.022,1.036-.025c0,.391,0,.783,0,1.175-.951.022-1.9.021-2.853,0,0,.27,0,.54.005.811.411.024.823,0,1.233,0-.024,1.645,0,3.29-.013,4.936a1.058,1.058,0,0,0,.051.416c1.338-.069,2.679,0,4.018-.055.029-1.767-.035-3.54.032-5.3.317-.275.676-.5.984-.788-1.017,0-2.032,0-3.048,0,0-.4,0-.794-.008-1.19.352,0,.7,0,1.055,0,0-.152,0-.3.007-.456-.344-.011-.689,0-1.032,0-.044-.814-.011-1.629-.022-2.443l-.422.041m-7.5-7.615q16.038,0,32.075,0l.074.119c-.017,9.689.008,19.38-.013,29.069-10.712.029-21.427,0-32.14.016q0-14.6,0-29.2" transform="translate(0 -224.647)" fill="#ffba5b"/>
    <path id="Path_134795" data-name="Path 134795" d="M4673.05,2060.429c.077-.118.146-.316.326-.282,2.995,0,5.988.014,8.982-.006.372.58.675,1.2,1.035,1.787-1.548.039-3.1.006-4.646.017-2.184-.008-4.367.014-6.549-.007.3-.5.578-1,.853-1.51m1.694-3.08c2.035.028,4.069.01,6.1.01.274.477.557.949.8,1.443-2.558.009-5.115-.013-7.673.012a8.732,8.732,0,0,1,.765-1.465m6.428-4.253a1.335,1.335,0,1,1,.058,2.6,1.323,1.323,0,0,1-1-1.676,1.415,1.415,0,0,1,.942-.922m-7.191-.086a1.334,1.334,0,1,1-.524,2.51,1.338,1.338,0,0,1,.524-2.51m.732-7.676a3.726,3.726,0,0,1,.951-.076c1.557.013,3.114-.011,4.669.011a2.635,2.635,0,0,1,2.34,1.658,7.37,7.37,0,0,1,.175,2.331c-.017.449.094.961-.21,1.342a1.1,1.1,0,0,1-.912.313c-2.451,0-4.9-.005-7.353,0-.441-.008-.969.1-1.3-.262-.3-.241-.278-.654-.29-1,.006-.7-.058-1.4-.01-2.1a2.544,2.544,0,0,1,1.942-2.222m-1.981-1.183a3.994,3.994,0,0,0-1.574,3.217c0,2.715,0,5.429,0,8.143a1.857,1.857,0,0,0,1.519,1.831c-1.015,1.8-1.968,3.627-2.964,5.434a1.16,1.16,0,0,0-.009,1.172q.2.125.4.263a3.041,3.041,0,0,0,.609-.023c.379-.155.555-.552.764-.875,4.2-.01,8.394.023,12.589-.016.254.294.392.719.768.888a3.265,3.265,0,0,0,.711.017,1.845,1.845,0,0,0,.471-.552,1.137,1.137,0,0,0-.121-.82c-.988-1.837-2.026-3.646-3-5.49a1.9,1.9,0,0,0,1.488-1.725q.015-4.224,0-8.449a4,4,0,0,0-2.954-3.722,7.275,7.275,0,0,0-1.893-.128c-1.487,0-2.975-.01-4.463.008a3.764,3.764,0,0,0-2.342.826m-10.955-4.839h30.667c.482,0,.965,0,1.448-.019.068,1.733.011,3.469.029,5.2,0,8,.012,16-.008,24.006-2.972.043-5.946.006-8.919.018h-23.218q-.013-14.6,0-29.207" transform="translate(-324.24 -224.503)" fill="#ffba5b"/>
    <path id="Path_134796" data-name="Path 134796" d="M5055.673,2042.334c-.015-1.042.036-2.086-.037-3.127-.576.032-1.152.037-1.727.034H5027.9c-1.439-.016-2.881.038-4.319-.036a9.29,9.29,0,0,0-.065,1.737c-.01,9.152.02,18.3-.013,27.454.864.091,1.737.014,2.605.039q14.781,0,29.56,0Q5055.686,2055.381,5055.673,2042.334Zm-7.527,2.911a10.557,10.557,0,0,1-2.847,4.062c-.684.672-1.392,1.317-2.071,1.994-.176.135-.059.368-.025.542.217.721.4,1.453.655,2.162.233-.13.52-.292.769-.088a6.976,6.976,0,0,0,.649.662c.032.164.044.332.063.5-.31.362-.851.625-.843,1.162.2-.037.4-.068.609-.1a3.193,3.193,0,0,1,.8.986c.07.528-.591.718-.75,1.155.188.88.55,1.715.736,2.6a.625.625,0,0,1-.2.615c-.339.329-.667.669-1,1.009-.208-.016-.488.1-.614-.122-.871-1.465-1.668-2.974-2.507-4.457a7.563,7.563,0,0,0-1.029-1.549c-.429-.4-.81-.85-1.238-1.251-1.424,1.326-2.86,2.645-4.406,3.83-.1.09-.268.177-.234.341.1,1.26.19,2.522.342,3.779a1.036,1.036,0,0,1-.183.871c-.264.318-.624.737-1.087.536a8.231,8.231,0,0,1-.707-1.356c-.327-.612-.552-1.275-.907-1.87-.067-.081-.138-.157-.206-.233-.281.013-.561.03-.841.021a.764.764,0,0,1-.544-.5,1.876,1.876,0,0,1,.1-.878,5.012,5.012,0,0,0-1.428-.8c-.5-.228-.979-.5-1.49-.7a3.592,3.592,0,0,1-.688-.376c.028-.208-.038-.462.127-.624a2.433,2.433,0,0,1,.682-.594,4.906,4.906,0,0,1,1.257.016c1.092.117,2.188.187,3.281.294,1.3-1.583,2.611-3.161,4.038-4.637-.473-.477-.948-.953-1.412-1.437a4.649,4.649,0,0,0-1.157-.729c-1.243-.719-2.508-1.4-3.754-2.11a4.9,4.9,0,0,1-1.063-.624c.029-.194-.038-.434.112-.587.354-.38.73-.74,1.1-1.105a2.569,2.569,0,0,1,.66.038c.782.238,1.564.5,2.361.679.364-.086.563-.492.844-.723a2.478,2.478,0,0,1,.493.028,1.943,1.943,0,0,1,.436.426l.023.041c.069.149.222.231.337.344,0,.081.011.245.015.326-.052.071-.1.142-.154.215l.506.013.043-.094a2.409,2.409,0,0,1,.827-.693c.44-.02.679.406.97.663l.168.171c0,.08.009.24.012.321-.055.1-.108.191-.16.289l.363.105c.707.236,1.422.446,2.135.666a35.268,35.268,0,0,1,3.956-3.859,7.716,7.716,0,0,1,2.173-1.186,3.774,3.774,0,0,1,1.648-.145C5048.485,2043.76,5048.339,2044.6,5048.146,2045.245Z" transform="translate(-650.074 -224.422)" fill="#ffba5b"/>
    <path id="Path_134797" data-name="Path 134797" d="M5402.332,2061.253a.947.947,0,0,1,1.375-.825c.356.123.466.5.571.825a1.094,1.094,0,0,1-.737.95.955.955,0,0,1-1.21-.95m-9.92.514a.96.96,0,0,1,.8-1.447,1.312,1.312,0,0,1,.746.292,1.059,1.059,0,0,1,.045,1.235.952.952,0,0,1-1.6-.08m8.693-10.1a4.274,4.274,0,0,1,1.242-.085c.506,0,1.012,0,1.519.011.529.672.983,1.4,1.493,2.085a1.008,1.008,0,0,1,.186.549,1.636,1.636,0,0,1-.609.118c-1.2,0-2.4-.006-3.6,0l-.263-.142a22.44,22.44,0,0,1,.033-2.538m-9.037,8.064a1.99,1.99,0,0,0-.717,1.875,1.955,1.955,0,0,0,1.673,1.587,1.913,1.913,0,0,0,1.712-.737,1.886,1.886,0,0,0,.341-1.676,1.908,1.908,0,0,0-1.269-1.329,2.129,2.129,0,0,0-1.741.28m10.8-.317a1.882,1.882,0,0,0-1.36,1.137,1.92,1.92,0,1,0,1.36-1.137m-15.853.006a5.811,5.811,0,0,0-.022,1.243.225.225,0,0,0,.26.237c1.138.025,2.277,0,3.416.013.026-.044.053-.087.083-.13a2.28,2.28,0,0,1,.725-1.305c0-.036,0-.106.006-.141-.879.04-1.759.01-2.638.02a11.573,11.573,0,0,0-1.829.063m12.685-9.157a4.417,4.417,0,0,0-.053,1.06c0,2.672.007,5.345-.006,8.018-1.566.019-3.133.036-4.7-.006l.035.131a2.7,2.7,0,0,1,.788,1.45c1.668-.016,3.338,0,5.007-.007a2.548,2.548,0,0,1,2.885-2.134,2.589,2.589,0,0,1,1.992,1.585c.046.182.1.365.146.549.771,0,1.542,0,2.314,0,.15-.01.327.016.44-.114a4.812,4.812,0,0,0,0-1.374,5.417,5.417,0,0,0-1.012-.082c0-1.411.007-2.823,0-4.233-.015-1.031-.789-1.778-1.288-2.606a13.482,13.482,0,0,0-1.562-2.1,2.845,2.845,0,0,0-1.447-.486c-1.068-.014-2.138,0-3.206,0a2.8,2.8,0,0,0-.334.354m-11.985-1.548c.009,3.161,0,6.321,0,9.482l.134.214c.7.045,1.394.013,2.09.022,2.842-.006,5.684.013,8.524-.009.253.026.317-.244.3-.443,0-3.047,0-6.094,0-9.141a1.031,1.031,0,0,0-.661-.839c-3.15-.023-6.3-.006-9.452-.009a1.053,1.053,0,0,0-.933.722m-6.006-9.316c10.709,0,21.417.013,32.126-.009.03,4.972,0,9.945.013,14.918-.008,4.767.015,9.533-.012,14.3q-16.067-.024-32.136-.007c-.012-5.457,0-10.915,0-16.371.009-4.277-.019-8.553.014-12.83" transform="translate(-972.719 -224.593)" fill="#ffba5b"/>
  </g>
</svg>
