<svg xmlns="http://www.w3.org/2000/svg" xmlns:xlink="http://www.w3.org/1999/xlink" width="505" height="180" viewBox="0 0 505 180">
  <defs>
    <linearGradient id="linear-gradient" x1="0.5" y1="0.004" x2="0.5" y2="0.937" gradientUnits="objectBoundingBox">
      <stop offset="0" stop-color="#73c16b"/>
      <stop offset="0.152" stop-color="#69c073"/>
      <stop offset="0.401" stop-color="#51be8c"/>
      <stop offset="0.713" stop-color="#29bab3"/>
      <stop offset="0.995" stop-color="#00b7dc"/>
      <stop offset="1" stop-color="#00b7dc"/>
    </linearGradient>
  </defs>
  <g id="t4-xx4" transform="translate(-810 -6803)">
    <path id="Path_136086" data-name="Path 136086" d="M0,0H505V180H0Z" transform="translate(810 6803)" fill="#fff"/>
    <g id="Group_91254" data-name="Group 91254" transform="translate(-60.801 6597.965)">
      <path id="Path_136087" data-name="Path 136087" d="M988.547,341.27a1.1,1.1,0,0,0,1.089-1.143,1.062,1.062,0,0,0-1.089-1.069h-1.318v2.212Zm-2.746-3.354a.208.208,0,0,1,.211-.208h2.579a2.451,2.451,0,1,1,.01,4.9h-1.372V345.2a.216.216,0,0,1-.21.211h-1.007a.209.209,0,0,1-.211-.211Z" transform="translate(0 -15.481)" fill="#252946"/>
      <path id="Path_136088" data-name="Path 136088" d="M1000.824,344.057a2.529,2.529,0,1,0-2.516-2.519,2.535,2.535,0,0,0,2.516,2.519m0-6.488a3.96,3.96,0,1,1-3.942,3.969,3.949,3.949,0,0,1,3.942-3.969" transform="translate(-2.208 -15.453)" fill="#252946"/>
      <path id="Path_136089" data-name="Path 136089" d="M1015.3,341.216a1.121,1.121,0,0,0,1.09-1.121,1.1,1.1,0,0,0-1.09-1.069h-1.788v2.19Zm-3.226-3.3a.206.206,0,0,1,.207-.208h3.142a2.379,2.379,0,0,1,2.393,2.364,2.429,2.429,0,0,1-1.625,2.223l1.5,2.79a.209.209,0,0,1-.187.32h-1.153a.193.193,0,0,1-.177-.1l-1.46-2.915H1013.5v2.8a.216.216,0,0,1-.207.211h-1.012a.208.208,0,0,1-.207-.211Z" transform="translate(-5.237 -15.481)" fill="#252946"/>
      <path id="Path_136090" data-name="Path 136090" d="M1031.454,337.916a.214.214,0,0,1,.209-.208h1.043a.208.208,0,0,1,.208.208V342.5a1.6,1.6,0,0,0,3.2.012v-4.6a.206.206,0,0,1,.207-.208h1.043a.214.214,0,0,1,.209.208v4.666a3.06,3.06,0,0,1-6.116,0Z" transform="translate(-9.099 -15.481)" fill="#252946"/>
      <path id="Path_136091" data-name="Path 136091" d="M1044.894,337.768a.207.207,0,0,1,.209-.2h.163a.244.244,0,0,1,.188.079l4.479,4.783h.022v-4.542a.209.209,0,0,1,.209-.208h1.01a.216.216,0,0,1,.209.208v7.4a.208.208,0,0,1-.209.2h-.153a.24.24,0,0,1-.187-.077l-4.5-4.971h-.022v4.727a.209.209,0,0,1-.207.211h-1a.216.216,0,0,1-.209-.211Z" transform="translate(-11.778 -15.453)" fill="#252946"/>
      <path id="Path_136092" data-name="Path 136092" d="M1062.5,342.748l-1.1-2.416h-.034l-1.077,2.416Zm-4.743,2.343,3.413-7.4a.2.2,0,0,1,.187-.123h.11a.189.189,0,0,1,.188.123l3.381,7.4a.194.194,0,0,1-.185.287h-.956a.318.318,0,0,1-.319-.219l-.537-1.189h-3.284l-.539,1.189a.33.33,0,0,1-.316.219h-.957a.194.194,0,0,1-.186-.287" transform="translate(-14.336 -15.453)" fill="#252946"/>
      <path id="Path_136093" data-name="Path 136093" d="M1081.879,337.569a3.706,3.706,0,0,1,2.659,1.026.2.2,0,0,1,.01.307l-.669.692a.18.18,0,0,1-.275,0,2.589,2.589,0,0,0-1.69-.651,2.553,2.553,0,0,0,.011,5.1,2.636,2.636,0,0,0,1.679-.625.206.206,0,0,1,.275,0l.68.7a.208.208,0,0,1-.01.3,3.768,3.768,0,0,1-2.669,1.067,3.959,3.959,0,1,1,0-7.919" transform="translate(-18.359 -15.453)" fill="#252946"/>
      <path id="Path_136094" data-name="Path 136094" d="M1094.64,344.057a2.529,2.529,0,1,0-2.516-2.519,2.534,2.534,0,0,0,2.516,2.519m0-6.488a3.96,3.96,0,1,1-3.943,3.969,3.948,3.948,0,0,1,3.943-3.969" transform="translate(-20.906 -15.453)" fill="#252946"/>
      <path id="Path_136095" data-name="Path 136095" d="M1105.893,337.916a.207.207,0,0,1,.209-.208h1.01a.214.214,0,0,1,.207.208v6.169h2.8a.211.211,0,0,1,.209.209v.9a.21.21,0,0,1-.209.211H1106.1a.209.209,0,0,1-.209-.211Z" transform="translate(-23.935 -15.481)" fill="#252946"/>
      <path id="Path_136096" data-name="Path 136096" d="M1119.517,344.057a2.529,2.529,0,1,0-2.514-2.519,2.533,2.533,0,0,0,2.514,2.519m0-6.488a3.96,3.96,0,1,1-3.942,3.969,3.949,3.949,0,0,1,3.942-3.969" transform="translate(-25.865 -15.453)" fill="#252946"/>
      <path id="Path_136097" data-name="Path 136097" d="M1131.472,337.737a.186.186,0,0,1,.2-.167h.176a.194.194,0,0,1,.186.111l2.416,5.191h.033l2.416-5.191a.189.189,0,0,1,.187-.111h.175a.184.184,0,0,1,.2.167l1.3,7.387a.193.193,0,0,1-.2.255h-1a.237.237,0,0,1-.209-.168l-.648-4.166h-.033l-1.922,4.322a.19.19,0,0,1-.186.121h-.2a.2.2,0,0,1-.186-.121l-1.944-4.322h-.034l-.635,4.166a.215.215,0,0,1-.2.168h-.988a.2.2,0,0,1-.208-.255Z" transform="translate(-28.772 -15.453)" fill="#252946"/>
      <path id="Path_136098" data-name="Path 136098" d="M1149.033,344.109a.962.962,0,0,0,.966-1,.939.939,0,0,0-.966-.958h-1.351v1.959Zm-.154-3.168a.925.925,0,0,0,.922-.99.88.88,0,0,0-.922-.935h-1.2v1.926Zm1.329.572a1.8,1.8,0,0,1,1.318,1.77,2.221,2.221,0,0,1-2.395,2.123h-2.655a.21.21,0,0,1-.211-.211v-7.279a.209.209,0,0,1,.211-.208h2.514a2.152,2.152,0,0,1,2.316,2.035,1.93,1.93,0,0,1-1.1,1.714Z" transform="translate(-31.981 -15.481)" fill="#252946"/>
      <path id="Rectangle_31474" data-name="Rectangle 31474" d="M.261,0h.917a.261.261,0,0,1,.261.261V7.435a.262.262,0,0,1-.262.262H.261A.261.261,0,0,1,0,7.437V.261A.261.261,0,0,1,.261,0Z" transform="translate(1123.904 322.227)" fill="#252946"/>
      <path id="Path_136099" data-name="Path 136099" d="M1169.572,342.748l-1.1-2.416h-.033l-1.077,2.416Zm-4.743,2.343,3.415-7.4a.2.2,0,0,1,.187-.123h.112a.185.185,0,0,1,.185.123l3.384,7.4a.2.2,0,0,1-.188.287h-.956a.318.318,0,0,1-.318-.219l-.538-1.189h-3.284l-.539,1.189a.33.33,0,0,1-.316.219h-.956a.2.2,0,0,1-.187-.287" transform="translate(-35.677 -15.453)" fill="#252946"/>
      <path id="Path_136100" data-name="Path 136100" d="M1186.341,337.737a.186.186,0,0,1,.2-.167h.174a.2.2,0,0,1,.187.111l2.416,5.191h.033l2.416-5.191a.189.189,0,0,1,.187-.111h.175a.184.184,0,0,1,.2.167l1.3,7.387a.193.193,0,0,1-.2.255h-1a.239.239,0,0,1-.211-.168l-.647-4.166h-.033l-1.922,4.322a.189.189,0,0,1-.186.121h-.2a.2.2,0,0,1-.186-.121l-1.944-4.322h-.034l-.635,4.166a.216.216,0,0,1-.2.168h-.987a.2.2,0,0,1-.211-.255Z" transform="translate(-39.707 -15.453)" fill="#252946"/>
      <path id="Path_136101" data-name="Path 136101" d="M1204.734,342.141l-1.1-2.416h-.033l-1.076,2.416Zm-2.151-5.892-.2-.386a.162.162,0,0,1,.066-.207l1.8-1.081c.12-.077.23-.065.283.034l.308.573a.2.2,0,0,1-.065.3l-1.922.845c-.154.067-.23.024-.274-.075m-2.592,8.235,3.415-7.4a.2.2,0,0,1,.186-.123h.111a.188.188,0,0,1,.187.123l3.382,7.4a.2.2,0,0,1-.187.287h-.954a.32.32,0,0,1-.32-.219l-.537-1.189h-3.283l-.541,1.189a.329.329,0,0,1-.317.219h-.956a.194.194,0,0,1-.186-.287" transform="translate(-42.684 -14.846)" fill="#252946"/>
      <path id="Path_136102" data-name="Path 136102" d="M1213.436,344.63c-.109-.089-.155-.154-.055-.329l.4-.685a.257.257,0,0,1,.374-.076,2.645,2.645,0,0,0,1.658.681.916.916,0,0,0,1-.846c0-.56-.471-.946-1.4-1.321-1.031-.417-2.064-1.078-2.064-2.375a2.194,2.194,0,0,1,2.471-2.111,3.871,3.871,0,0,1,2.2.737.276.276,0,0,1,.066.365l-.419.625a.287.287,0,0,1-.383.132,2.828,2.828,0,0,0-1.529-.605c-.626,0-.966.353-.966.773,0,.513.407.866,1.3,1.229,1.066.429,2.295,1.066,2.295,2.488a2.32,2.32,0,0,1-2.526,2.175,3.431,3.431,0,0,1-2.416-.857" transform="translate(-45.347 -15.453)" fill="#252946"/>
      <path id="Path_136103" data-name="Path 136103" d="M1231.758,337.916a.214.214,0,0,1,.208-.208h1.021a.208.208,0,0,1,.209.208v2.915h3.58v-2.915a.207.207,0,0,1,.209-.208h1.01a.214.214,0,0,1,.209.208V345.2a.216.216,0,0,1-.209.211h-1.01a.209.209,0,0,1-.209-.211v-3.034h-3.58V345.2a.21.21,0,0,1-.209.211h-1.021a.215.215,0,0,1-.208-.211Z" transform="translate(-49.02 -15.481)" fill="#252946"/>
      <path id="Path_136104" data-name="Path 136104" d="M1249.084,344.057a2.529,2.529,0,1,0-2.516-2.519,2.534,2.534,0,0,0,2.516,2.519m0-6.488a3.96,3.96,0,1,1-3.943,3.969,3.948,3.948,0,0,1,3.943-3.969" transform="translate(-51.688 -15.453)" fill="#252946"/>
      <path id="Path_136105" data-name="Path 136105" d="M1260.337,337.768a.208.208,0,0,1,.209-.2h.163a.242.242,0,0,1,.187.079l4.481,4.783h.021v-4.542a.208.208,0,0,1,.209-.208h1.01a.216.216,0,0,1,.209.208v7.4a.208.208,0,0,1-.209.2h-.153a.24.24,0,0,1-.187-.077l-4.5-4.971h-.023v4.727a.209.209,0,0,1-.207.211h-1a.217.217,0,0,1-.209-.211Z" transform="translate(-54.716 -15.453)" fill="#252946"/>
      <path id="Path_136106" data-name="Path 136106" d="M1274.338,337.916a.209.209,0,0,1,.21-.208h4.468a.208.208,0,0,1,.21.208v.9a.207.207,0,0,1-.21.207h-3.25v1.806h2.713a.216.216,0,0,1,.21.209v.913a.209.209,0,0,1-.21.208h-2.713v1.923h3.25a.21.21,0,0,1,.21.209v.9a.21.21,0,0,1-.21.211h-4.468a.21.21,0,0,1-.21-.211Z" transform="translate(-57.507 -15.481)" fill="#252946"/>
      <path id="Path_136107" data-name="Path 136107" d="M1285.31,344.63c-.11-.089-.156-.154-.056-.329l.4-.685a.256.256,0,0,1,.372-.076,2.657,2.657,0,0,0,1.659.681.916.916,0,0,0,1-.846c0-.56-.472-.946-1.395-1.321-1.031-.417-2.066-1.078-2.066-2.375a2.2,2.2,0,0,1,2.473-2.111,3.867,3.867,0,0,1,2.2.737.275.275,0,0,1,.066.365l-.417.625a.289.289,0,0,1-.384.132,2.826,2.826,0,0,0-1.526-.605c-.626,0-.967.353-.967.773,0,.513.407.866,1.3,1.229,1.064.429,2.294,1.066,2.294,2.488a2.32,2.32,0,0,1-2.527,2.175,3.427,3.427,0,0,1-2.413-.857" transform="translate(-59.671 -15.453)" fill="#252946"/>
      <path id="Path_136108" data-name="Path 136108" d="M1297.854,339.026h-1.68a.206.206,0,0,1-.208-.208v-.9a.208.208,0,0,1,.208-.209h4.8a.21.21,0,0,1,.211.209v.9a.208.208,0,0,1-.211.208h-1.68v6.169a.216.216,0,0,1-.208.211h-1.021a.216.216,0,0,1-.209-.211Z" transform="translate(-61.817 -15.481)" fill="#252946"/>
      <path id="Path_136109" data-name="Path 136109" d="M1310.563,342.748l-1.1-2.416h-.033l-1.077,2.416Zm-4.743,2.343,3.415-7.4a.2.2,0,0,1,.187-.123h.11a.186.186,0,0,1,.187.123l3.384,7.4a.2.2,0,0,1-.187.287h-.956a.319.319,0,0,1-.319-.219l-.538-1.189h-3.285l-.537,1.189a.332.332,0,0,1-.318.219h-.955a.2.2,0,0,1-.187-.287" transform="translate(-63.777 -15.453)" fill="#252946"/>
      <path id="Path_136110" data-name="Path 136110" d="M1156.054,267.956l-37.937,41.506v.432h7.7l8.531-9.4h34.791l-3.827-4.3h-27.068l12.235-13.494,7.674-8.458.033-.156q2.257,2.75,7.707,8.5l24.772,27.313H1198v-.381l-37.985-41.558Z" transform="translate(-26.371 -1.579)" fill="url(#linear-gradient)"/>
      <path id="Path_136111" data-name="Path 136111" d="M1051.641,272.952q-7.7-5-28.454-5H988.263v5.18H1023q18.048,0,24.143,3.762,6.282,3.884,6.284,12.151,0,8.573-6.22,12.272-5.729,3.4-22.05,3.393H994.421v-8.662h-6.158v13.842h37.075a100.64,100.64,0,0,0,16.355-1.048,26.892,26.892,0,0,0,10.007-3.577q8.006-5.181,8.009-16.221,0-10.794-8.069-16.1" transform="translate(-0.491 -1.579)" fill="#252946"/>
      <rect id="Rectangle_31475" data-name="Rectangle 31475" width="6.161" height="41.939" transform="translate(1074.307 266.377)" fill="#252946"/>
      <path id="Path_136112" data-name="Path 136112" d="M1293.91,267.955v34.833h-.213l-58.346-34.833h-4.94v41.939h6.159V275.113h.183l58.266,34.782h5.053V267.955Z" transform="translate(-48.752 -1.579)" fill="#252946"/>
      <path id="Path_136113" data-name="Path 136113" d="M1324.7,264.344h-.677v-1.273h.681c.508,0,.695.189.695.618s-.2.655-.7.655m1.546-.679c0-.949-.5-1.235-1.465-1.235h-1.594v4.142h.836v-1.587h.693l.794,1.587h.893l-.87-1.75a1.123,1.123,0,0,0,.713-1.156" transform="translate(-67.242 -0.477)" fill="#252946"/>
      <path id="Path_136114" data-name="Path 136114" d="M1323.928,267.316a3.293,3.293,0,1,1,3.285-3.294,3.294,3.294,0,0,1-3.285,3.294m0-7.281a3.988,3.988,0,1,0,3.981,3.987,3.988,3.988,0,0,0-3.981-3.987" transform="translate(-66.597)" fill="#252946"/>
    </g>
  </g>
</svg>
