<svg xmlns="http://www.w3.org/2000/svg" width="190" height="121" viewBox="0 0 190 121">
  <g id="t5-i2" transform="translate(-180 -922)">
    <g id="Group_91245" data-name="Group 91245" transform="translate(1342.146 1060.6)">
      <g id="Group_90884" data-name="Group 90884" transform="translate(-1162.146 -133.778)">
        <path id="Path_135075" data-name="Path 135075" d="M-1047.847-99.656s-8.394,1.262-31.241-7.34-55.31-14.289-52.351.562.529,29.086-15.815,43.338S-1177.683.54-1125.408.367s59.664-15.477,122-14c19.765.468,32.835-9.8,31.1-30.623s-22.9-22.169-24.34-34.719S-998.457-114.527-1047.847-99.656Z" transform="translate(1162.146 115.612)" fill="#e8e7ed"/>
      </g>
      <g id="Group_90885" data-name="Group 90885" transform="translate(-990.017 -110.106)">
        <path id="Path_136082" data-name="Path 136082" d="M6.428.1c3.55.054,6.455,2.676,6.489,5.857S10.1,11.671,6.55,11.618.094,8.941.061,5.76,2.878.044,6.428.1Z" transform="translate(0 12.842) rotate(-88)" fill="#e8e7ed"/>
      </g>
      <g id="Group_90886" data-name="Group 90886" transform="translate(-1157.402 -124.366)">
        <path id="Path_136080" data-name="Path 136080" d="M10.478.434c5.787.24,10.576,3.808,10.7,7.971s-4.472,7.342-10.259,7.1S.34,11.7.219,7.536,4.691.194,10.478.434Z" transform="translate(0 20.776) rotate(-84.476)" fill="#e8e7ed"/>
      </g>
      <g id="Group_90887" data-name="Group 90887" transform="translate(-1067.739 -137.8)">
        <path id="Path_136081" data-name="Path 136081" d="M5.189.485c2.866.268,5.486,4.871,5.852,10.282s-1.661,9.58-4.527,9.312S1.029,15.207.663,9.8,2.323.217,5.189.485Z" transform="matrix(0.226, -0.974, 0.974, 0.226, 0, 9.891)" fill="#e8e7ed"/>
      </g>
    </g>
    <g id="product" transform="translate(225 943)">
      <path id="Path_136061" data-name="Path 136061" d="M192,444.5l-15.458,5.859-.355,1.421a5.859,5.859,0,0,1-5.684,4.438h27.537Z" transform="translate(-137.203 -357.684)" fill="#f6f6f6"/>
      <path id="Path_136062" data-name="Path 136062" d="M223.1,427.64l-1.82-7.281-9.194-5.859-9.194,5.859-1.465,5.859h15.458l.355,1.421a5.859,5.859,0,0,0,5.684,4.438h5.859A5.86,5.86,0,0,1,223.1,427.64Z" transform="translate(-162.087 -333.543)" fill="#e8e8e8"/>
      <path id="Path_136063" data-name="Path 136063" d="M444.5,323.115h5.859a5.877,5.877,0,0,0,5.859-5.859V311.4L444.5,293.653Z" transform="translate(-357.684 -236.299)" fill="#e8e8e8"/>
      <path id="Path_136064" data-name="Path 136064" d="M7.5,263.115v5.859a5.877,5.877,0,0,0,5.859,5.859H92.852a5.877,5.877,0,0,0,5.859-5.859V233.653Z" transform="translate(-6.035 -188.018)" fill="#f3f9ff"/>
      <path id="Path_136065" data-name="Path 136065" d="M450.359,86.75H444.5v52.13l5.859,6.025h5.859V92.609A5.877,5.877,0,0,0,450.359,86.75Z" transform="translate(-357.684 -69.807)" fill="#404040"/>
      <path id="Path_136066" data-name="Path 136066" d="M98.711,139.045,56.035,115.827,98.711,92.609a5.877,5.877,0,0,0-5.859-5.859H13.359A5.877,5.877,0,0,0,7.5,92.609V144.9H98.711Z" transform="translate(-6.035 -69.807)" fill="#675d84"/>
      <path id="Path_136067" data-name="Path 136067" d="M298.676,116.754l-5.858,0S256,139.968,256,139.968l36.816,23.218h5.859S298.675,116.755,298.676,116.754Z" transform="translate(-206 -93.947)" fill="#ffba5b"/>
      <path id="Path_136068" data-name="Path 136068" d="M116.992,116.75H37.517s-.009,46.435-.017,46.436h79.49S116.984,116.751,116.992,116.75Z" transform="translate(-30.176 -93.947)" fill="#ffd9a6"/>
      <path id="Path_136069" data-name="Path 136069" d="M165.13,86.75l-19.581,46.436L118.74,117.707V86.75Z" transform="translate(-95.549 -69.807)" fill="#ff7758"/>
      <path id="Path_136070" data-name="Path 136070" d="M282.809,86.75v30.957l-5.858,3.383L256,86.75Z" transform="translate(-206 -69.807)" fill="#ff6340"/>
      <path id="Path_136071" data-name="Path 136071" d="M276.95,90.133v17.425l-5.859,6.766h5.859v6.766L256,133.186V86.75Z" transform="translate(-206 -69.807)" fill="#ff9780"/>
      <path id="Path_136072" data-name="Path 136072" d="M314.984,193.288l-5.859,3.383-5.859,6.766h5.859l5.859-3.383Z" transform="translate(-244.034 -155.536)" fill="#e5f9ff"/>
      <path id="Path_136073" data-name="Path 136073" d="M286,215.939V222.7l9.231-5.33v-6.766Z" transform="translate(-230.141 -169.474)" fill="#fff"/>
      <path id="Path_136074" data-name="Path 136074" d="M214.179,30.719H190.984L187.37,15.238l13.4-7.738,26.809,15.479Z" transform="translate(-150.774 -6.035)" fill="#ff7758"/>
      <path id="Path_136075" data-name="Path 136075" d="M158.953,62.6l-13.4,7.738L118.74,54.859l13.4-7.74Z" transform="translate(-95.549 -37.916)" fill="#ffa28c"/>
      <path id="Path_136076" data-name="Path 136076" d="M92.676,15.479H77.2L50.732.2a1.465,1.465,0,0,0-1.465,0L22.8,15.479H7.324A7.324,7.324,0,0,0,0,22.8V80.957a7.324,7.324,0,0,0,7.324,7.324H38.93l-1.365,5.46A4.395,4.395,0,0,1,33.3,97.07H21.191a1.465,1.465,0,0,0,0,2.93H78.809a1.465,1.465,0,1,0,0-2.93H66.7a4.395,4.395,0,0,1-4.263-3.329l-1.365-5.46H92.676A7.324,7.324,0,0,0,100,80.957V22.8A7.324,7.324,0,0,0,92.676,15.479ZM75.345,47.055,51.465,60.842V33.268L75.345,19.48ZM24.655,19.48l23.88,13.787V60.842L24.655,47.055ZM50,30.73,26.12,16.943,36.6,10.9l23.88,13.787ZM50,3.156,73.88,16.943,63.4,22.991,39.525,9.2ZM7.324,18.408h14.4v2.93H7.324A1.465,1.465,0,0,0,5.859,22.8V43.091a1.465,1.465,0,1,0,2.93,0V24.268H21.726V47.9a1.465,1.465,0,0,0,.732,1.269l26.81,15.479a1.465,1.465,0,0,0,1.465,0l26.81-15.479a1.465,1.465,0,0,0,.732-1.269V24.268H91.211V67.773H8.789V48.95a1.465,1.465,0,1,0-2.93,0V69.238A1.465,1.465,0,0,0,7.324,70.7H92.676a1.465,1.465,0,0,0,1.465-1.465V22.8a1.465,1.465,0,0,0-1.465-1.465h-14.4v-2.93h14.4A4.4,4.4,0,0,1,97.07,22.8v50.83H2.93V22.8A4.4,4.4,0,0,1,7.324,18.408ZM59.593,94.452a7.318,7.318,0,0,0,1.245,2.618H39.162a7.321,7.321,0,0,0,1.245-2.618l1.543-6.171h16.1Zm33.083-9.1H7.324A4.4,4.4,0,0,1,2.93,80.957V76.563H97.07v4.395A4.4,4.4,0,0,1,92.676,85.352Z" transform="translate(0 0)"/>
      <path id="Path_136077" data-name="Path 136077" d="M279.232,204a1.465,1.465,0,0,0,1.465,0l15.091-8.713a1.465,1.465,0,0,0,.732-1.269v-6.766a1.465,1.465,0,0,0-2.2-1.269L279.232,194.7a1.465,1.465,0,0,0-.732,1.269v6.766A1.465,1.465,0,0,0,279.232,204Zm2.2-7.189,12.161-7.021v3.383L281.43,200.2Z" transform="translate(-224.105 -149.502)"/>
      <path id="Path_136078" data-name="Path 136078" d="M92.676,15.479H77.2L50.732.2a1.465,1.465,0,0,0-1.465,0L22.8,15.479H7.324A7.324,7.324,0,0,0,0,22.8V80.957a7.324,7.324,0,0,0,7.324,7.324H38.93l-1.365,5.46A4.395,4.395,0,0,1,33.3,97.07H21.191a1.465,1.465,0,0,0,0,2.93H78.809a1.465,1.465,0,1,0,0-2.93H66.7a4.395,4.395,0,0,1-4.263-3.329l-1.365-5.46H92.676A7.324,7.324,0,0,0,100,80.957V22.8A7.324,7.324,0,0,0,92.676,15.479ZM75.345,47.055,51.465,60.842V33.268L75.345,19.48ZM24.655,19.48l23.88,13.787V60.842L24.655,47.055ZM50,30.73,26.12,16.943,36.6,10.9l23.88,13.787ZM50,3.156,73.88,16.943,63.4,22.991,39.525,9.2ZM7.324,18.408h14.4v2.93H7.324A1.465,1.465,0,0,0,5.859,22.8V43.091a1.465,1.465,0,1,0,2.93,0V24.268H21.726V47.9a1.465,1.465,0,0,0,.732,1.269l26.81,15.479a1.465,1.465,0,0,0,1.465,0l26.81-15.479a1.465,1.465,0,0,0,.732-1.269V24.268H91.211V67.773H8.789V48.95a1.465,1.465,0,1,0-2.93,0V69.238A1.465,1.465,0,0,0,7.324,70.7H92.676a1.465,1.465,0,0,0,1.465-1.465V22.8a1.465,1.465,0,0,0-1.465-1.465h-14.4v-2.93h14.4A4.4,4.4,0,0,1,97.07,22.8v50.83H2.93V22.8A4.4,4.4,0,0,1,7.324,18.408ZM59.593,94.452a7.318,7.318,0,0,0,1.245,2.618H39.162a7.321,7.321,0,0,0,1.245-2.618l1.543-6.171h16.1Zm33.083-9.1H7.324A4.4,4.4,0,0,1,2.93,80.957V76.563H97.07v4.395A4.4,4.4,0,0,1,92.676,85.352Z" transform="translate(0 0)"/>
      <path id="Path_136079" data-name="Path 136079" d="M279.232,204a1.465,1.465,0,0,0,1.465,0l15.091-8.713a1.465,1.465,0,0,0,.732-1.269v-6.766a1.465,1.465,0,0,0-2.2-1.269L279.232,194.7a1.465,1.465,0,0,0-.732,1.269v6.766A1.465,1.465,0,0,0,279.232,204Zm2.2-7.189,12.161-7.021v3.383L281.43,200.2Z" transform="translate(-224.105 -149.502)"/>
    </g>
  </g>
</svg>
