<svg xmlns="http://www.w3.org/2000/svg" width="181" height="182" viewBox="0 0 181 182">
  <g id="t1-i5" transform="translate(-228 -61)">
    <ellipse id="Ellipse_4214" data-name="Ellipse 4214" cx="90.5" cy="91" rx="90.5" ry="91" transform="translate(228 61)" fill="#fff"/>
    <g id="boleto" transform="translate(262 77.06)">
      <path id="Path_134295" data-name="Path 134295" d="M85.448,105.872l-25,21.423-3.865,3.311-2.19-2.556a4.956,4.956,0,0,0-6.989-.539l-1.642,1.406-6.529-7.62,1.642-1.406a4.956,4.956,0,0,0,.539-6.989h0a4.956,4.956,0,0,0-6.989-.539l-1.642,1.406-6.529-7.621,3-2.376L67.948,56.7l25.5-21.849,3.888-3.332,2.19,2.556a4.956,4.956,0,0,0,6.989.539l1.642-1.406,6.53,7.621-1.642,1.406a4.956,4.956,0,0,0-.539,6.989h0a4.956,4.956,0,0,0,6.989.539l1.642-1.406,6.529,7.621-3,2.745Z" transform="translate(-20.458 -5.907)" fill="#ff7758"/>
      <path id="Path_134296" data-name="Path 134296" d="M82.2,194.337H14.7v-3.366a4.956,4.956,0,0,0-4.956-4.956H7.579V175.979H9.741a4.956,4.956,0,0,0,4.956-4.956h0a4.956,4.956,0,0,0-4.956-4.956H7.579V156.031H9.741a4.956,4.956,0,0,0,4.956-4.956V145.61h95.419v3.366a4.956,4.956,0,0,0,4.956,4.956h2.162v10.035h-2.162a4.956,4.956,0,0,0-4.956,4.956h0a4.956,4.956,0,0,0,4.956,4.956h2.162v10.035h-2.162a4.956,4.956,0,0,0-4.956,4.956v5.465H82.2Z" transform="translate(-5.906 -94.817)" fill="#c3b5ec"/>
      <path id="Path_134297" data-name="Path 134297" d="M112.331,181.141h47.648v33.043H84.1V181.141h28.229Z" transform="translate(-65.54 -122.506)" fill="#ffba5b"/>
      <path id="Path_134298" data-name="Path 134298" d="M120.894,222.827c.612,0,.9.655.9,1.267,0,.677-.328,1.288-.9,1.288h-3.188V237.9c0,.59-.721.9-1.42.9-.72,0-1.419-.306-1.419-.9V225.382h-3.21c-.568,0-.9-.59-.9-1.288,0-.611.284-1.267.9-1.267Z" transform="translate(-86.316 -154.992)"/>
      <path id="Path_134299" data-name="Path 134299" d="M167.755,223.7c0-.611.7-.873,1.419-.873.7,0,1.419.262,1.419.873V237.9c0,.59-.72.9-1.419.9-.721,0-1.419-.306-1.419-.9Z" transform="translate(-130.731 -154.992)"/>
      <path id="Path_134300" data-name="Path 134300" d="M196.931,225.317c-1.463,0-2.293.808-2.293,2.512v6.093c0,1.7.83,2.511,2.337,2.511,1.987,0,2.162-1.419,2.227-2.337.044-.677.655-.9,1.4-.9.983,0,1.441.284,1.441,1.4,0,2.642-2.162,4.324-5.219,4.324-2.751,0-5.023-1.354-5.023-5v-6.093c0-3.647,2.293-5,5.044-5,3.035,0,5.2,1.616,5.2,4.149,0,1.136-.459,1.4-1.42,1.4-.808,0-1.4-.24-1.419-.9A2.024,2.024,0,0,0,196.931,225.317Z" transform="translate(-149.468 -154.992)"/>
      <path id="Path_134301" data-name="Path 134301" d="M246.909,223.7c0-.611.7-.873,1.419-.873.7,0,1.419.262,1.419.873v5.962l4.717-6.42a.9.9,0,0,1,.786-.415,1.77,1.77,0,0,1,1.638,1.463.843.843,0,0,1-.175.546l-3.909,4.892,4.761,7.25a.851.851,0,0,1,.153.5,1.729,1.729,0,0,1-1.7,1.419,1.108,1.108,0,0,1-.983-.546l-4.106-6.224-1.179,1.485v4.28c0,.59-.72.9-1.419.9-.721,0-1.419-.306-1.419-.9V223.7Z" transform="translate(-192.415 -154.992)"/>
      <path id="Path_134302" data-name="Path 134302" d="M304.364,229.686h3.32c.568,0,.9.546.9,1.136a.988.988,0,0,1-.9,1.092h-3.32v4.39h6.18c.568,0,.9.59.9,1.267,0,.59-.284,1.223-.9,1.223H302.77c-.633,0-1.245-.306-1.245-.9V223.724c0-.59.611-.9,1.245-.9h7.774c.611,0,.9.633.9,1.223,0,.677-.328,1.267-.9,1.267h-6.18Z" transform="translate(-234.977 -154.993)"/>
      <path id="Path_134303" data-name="Path 134303" d="M359.348,222.827c.612,0,.9.655.9,1.267,0,.677-.328,1.288-.9,1.288H356.16V237.9c0,.59-.721.9-1.42.9-.72,0-1.419-.306-1.419-.9V225.382h-3.21c-.568,0-.9-.59-.9-1.288,0-.611.284-1.267.9-1.267Z" transform="translate(-272.142 -154.992)"/>
      <g id="Group_90600" data-name="Group 90600" transform="translate(41.278 50.794)" opacity="0.19">
        <path id="Path_134304" data-name="Path 134304" d="M255.988,163.968h2.162V153.933h-2.162a4.956,4.956,0,0,1-4.956-4.956v-3.366h-12.66c-12.609,38.376-37.259,39.877-51.341,48.726h64v-5.465a4.956,4.956,0,0,1,4.956-4.956h2.162V173.881h-2.162a4.956,4.956,0,0,1-4.956-4.956h0A4.956,4.956,0,0,1,255.988,163.968Z" transform="translate(-187.03 -145.611)" fill="#675d84"/>
      </g>
      <path id="Path_134305" data-name="Path 134305" d="M251.9,70.824h2.161a1.672,1.672,0,0,0,1.673-1.673V59.116a1.672,1.672,0,0,0-1.673-1.673H251.9a3.287,3.287,0,0,1-3.284-3.284v-.608L251.07,51.3a1.673,1.673,0,0,0,.141-2.322l-6.53-7.621a1.673,1.673,0,0,0-2.358-.182l-1.641,1.407a3.284,3.284,0,1,1-4.273-4.987l1.641-1.407a1.672,1.672,0,0,0,.182-2.358l-6.53-7.62a1.673,1.673,0,0,0-2.358-.182L227.7,27.438a3.283,3.283,0,0,1-4.63-.357l-2.19-2.556a1.673,1.673,0,0,0-2.358-.182L189.606,49.121h-4.775a1.673,1.673,0,0,0,0,3.345h60.441V54.16a6.637,6.637,0,0,0,6.629,6.629h.489v6.69H251.9a6.629,6.629,0,1,0,0,13.258h.489v6.69H251.9a6.636,6.636,0,0,0-6.629,6.629v3.792H233.706a1.673,1.673,0,1,0,0,3.345h13.238a1.672,1.672,0,0,0,1.673-1.673V94.055a3.287,3.287,0,0,1,3.284-3.283h2.161a1.672,1.672,0,0,0,1.673-1.673V79.064a1.672,1.672,0,0,0-1.673-1.673H251.9a3.284,3.284,0,1,1,0-6.567Zm-57.153-21.7L219.43,27.972l1.1,1.286a6.629,6.629,0,0,0,9.347.721l.371-.318,4.353,5.08-.371.318a6.629,6.629,0,0,0,8.626,10.068l.371-.318,3.7,4.313H194.748Z" transform="translate(-142.734)"/>
      <path id="Path_134306" data-name="Path 134306" d="M76.29,186.758H10.463v-1.693a6.637,6.637,0,0,0-6.629-6.629H3.345v-6.69h.489a6.629,6.629,0,1,0,0-13.258H3.345V151.8h.489a6.637,6.637,0,0,0,6.629-6.629v-3.792H29.553a1.673,1.673,0,1,0,0-3.345H8.791A1.672,1.672,0,0,0,7.118,139.7v5.465a3.287,3.287,0,0,1-3.284,3.284H1.673A1.672,1.672,0,0,0,0,150.125V160.16a1.672,1.672,0,0,0,1.673,1.673H3.834a3.284,3.284,0,0,1,0,6.567H1.673A1.672,1.672,0,0,0,0,170.073v10.035a1.672,1.672,0,0,0,1.673,1.673H3.834a3.287,3.287,0,0,1,3.284,3.284v.9l-2.363,1.874a1.672,1.672,0,0,0-.231,2.4l6.529,7.621a1.673,1.673,0,0,0,2.358.182l1.642-1.407a3.283,3.283,0,0,1,4.63.357,3.287,3.287,0,0,1-.357,4.63l-1.641,1.406a1.672,1.672,0,0,0-.182,2.358l6.529,7.621a1.672,1.672,0,0,0,2.358.182l1.642-1.406a3.283,3.283,0,0,1,4.63.357l2.19,2.556a1.672,1.672,0,0,0,2.358.182l28.867-24.734c.016-.014.03-.029.046-.043H76.289a1.673,1.673,0,0,0,0-3.346ZM36.3,211.252l-1.1-1.286a6.629,6.629,0,0,0-9.347-.721l-.371.318-4.353-5.08.371-.318A6.629,6.629,0,0,0,12.877,194.1l-.371.318L8.81,190.1H60.987Z" transform="translate(0 -88.91)"/>
      <path id="Path_134307" data-name="Path 134307" d="M76.523,175.235v33.043a1.672,1.672,0,0,0,1.673,1.673h75.877a1.672,1.672,0,0,0,1.673-1.673V175.235a1.672,1.672,0,0,0-1.673-1.673H106.425a1.673,1.673,0,1,0,0,3.345H152.4v29.7H79.868v-29.7H93.641a1.673,1.673,0,1,0,0-3.345H78.2A1.673,1.673,0,0,0,76.523,175.235Z" transform="translate(-59.634 -116.599)"/>
    </g>
  </g>
</svg>
