<svg xmlns="http://www.w3.org/2000/svg" width="181" height="182" viewBox="0 0 181 182">
  <g id="t1-i4" transform="translate(-217 -66)">
    <g id="Group_91245" data-name="Group 91245">
      <ellipse id="Ellipse_4064" data-name="Ellipse 4064" cx="90.5" cy="91" rx="90.5" ry="91" transform="translate(217 66)" fill="#fff"/>
      <g id="Group_90598" data-name="Group 90598" transform="translate(9121 7630.998)">
        <g id="XMLID_499_" transform="translate(-8870 -7529.998)">
          <path id="XMLID_596_" d="M15.831,171.538a6.331,6.331,0,0,1,8.943,0,10.75,10.75,0,0,0,15.186,0,6.324,6.324,0,0,1,8.944,0,10.75,10.75,0,0,0,15.186,0,6.324,6.324,0,0,1,8.944,0,10.751,10.751,0,0,0,15.186,0,6.331,6.331,0,0,1,8.943,0,10.75,10.75,0,0,0,15.186,0,2.207,2.207,0,0,0-3.121-3.121,6.324,6.324,0,0,1-8.944,0,10.75,10.75,0,0,0-15.186,0,6.338,6.338,0,0,1-1.6,1.165l4.432-14.757.005-.017,2.823-9.4a2.207,2.207,0,0,0-1.226-2.655L82.54,139.68V125.626a7.512,7.512,0,0,0-7.5-7.5h-7.5v-7.5a2.207,2.207,0,0,0-2.207-2.207H63.56V98.259a2.207,2.207,0,0,0-2.207-2.207H51.642a2.207,2.207,0,0,0-2.207,2.207v10.152H47.669a2.207,2.207,0,0,0-2.207,2.207v7.5h-7.5a7.512,7.512,0,0,0-7.5,7.5V139.68l-6.993,3.073a2.207,2.207,0,0,0-1.226,2.655L29.5,169.582a6.344,6.344,0,0,1-1.6-1.165,10.75,10.75,0,0,0-15.186,0,6.324,6.324,0,0,1-8.944,0,2.207,2.207,0,1,0-3.121,3.121,10.752,10.752,0,0,0,15.187,0Zm21.009-3.121a6.3,6.3,0,0,1-2.611,1.575l-4.39-14.613L54.29,144.636V169.87a6.285,6.285,0,0,1-2.265-1.452,10.75,10.75,0,0,0-15.186,0Zm24.13,0A6.285,6.285,0,0,1,58.7,169.87V144.636l24.451,10.743-4.39,14.614a6.291,6.291,0,0,1-2.611-1.575A10.751,10.751,0,0,0,60.969,168.417Zm-7.12-67.951h5.3v7.945h-5.3Zm-3.973,12.359H63.118v5.3H49.876Zm-15.008,12.8a3.093,3.093,0,0,1,3.09-3.09H75.036a3.093,3.093,0,0,1,3.09,3.09v12.115l-20.741-9.113a2.206,2.206,0,0,0-1.776,0l-20.741,9.113ZM56.5,133.059,85.97,146.009l-1.535,5.111-27.05-11.885a2.206,2.206,0,0,0-1.776,0L28.56,151.12l-1.535-5.111Z" transform="translate(0.003 -74.853)" fill="#fff"/>
          <path id="XMLID_602_" d="M110.792,492H2.207a2.207,2.207,0,0,0,0,4.414H110.792a2.207,2.207,0,0,0,0-4.414Z" transform="translate(0.001 -383.415)" fill="#fff"/>
          <path id="XMLID_629_" d="M313.963,23.836h2.156a2.207,2.207,0,0,0,0-4.414h-2.156a2.648,2.648,0,0,1,0-5.3h7.526a2.207,2.207,0,1,0,0-4.414,2.648,2.648,0,0,1,0-5.3H345.1a2.648,2.648,0,0,1,0,5.3h-7.526a2.207,2.207,0,0,0,0,4.414,2.648,2.648,0,1,1,0,5.3h-1.6a2.207,2.207,0,0,0,0,4.414h1.6a7.063,7.063,0,0,0,6.547-9.711h.979A7.062,7.062,0,0,0,345.1,0H321.488a7.063,7.063,0,0,0-6.547,9.711h-.979a7.062,7.062,0,1,0,0,14.125Z" transform="translate(-239.166)" fill="#fff"/>
          <path id="XMLID_630_" d="M384.314,88.647A2.209,2.209,0,1,0,385.877,88,2.222,2.222,0,0,0,384.314,88.647Z" transform="translate(-298.993 -68.578)" fill="#fff"/>
        </g>
      </g>
    </g>
    <g id="Group_90599" data-name="Group 90599" transform="translate(9121 7630.998)">
      <path id="XMLID_1640_" d="M352.9,10H329.281a4.855,4.855,0,1,0,0,9.711h-7.526a4.855,4.855,0,1,0,0,9.711h23.615a4.855,4.855,0,1,0,0-9.711H352.9a4.855,4.855,0,1,0,0-9.711Z" transform="translate(-9116.958 -7537.791)" fill="#f3f9ff"/>
      <path id="XMLID_1636_" d="M216,162.052h17.656v9.711H216Z" transform="translate(-9038.328 -7656.285)" fill="#f3f9ff"/>
      <path id="XMLID_1450_" d="M234,106.052h9.711v12.359H234Z" transform="translate(-9052.355 -7612.644)" fill="#ffba5b"/>
      <path id="XMLID_1451_" d="M195.672,226.357V211.349a5.3,5.3,0,0,0-5.3-5.3H153.3a5.3,5.3,0,0,0-5.3,5.3v15.008Z" transform="translate(-8985.335 -7690.574)" fill="#ff7758"/>
      <g id="XMLID_1637_" transform="translate(-8845.647 -7474.202)">
        <path id="XMLID_1638_" d="M142.484,252.809l-32.148,14.125,8.319,27.7h23.893V252.837Z" transform="translate(-110.336 -252.809)" fill="#afafaf"/>
        <path id="XMLID_1641_" d="M288.374,267.034l-32.084-14.1V294.73h23.765Z" transform="translate(-224.078 -252.909)" fill="#675d84"/>
      </g>
      <g id="XMLID_1452_" transform="translate(-8845.647 -7474.202)">
        <path id="XMLID_1604_" d="M171.819,276.3l-29.335-12.889-29.206,12.832-2.942-9.314,32.148-14.125,32.148,14.125Z" transform="translate(-110.336 -252.809)" fill="#fff"/>
      </g>
      <path id="XMLID_1572_" d="M10,437.855H118.584V422.188a8.531,8.531,0,0,1-12.065,0,8.531,8.531,0,0,0-12.065,0,8.531,8.531,0,0,1-12.065,0,8.531,8.531,0,0,0-12.065,0,8.531,8.531,0,0,1-12.065,0,8.531,8.531,0,0,0-12.065,0,8.531,8.531,0,0,1-12.065,0,8.531,8.531,0,0,0-12.065,0,8.531,8.531,0,0,1-12.065,0Z" transform="translate(-8877.79 -7857.061)" fill="#f3f9ff"/>
      <g id="XMLID_499_2" data-name="XMLID_499_" transform="translate(-8870 -7529.998)">
        <path id="XMLID_596_2" data-name="XMLID_596_" d="M15.831,171.539a6.331,6.331,0,0,1,8.944,0,10.75,10.75,0,0,0,15.187,0,6.324,6.324,0,0,1,8.944,0,10.75,10.75,0,0,0,15.186,0,6.324,6.324,0,0,1,8.944,0,10.751,10.751,0,0,0,15.187,0,6.331,6.331,0,0,1,8.944,0,10.751,10.751,0,0,0,15.186,0,2.207,2.207,0,0,0-3.121-3.121,6.324,6.324,0,0,1-8.944,0,10.75,10.75,0,0,0-15.186,0,6.338,6.338,0,0,1-1.6,1.165l4.432-14.757.005-.017,2.823-9.4a2.207,2.207,0,0,0-1.226-2.656l-6.993-3.072V125.626a7.512,7.512,0,0,0-7.5-7.5h-7.5v-7.5a2.207,2.207,0,0,0-2.207-2.207H63.56V98.259a2.207,2.207,0,0,0-2.207-2.207H51.642a2.207,2.207,0,0,0-2.207,2.207v10.152H47.67a2.207,2.207,0,0,0-2.207,2.207v7.5h-7.5a7.512,7.512,0,0,0-7.5,7.5v14.054l-6.993,3.073a2.207,2.207,0,0,0-1.226,2.655L29.5,169.582a6.343,6.343,0,0,1-1.6-1.165,10.75,10.75,0,0,0-15.186,0,6.324,6.324,0,0,1-8.944,0,2.207,2.207,0,0,0-3.121,3.121,10.752,10.752,0,0,0,15.187,0Zm21.009-3.121a6.3,6.3,0,0,1-2.611,1.575l-4.39-14.614,24.451-10.743V169.87a6.285,6.285,0,0,1-2.265-1.452,10.75,10.75,0,0,0-15.186,0Zm24.13,0A6.285,6.285,0,0,1,58.7,169.87V144.636l24.451,10.743-4.39,14.614a6.291,6.291,0,0,1-2.611-1.575A10.751,10.751,0,0,0,60.97,168.418Zm-7.12-67.952h5.3v7.945h-5.3Zm-3.973,12.359H63.119v5.3H49.877Zm-15.008,12.8a3.093,3.093,0,0,1,3.09-3.09H75.037a3.093,3.093,0,0,1,3.09,3.09v12.115l-20.741-9.113a2.206,2.206,0,0,0-1.776,0l-20.741,9.113ZM56.5,133.059l29.473,12.95-1.535,5.111-27.05-11.885a2.206,2.206,0,0,0-1.776,0L28.56,151.12l-1.535-5.111Z" transform="translate(0.003 -74.853)"/>
        <path id="XMLID_602_2" data-name="XMLID_602_" d="M110.793,492H2.207a2.207,2.207,0,0,0,0,4.414H110.793a2.207,2.207,0,1,0,0-4.414Z" transform="translate(0.001 -383.414)"/>
        <path id="XMLID_629_2" data-name="XMLID_629_" d="M313.963,23.836h2.156a2.207,2.207,0,1,0,0-4.414h-2.156a2.648,2.648,0,1,1,0-5.3h7.526a2.207,2.207,0,1,0,0-4.414,2.648,2.648,0,1,1,0-5.3H345.1a2.648,2.648,0,0,1,0,5.3h-7.526a2.207,2.207,0,1,0,0,4.414,2.648,2.648,0,1,1,0,5.3h-1.6a2.207,2.207,0,0,0,0,4.414h1.6a7.063,7.063,0,0,0,6.547-9.711h.979A7.062,7.062,0,0,0,345.1,0H321.488a7.063,7.063,0,0,0-6.547,9.711h-.979a7.062,7.062,0,1,0,0,14.125Z" transform="translate(-239.166)"/>
        <path id="XMLID_630_2" data-name="XMLID_630_" d="M384.314,88.647A2.209,2.209,0,1,0,385.877,88,2.222,2.222,0,0,0,384.314,88.647Z" transform="translate(-298.992 -68.578)"/>
      </g>
    </g>
  </g>
</svg>
