<svg xmlns="http://www.w3.org/2000/svg" width="276" height="250" viewBox="0 0 276 250">
  <g id="t3-i9" transform="translate(-1082 -1990)">
    <g id="Group_90889" data-name="Group 90889" transform="translate(2244.146 2127.8)">
      <g id="Group_90884" data-name="Group 90884" transform="translate(-1162.146 -129.421)">
        <path id="Path_135075" data-name="Path 135075" d="M-996.111-82.371s-12.192,2.63-45.382-15.291-80.345-29.768-76.047,1.17.768,60.6-22.973,90.287-44.2,132.576,31.733,132.213,86.67-32.244,177.227-29.17c28.712.975,47.7-20.407,45.183-63.8s-33.26-46.186-35.357-72.332S-924.366-113.351-996.111-82.371Z" transform="translate(1162.147 115.612)" fill="#fff"/>
      </g>
      <g id="Group_90885" data-name="Group 90885" transform="translate(-912.106 -80.105)">
        <ellipse id="Ellipse_4286" data-name="Ellipse 4286" cx="13.385" cy="8.37" rx="13.385" ry="8.37" transform="translate(0 26.754) rotate(-88)" fill="#fff"/>
      </g>
      <g id="Group_90886" data-name="Group 90886" transform="translate(-1155.255 -109.813)">
        <ellipse id="Ellipse_4287" data-name="Ellipse 4287" cx="21.742" cy="10.979" rx="21.742" ry="10.979" transform="translate(0 43.282) rotate(-84.476)" fill="#fff"/>
      </g>
      <g id="Group_90887" data-name="Group 90887" transform="translate(-1025.006 -137.8)">
        <ellipse id="Ellipse_4288" data-name="Ellipse 4288" cx="10.576" cy="14.454" rx="10.576" ry="14.454" transform="matrix(0.226, -0.974, 0.974, 0.226, 0, 20.607)" fill="#fff"/>
      </g>
    </g>
    <g id="Group_90881" data-name="Group 90881" transform="translate(84 -43.003)">
      <path id="Trazado_135074" data-name="Trazado 135074" d="M-2249.18,852.456h-47.58a13.217,13.217,0,0,0-13.217,13.217V899.6a13.217,13.217,0,0,0,13.217,13.217h14.313l-.2.017,9.674,9.675.007-9.692h23.783a13.217,13.217,0,0,0,13.217-13.217h0V865.673A13.217,13.217,0,0,0-2249.18,852.456Z" transform="translate(3332.179 1292.472)" fill="#ffba5b"/>
      <path id="Trazado_135075" data-name="Trazado 135075" d="M-2273.859,923.818a2.2,2.2,0,0,1-1.557-.646l-9.047-9.047h-13.185a15.438,15.438,0,0,1-15.42-15.42V864.784a15.438,15.438,0,0,1,15.42-15.42h22.248a2.2,2.2,0,0,1,2.2,2.2,2.2,2.2,0,0,1-2.2,2.2h-22.248a11.026,11.026,0,0,0-11.014,11.014v33.923a11.026,11.026,0,0,0,11.014,11.014h14.313a2.2,2.2,0,0,1,2.02,1.324l5.257,5.258,0-4.38a2.2,2.2,0,0,1,2.2-2.2h23.783a11.026,11.026,0,0,0,11.014-11.014v-15.2a2.2,2.2,0,0,1,2.2-2.2,2.2,2.2,0,0,1,2.2,2.2v15.2a15.438,15.438,0,0,1-15.42,15.42h-21.582l0,7.49A2.2,2.2,0,0,1-2273.859,923.818Z" transform="translate(3333.068 1293.361)"/>
      <path id="Trazado_135080" data-name="Trazado 135080" d="M-2247.692,895.816h-46.478a2.2,2.2,0,0,1-2.2-2.2,2.2,2.2,0,0,1,2.2-2.2h46.478a2.2,2.2,0,0,1,2.2,2.2A2.2,2.2,0,0,1-2247.692,895.816Z" transform="translate(3328.268 1281.272)"/>
      <path id="Trazado_135081" data-name="Trazado 135081" d="M-2228.938,913.128a2.2,2.2,0,0,1-2.205-2.2,2.2,2.2,0,0,1,2.2-2.205,2.2,2.2,0,0,1,2.205,2.2,2.206,2.206,0,0,1-.646,1.56A2.219,2.219,0,0,1-2228.938,913.128Z" transform="translate(3309.514 1276.295)"/>
      <path id="Trazado_135082" data-name="Trazado 135082" d="M-2256.356,913.129h-37.814a2.2,2.2,0,0,1-2.2-2.2,2.2,2.2,0,0,1,2.2-2.2h37.814a2.2,2.2,0,0,1,2.2,2.2A2.2,2.2,0,0,1-2256.356,913.129Z" transform="translate(3328.268 1276.295)"/>
      <path id="Trazado_135083" data-name="Trazado 135083" d="M-2262.01,878.5h-32.16a2.2,2.2,0,0,1-2.2-2.2,2.2,2.2,0,0,1,2.2-2.2h32.16a2.2,2.2,0,0,1,2.2,2.2A2.2,2.2,0,0,1-2262.01,878.5Z" transform="translate(3328.268 1286.25)"/>
      <path id="Trazado_135074-2" data-name="Trazado 135074" d="M-2237.58,804.308V838.23h0a13.217,13.217,0,0,0,13.217,13.217h23.783l.006,9.692,9.675-9.675-.2-.017h14.313a13.217,13.217,0,0,0,13.217-13.217V804.308a13.217,13.217,0,0,0-13.217-13.217h-47.58A13.217,13.217,0,0,0-2237.58,804.308Z" transform="translate(3311.365 1310.115)" fill="#c3b5ec"/>
      <path id="Trazado_135075-2" data-name="Trazado 135075" d="M-2203.665,860.251l-.006-7.49h-21.582a15.438,15.438,0,0,1-15.42-15.42v-15.2a2.2,2.2,0,0,1,2.2-2.2,2.2,2.2,0,0,1,2.2,2.2v15.2a11.026,11.026,0,0,0,11.014,11.014h23.783a2.2,2.2,0,0,1,2.2,2.2l0,4.38,5.258-5.258a2.2,2.2,0,0,1,2.021-1.324h14.313a11.026,11.026,0,0,0,11.014-11.014V803.419a11.026,11.026,0,0,0-11.014-11.014h-22.248a2.2,2.2,0,0,1-2.2-2.2,2.2,2.2,0,0,1,2.2-2.2h22.248a15.436,15.436,0,0,1,15.419,15.42v33.923a15.436,15.436,0,0,1-15.419,15.42h-13.185l-9.047,9.047a2.2,2.2,0,0,1-1.558.646A2.2,2.2,0,0,1-2203.665,860.251Z" transform="translate(3312.254 1311.004)"/>
      <path id="Trazado_135080-2" data-name="Trazado 135080" d="M-2218.721,832.248a2.2,2.2,0,0,1,2.2-2.2h46.479a2.2,2.2,0,0,1,2.2,2.2,2.2,2.2,0,0,1-2.2,2.2h-46.479A2.2,2.2,0,0,1-2218.721,832.248Z" transform="translate(3305.943 1298.915)"/>
      <path id="Trazado_135081-2" data-name="Trazado 135081" d="M-2216.413,853.119a2.2,2.2,0,0,1-.646-1.56,2.2,2.2,0,0,1,2.2-2.2,2.2,2.2,0,0,1,2.2,2.2,2.2,2.2,0,0,1-2.205,2.2A2.219,2.219,0,0,1-2216.413,853.119Z" transform="translate(3305.465 1293.363)"/>
      <path id="Trazado_135082-2" data-name="Trazado 135082" d="M-2204.9,851.562a2.2,2.2,0,0,1,2.2-2.2h37.814a2.2,2.2,0,0,1,2.2,2.2,2.2,2.2,0,0,1-2.2,2.2h-37.814A2.2,2.2,0,0,1-2204.9,851.562Z" transform="translate(3301.969 1293.362)"/>
      <path id="Trazado_135083-2" data-name="Trazado 135083" d="M-2198.626,814.935a2.2,2.2,0,0,1,2.2-2.2h32.16a2.2,2.2,0,0,1,2.2,2.2,2.2,2.2,0,0,1-2.2,2.2h-32.16A2.2,2.2,0,0,1-2198.626,814.935Z" transform="translate(3300.165 1303.893)"/>
    </g>
    <g id="Group_90882" data-name="Group 90882" transform="translate(3385.478 1267.869)">
      <g id="Grupo_90883" data-name="Grupo 90883" transform="translate(-2122.264 889.279)">
        <path id="Trazado_135100" data-name="Trazado 135100" d="M-2121.456,933.527a10.156,10.156,0,0,0,10.156,10.156h49.935a10.156,10.156,0,0,0,10.156-10.156V923.371h-70.247Z" transform="translate(2121.456 -923.371)" fill="#c3b5ec"/>
      </g>
      <g id="Grupo_90884" data-name="Grupo 90884" transform="translate(-2122.264 784.67)">
        <path id="Trazado_135101" data-name="Trazado 135101" d="M-2061.365,785.478H-2111.3a10.156,10.156,0,0,0-10.156,10.156v10.156h70.247V795.635A10.156,10.156,0,0,0-2061.365,785.478Z" transform="translate(2121.456 -785.478)" fill="#c3b5ec"/>
      </g>
      <g id="Grupo_90885" data-name="Grupo 90885" transform="translate(-2122.264 804.983)">
        <path id="Trazado_135102" data-name="Trazado 135102" d="M-2121.456,896.55h70.247v-84.3h-70.247Z" transform="translate(2121.456 -812.254)" fill="#fff"/>
      </g>
      <path id="Trazado_135108" data-name="Trazado 135108" d="M-2071.637,795.519h-12.7a2.539,2.539,0,0,0-2.539,2.539,2.539,2.539,0,0,0,2.539,2.539h12.7a2.539,2.539,0,0,0,2.539-2.539A2.539,2.539,0,0,0-2071.637,795.519Z" transform="translate(-9.156 -3.232)"/>
      <circle id="Elipse_4286" data-name="Elipse 4286" cx="2.539" cy="2.539" r="2.539" transform="translate(-2054.556 851.103)"/>
      <path id="Path_135074" data-name="Path 135074" d="M-2049.478,827.057h0V813.894h0v-5.078h0v-13.99a12.71,12.71,0,0,0-12.7-12.7h-49.935a12.71,12.71,0,0,0-12.695,12.7V899.435a12.71,12.71,0,0,0,12.695,12.7h49.935a12.711,12.711,0,0,0,12.7-12.7V865.068a2.539,2.539,0,0,0-2.539-2.539,2.539,2.539,0,0,0-2.539,2.539v21.672h-65.168V807.521h65.168v34.7a2.539,2.539,0,0,0,2.539,2.538,2.538,2.538,0,0,0,2.539-2.538V832.136h0Zm-5.078,64.761v7.617a7.625,7.625,0,0,1-7.617,7.617h-49.935a7.625,7.625,0,0,1-7.616-7.617v-7.617Zm0-89.374h-65.168v-7.617a7.625,7.625,0,0,1,7.616-7.617h49.935a7.625,7.625,0,0,1,7.617,7.617Z"/>
      <g id="Group_90883" data-name="Group 90883" transform="translate(-2109.921 823.828)">
        <path id="Trazado_135092" data-name="Trazado 135092" d="M-2060.353,872.564a3.916,3.916,0,0,1-.661,4.672c-18.309,18.836-55.361-18.233-36.535-36.535a3.919,3.919,0,0,1,4.672-.659,19.369,19.369,0,0,1,7.214,7.209,3.889,3.889,0,0,1-.654,4.679c-10.18,6.967,7.114,24.253,14.075,14.077a3.889,3.889,0,0,1,4.682-.654,19.386,19.386,0,0,1,7.209,7.211Z" transform="translate(2104.596 -837.688)" fill="#ffba5b"/>
        <path id="Trazado_135093" data-name="Trazado 135093" d="M-2087.489,847.674A64.158,64.158,0,0,0-2098.8,858.76a1.866,1.866,0,0,1-2.623.3,1.87,1.87,0,0,1-.646-.995c-1.56-6.177-.534-12.446,4.522-17.363a3.92,3.92,0,0,1,4.672-.659,19.368,19.368,0,0,1,5.746,5.005,1.869,1.869,0,0,1-.348,2.62l-.009.007Z" transform="translate(2104.596 -837.688)" fill="#ffd69e"/>
        <path id="Trazado_135096" data-name="Trazado 135096" d="M-2085.853,852.88a1.913,1.913,0,0,0,.274-.23,5.765,5.765,0,0,0,.947-6.921,21.292,21.292,0,0,0-7.907-7.9,5.817,5.817,0,0,0-6.9.942c-14.733,14.322,1.416,39.324,19.772,44.15,7.483,1.967,14.376.2,19.407-4.972a1.869,1.869,0,0,0-.037-2.642,1.869,1.869,0,0,0-2.643.037c-16.53,17-50.93-17.332-33.893-33.893a2.066,2.066,0,0,1,2.441-.378,17.55,17.55,0,0,1,6.518,6.515,2.017,2.017,0,0,1-.256,2.329c-8.592,6.111-1.012,18.531,7.7,20.3a8.473,8.473,0,0,0,9.023-3.574,2.018,2.018,0,0,1,2.329-.256,17.583,17.583,0,0,1,2.979,2.146,1.868,1.868,0,0,0,2.636-.182,1.869,1.869,0,0,0-.146-2.6,21.224,21.224,0,0,0-3.615-2.6,5.765,5.765,0,0,0-6.937.964c-.468.474-1.839,3.194-5.526,2.447a11.934,11.934,0,0,1-8.356-8.353A4.828,4.828,0,0,1-2085.853,852.88Z" transform="translate(2105.186 -837.095)"/>
        <path id="Trazado_135097" data-name="Trazado 135097" d="M-2059.057,846.705l-5.852,5.852a1.869,1.869,0,0,0,.053,2.642,1.869,1.869,0,0,0,2.59,0l5.852-5.851a1.87,1.87,0,0,0-.017-2.643,1.868,1.868,0,0,0-2.626,0Z" transform="translate(2095.59 -839.284)"/>
        <path id="Trazado_135098" data-name="Trazado 135098" d="M-2071.926,846.3a1.869,1.869,0,0,0,1.845-1.595l.608-4.08a1.869,1.869,0,0,0-1.591-2.111,1.868,1.868,0,0,0-2.106,1.562l-.606,4.081a1.869,1.869,0,0,0,1.573,2.123,1.87,1.87,0,0,0,.277.021Z" transform="translate(2097.609 -837.434)"/>
        <path id="Trazado_135099" data-name="Trazado 135099" d="M-2055.433,864.152a1.869,1.869,0,0,0,2.124,1.573l4.08-.605a1.87,1.87,0,0,0,1.591-2.111,1.869,1.869,0,0,0-2.111-1.59l-.028,0-4.081.607A1.869,1.869,0,0,0-2055.433,864.152Z" transform="translate(2093.182 -842.962)"/>
      </g>
    </g>
  </g>
</svg>
