<svg xmlns="http://www.w3.org/2000/svg" width="190" height="118" viewBox="0 0 190 118">
  <g id="t3-i2" transform="translate(-180 -798)">
    <rect id="Rectangle_6971" data-name="Rectangle 6971" width="190" height="118" rx="10" transform="translate(180 798)" fill="#ffba5b" opacity="0.5"/>
    <rect id="Rectangle_6972" data-name="Rectangle 6972" width="11" height="118" transform="translate(359 798)" fill="#ffba5b"/>
    <g id="_002-package" data-name="002-package" transform="translate(225.613 819.062)">
      <g id="Group_55822" data-name="Group 55822" transform="translate(14.387 0)">
        <path id="Path_27221" data-name="Path 27221" d="M182.327,458.636a1.09,1.09,0,1,0,0-2.181H177a1.09,1.09,0,1,0,0,2.181Z" transform="translate(-152.428 -390.09)" fill="#12263f"/>
        <path id="Path_27222" data-name="Path 27222" d="M51.444,456.455a1.09,1.09,0,1,0,0,2.181h1.711a1.09,1.09,0,1,0,0-2.181Z" transform="translate(-45.125 -390.09)" fill="#12263f"/>
        <path id="Path_27223" data-name="Path 27223" d="M411.115,456.455a1.09,1.09,0,0,0,0,2.181h5.324a1.09,1.09,0,0,0,0-2.181Z" transform="translate(-352.503 -390.09)" fill="#12263f"/>
        <path id="Path_27224" data-name="Path 27224" d="M285.557,456.455a1.09,1.09,0,1,0,0,2.181h1.711a1.09,1.09,0,1,0,0-2.181Z" transform="translate(-245.2 -390.09)" fill="#12263f"/>
        <path id="Path_27225" data-name="Path 27225" d="M293.57,170.031h-6.544a1.528,1.528,0,0,0-1.527,1.527v8.065a1.528,1.528,0,0,0,1.527,1.527h6.544a1.528,1.528,0,0,0,1.527-1.527v-8.065A1.528,1.528,0,0,0,293.57,170.031Zm-.654,8.937h-5.235v-6.757h5.235Z" transform="translate(-246.082 -145.31)" fill="#12263f"/>
        <path id="Path_27226" data-name="Path 27226" d="M170.213,222.344H168.5a1.09,1.09,0,1,0,0,2.181h1.711a1.09,1.09,0,0,0,0-2.181Z" transform="translate(-145.163 -190.017)" fill="#12263f"/>
        <path id="Path_27227" data-name="Path 27227" d="M83.554,59.2a1.09,1.09,0,0,0,1.09-1.09V40.039a1.819,1.819,0,0,0-1.817-1.817h-15.2V15L73.246,1.51A1.09,1.09,0,1,0,71.233.671l-5.425,13.02H63.822V11.341a1.09,1.09,0,0,0-2.181,0v2.351H57.166V10.945a1.819,1.819,0,0,0-1.817-1.817H52.983V5.033h8.658V6.252a1.09,1.09,0,0,0,2.181,0V4.67A1.819,1.819,0,0,0,62,2.852H52.619A1.819,1.819,0,0,0,50.8,4.67V9.128H48.229V7.522A1.819,1.819,0,0,0,46.412,5.7H37.027a1.819,1.819,0,0,0-1.817,1.817v6.169H33.223L27.8.671a1.09,1.09,0,1,0-2.013.839L31.406,15V38.221H26.98a1.09,1.09,0,0,0,0,2.181H27.7v7.411a1.528,1.528,0,0,0,1.527,1.527h6.544a1.528,1.528,0,0,0,1.527-1.527V40.4h11.13V72.259H16.568V40.4h5.323a1.09,1.09,0,1,0,0-2.181H16.2a1.819,1.819,0,0,0-1.817,1.817V72.623A1.819,1.819,0,0,0,16.2,74.44H82.827a1.819,1.819,0,0,0,1.817-1.817V63.2a1.09,1.09,0,1,0-2.181,0v9.058H50.606V40.4h11.13v7.411a1.528,1.528,0,0,0,1.527,1.527h6.544a1.528,1.528,0,0,0,1.527-1.527V40.4h11.13V58.113A1.09,1.09,0,0,0,83.554,59.2Zm-35.325-47.9h6.756v2.383H48.229ZM37.39,7.886h8.658v5.806H37.39ZM35.114,47.159H29.879V40.4h5.235Zm-1.527-8.937V15.872H65.444V38.221H33.587Zm35.565,8.937H63.917V40.4h5.235Z" transform="translate(-14.387 0)" fill="#12263f"/>
      </g>
    </g>
  </g>
</svg>
