<svg xmlns="http://www.w3.org/2000/svg" width="276" height="250" viewBox="0 0 276 250">
  <g id="t3-i8" transform="translate(-1082 -1394)">
    <g id="Group_90890" data-name="Group 90890" transform="translate(2244.146 1531.8)">
      <g id="Group_90884" data-name="Group 90884" transform="translate(-1162.146 -129.421)">
        <path id="Path_135075" data-name="Path 135075" d="M-996.111-82.371s-12.192,2.63-45.382-15.291-80.345-29.768-76.047,1.17.768,60.6-22.973,90.287-44.2,132.576,31.733,132.213,86.67-32.244,177.227-29.17c28.712.975,47.7-20.407,45.183-63.8s-33.26-46.186-35.357-72.332S-924.366-113.351-996.111-82.371Z" transform="translate(1162.147 115.612)" fill="#fff"/>
      </g>
      <g id="Group_90885" data-name="Group 90885" transform="translate(-912.106 -80.105)">
        <ellipse id="Ellipse_4286" data-name="Ellipse 4286" cx="13.385" cy="8.37" rx="13.385" ry="8.37" transform="translate(0 26.754) rotate(-88)" fill="#fff"/>
      </g>
      <g id="Group_90886" data-name="Group 90886" transform="translate(-1155.255 -109.813)">
        <ellipse id="Ellipse_4287" data-name="Ellipse 4287" cx="21.742" cy="10.979" rx="21.742" ry="10.979" transform="translate(0 43.282) rotate(-84.476)" fill="#fff"/>
      </g>
      <g id="Group_90887" data-name="Group 90887" transform="translate(-1025.006 -137.8)">
        <ellipse id="Ellipse_4288" data-name="Ellipse 4288" cx="10.576" cy="14.454" rx="10.576" ry="14.454" transform="matrix(0.226, -0.974, 0.974, 0.226, 0, 20.607)" fill="#fff"/>
      </g>
    </g>
    <g id="Group_90869" data-name="Group 90869" transform="translate(3872.875 451.988)">
      <g id="Group_90867" data-name="Group 90867" transform="translate(-2717.875 990.012)">
        <g id="Group_90865" data-name="Group 90865" transform="translate(2.473 2.473)">
          <path id="Path_135034" data-name="Path 135034" d="M-2683.208,1098.712h75.178a4.945,4.945,0,0,0,4.946-4.945V997.815a4.945,4.945,0,0,0-4.946-4.945h-75.178a4.946,4.946,0,0,0-4.945,4.945v95.952A4.946,4.946,0,0,0-2683.208,1098.712Z" transform="translate(2711.399 -992.87)" fill="#c3b5ec"/>
          <path id="Path_135035" data-name="Path 135035" d="M-2693.255,1011.16h58.362a4.946,4.946,0,0,1,4.946,4.945v95.952a4.946,4.946,0,0,1-4.946,4.945h-75.177a4.946,4.946,0,0,1-4.946-4.945v-79.135Z" transform="translate(2715.017 -995.333)" fill="#fff"/>
          <path id="Path_135036" data-name="Path 135036" d="M-2715.017,1032.922h14.961a6.8,6.8,0,0,0,6.8-6.8V1011.16Z" transform="translate(2715.017 -995.333)" fill="#c3b5ec"/>
        </g>
        <g id="Group_90866" data-name="Group 90866">
          <path id="Path_135037" data-name="Path 135037" d="M-2612.032,990.012h-75.178a7.427,7.427,0,0,0-7.418,7.419v8.622a2.453,2.453,0,0,0-.76.511l-21.762,21.762a2.472,2.472,0,0,0-.718,1.747l-.006,0v79.135a7.427,7.427,0,0,0,7.419,7.418h75.177a7.427,7.427,0,0,0,7.419-7.418V1100.8h15.827a7.427,7.427,0,0,0,7.418-7.418V997.431A7.427,7.427,0,0,0-2612.032,990.012Zm-37.682,15.827h-5.714a7.424,7.424,0,0,0-6.559-3.956,7.427,7.427,0,0,0-7.418,7.419v14.579a2.473,2.473,0,0,0,2.472,2.473,2.474,2.474,0,0,0,2.473-2.473V1009.3a2.476,2.476,0,0,1,2.473-2.473,2.476,2.476,0,0,1,2.473,2.473v16.557a7.427,7.427,0,0,1-7.419,7.419,7.427,7.427,0,0,1-7.418-7.419v-18.535a12.379,12.379,0,0,1,12.365-12.365A12.38,12.38,0,0,1-2649.713,1005.839Zm-37.5-10.881h13.126a17.259,17.259,0,0,0-5.145,10.881h-10.455v-8.408A2.475,2.475,0,0,1-2687.21,994.958Zm-8.9,19.324v8.992a4.333,4.333,0,0,1-4.328,4.328h-8.991Zm86.554,79.1a2.476,2.476,0,0,1-2.473,2.472h-15.827v-47.933a2.474,2.474,0,0,0-2.473-2.473,2.473,2.473,0,0,0-2.473,2.473v61.288a2.476,2.476,0,0,1-2.473,2.472h-75.177a2.476,2.476,0,0,1-2.473-2.472v-76.663h12.488a9.284,9.284,0,0,0,9.274-9.273v-12.488h11.87v15.073a12.379,12.379,0,0,0,12.365,12.366,12.38,12.38,0,0,0,12.365-12.366v-15.073h19.289a2.476,2.476,0,0,1,2.473,2.472v14.88a2.473,2.473,0,0,0,2.473,2.472,2.473,2.473,0,0,0,2.473-2.472v-14.88a7.427,7.427,0,0,0-7.419-7.419h-9.465a17.263,17.263,0,0,0-5.144-10.881h37.856a2.476,2.476,0,0,1,2.473,2.472Z" transform="translate(2717.875 -990.012)"/>
          <path id="Path_135038" data-name="Path 135038" d="M-2695.817,1074.92h51.175a2.473,2.473,0,0,0,2.472-2.473,2.473,2.473,0,0,0-2.472-2.473h-51.175a2.474,2.474,0,0,0-2.473,2.473A2.474,2.474,0,0,0-2695.817,1074.92Z" transform="translate(2715.238 -1000.78)"/>
          <path id="Path_135039" data-name="Path 135039" d="M-2695.817,1086.351h41.152a2.473,2.473,0,0,0,2.472-2.473,2.473,2.473,0,0,0-2.472-2.473h-41.152a2.474,2.474,0,0,0-2.473,2.473A2.474,2.474,0,0,0-2695.817,1086.351Z" transform="translate(2715.238 -1002.32)"/>
          <path id="Path_135040" data-name="Path 135040" d="M-2695.817,1109.287h41.16a2.472,2.472,0,0,0,2.473-2.472,2.473,2.473,0,0,0-2.473-2.473h-41.16a2.473,2.473,0,0,0-2.473,2.473A2.473,2.473,0,0,0-2695.817,1109.287Z" transform="translate(2715.238 -1005.408)"/>
          <path id="Path_135041" data-name="Path 135041" d="M-2695.817,1120.721h21.122a2.474,2.474,0,0,0,2.473-2.473,2.474,2.474,0,0,0-2.473-2.473h-21.122a2.474,2.474,0,0,0-2.473,2.473A2.474,2.474,0,0,0-2695.817,1120.721Z" transform="translate(2715.238 -1006.948)"/>
          <path id="Path_135042" data-name="Path 135042" d="M-2636.678,1081.405a2.492,2.492,0,0,0-1.748.724,2.493,2.493,0,0,0-.725,1.749,2.49,2.49,0,0,0,.725,1.748,2.489,2.489,0,0,0,1.748.725,2.492,2.492,0,0,0,1.749-.725,2.492,2.492,0,0,0,.724-1.748,2.5,2.5,0,0,0-.724-1.749A2.5,2.5,0,0,0-2636.678,1081.405Z" transform="translate(2707.274 -1002.32)"/>
          <path id="Path_135043" data-name="Path 135043" d="M-2662.232,1115.775a2.49,2.49,0,0,0-1.748.724,2.492,2.492,0,0,0-.726,1.749,2.488,2.488,0,0,0,.726,1.748,2.487,2.487,0,0,0,1.748.725,2.488,2.488,0,0,0,1.748-.725,2.487,2.487,0,0,0,.725-1.748,2.491,2.491,0,0,0-.725-1.749A2.491,2.491,0,0,0-2662.232,1115.775Z" transform="translate(2710.715 -1006.948)"/>
          <path id="Path_135044" data-name="Path 135044" d="M-2695.817,1063.488h51.175a2.473,2.473,0,0,0,2.473-2.472,2.474,2.474,0,0,0-2.473-2.473h-51.175a2.474,2.474,0,0,0-2.473,2.473A2.473,2.473,0,0,0-2695.817,1063.488Z" transform="translate(2715.238 -999.241)"/>
          <path id="Path_135045" data-name="Path 135045" d="M-2617.093,1042.644a2.488,2.488,0,0,0-1.748.725,2.49,2.49,0,0,0-.725,1.748,2.492,2.492,0,0,0,.725,1.749,2.491,2.491,0,0,0,1.748.724,2.491,2.491,0,0,0,1.748-.724,2.493,2.493,0,0,0,.725-1.749,2.49,2.49,0,0,0-.725-1.748A2.488,2.488,0,0,0-2617.093,1042.644Z" transform="translate(2704.636 -997.1)"/>
        </g>
      </g>
      <g id="Group_90868" data-name="Group 90868" transform="translate(-2651.415 1079.912)">
        <path id="Path_135046" data-name="Path 135046" d="M-2608.992,1096.2a29.778,29.778,0,0,0-29.778,29.779,29.778,29.778,0,0,0,29.778,29.778,29.778,29.778,0,0,0,29.778-29.778A29.778,29.778,0,0,0-2608.992,1096.2Zm0,51.025a21.247,21.247,0,0,1-21.248-21.247,21.247,21.247,0,0,1,21.248-21.247,21.247,21.247,0,0,1,21.247,21.247A21.247,21.247,0,0,1-2608.992,1147.229Z" transform="translate(2640.762 -1094.213)" fill="#ff7758"/>
        <circle id="Ellipse_4280" data-name="Ellipse 4280" cx="21.247" cy="21.247" r="21.247" transform="translate(10.523 10.523)" fill="#fff"/>
        <path id="Path_135047" data-name="Path 135047" d="M-2609.3,1157.442a31.8,31.8,0,0,1-31.77-31.769,31.806,31.806,0,0,1,31.77-31.77,31.806,31.806,0,0,1,31.77,31.77A31.805,31.805,0,0,1-2609.3,1157.442Zm0-59.556a27.819,27.819,0,0,0-27.788,27.787,27.818,27.818,0,0,0,27.788,27.786,27.818,27.818,0,0,0,27.787-27.786A27.818,27.818,0,0,0-2609.3,1097.886Zm0,51.024a23.264,23.264,0,0,1-23.239-23.238,23.265,23.265,0,0,1,23.239-23.239,23.265,23.265,0,0,1,23.239,23.239A23.264,23.264,0,0,1-2609.3,1148.911Zm0-42.494a19.278,19.278,0,0,0-19.256,19.256,19.277,19.277,0,0,0,19.256,19.255,19.277,19.277,0,0,0,19.255-19.255A19.278,19.278,0,0,0-2609.3,1106.417Z" transform="translate(2641.072 -1093.903)"/>
        <rect id="Rectangle_31340" data-name="Rectangle 31340" width="26.441" height="4.193" rx="2.096" transform="translate(20.939 39.635) rotate(-45)"/>
        <rect id="Rectangle_31341" data-name="Rectangle 31341" width="26.441" height="4.193" rx="2.096" transform="translate(23.904 20.939) rotate(45)"/>
      </g>
    </g>
  </g>
</svg>
