<svg xmlns="http://www.w3.org/2000/svg" width="190" height="118.3" viewBox="0 0 190 118.3">
  <g id="t4-ix6" transform="translate(-285 -5880)">
    <rect id="Rectangle_31051" data-name="Rectangle 31051" width="190" height="118" rx="10" transform="translate(285 5880)" fill="#ffba5b" opacity="0.5"/>
    <rect id="Rectangle_31052" data-name="Rectangle 31052" width="11" height="118" transform="translate(464 5880.3)" fill="#ffba5b"/>
    <g id="contrato" transform="translate(318.27 5902)">
      <g id="Group_90777" data-name="Group 90777" transform="translate(28.73 0)">
        <path id="Path_134934" data-name="Path 134934" d="M118.977,137.8H83.328a1.1,1.1,0,1,0,0,2.19h35.649a1.1,1.1,0,1,0,0-2.19Z" transform="translate(-74.454 -117.768)" fill="#12263f"/>
        <path id="Path_134934_-_Outline" data-name="Path 134934 - Outline" d="M83.328,137.3h35.649a1.6,1.6,0,1,1,0,3.19H83.328a1.6,1.6,0,1,1,0-3.19Zm35.649,2.19a.6.6,0,1,0,0-1.19H83.328a.6.6,0,1,0,0,1.19Z" transform="translate(-74.454 -117.768)" fill="#12263f"/>
        <path id="Path_134935" data-name="Path 134935" d="M83.328,87.747h17.824a1.1,1.1,0,0,0,0-2.19H83.328a1.1,1.1,0,1,0,0,2.19Z" transform="translate(-74.454 -73.118)" fill="#12263f"/>
        <path id="Path_134935_-_Outline" data-name="Path 134935 - Outline" d="M101.152,88.247H83.328a1.6,1.6,0,1,1,0-3.19h17.824a1.6,1.6,0,0,1,0,3.19Zm-17.824-2.19a.6.6,0,1,0,0,1.19h17.824a.6.6,0,0,0,0-1.19Z" transform="translate(-74.454 -73.118)" fill="#12263f"/>
        <path id="Path_134936" data-name="Path 134936" d="M118.977,184.1H83.328a1.1,1.1,0,1,0,0,2.19h35.649a1.1,1.1,0,1,0,0-2.19Z" transform="translate(-74.454 -157.33)" fill="#12263f"/>
        <path id="Path_134936_-_Outline" data-name="Path 134936 - Outline" d="M83.328,183.6h35.649a1.6,1.6,0,1,1,0,3.19H83.328a1.6,1.6,0,1,1,0-3.19Zm35.649,2.19a.6.6,0,1,0,0-1.19H83.328a.6.6,0,1,0,0,1.19Z" transform="translate(-74.454 -157.33)" fill="#12263f"/>
        <path id="Path_134937" data-name="Path 134937" d="M45.725,66.832H34.316a3.4,3.4,0,0,1-3.4-3.4V5.586a3.4,3.4,0,0,1,3.4-3.4H67.183a2.343,2.343,0,0,1,.314.024v6.83a5.592,5.592,0,0,0,5.586,5.586h6.83a2.324,2.324,0,0,1,.024.314V33.592a1.1,1.1,0,0,0,2.19,0V14.944a4.469,4.469,0,0,0-1.317-3.18L70.363,1.317A4.468,4.468,0,0,0,67.183,0H34.316A5.592,5.592,0,0,0,28.73,5.586v57.85a5.592,5.592,0,0,0,5.586,5.586H45.725a1.1,1.1,0,1,0,0-2.19ZM78.388,12.44h-5.3a3.4,3.4,0,0,1-3.4-3.4v-5.3Z" transform="translate(-28.73 0)" fill="#12263f"/>
        <path id="Path_134937_-_Outline" data-name="Path 134937 - Outline" d="M45.725,69.523H34.316a6.093,6.093,0,0,1-6.086-6.086V5.586A6.093,6.093,0,0,1,34.316-.5H67.183A4.964,4.964,0,0,1,70.717.964L81.163,11.41a4.965,4.965,0,0,1,1.464,3.534V33.592a1.6,1.6,0,0,1-3.19,0V15.13H73.083A6.093,6.093,0,0,1,67,9.043V2.69H34.316a2.9,2.9,0,0,0-2.9,2.9v57.85a2.9,2.9,0,0,0,2.9,2.9H45.725a1.6,1.6,0,1,1,0,3.19ZM34.316.5A5.092,5.092,0,0,0,29.23,5.586v57.85a5.092,5.092,0,0,0,5.086,5.086H45.725a.6.6,0,1,0,0-1.19H34.316a3.9,3.9,0,0,1-3.9-3.9V5.586a3.9,3.9,0,0,1,3.9-3.9H67.183a2.8,2.8,0,0,1,.381.028L68,1.777V9.043a5.092,5.092,0,0,0,5.086,5.086h7.266l.059.433a2.819,2.819,0,0,1,.028.382V33.592a.6.6,0,0,0,1.19,0V14.944a3.972,3.972,0,0,0-1.171-2.827L70.009,1.671A3.971,3.971,0,0,0,67.183.5ZM79.6,12.94H73.083a3.9,3.9,0,0,1-3.9-3.9V2.532ZM70.187,4.946v4.1a2.9,2.9,0,0,0,2.9,2.9h4.1Z" transform="translate(-28.73 0)" fill="#12263f"/>
        <path id="Path_134938" data-name="Path 134938" d="M144.531,269.742l-9.279-15.662a2.4,2.4,0,0,0-3.29-.843l-2.257,1.337a4.288,4.288,0,0,0-1.891,5,3.357,3.357,0,0,1-2.362-.026c-1.782-.561-3.137-1.688-5.374-1.123-3.8.967-3.684.919-4.027,1.037-2.225-1.267-3.562-1.643-5.923-.73l-2.105.814a3.368,3.368,0,0,1-2.949-.246l-.574-.339a4.278,4.278,0,0,0-2.042-4.386h0l-2.257-1.337a2.4,2.4,0,0,0-3.29.842l-9.279,15.662a2.4,2.4,0,0,0,.842,3.29l2.257,1.337a4.254,4.254,0,0,0,2.175.6,4.311,4.311,0,0,0,2.339-.691l.47.278-.993,1.383a3.669,3.669,0,0,0,3.552,5.766,3.666,3.666,0,0,0,4.187,3.007,3.67,3.67,0,0,0,5.065,2.754,3.668,3.668,0,0,0,6.238,1.031l2.639,1.563a3.677,3.677,0,0,0,5.52-2.721l.006,0a3.672,3.672,0,0,0,5.534-2.889,3.673,3.673,0,0,0,4.55-3.176,3.674,3.674,0,0,0,4.152-5.784l1.455-.85a4.272,4.272,0,0,0,3.811-.273l2.257-1.337A2.4,2.4,0,0,0,144.531,269.742Zm-52.684,2.743-2.257-1.337a.212.212,0,0,1-.074-.29L98.8,255.2a.212.212,0,0,1,.29-.074l2.257,1.337a2.091,2.091,0,0,1,.733,2.865l-7.363,12.428a2.093,2.093,0,0,1-2.865.733Zm4.994,6.8a1.481,1.481,0,0,1-.339-2.068l1.46-2.033a1.482,1.482,0,0,1,2.407,1.728l-1.46,2.033A1.484,1.484,0,0,1,96.841,279.282Zm4.187,3.006a1.484,1.484,0,0,1-.339-2.068l1.46-2.033h0l1.611-2.244a1.471,1.471,0,0,1,.964-.6,1.488,1.488,0,0,1,.243-.02,1.482,1.482,0,0,1,1.2,2.346l-3.071,4.277A1.481,1.481,0,0,1,101.027,282.287Zm4.187,3.005a1.484,1.484,0,0,1-.34-2.067h0l3.071-4.277a1.482,1.482,0,1,1,2.407,1.728l-1.364,1.9h0l-1.706,2.377a1.483,1.483,0,0,1-2.068.34Zm4.872,2.051a1.484,1.484,0,0,1-.34-2.067l1.022-1.423a1.482,1.482,0,0,1,2.407,1.728L112.153,287A1.483,1.483,0,0,1,110.085,287.344Zm24.545-8.731a1.484,1.484,0,0,1-2.031.52l-9.693-5.743a1.1,1.1,0,0,0-1.116,1.884l7.328,4.342h0a1.483,1.483,0,0,1-1.511,2.551l-7.332-4.344a1.1,1.1,0,0,0-1.116,1.884l5.4,3.2h0a1.483,1.483,0,0,1-1.512,2.55l-2.9-1.717h0l-2.115-1.253a1.1,1.1,0,1,0-1.116,1.884l2.115,1.253h0a1.482,1.482,0,1,1-1.511,2.551l-2.467-1.462a3.67,3.67,0,0,0-2.466-5.614,3.669,3.669,0,0,0-4.006-4.913,3.671,3.671,0,0,0-6.229-1.963,3.668,3.668,0,0,0-5.105-1.31l-.5-.3,6.887-11.625.328.193a5.544,5.544,0,0,0,4.853.4l2.1-.814a3.232,3.232,0,0,1,3.06.066,4.9,4.9,0,0,0-1.242,3.265v4.855a2.343,2.343,0,0,0,2.337,2.34h0a4.85,4.85,0,0,0,4.585-3.278l14.45,8.557a1.482,1.482,0,0,1,.52,2.03Zm7.943-7.464-2.257,1.337a2.094,2.094,0,0,1-2.865-.733L134,265.927a1.1,1.1,0,1,0-1.884,1.116l3.451,5.825c.065.11.136.214.208.316l-.959.56a5.552,5.552,0,0,0-.559.379l-14.877-8.81a1.1,1.1,0,0,0-1.653.942,2.8,2.8,0,0,1-.777,2.081,2.635,2.635,0,0,1-1.874.776h0a.15.15,0,0,1-.148-.15v-4.855a2.725,2.725,0,0,1,2.053-2.637l3.637-.92c1.32-.334,2.066.371,4.042,1.04a5.536,5.536,0,0,0,4.187-.067l.661,1.116a1.1,1.1,0,0,0,1.884-1.116l-1.3-2.2a2.09,2.09,0,0,1,.733-2.865l2.257-1.337a.211.211,0,0,1,.29.074l9.279,15.662a.211.211,0,0,1-.074.29Z" transform="translate(-78.781 -216.132)" fill="#12263f"/>
        <path id="Path_134938_-_Outline" data-name="Path 134938 - Outline" d="M133.185,252.4h0a2.916,2.916,0,0,1,2.5,1.424l9.279,15.662a2.9,2.9,0,0,1-1.018,3.975l-2.256,1.337a4.772,4.772,0,0,1-4.021.395l-.771.451a4.183,4.183,0,0,1,.049,4.338,4.2,4.2,0,0,1-3.6,2.045,4.144,4.144,0,0,1-.942-.108,4.143,4.143,0,0,1-.454,1.1,4.183,4.183,0,0,1-4.065,2.018,4.135,4.135,0,0,1-.495,1.272,4.176,4.176,0,0,1-5.109,1.76,4.172,4.172,0,0,1-6.134,2.421l-2.292-1.358a4.169,4.169,0,0,1-6.594-1.041,4.17,4.17,0,0,1-5.19-2.839,4.167,4.167,0,0,1-4.187-3.008,4.169,4.169,0,0,1-3.57-6.6l.374-.521a4.781,4.781,0,0,1-4.214-.324l-2.257-1.337a2.9,2.9,0,0,1-1.018-3.975l9.279-15.662a2.9,2.9,0,0,1,3.975-1.018l2.34,1.388a4.778,4.778,0,0,1,2.242,4.5l.29.171a2.868,2.868,0,0,0,2.515.211l2.1-.814a6.886,6.886,0,0,1,2.511-.538,7.365,7.365,0,0,1,3.648,1.191c.151-.044.377-.1.966-.249.536-.135,1.432-.36,2.883-.729a5.323,5.323,0,0,1,1.321-.17,7.465,7.465,0,0,1,3.018.793c.422.18.859.366,1.309.508l.03.011a2.857,2.857,0,0,0,1.573.143,4.788,4.788,0,0,1,2.244-5.08l2.257-1.337A2.9,2.9,0,0,1,133.185,252.4Zm6.074,22.065a3.769,3.769,0,0,0,1.919-.527l2.256-1.337A1.9,1.9,0,0,0,144.1,270l-9.279-15.662a1.912,1.912,0,0,0-1.638-.934h0a1.9,1.9,0,0,0-.967.266l-2.257,1.337a3.807,3.807,0,0,0-1.67,4.415l.148.459-.454.164a3.857,3.857,0,0,1-2.7-.023c-.491-.156-.946-.349-1.386-.537a6.588,6.588,0,0,0-2.626-.712,4.336,4.336,0,0,0-1.075.139c-1.452.37-2.349.6-2.885.73-.893.225-.914.23-1.1.295l-.213.073-.2-.112a6.836,6.836,0,0,0-3.345-1.169,5.935,5.935,0,0,0-2.15.471l-2.105.814a3.868,3.868,0,0,1-3.384-.282l-.869-.512.057-.339a3.756,3.756,0,0,0-1.8-3.874l-2.257-1.337a1.9,1.9,0,0,0-2.605.667L88.062,270a1.9,1.9,0,0,0,.667,2.605l2.257,1.337a3.784,3.784,0,0,0,3.987-.083l.26-.168,1.208.713-1.312,1.827a3.169,3.169,0,0,0,2.566,5.02,3.251,3.251,0,0,0,.5-.04l.487-.077.083.486a3.168,3.168,0,0,0,3.112,2.638,3.253,3.253,0,0,0,.5-.04l.487-.077.083.486A3.17,3.17,0,0,0,107.33,287l.477-.2.186.484a3.17,3.17,0,0,0,5.388.89l.273-.326,3,1.78a3.177,3.177,0,0,0,4.769-2.351l.093-.776.668.411a3.172,3.172,0,0,0,4.777-2.5l.043-.594.577.145a3.157,3.157,0,0,0,.769.1,3.192,3.192,0,0,0,2.736-1.555,3.137,3.137,0,0,0,.425-1.283l.068-.654.612.24a3.139,3.139,0,0,0,1.151.217,3.191,3.191,0,0,0,2.736-1.554,3.177,3.177,0,0,0-.3-3.66l-.383-.454,2.181-1.274.229.094A3.794,3.794,0,0,0,139.258,274.467Zm-6.072-19.874a.715.715,0,0,1,.612.349l9.279,15.662a.711.711,0,0,1-.249.975l-2.257,1.337a2.593,2.593,0,0,1-3.55-.909l-3.451-5.825a.6.6,0,1,0-1.024.607L136,272.614c.051.085.109.174.185.279l.32.446-1.434.837a5.057,5.057,0,0,0-.506.343l-.268.207-15.169-8.983a.583.583,0,0,0-.3-.084.6.6,0,0,0-.6.6v.046a3.2,3.2,0,0,1-.923,2.388,3.131,3.131,0,0,1-2.228.922.65.65,0,0,1-.65-.65v-4.855a3.218,3.218,0,0,1,2.43-3.122l3.637-.92a3.144,3.144,0,0,1,.779-.1,5.23,5.23,0,0,1,2.073.577c.418.177.892.378,1.473.575l.02.007a5.065,5.065,0,0,0,1.834.345,5.006,5.006,0,0,0,1.977-.405l.4-.172.884,1.493a.6.6,0,1,0,1.024-.607l-1.3-2.2a2.594,2.594,0,0,1,.908-3.55l2.257-1.337A.711.711,0,0,1,133.186,254.593Zm8.884,16.273L133.085,255.7l-2.009,1.19a1.593,1.593,0,0,0-.558,2.18l1.3,2.2a1.6,1.6,0,1,1-2.745,1.626l-.446-.752a5.989,5.989,0,0,1-1.958.327,6.06,6.06,0,0,1-2.185-.408c-.612-.208-1.1-.415-1.533-.6a4.493,4.493,0,0,0-1.682-.5,2.156,2.156,0,0,0-.534.07l-3.637.92a2.218,2.218,0,0,0-1.675,2.153v4.477a2.136,2.136,0,0,0,1.171-.6,2.209,2.209,0,0,0,.63-1.665c0-.03,0-.057,0-.084a1.593,1.593,0,0,1,2.407-1.351l14.595,8.643c.109-.074.219-.145.332-.211l.512-.3-3.387-5.717a1.6,1.6,0,1,1,2.745-1.626l3.451,5.825a1.592,1.592,0,0,0,2.18.558ZM98.978,254.593a.711.711,0,0,1,.363.1l2.256,1.336a2.594,2.594,0,0,1,.909,3.55l-7.363,12.428a2.592,2.592,0,0,1-3.55.909l-2.257-1.337a.713.713,0,0,1-.25-.974l9.279-15.662A.715.715,0,0,1,98.978,254.593ZM92.91,272.277a1.6,1.6,0,0,0,1.372-.78l7.363-12.428a1.593,1.593,0,0,0-.558-2.18l-2.009-1.19-8.985,15.166,2.009,1.19A1.586,1.586,0,0,0,92.91,272.277Zm19.519-12.354a4.009,4.009,0,0,1,1.763.467l.6.285-.444.5a4.406,4.406,0,0,0-1.116,2.933v4.855a1.842,1.842,0,0,0,1.837,1.84l0,.5v-.5a4.35,4.35,0,0,0,4.111-2.939l.2-.583,2.913,1.725,12.067,7.146a1.982,1.982,0,0,1,.695,2.715,1.983,1.983,0,0,1-2.716.7l-9.693-5.743a.6.6,0,0,0-.607,1.024l7.393,4.382a1.983,1.983,0,0,1-2.086,3.371l-7.332-4.344a.6.6,0,0,0-.607,1.024l5.407,3.2a1.983,1.983,0,0,1-2.028,3.407l-2.875-1.7-.058-.026-.019-.019-2.062-1.222a.6.6,0,0,0-.607,1.024l2.143,1.27a1.982,1.982,0,0,1-2.048,3.395l-2.915-1.727.283-.437a3.167,3.167,0,0,0-.813-4.3,3.134,3.134,0,0,0-1.317-.549l-.6-.1.212-.568a3.178,3.178,0,0,0-1.12-3.689,3.142,3.142,0,0,0-1.844-.593,3.218,3.218,0,0,0-.5.039l-.487.076-.083-.486a3.167,3.167,0,0,0-3.12-2.635,3.2,3.2,0,0,0-2.26.939l-.464.469-.326-.573a3.162,3.162,0,0,0-2.748-1.6,3.189,3.189,0,0,0-1.663.466l-.256.156-1.192-.7,7.4-12.486.758.447a5.044,5.044,0,0,0,4.419.368l2.105-.814A4.561,4.561,0,0,1,112.428,259.924Zm.75,1.132a2.361,2.361,0,0,0-.75-.132,3.677,3.677,0,0,0-1.33.319l-2.1.814a6.043,6.043,0,0,1-5.185-.38l-6.227,10.51a4.2,4.2,0,0,1,1.588-.312,4.166,4.166,0,0,1,3.282,1.6,4.214,4.214,0,0,1,2.516-.839,4.168,4.168,0,0,1,4,3.01,4.139,4.139,0,0,1,2.612.777,4.182,4.182,0,0,1,1.635,4.313,4.183,4.183,0,0,1,2.671,2.537,1.586,1.586,0,0,1,.215-.658,1.594,1.594,0,0,1,2.185-.559l2.1,1.242.058.028.015.015,2.845,1.685a.983.983,0,0,0,1-1.69l-.006,0-5.394-3.2a1.6,1.6,0,0,1-.559-2.185,1.595,1.595,0,0,1,2.185-.559l7.332,4.344a.979.979,0,0,0,.5.137.982.982,0,0,0,.5-1.827l-7.328-4.342a1.595,1.595,0,0,1-.559-2.185,1.595,1.595,0,0,1,2.185-.559l9.693,5.743a.979.979,0,0,0,.5.137.989.989,0,0,0,.848-.481.982.982,0,0,0-.344-1.345l-12.067-7.146-1.884-1.116a5.357,5.357,0,0,1-4.829,3.052h0a2.843,2.843,0,0,1-2.837-2.84v-4.855A5.4,5.4,0,0,1,113.178,261.055Zm5.572,24.984-2.089-1.238a1.585,1.585,0,0,1-.54-.528,4.151,4.151,0,0,1-.393,2.26l2.047,1.213a.982.982,0,0,0,1.029-1.674l-.025-.01ZM99.17,274.064a1.962,1.962,0,0,1,1.15.371,1.984,1.984,0,0,1,.454,2.765l-1.46,2.033a1.987,1.987,0,0,1-1.612.825,1.981,1.981,0,0,1-1.608-3.137l1.46-2.033A1.991,1.991,0,0,1,99.17,274.064ZM97.7,279.059a.985.985,0,0,0,.8-.409l1.46-2.033a.983.983,0,0,0-.225-1.37.967.967,0,0,0-.567-.183.988.988,0,0,0-.8.408l-1.46,2.033a.981.981,0,0,0,.8,1.554Zm7.262-4.235a1.982,1.982,0,0,1,1.607,3.138l-3.07,4.277a1.982,1.982,0,1,1-3.219-2.311l1.366-1.9v-.339h.243l1.461-2.035a1.968,1.968,0,0,1,1.289-.8A1.993,1.993,0,0,1,104.965,274.824Zm-3.075,7.241a.985.985,0,0,0,.8-.41l3.071-4.277a.982.982,0,0,0-.794-1.554.992.992,0,0,0-.161.013.975.975,0,0,0-.639.4l-3.071,4.277a.982.982,0,0,0,.8,1.555Zm7.26-4.235a1.982,1.982,0,0,1,1.608,3.137l-3.071,4.277a1.988,1.988,0,0,1-1.612.826,1.981,1.981,0,0,1-1.637-3.1l0,0,.03-.042,3.068-4.273A1.988,1.988,0,0,1,109.151,277.831Zm-.529,4.4,1.324-1.845a.981.981,0,0,0-.8-1.554.985.985,0,0,0-.8.409l-3.074,4.283a.983.983,0,0,0,.229,1.365.973.973,0,0,0,.571.184.985.985,0,0,0,.8-.409Zm3.351.508a1.982,1.982,0,0,1,1.608,3.137l-1.021,1.422a1.987,1.987,0,0,1-1.612.826,1.981,1.981,0,0,1-1.609-3.135l1.022-1.424A1.987,1.987,0,0,1,111.972,282.737Zm-1.025,4.385a.985.985,0,0,0,.8-.409l1.021-1.422a.981.981,0,0,0-.8-1.554.985.985,0,0,0-.8.408l-1.022,1.424a.983.983,0,0,0,.226,1.369A.972.972,0,0,0,110.947,287.122Z" transform="translate(-78.781 -216.132)" fill="#12263f"/>
      </g>
    </g>
  </g>
</svg>
