<svg xmlns="http://www.w3.org/2000/svg" width="426" height="206" viewBox="0 0 426 206">
  <g id="t4-ix1" transform="translate(-873 -1265)">
    <g id="Rectangle_31470" data-name="Rectangle 31470" opacity="0">
      <rect id="Rectangle_31470-2" data-name="Rectangle 31470" width="426" height="206" transform="translate(873 1265)" fill="#fff"/>
      <path id="Rectangle_31470_-_Outline" data-name="Rectangle 31470 - Outline" d="M1,1V205H425V1H1M0,0H426V206H0Z" transform="translate(873 1265)" fill="#707070"/>
    </g>
    <g id="Group_90690" data-name="Group 90690" transform="translate(-3416.803 -500.055)">
      <path id="Path_134793" data-name="Path 134793" d="M4527.128,1790.667c11.185.006,22.366-.017,33.551.011-.063,2.571-.02,5.143-.02,7.717-7.829.02-15.66,0-23.489.011q-.012,6.146,0,12.3,10.055.009,20.107,0c.065,2.583.094,5.169-.018,7.749q-10.051-.009-20.1.006c.018,4.579-.005,9.157.012,13.739q11.791-.026,23.581,0c-.041,2.571-.011,5.14-.017,7.711-11.2.066-22.4-.023-33.594.046q-.068-24.641-.011-49.28m126.074.206c4.313-.183,8.636.04,12.949-.22.114,16.419.014,32.841.049,49.263-1.455.08-2.9-.169-4.344-.129-1.859,0-3.717.034-5.573-.052.018-4.667,0-9.332.012-14,.195-7.491.744-14.976.862-22.469-2.253,5.916-4.335,11.9-6.488,17.859-2.073,5.85-4.235,11.669-6.291,17.524a8.817,8.817,0,0,0-.25,1.025,47.014,47.014,0,0,1-6.751.026c-1.841-5.449-3.906-10.818-5.8-16.253-2.4-6.692-4.774-13.4-7.231-20.07-.126,2.291.161,4.59.187,6.886.247,5.254.458,10.509.682,15.766-.023,4.6.072,9.214-.052,13.822-3.207-.115-6.422-.077-9.629-.02-.187-2.781-.035-5.572-.083-8.356v-28.359c.054-4.12-.114-8.247.092-12.361,4.1.066,8.2.074,12.3-.006l.507.3c.479,2.079,1.346,4.04,1.979,6.073,1.022,3.058,2.15,6.082,3.129,9.154,1.987,5.672,3.883,11.376,5.87,17.049a24.4,24.4,0,0,0,1.395,3.7c.312-.8.57-1.621.865-2.428,3.846-11.247,7.846-22.449,11.614-33.723m-74.8,7.534c-.014,4.762,0,9.524-.006,14.286,1.956.037,3.915.011,5.873.017a22.077,22.077,0,0,0,6.031-.475,5.685,5.685,0,0,0,3.968-3.76c.7-2.583.519-5.635-1.277-7.754a7.63,7.63,0,0,0-5.563-2.288c-3.01-.054-6.019-.023-9.026-.026m-10.042-7.74q7.383-.009,14.767,0c2.4.011,4.8-.049,7.189.117,3.646.516,7.376,1.624,10.134,4.178,3.872,3.41,5.066,9.154,3.749,14.019-.968,3.387-3.786,5.887-6.892,7.342a10.786,10.786,0,0,1,6.064,4.59c1.566,2.651,1.738,5.83,1.661,8.834a19.034,19.034,0,0,0,1.011,7.442c.484.931,1.506,1.583,1.529,2.72-3.51.054-7.021-.017-10.532.031-1.9-2.036-1.9-4.979-2.061-7.588-.166-2.981.484-6.288-1.214-8.945a6.854,6.854,0,0,0-5.778-2.932c-3.2-.049-6.391,0-9.584-.029-.025,6.5.031,13-.031,19.5q-5-.043-10,.006c-.046-16.427-.021-32.855-.011-49.28m-85.837.009c12.513-.029,25.023,0,37.534-.014.043,2.577.066,5.157-.006,7.734-4.59.02-9.18-.009-13.767.017.014,13.853.046,27.707-.017,41.56-3.336-.089-6.678-.069-10.011-.011-.066-13.853.008-27.709-.037-41.563-4.564,0-9.129.014-13.69-.006-.017-2.571-.005-5.143-.005-7.717m-139.793-.011c3.374.029,6.749-.06,10.12.049,1.334,2.752,3.081,5.283,4.55,7.966,3.434,5.818,6.884,11.631,10.269,17.478,1.543,2.6,3.109,5.191,4.55,7.854.152-5.045.029-10.1.069-15.142-.009-6.065.017-12.127-.015-18.191,3.342-.031,6.684,0,10.025-.014.08,16.425.04,32.852.021,49.28-3.316-.04-6.629-.029-9.945,0-2.726-4.576-5.4-9.183-8.109-13.765q-4.012-6.859-8.029-13.71c-1.171-1.89-2.162-3.9-3.442-5.718-.106,11.07.023,22.143-.063,33.213-3.333-.057-6.671-.074-10,.009q-.056-24.65.005-49.305m-21.47-.006c3.347.012,6.694,0,10.039.009-.006,16.422.023,32.844-.014,49.265-3.342,0-6.683-.04-10.025.02q-.043-24.645,0-49.294M4679.9,1795.4a19.162,19.162,0,0,1,11.442-5.126,30.275,30.275,0,0,1,8.585.263,17.023,17.023,0,0,1,11.313,7.628,13.573,13.573,0,0,1,1.755,7.184c-3.267.232-6.546-.006-9.813.135a7.846,7.846,0,0,0-1.878-5.128c-1.732-2.01-4.539-2.58-7.076-2.5-2.256.123-4.756.616-6.268,2.451a5.305,5.305,0,0,0-.716,5.864c1.7,2.222,4.441,3.141,6.958,4.1,3.45,1.194,7.024,2.09,10.285,3.774a17.7,17.7,0,0,1,6.351,5.08,12.171,12.171,0,0,1,2.21,5.492c.544,3.78-.323,7.943-3.075,10.729-3.634,3.685-8.994,5.1-14.042,5.134a24.971,24.971,0,0,1-11.577-2.225c-2.766-1.372-5.483-3.17-7.115-5.864a13.931,13.931,0,0,1-1.942-8.032c3.29.02,6.586-.066,9.879.046.02,2.13.507,4.478,2.165,5.956,1.9,1.807,4.633,2.259,7.156,2.4a12.014,12.014,0,0,0,5.9-1.174,5.627,5.627,0,0,0,2.606-3.78,6.1,6.1,0,0,0-2.056-5.844c-2.551-1.927-5.7-2.735-8.693-3.7a48.007,48.007,0,0,1-7.628-3.021c-2.2-1.225-4.458-2.56-5.927-4.662a12.2,12.2,0,0,1,1.205-15.179m-229.458,5.352a12.287,12.287,0,0,0-2.308,4.06c-1.308,3.493-.85,7.276-.939,10.921.065,2.723-.195,5.489.407,8.172a13.007,13.007,0,0,0,2.886,5.89c.24.252.484.51.73.765a10.323,10.323,0,0,0,11.188,1.019,10.987,10.987,0,0,0,4.888-6.7c.761-2.4.65-4.948.687-7.436-.034-3.044.092-6.093-.137-9.131a13.7,13.7,0,0,0-2.947-7.182c-3.456-4.275-10.761-4.427-14.455-.381m-4.859-7.167c5.613-3.983,13.172-4.364,19.577-2.274a19.512,19.512,0,0,1,10.509,9.283,23.634,23.634,0,0,1,2.405,12c-.118,4.215.363,8.5-.622,12.651a19.561,19.561,0,0,1-19.746,15.242,21.092,21.092,0,0,1-10.034-2.165,20.542,20.542,0,0,1-7.823-7.562,22.932,22.932,0,0,1-2.067-5.32c-.833-3.264-.642-6.663-.667-10a53.025,53.025,0,0,1,.387-8.848,19.8,19.8,0,0,1,8.08-13m-42.71-2.036c4.2-1.747,8.922-1.75,13.346-.991,5.125.879,10.031,4.017,12.232,8.839a19.449,19.449,0,0,1,1.541,8.43q-4.948-.039-9.9-.006c.02-2.818-.553-5.95-2.764-7.9-1.664-1.609-4.086-1.953-6.3-2.067a8.285,8.285,0,0,0-5.824,2.044,14.1,14.1,0,0,0-3.783,10.088c-.051,3.637-.026,7.276,0,10.915a15.886,15.886,0,0,0,.736,4.587c.907,2.777,2.731,5.461,5.523,6.589a10.947,10.947,0,0,0,8.992-.621c2.709-1.884,3.393-5.375,3.4-8.467,3.272-.046,6.545-.011,9.815-.017a17.629,17.629,0,0,1-2.273,9.865,16.118,16.118,0,0,1-7.2,6.059,25.485,25.485,0,0,1-14.689.991,18.821,18.821,0,0,1-13.719-13.888c-1.074-4.679-.515-9.512-.656-14.266-.134-4.659.7-9.509,3.4-13.4a18.3,18.3,0,0,1,8.121-6.778" transform="translate(-13.873)" fill="#2d2b2c"/>
      <path id="Path_134794" data-name="Path 134794" d="M4324.639,2082.755c1.188.029,2.374-.063,3.562-.031.421.249.258.782.321,1.188a10,10,0,0,1-.175,2.443c-1.24-.037-2.48-.02-3.72,0-.015-1.2-.031-2.4.012-3.6m.006-5.6c1.3-.008,2.608-.029,3.914.009q-.073,1.748-.221,3.493c-1.237-.011-2.474.017-3.711.029-.025-1.177-.028-2.354.018-3.531m36.428,12.447a2.265,2.265,0,0,0-2.188,2.317c-14.131.14-28.268-.034-42.4.08a47.379,47.379,0,0,0,.169,6.016,11.025,11.025,0,0,0,3.181,5.349,3.811,3.811,0,0,1,1.755,5.455c.2.255.4.512.6.77,15.726.057,31.452,0,47.175.031a7,7,0,0,0,4.361-1.1c1.741-1.154,2.36-3.27,3.258-5.043,1.61-3.327,3.156-6.683,4.828-9.979a27.317,27.317,0,0,1,1.99-3.928c-7.577.031-15.156-.009-22.733.028m-.693-9.274c-.69,2.053-.175,4.272-.335,6.4a2.537,2.537,0,0,0,1.595.484c3.133-.04,6.266.054,9.4-.052.241-.206.481-.415.727-.616-.074-2.053.238-4.146-.237-6.165a62.8,62.8,0,0,0-7.007-.166,25.938,25.938,0,0,0-4.141.117m-27.177-1.111a7.2,7.2,0,0,0-.3,2.119c.023,2.672,0,5.343,0,8.015-.034.71.455,1.5,1.251,1.375,3.285-.009,6.575.074,9.859-.063.2-.2.4-.4.6-.593.083-3.6.166-7.207-.043-10.8-1.8-.553-3.7-.243-5.555-.315-1.938.066-3.911-.209-5.815.263m13.974-3.21c-.141,4.688-.08,9.378-.009,14.065.178.206.358.415.536.627,2.938.023,5.878.069,8.813.017a1.2,1.2,0,0,0,1.063-1.357c.069-3.728,0-7.462.035-11.193a12.158,12.158,0,0,0-.112-2.219,1.766,1.766,0,0,0-1.286-.487q-4.2-.026-8.39.026c-.218.172-.435.347-.65.521m-23.712-14.572c.032,2.311.032,4.625.014,6.938-1-.031-2-.037-2.989,0,.006.452.018.908.029,1.363,1-.043,1.993-.069,2.989-.072,0,1.128-.011,2.259-.008,3.39-2.743.066-5.486.06-8.229.009.012.779.012,1.558.014,2.339,1.186.069,2.374.011,3.559-.009-.071,4.745-.009,9.492-.037,14.24a3.079,3.079,0,0,0,.146,1.2c3.862-.2,7.731-.011,11.594-.157.083-5.1-.1-10.214.091-15.3.917-.793,1.95-1.443,2.838-2.273-2.933,0-5.862-.012-8.794.014,0-1.145-.015-2.291-.023-3.433,1.014-.006,2.03-.006,3.044-.006.009-.438.015-.879.021-1.314-.994-.031-1.987-.009-2.979.006-.126-2.348-.031-4.7-.062-7.047-.407.037-.813.077-1.217.117m-21.642-21.971q46.272-.013,92.541-.014l.214.344c-.048,27.956.023,55.914-.037,83.87-30.908.083-61.822,0-92.729.046q0-42.123.011-84.245" transform="translate(0 -177.985)" fill="#fdad24"/>
      <path id="Path_134795" data-name="Path 134795" d="M4694.318,2100.274c.221-.341.418-.911.939-.813,8.639,0,17.278.04,25.915-.017,1.073,1.672,1.947,3.462,2.986,5.157-4.467.112-8.939.017-13.406.049-6.3-.023-12.6.04-18.9-.02.865-1.429,1.667-2.889,2.462-4.355m4.888-8.885c5.87.08,11.74.029,17.61.029.791,1.377,1.607,2.74,2.32,4.163-7.379.026-14.758-.037-22.137.034a25.359,25.359,0,0,1,2.208-4.226m18.543-12.27a3.851,3.851,0,1,1,.169,7.5,3.817,3.817,0,0,1-2.886-4.836,4.086,4.086,0,0,1,2.717-2.66m-20.746-.249a3.85,3.85,0,1,1-1.512,7.242,3.859,3.859,0,0,1,1.512-7.242m2.11-22.146a10.767,10.767,0,0,1,2.746-.218c4.49.037,8.983-.031,13.47.031a7.6,7.6,0,0,1,6.752,4.785c.808,2.15.41,4.484.5,6.726-.049,1.294.272,2.772-.6,3.872a3.18,3.18,0,0,1-2.634.9c-7.07.014-14.143-.014-21.213.014-1.271-.023-2.794.3-3.756-.756-.856-.7-.8-1.887-.836-2.88.018-2.022-.166-4.046-.029-6.065a7.34,7.34,0,0,1,5.6-6.411m-5.715-3.413a11.526,11.526,0,0,0-4.541,9.283c0,7.832-.009,15.663.005,23.495a5.359,5.359,0,0,0,4.384,5.283c-2.929,5.183-5.678,10.466-8.553,15.677a3.353,3.353,0,0,0-.026,3.382q.584.361,1.154.759a8.779,8.779,0,0,0,1.755-.066c1.094-.447,1.6-1.595,2.205-2.526,12.106-.029,24.216.066,36.322-.046.733.847,1.131,2.076,2.213,2.563a9.439,9.439,0,0,0,2.053.049,5.316,5.316,0,0,0,1.357-1.592,3.276,3.276,0,0,0-.347-2.365c-2.849-5.3-5.847-10.52-8.659-15.841a5.47,5.47,0,0,0,4.292-4.977q.043-12.185,0-24.376a11.552,11.552,0,0,0-8.521-10.738,21.017,21.017,0,0,0-5.46-.369c-4.292.011-8.584-.029-12.877.023a10.862,10.862,0,0,0-6.758,2.382m-31.606-13.962q44.24,0,88.477,0c1.392.006,2.786.012,4.178-.054.2,5,.034,10.008.085,15.01-.014,23.085.034,46.173-.023,69.261-8.576.123-17.155.017-25.733.052H4661.79q-.039-42.131,0-84.268" transform="translate(-256.892 -177.871)" fill="#f35d4f"/>
      <path id="Path_134796" data-name="Path 134796" d="M5116.321,2048.235c-.043-3.007.1-6.019-.106-9.023-1.661.094-3.324.109-4.982.1q-37.523,0-75.042,0c-4.152-.046-8.312.109-12.462-.1a26.827,26.827,0,0,0-.186,5.011c-.029,26.4.054,52.807-.04,79.208,2.494.263,5.011.04,7.519.112q42.642-.013,85.285-.014Q5116.358,2085.878,5116.321,2048.235Zm-21.716,8.4c-1.515,4.621-4.808,8.364-8.212,11.72-1.973,1.938-4.017,3.8-5.976,5.753-.51.389-.171,1.062-.075,1.566.627,2.079,1.155,4.192,1.89,6.237.673-.375,1.5-.842,2.217-.255a19.942,19.942,0,0,0,1.872,1.91c.092.472.129.956.184,1.44-.894,1.042-2.454,1.8-2.431,3.353.584-.106,1.168-.195,1.758-.275a9.211,9.211,0,0,1,2.3,2.844c.2,1.523-1.7,2.07-2.162,3.333.542,2.537,1.589,4.948,2.125,7.488a1.8,1.8,0,0,1-.567,1.776c-.979.95-1.927,1.93-2.874,2.912-.6-.046-1.409.295-1.772-.352-2.514-4.226-4.813-8.579-7.233-12.86-.971-1.5-1.641-3.23-2.966-4.47-1.24-1.157-2.337-2.454-3.574-3.611-4.109,3.826-8.252,7.631-12.713,11.05-.3.261-.771.51-.676.985.292,3.636.55,7.276.985,10.9a2.971,2.971,0,0,1-.527,2.514c-.759.917-1.8,2.128-3.136,1.546a23.863,23.863,0,0,1-2.042-3.911c-.942-1.767-1.592-3.68-2.617-5.395-.191-.232-.4-.452-.593-.67-.811.037-1.618.086-2.425.06a2.205,2.205,0,0,1-1.569-1.432,5.4,5.4,0,0,1,.277-2.534,14.459,14.459,0,0,0-4.12-2.3c-1.443-.659-2.826-1.44-4.3-2.03a10.325,10.325,0,0,1-1.987-1.085c.083-.6-.109-1.331.369-1.8a7,7,0,0,1,1.965-1.712,14.131,14.131,0,0,1,3.63.046c3.15.338,6.314.538,9.467.847,3.757-4.567,7.534-9.12,11.648-13.378-1.363-1.377-2.734-2.749-4.074-4.146a13.394,13.394,0,0,0-3.339-2.1c-3.585-2.073-7.236-4.032-10.83-6.088a14.117,14.117,0,0,1-3.069-1.8c.083-.561-.111-1.251.324-1.7,1.022-1.1,2.107-2.136,3.175-3.19a7.445,7.445,0,0,1,1.9.109c2.256.687,4.513,1.44,6.813,1.959,1.051-.249,1.623-1.42,2.437-2.085a7.176,7.176,0,0,1,1.423.08,5.612,5.612,0,0,1,1.258,1.228l.065.117c.2.429.641.667.974.991.012.235.031.707.043.942-.152.2-.3.409-.444.618.484.011.971.026,1.461.037.031-.069.094-.206.126-.272a6.937,6.937,0,0,1,2.385-2c1.269-.057,1.959,1.171,2.8,1.913.123.123.366.369.486.492l.035.925q-.237.412-.461.833c.343.1.7.2,1.048.3,2.038.681,4.1,1.286,6.159,1.921,3.659-3.848,7.178-7.889,11.413-11.133a22.3,22.3,0,0,1,6.269-3.422,10.885,10.885,0,0,1,4.755-.418C5095.581,2052.35,5095.16,2054.781,5094.6,2056.634Z" transform="translate(-515.046 -177.807)" fill="#82e1bf"/>
      <path id="Path_134797" data-name="Path 134797" d="M5441.232,2102.461a2.732,2.732,0,0,1,3.968-2.379c1.028.355,1.346,1.449,1.65,2.379a3.158,3.158,0,0,1-2.127,2.74,2.756,2.756,0,0,1-3.491-2.74m-28.62,1.483a2.77,2.77,0,0,1,2.322-4.175,3.787,3.787,0,0,1,2.151.842,3.056,3.056,0,0,1,.131,3.562,2.746,2.746,0,0,1-4.6-.229m25.081-29.127a12.327,12.327,0,0,1,3.585-.246c1.46-.008,2.921-.006,4.381.031,1.527,1.939,2.835,4.035,4.307,6.016a2.927,2.927,0,0,1,.539,1.583,4.728,4.728,0,0,1-1.758.341c-3.465,0-6.926-.017-10.388.006-.258-.14-.51-.275-.759-.41a65.036,65.036,0,0,1,.094-7.322m-26.071,23.265a5.737,5.737,0,0,0-2.068,5.409,5.639,5.639,0,0,0,4.825,4.579,5.524,5.524,0,0,0,4.942-2.128,5.441,5.441,0,0,0,.985-4.833,5.509,5.509,0,0,0-3.663-3.834,6.141,6.141,0,0,0-5.022.807m31.171-.913a5.437,5.437,0,0,0-3.926,3.281,5.541,5.541,0,1,0,3.926-3.281m-45.737.017a16.672,16.672,0,0,0-.063,3.585.648.648,0,0,0,.75.684c3.282.072,6.569,0,9.853.037.075-.126.155-.252.241-.375a6.582,6.582,0,0,1,2.09-3.765c.006-.1.014-.307.017-.407-2.537.115-5.074.029-7.611.057a33.443,33.443,0,0,0-5.277.183m36.6-26.421a12.719,12.719,0,0,0-.154,3.058c-.006,7.711.02,15.422-.017,23.134-4.519.054-9.04.1-13.556-.017.026.094.075.283.1.378a7.781,7.781,0,0,1,2.273,4.184c4.813-.046,9.63,0,14.446-.02a7.351,7.351,0,0,1,8.324-6.156,7.473,7.473,0,0,1,5.747,4.573c.131.527.277,1.054.423,1.583,2.222-.006,4.447.009,6.675,0,.432-.029.942.046,1.269-.329a13.924,13.924,0,0,0,.006-3.963,15.662,15.662,0,0,0-2.921-.237c.009-4.072.02-8.144,0-12.213-.043-2.975-2.276-5.131-3.717-7.52-1.486-2.036-2.64-4.346-4.507-6.073a8.209,8.209,0,0,0-4.175-1.4c-3.084-.04-6.167-.006-9.249,0a7.974,7.974,0,0,0-.965,1.022m-34.579-4.467c.026,9.12.006,18.237.006,27.357.1.155.289.464.386.618,2.008.129,4.021.037,6.031.063,8.2-.017,16.4.037,24.594-.026.729.074.914-.7.864-1.277-.005-8.791.012-17.582-.011-26.372a2.973,2.973,0,0,0-1.907-2.419c-9.088-.066-18.18-.017-27.271-.026a3.037,3.037,0,0,0-2.692,2.082m-17.33-26.879c30.9-.014,61.793.037,92.689-.026.086,14.346.012,28.694.037,43.04-.023,13.753.043,27.506-.034,41.256q-46.358-.068-92.718-.02c-.034-15.746-.006-31.492-.014-47.235.025-12.338-.055-24.677.04-37.016" transform="translate(-770.674 -177.943)" fill="#0290b6"/>
    </g>
  </g>
</svg>
